<svg xmlns="http://www.w3.org/2000/svg" viewBox="0 0 145.77 145.77"><defs><style>.cls-1{fill:#c93f3f;}.cls-2{fill:#e5aab1;}.cls-3{fill:#fff;}</style></defs><g id="Layer_2" data-name="Layer 2"><g id="Layer_5" data-name="Layer 5"><circle class="cls-1" cx="72.88" cy="72.88" r="72.88"/><path class="cls-2" d="M105.66,120H40.11l32.77-61.2Zm-64.5-.63H104.6L72.88,60.1Z" transform="translate(0 -1.09)"/><path class="cls-2" d="M128.18,90.07H17.59l.38-.5L72.88,16.7l.25.33ZM18.85,89.44H126.91l-54-71.69Z" transform="translate(0 -1.09)"/><path class="cls-2" d="M72.88,81.16,38.42,29.25h68.92ZM39.6,29.88,72.88,80l33.29-50.14Z" transform="translate(0 -1.09)"/><path class="cls-2" d="M72.88,132.51l-.25-.33-55-73H128.18Zm-54-72.74,54,71.69,54-71.69Z" transform="translate(0 -1.09)"/><path class="cls-2" d="M72.88,90.23,57.17,71.6H88.59Zm-14.35-18,14.35,17,14.35-17Z" transform="translate(0 -1.09)"/><path class="cls-2" d="M109.07,101.77h-.45v-.63h.45Zm-1.21,0h-.46v-.63h.46Zm-1.22,0h-.45v-.63h.45Zm-1.21,0H105v-.63h.46Zm-1.21,0h-.46v-.63h.46Zm-1.22,0h-.45v-.63H103Zm-1.21,0h-.46v-.63h.46Zm-1.21,0h-.46v-.63h.46Zm-1.22,0h-.45v-.63h.45Zm-1.21,0h-.46v-.63h.46Zm-1.21,0h-.46v-.63h.46Zm-1.22,0h-.45v-.63h.45Zm-1.21,0h-.46v-.63h.46Zm-1.22,0h-.45v-.63h.45Zm-1.21,0h-.45v-.63h.45Zm-1.21,0h-.46v-.63h.46Zm-1.22,0H89.2v-.63h.45Zm-1.21,0H88v-.63h.45Zm-1.21,0h-.46v-.63h.46Zm-1.22,0h-.45v-.63H86Zm-1.21,0h-.45v-.63h.45Zm-1.21,0h-.46v-.63h.46Zm-1.22,0h-.45v-.63h.45Zm-1.21,0H80.7v-.63h.46Zm-1.21,0h-.46v-.63H80Zm-1.22,0h-.45v-.63h.45Zm-1.21,0h-.46v-.63h.46Zm-1.21,0h-.46v-.63h.46Zm-1.22,0h-.45v-.63h.45Zm-1.21,0h-.46v-.63h.46Zm-1.22,0h-.45v-.63h.45Zm-1.21,0H71v-.63h.45Zm-1.21,0h-.46v-.63h.46Zm-1.22,0h-.45v-.63H69Zm-1.21,0h-.45v-.63h.45Zm-1.21,0h-.46v-.63h.46Zm-1.22,0h-.45v-.63h.45Zm-1.21,0h-.46v-.63h.46Zm-1.21,0H62.5v-.63H63Zm-1.22,0h-.45v-.63h.45Zm-1.21,0h-.46v-.63h.46Zm-1.21,0h-.46v-.63h.46Zm-1.22,0h-.45v-.63h.45Zm-1.21,0h-.46v-.63h.46Zm-1.21,0h-.46v-.63h.46Zm-1.22,0H54v-.63h.45Zm-1.21,0h-.46v-.63h.46Zm-1.22,0h-.45v-.63H52Zm-1.21,0h-.45v-.63h.45Zm-1.21,0h-.46v-.63h.46Zm-1.22,0h-.45v-.63h.45Zm-1.21,0h-.45v-.63h.45Zm-1.21,0h-.46v-.63H46Zm-1.22,0H44.3v-.63h.45Zm-1.21,0h-.45v-.63h.45Zm-1.21,0h-.46v-.63h.46Zm-1.22,0h-.45v-.63h.45Zm-1.21,0h-.46v-.63h.46Zm-1.21,0h-.46v-.63h.46Zm-1.22,0H37v-.63h.45Zm-1.21,0h-.69l.45-.87.56.29-.21.41-.11-.06Zm73.07-.31-.21-.4.56-.29.21.4Zm-72.41-.94-.56-.29.21-.41.56.29Zm71.85-.13-.2-.41.56-.29.21.41Zm-71.29-1-.56-.29.21-.4.56.28Zm70.74-.13L108,98.9l.56-.29.21.41ZM38,98.36l-.56-.29.21-.4.56.29Zm69.63-.13-.2-.41.56-.29.21.41Zm-69.07-1L38,97l.21-.4.56.29Zm68.52-.13-.21-.41.56-.29.21.41Zm-68-1-.57-.29.21-.4.56.29Zm67.4-.13-.21-.4.57-.29.2.4ZM39.7,95.12l-.56-.29.21-.4.56.29ZM106,95l-.21-.4.56-.29.21.4ZM40.26,94l-.57-.29.21-.4.56.29Zm65.18-.13-.21-.4.57-.29.2.4ZM40.81,93l-.56-.29.21-.41.56.29Zm64.08-.14-.21-.4.56-.29.21.4Zm-63.52-.94-.56-.29.2-.41.57.29Zm63-.14-.21-.4.56-.29.21.4Zm-62.41-.94-.56-.29.21-.41.56.29Zm61.86-.14-.21-.4.56-.29.21.41Zm-61.3-.94-.56-.29.2-.41.57.29Zm60.74-.13-.21-.41.56-.29.21.41ZM43,88.65l-.56-.29.21-.4.56.29Zm59.63-.13-.2-.41.56-.29.21.41Zm-59.07-1L43,87.28l.21-.4.56.29Zm58.52-.13L101.9,87l.56-.29.21.41Zm-58-1-.56-.29.21-.4.56.29Zm57.41-.13-.2-.41.56-.28.21.4Zm-56.85-1-.56-.29.21-.4.56.29Zm56.3-.13-.21-.4.56-.29.21.4Zm-55.74-1L44.69,84l.21-.4.56.29Zm55.18-.13-.21-.4.57-.29.2.4Zm-54.63-1L45.25,83l.21-.41.56.29Zm54.08-.13-.21-.4.56-.29.21.4Zm-53.52-.94-.57-.29.21-.41.56.29Zm53-.14-.21-.4.57-.29.2.4ZM46.92,81.1l-.56-.29.21-.41.56.29ZM98.78,81l-.21-.4.56-.29.21.41ZM47.48,80l-.57-.29.21-.41.56.29Zm50.74-.13L98,79.48l.56-.29.21.41ZM48,78.94l-.56-.29.21-.41.56.29Zm49.64-.13-.21-.41.56-.29.21.41Zm-49.08-1L48,77.57l.2-.4.57.29Zm48.52-.13-.21-.41.56-.29.21.41Zm-48-1-.56-.29.21-.4.56.29Zm47.41-.13-.2-.41.56-.29.21.41Zm-46.85-1-.56-.29.2-.4.57.29ZM96,75.57l-.21-.4.56-.29.21.4Zm-45.75-.95-.56-.29.21-.4.56.29Zm45.19-.13-.2-.4.56-.29.21.4Zm-44.63-.95-.56-.29.21-.4.56.29Zm44.08-.13-.21-.4.56-.29.21.4Zm-43.53-1-.56-.28.21-.41.56.29Zm43-.13-.21-.4.57-.29.2.4Zm-42.41-.94-.56-.29.21-.41.56.29Zm41.86-.14-.21-.4.56-.29.21.4Zm-41.3-.94L51.91,70l.21-.41.56.29Zm40.74-.14-.21-.4.57-.29.2.41ZM53,69.23l-.56-.29.21-.41.56.29Zm39.64-.13-.21-.41L93,68.4l.21.41Zm-39.08-.95L53,67.86l.21-.4.56.28ZM92.11,68l-.21-.41.57-.29.2.41Zm-38-1-.56-.29.21-.4.56.29Zm37.42-.13-.21-.41.56-.29.21.41ZM54.7,66l-.57-.29.21-.4.56.29ZM91,65.86l-.21-.41.56-.28.21.4Zm-35.75-1-.56-.29.21-.4.56.29Zm35.2-.13-.21-.4.56-.29.21.4Zm-34.64-1-.56-.29.2-.4.57.29Zm34.08-.13-.21-.4.56-.29.21.4Zm-33.53-1-.56-.29.21-.4.56.29Zm33-.13-.2-.4.56-.29.21.4Zm-32.41-.94-.56-.29.2-.41.57.29Zm31.86-.14-.21-.4.56-.29.21.4ZM57.47,60.6l-.56-.29.21-.41.56.29Zm30.75-.14-.21-.4.57-.29.21.4ZM58,59.52l-.56-.29.21-.41.56.29Zm29.64-.13L87.46,59l.56-.29.21.41Zm-29.09-1L58,58.15l.21-.41.56.29Zm28.53-.13-.21-.41.57-.29.2.41Zm-28-1-.56-.29.21-.4.56.28Zm27.42-.13-.21-.41.56-.29.21.41ZM59.7,56.28,59.13,56l.21-.4.56.29ZM86,56.15l-.21-.41.57-.29.2.41ZM60.25,55.2l-.56-.29.21-.4.56.29Zm25.2-.13-.21-.4.56-.29.21.4Zm-24.64-1-.57-.29.21-.4.56.29ZM84.89,54l-.21-.4.56-.29.21.4ZM61.36,53l-.56-.29.21-.4.56.29Zm23-.13-.21-.4.56-.29.21.4ZM61.92,52l-.56-.28.2-.41.57.29Zm21.86-.13-.21-.4.56-.29.21.4Zm-21.31-.94-.56-.29.21-.41.56.29Zm20.75-.14-.2-.4.56-.29.21.4ZM63,49.81l-.56-.29.2-.41.57.29Zm19.64-.14-.21-.4L83,49l.21.41Zm-19.09-.94L63,48.44l.21-.41.56.29Zm18.53-.13-.2-.41.56-.29.21.41Zm-18-1-.56-.29.2-.4.57.28Zm17.42-.13-.21-.41.56-.29.21.41Zm-16.87-1-.56-.29.21-.4.56.29ZM81,46.44,80.79,46l.57-.29.2.41Zm-15.75-.95-.56-.29.21-.4.56.29Zm15.2-.13L80.24,45l.56-.28.21.4Zm-14.65-1-.56-.29.21-.4L66,44Zm14.09-.13-.21-.4.57-.29.2.4Zm-13.53-1L65.8,43l.21-.4.56.29Zm13-.13-.21-.4.56-.29.21.4Zm-12.42-1L66.35,42l.21-.4.56.29Zm11.86-.13-.21-.4.56-.29.21.4Zm-11.31-.95-.56-.28.21-.41.56.29ZM78.23,41l-.21-.4.56-.29.21.4ZM68,40.1l-.57-.29.21-.41.56.29ZM77.67,40l-.21-.4.56-.29.21.4ZM68.58,39,68,38.73l.21-.41.56.29Zm8.53-.13-.2-.41.56-.29.21.41Zm-8-1-.56-.29.2-.41.57.29Zm7.42-.13-.21-.41.56-.29.21.41Zm-6.87-1-.56-.29.21-.4.56.28ZM76,36.73l-.2-.41.56-.29.21.41Zm-5.75-.95-.56-.29.2-.4.57.29Zm5.2-.13-.21-.41L75.8,35l.21.4ZM70.8,34.7l-.56-.29.21-.4.56.29Zm4.09-.13-.21-.4.57-.29.2.4Zm-3.53-1-.56-.29.21-.4.56.29Zm3-.13-.21-.4.56-.29.21.4Zm-2.43-1-.56-.29.21-.4.56.29Zm1.87-.13-.21-.4.57-.29.2.4Zm-1.31-.95-.56-.29.21-.4.56.29Zm.76-.13-.21-.4.56-.29.21.4ZM73,30.39l-.3-.16,0,0,0-.06-.18-.09.42-.82.35.68-.18.1.11.06Z" transform="translate(0 -1.09)"/><path class="cls-2" d="M92.74,81h-.45v-.63h.26l-.15-.24.54-.33.24.39-.44.27Zm-1.21,0h-.46v-.63h.46Zm-1.22,0h-.45v-.63h.45ZM89.1,81h-.45v-.63h.45Zm-1.21,0h-.46v-.63h.46Zm-1.22,0h-.45v-.63h.45Zm-1.21,0H85v-.63h.45Zm-1.21,0h-.46v-.63h.46ZM83,81h-.45v-.63H83Zm-1.21,0h-.45v-.63h.45Zm-1.21,0h-.46v-.63h.46Zm-1.22,0h-.45v-.63h.45Zm-1.21,0h-.46v-.63h.46ZM77,81h-.46v-.63H77Zm-1.22,0H75.3v-.63h.45Zm-1.21,0h-.46v-.63h.46Zm-1.21,0h-.46v-.63h.46Zm-1.22,0h-.45v-.63h.45ZM70.9,81h-.46v-.63h.46Zm-1.21,0h-.46v-.63h.46Zm-1.22,0H68v-.63h.45Zm-1.21,0H66.8v-.63h.46ZM66,81h-.45v-.63H66Zm-1.21,0h-.45v-.63h.45Zm-1.21,0h-.46v-.63h.46ZM62.4,81H62v-.63h.45Zm-1.21,0h-.45v-.63h.45ZM60,81h-.46v-.63H60Zm-1.22,0h-.45v-.63h.45Zm-1.21,0H57.1v-.63h.45Zm-1.21,0h-.46v-.63h.46Zm-1.22,0h-.45v-.63h.45Zm-1.21,0h-.46v-.63h.46ZM52.7,81h-.61l.53-.87.54.33-.24.39-.24-.15Zm.86-1.19L53,79.46l.24-.38.54.33ZM92,79.46l-.23-.38.53-.33.24.38Zm-37.81-.7-.53-.33.23-.39.54.33Zm37.18-.33L91.13,78l.54-.33.24.39Zm-36.54-.7-.54-.33.24-.39.54.33Zm35.9-.33L90.5,77l.53-.33.24.38Zm-35.27-.71-.53-.33.23-.39.54.33Zm34.64-.33L89.86,76l.54-.33.24.39Zm-34-.7-.54-.33.24-.39.54.33Zm33.36-.33-.23-.39.53-.33L90,75Zm-32.73-.71-.53-.33.23-.38.54.33Zm32.1-.33-.24-.38.54-.33.24.38Zm-31.46-.7-.54-.33.24-.39.54.33Zm30.82-.33L88,72.87l.53-.33.24.39ZM58,72.56l-.54-.33.24-.39.53.33Zm29.55-.33-.24-.39.54-.33.24.38Zm-28.92-.71-.54-.33.24-.39.54.33Zm28.28-.33-.24-.39.54-.33.24.39Zm-27.64-.7-.54-.33.24-.39.53.33Zm27-.33-.24-.39.54-.33.24.39Zm-26.38-.71-.54-.33.24-.38.54.33Zm25.74-.33-.24-.38L86,68.4l.24.39Zm-25.1-.7L60,68.09l.24-.39.53.33ZM85,68.09l-.24-.39.54-.33.24.39Zm-23.84-.7-.54-.33.24-.39.54.33Zm23.2-.33-.24-.39.54-.33.24.38Zm-22.56-.71L61.28,66l.24-.39.53.33ZM83.75,66l-.24-.39.54-.33.24.39Zm-21.3-.7L61.91,65l.24-.39.54.33ZM83.11,65l-.24-.39.54-.33.24.39Zm-20-.71L62.55,64l.24-.38.53.33ZM82.48,64l-.24-.38.54-.34.24.39Zm-18.76-.7-.54-.33.24-.39.54.33Zm18.12-.33-.24-.39.54-.33.24.39Zm-17.48-.7-.54-.33.24-.39.54.33Zm16.85-.33L81,61.5l.54-.33.23.38ZM65,61.18l-.54-.33.24-.39.54.33Zm15.58-.33-.24-.39.54-.33.24.39Zm-14.94-.7-.54-.33.24-.39.54.33Zm14.31-.33-.24-.39.54-.33.23.39Zm-13.68-.71-.54-.33.24-.39.54.34Zm13-.33-.24-.38.54-.34.24.39Zm-12.4-.7-.54-.33.24-.39.54.33Zm11.77-.33-.24-.39L79,57l.23.39Zm-11.14-.7L67,56.71l.24-.38.54.33ZM78,56.72l-.24-.39.54-.33.24.38ZM68.17,56l-.54-.33.24-.39.54.33Zm9.23-.33-.24-.39L77.7,55l.23.39ZM68.8,55l-.54-.33.24-.39.54.33Zm8-.33-.24-.39.54-.33.24.39Zm-7.32-.71-.54-.33.24-.38.54.33Zm6.68-.33-.23-.38.54-.34.23.39Zm-6.05-.7-.54-.33.24-.39.54.33Zm5.42-.33-.24-.39.54-.33.24.39Zm-4.78-.7-.54-.34.24-.38.54.33Zm4.14-.33-.23-.39.53-.33.24.38Zm-3.51-.71-.53-.33.23-.39.54.33Zm2.88-.33L74,50.12l.54-.33.24.39ZM72,49.81l-.54-.33.24-.39.54.33Zm1.6-.33-.23-.39.53-.33.24.39Zm-1-.71-.53-.33.23-.38.54.33Zm.34-.33-.24-.38.54-.34.24.39Z" transform="translate(0 -1.09)"/><path class="cls-2" d="M72.54,119.61l-.21-.4.55-.29.22.4Zm.91-.41-.56-.29.21-.41.56.3ZM72,118.54l-.21-.4.56-.3.21.41Zm2-.41-.55-.3.21-.4.56.29Zm-2.6-.66-.21-.41.56-.29.21.4Zm3.17-.42-.56-.29.21-.4.56.29Zm-3.74-.66-.21-.4.56-.3.21.41Zm4.3-.41-.56-.3.22-.4.56.3Zm-4.86-.66-.21-.41.56-.29.21.4Zm5.43-.42-.56-.29.21-.4.56.29Zm-6-.66-.21-.4.56-.29.21.4Zm6.56-.41-.56-.29.22-.41.56.3Zm-7.12-.66-.21-.4.56-.3.21.41Zm7.69-.41-.56-.3.21-.4.56.29Zm-8.26-.66-.21-.41.56-.29.21.4Zm8.82-.42-.56-.29.22-.41.55.3ZM68,111l-.21-.4.56-.3.21.41Zm10-.41-.56-.3.21-.4.56.29ZM67.45,110l-.21-.41.56-.29.21.4Zm11.08-.42-.56-.29.21-.4.56.29Zm-11.64-.66-.21-.4.56-.29.21.4Zm12.21-.41-.56-.29.21-.41.56.3Zm-12.77-.66-.22-.4.56-.3.21.4Zm13.33-.42-.56-.29.21-.4.56.29Zm-13.9-.66-.21-.4.56-.29.21.4Zm14.47-.41-.56-.29.21-.41.56.3Zm-15-.66-.22-.4.56-.3.21.41Zm15.59-.41-.56-.3.21-.4.56.29Zm-16.16-.66-.21-.41.56-.29.21.4Zm16.73-.42-.56-.29.21-.4.56.29Zm-17.29-.66-.22-.4.56-.29.22.4Zm17.85-.41-.56-.3.21-.4.56.3Zm-18.42-.66-.21-.4.56-.3.21.4Zm19-.42-.56-.29.21-.4.56.29Zm-19.55-.66-.22-.4.56-.29.22.4Zm20.11-.41-.56-.29.21-.41.56.3Zm-20.68-.66-.21-.4.56-.3.21.41Zm21.24-.41-.55-.3.21-.4.56.29Zm-21.8-.66-.21-.41.55-.29.22.4Zm22.37-.42-.56-.29.21-.4.56.29Zm-22.94-.66-.21-.4.56-.29.21.4Zm23.5-.41-.56-.3.22-.4.56.3Zm-24.06-.66-.21-.41.55-.29.22.4Zm24.63-.42-.56-.29L85,96l.56.29ZM60.11,96l-.21-.4.56-.29.21.4Zm25.76-.41-.56-.29.22-.41.56.3Zm-26.32-.66-.21-.4.56-.3.21.41Zm26.89-.41-.56-.3.21-.4.56.29ZM59,93.84l-.21-.41.56-.29.21.4Zm28-.42-.56-.29.22-.41.56.3Zm-28.58-.66-.21-.4.56-.3.21.41Zm29.15-.41-.56-.3.21-.4.56.29Zm-29.72-.66-.21-.41L58.2,91l.21.4Zm30.28-.42L87.57,91l.21-.4.56.29Zm-30.84-.66-.21-.4.56-.29.21.4ZM88.7,90.2l-.56-.29.21-.41.56.3Zm-32-.66-.21-.4.56-.3.21.41Zm32.54-.42-.56-.29.21-.4.56.29Zm-33.1-.65L56,88.06l.56-.29.21.4Zm33.67-.42-.56-.29.21-.41.56.3Zm-34.24-.66-.21-.4.56-.3.21.41ZM90.39,87l-.56-.3.21-.4.56.29ZM55,86.32l-.21-.41.56-.29.21.4ZM91,85.9l-.56-.29.21-.4.56.29Zm-36.49-.66-.22-.4.56-.29L55,85Zm37.05-.41-.56-.3.21-.4.56.3ZM53.9,84.17l-.21-.4.56-.3.21.4Zm38.19-.42-.56-.29.21-.4.56.29Zm-38.75-.66-.22-.4.56-.29.21.4Zm39.31-.41-.56-.29L92.3,82l.56.3ZM52.77,82l-.21-.4.56-.3.21.41Zm40.44-.41-.55-.3.21-.4.56.29Zm-41-.66L52,80.54l.56-.29.22.4Zm41.57-.42-.56-.29.21-.4.56.29Zm-42.14-.66-.21-.4.56-.29.21.4Zm42.7-.41-.56-.3.22-.4.56.3ZM51.08,78.8l-.22-.4.56-.3.22.4Zm43.83-.42-.56-.29.21-.4.56.29Zm-44.4-.66-.21-.4.56-.29.21.4Zm45-.41L94.91,77l.22-.41.56.3ZM50,76.65l-.21-.4.55-.3.22.41ZM96,76.24l-.56-.3.21-.4.56.29Zm-46.66-.66-.21-.41.56-.29.21.4Zm47.22-.42L96,74.87l.22-.41.55.3ZM48.82,74.5l-.21-.4.56-.29.21.4Zm48.35-.41-.56-.3.21-.4.56.3Zm-48.92-.66L48,73l.56-.3.21.4ZM97.73,73l-.56-.29.21-.4.56.29Zm-50-.66-.21-.4.56-.29.21.4Zm50.61-.41-.56-.29.21-.41.56.3Zm-51.18-.66-.21-.4.56-.3.21.41Zm51.74-.41-.56-.3.21-.4.56.29Zm-52.3-.66-.21-.41.56-.29.21.4Zm52.87-.42-.56-.29.21-.41.56.3ZM46,69.13l-.21-.4.56-.3.21.41Zm54-.41-.56-.3.21-.4.56.29Zm-54.56-.66-.21-.41.56-.29.21.4Zm55.13-.42-.56-.29.21-.4.56.29ZM44.86,67l-.21-.4.56-.29.21.4Zm56.26-.41-.56-.3.21-.4.56.3ZM44.3,65.91l-.21-.4.56-.3.21.41Zm57.39-.42-.56-.29.21-.4.56.29Zm-58-.66-.21-.4.56-.29.21.4Zm58.52-.41-.56-.29.21-.41.56.3Zm-59.08-.66-.21-.4.56-.3.21.41Zm59.65-.41-.56-.3.21-.4.56.29Zm-60.21-.66-.22-.41L43,62l.21.4Zm60.77-.42-.56-.29.21-.4.56.29ZM42,61.61l-.21-.4.56-.29.21.4Zm61.9-.41-.56-.3.22-.4.56.3Zm-62.46-.66-.22-.4.56-.3.21.41Zm63-.42-.56-.29.21-.4.56.29Zm-63.6-.66-.21-.4.56-.29.21.4Zm64.16-.41-.56-.29.22-.41.56.3Zm-64.72-.66-.22-.4.56-.3.22.41ZM105.64,58l-.56-.3.21-.4.56.29Zm-65.86-.66-.21-.41.56-.29.21.4Zm66.42-.42-.56-.29.22-.41.55.3Zm-67-.66-.21-.4.55-.29.22.4Zm67.55-.41-.56-.3.21-.4.56.29Zm-68.12-.66-.21-.4.56-.3.21.4Zm68.68-.42-.56-.29.21-.4.56.29Zm-69.24-.66-.21-.4.55-.29.22.4Zm69.81-.41-.56-.29.21-.41.56.3ZM37.52,53l-.21-.4.56-.3.21.41Zm70.94-.42-.56-.29.21-.4.56.29ZM37,52l-.21-.41.55-.29.22.4ZM109,51.53l-.56-.29.21-.41.56.3Zm-72.64-.66-.21-.4.56-.29.21.4Zm73.2-.41-.56-.3.21-.4.56.29ZM35.83,49.8l-.21-.41.56-.29.21.4Zm74.33-.42-.56-.29.21-.4.56.29Zm-74.9-.66-.21-.4.47-.25H35.4v-.63h.46v.63h-.22l.18.36Zm75.46-.41-.56-.3.21-.4.28.15v-.32h.54Zm-.84-.24h-.45v-.63h.45Zm-1.21,0h-.46v-.63h.46Zm-1.22,0H107v-.63h.45Zm-1.21,0h-.45v-.63h.45Zm-1.21,0h-.46v-.63H105Zm-1.22,0h-.45v-.63h.45Zm-1.21,0h-.45v-.63h.45Zm-1.21,0h-.46v-.63h.46Zm-1.22,0h-.45v-.63h.45Zm-1.21,0h-.45v-.63H99Zm-1.21,0h-.46v-.63h.46Zm-1.22,0h-.45v-.63h.45Zm-1.21,0h-.46v-.63h.46Zm-1.21,0h-.46v-.63h.46Zm-1.22,0h-.45v-.63h.45Zm-1.21,0h-.46v-.63h.46Zm-1.21,0H90v-.63h.46Zm-1.22,0H88.8v-.63h.45Zm-1.21,0h-.46v-.63H88Zm-1.21,0h-.46v-.63h.46Zm-1.22,0h-.45v-.63h.45Zm-1.21,0h-.46v-.63h.46Zm-1.22,0h-.45v-.63h.45Zm-1.21,0h-.45v-.63H82Zm-1.21,0H80.3v-.63h.46Zm-1.22,0h-.45v-.63h.45Zm-1.21,0h-.45v-.63h.45Zm-1.21,0h-.46v-.63h.46Zm-1.22,0h-.45v-.63h.45Zm-1.21,0h-.45v-.63h.45Zm-1.21,0H73v-.63h.46Zm-1.22,0h-.45v-.63h.45Zm-1.21,0h-.46v-.63h.46Zm-1.21,0h-.46v-.63h.46Zm-1.22,0h-.45v-.63h.45Zm-1.21,0H67v-.63h.46Zm-1.21,0h-.46v-.63h.46Zm-1.22,0h-.45v-.63H65Zm-1.21,0h-.46v-.63h.46Zm-1.22,0H62.1v-.63h.45Zm-1.21,0h-.45v-.63h.45Zm-1.21,0h-.46v-.63h.46Zm-1.22,0h-.45v-.63h.45Zm-1.21,0h-.45v-.63h.45Zm-1.21,0H56v-.63h.46Zm-1.22,0h-.45v-.63h.45Zm-1.21,0h-.45v-.63h.45Zm-1.21,0h-.46v-.63h.46Zm-1.22,0h-.45v-.63h.45Zm-1.21,0H50v-.63h.46Zm-1.21,0h-.46v-.63h.46Zm-1.22,0h-.45v-.63H48Zm-1.21,0h-.46v-.63h.46Zm-1.21,0h-.46v-.63h.46Zm-1.22,0H43.9v-.63h.45Zm-1.21,0h-.46v-.63h.46Zm-1.22,0h-.45v-.63h.45Zm-1.21,0h-.45v-.63h.45Zm-1.21,0H39v-.63h.46Zm-1.22,0h-.45v-.63h.45Zm-1.21,0h-.45v-.63h.45Z" transform="translate(0 -1.09)"/><path class="cls-2" d="M72.89,102.13l-.44-.85L73,101l.16.31-.17.08.22.11Zm.67-1.31-.56-.29.21-.41.56.29Zm-1.46-.22-.21-.4.56-.29.21.4Zm2-.86-.56-.29.2-.41.57.29Zm-2.58-.22-.21-.4.57-.29.2.4Zm3.13-.86-.56-.29.21-.41.56.29ZM71,98.44l-.21-.4.56-.29.21.41Zm4.24-.86-.56-.29.2-.4.57.28Zm-4.8-.21L70.22,97l.57-.29.2.41Zm5.35-.87-.56-.29.21-.4.56.28Zm-5.9-.21-.21-.41.56-.29.21.41Zm6.46-.87-.56-.29.2-.4.57.29Zm-7-.21-.21-.41.57-.29.2.41Zm7.57-.87-.56-.29.21-.4.56.29Zm-8.12-.21-.21-.41.56-.28.21.4Zm8.68-.87L76.89,93l.2-.4.57.29Zm-9.24-.21L68,92.64l.57-.28.2.4ZM78,92.18l-.56-.29.21-.4.56.29ZM67.66,92l-.21-.4.56-.29.21.4Zm10.9-.87L78,90.82l.2-.41.57.29ZM67.1,90.89l-.21-.4.57-.29.2.4Zm12-.87-.56-.28.21-.41.56.29Zm-12.56-.21-.21-.4.56-.29.21.4ZM79.67,89l-.56-.29.2-.41.57.29ZM66,88.73l-.21-.4.56-.29.21.4Zm14.23-.86-.56-.29.21-.41.56.29Zm-14.78-.22-.21-.4.56-.29.21.41Zm15.34-.86-.56-.29.2-.41.57.29Zm-15.9-.21-.21-.41.56-.29.21.41Zm16.45-.87-.56-.29L81,85l.56.29Zm-17-.21-.21-.41.56-.29.21.41Zm17.56-.87-.56-.29.2-.4.57.28Zm-18.12-.21L63.56,84l.56-.29.21.41Zm18.67-.87-.56-.29.21-.4.56.29Zm-19.22-.21L63,82.93l.56-.29.21.41ZM83,82.47l-.56-.29.2-.4.57.29Zm-20.34-.21-.21-.41.56-.29.21.41Zm20.89-.87L83,81.1l.21-.4.56.29Zm-21.44-.21-.21-.4.56-.29.21.4Zm22-.87L83.55,80l.2-.4.57.29ZM61.55,80.1l-.21-.4.56-.29.21.4Zm23.11-.87-.56-.29.21-.4.56.29ZM61,79l-.2-.4.56-.29.21.4Zm24.23-.87-.56-.28.2-.41.57.29Zm-24.78-.21-.21-.4.56-.29.21.4Zm25.33-.86-.56-.29.21-.41.56.29Zm-25.89-.22-.2-.4.56-.29.21.4ZM86.33,76l-.56-.29L86,75.3l.56.29Zm-27-.22-.21-.4.56-.29.21.41Zm27.55-.86-.56-.29.21-.41.56.29Zm-28.11-.21-.2-.41.56-.29.21.41Zm28.67-.87-.56-.29.21-.41.56.29Zm-29.22-.21L58,73.22l.56-.29.21.41ZM88,72.76l-.56-.29.21-.41.56.29Zm-30.33-.21-.2-.41.56-.29.21.41Zm30.89-.87L88,71.39l.21-.4.56.28Zm-31.44-.21-.21-.41.56-.29.21.41Zm32-.87-.56-.29.21-.4.56.29Zm-32.55-.21-.2-.41.56-.28.21.4Zm33.11-.87-.56-.29.21-.4.56.29ZM56,69.31l-.21-.4.56-.29.21.4Zm34.21-.87-.56-.29.21-.4.56.29Zm-34.77-.21-.21-.4.57-.29.2.4Zm35.33-.87-.56-.29.21-.4L91,67Zm-35.88-.21-.21-.4.56-.29.21.4Zm36.43-.87-.45-.23H90.7v-.63h.46v.27l.37.19Zm-37-.21L54,65.42h.75v.19l0,0,.1.19-.14.08v.19h-.24V66Zm35.61,0h-.45v-.63h.45Zm-1.21,0h-.45v-.63h.45Zm-1.21,0h-.46v-.63h.46Zm-1.22,0h-.45v-.63h.45Zm-1.21,0h-.46v-.63h.46Zm-1.21,0h-.46v-.63h.46Zm-1.22,0h-.45v-.63h.45Zm-1.21,0H81v-.63h.46Zm-1.21,0h-.46v-.63h.46Zm-1.22,0h-.45v-.63H79Zm-1.21,0h-.46v-.63h.46Zm-1.21,0h-.46v-.63h.46Zm-1.22,0h-.45v-.63h.45Zm-1.21,0h-.46v-.63h.46Zm-1.22,0H72.5v-.63H73Zm-1.21,0h-.45v-.63h.45Zm-1.21,0h-.46v-.63h.46Zm-1.22,0h-.45v-.63h.45Zm-1.21,0h-.45v-.63h.45Zm-1.21,0h-.46v-.63h.46Zm-1.22,0h-.45v-.63h.45Zm-1.21,0H64v-.63h.46Zm-1.21,0h-.46v-.63h.46Zm-1.22,0h-.45v-.63H62Zm-1.21,0h-.46v-.63h.46Zm-1.21,0h-.46v-.63h.46Zm-1.22,0h-.45v-.63h.45Zm-1.21,0h-.46v-.63h.46Zm-1.21,0h-.46v-.63H56Z" transform="translate(0 -1.09)"/><path class="cls-2" d="M74.13,59.49a1.27,1.27,0,1,1-1.27-1.27A1.27,1.27,0,0,1,74.13,59.49Z" transform="translate(0 -1.09)"/><path class="cls-2" d="M74.13,80.63a1.27,1.27,0,1,1-1.27-1.27A1.27,1.27,0,0,1,74.13,80.63Z" transform="translate(0 -1.09)"/><path class="cls-2" d="M53.84,80.74a1.27,1.27,0,1,1-1.27-1.27A1.27,1.27,0,0,1,53.84,80.74Z" transform="translate(0 -1.09)"/><path class="cls-2" d="M94.46,80.73a1.27,1.27,0,1,1-1.27-1.27A1.27,1.27,0,0,1,94.46,80.73Z" transform="translate(0 -1.09)"/><path class="cls-2" d="M55.79,65.76a1.27,1.27,0,1,1-1.27-1.27A1.27,1.27,0,0,1,55.79,65.76Z" transform="translate(0 -1.09)"/><path class="cls-2" d="M92.51,65.7a1.27,1.27,0,1,1-1.27-1.27A1.27,1.27,0,0,1,92.51,65.7Z" transform="translate(0 -1.09)"/><path class="cls-2" d="M74.13,89.7a1.27,1.27,0,1,1-1.27-1.27A1.27,1.27,0,0,1,74.13,89.7Z" transform="translate(0 -1.09)"/><path class="cls-2" d="M74.13,101.48a1.27,1.27,0,1,1-1.27-1.27A1.27,1.27,0,0,1,74.13,101.48Z" transform="translate(0 -1.09)"/><path class="cls-2" d="M74.13,119.68a1.27,1.27,0,1,1-1.27-1.27A1.27,1.27,0,0,1,74.13,119.68Z" transform="translate(0 -1.09)"/><path class="cls-2" d="M74.14,29.59a1.27,1.27,0,1,1-1.27-1.27A1.27,1.27,0,0,1,74.14,29.59Z" transform="translate(0 -1.09)"/><path class="cls-2" d="M74.13,47.77a1.27,1.27,0,1,1-1.27-1.27A1.27,1.27,0,0,1,74.13,47.77Z" transform="translate(0 -1.09)"/><path class="cls-2" d="M64.85,29.61a1.27,1.27,0,1,1-1.27-1.27A1.27,1.27,0,0,1,64.85,29.61Z" transform="translate(0 -1.09)"/><path class="cls-2" d="M51.75,47.42a1.27,1.27,0,1,1-1.27-1.27A1.26,1.26,0,0,1,51.75,47.42Z" transform="translate(0 -1.09)"/><path class="cls-2" d="M36.41,47.74a1.27,1.27,0,1,1-1.27-1.27A1.27,1.27,0,0,1,36.41,47.74Z" transform="translate(0 -1.09)"/><path class="cls-2" d="M111.91,47.77a1.27,1.27,0,1,1-1.27-1.27A1.27,1.27,0,0,1,111.91,47.77Z" transform="translate(0 -1.09)"/><path class="cls-2" d="M30.9,74.65a1.27,1.27,0,1,1-1.27-1.27A1.27,1.27,0,0,1,30.9,74.65Z" transform="translate(0 -1.09)"/><path class="cls-2" d="M117.41,74.69a1.27,1.27,0,1,1-1.27-1.27A1.27,1.27,0,0,1,117.41,74.69Z" transform="translate(0 -1.09)"/><path class="cls-2" d="M42.48,59.42a1.27,1.27,0,1,1-1.27-1.27A1.27,1.27,0,0,1,42.48,59.42Z" transform="translate(0 -1.09)"/><path class="cls-2" d="M96.62,47.42a1.27,1.27,0,1,1-1.27-1.27A1.27,1.27,0,0,1,96.62,47.42Z" transform="translate(0 -1.09)"/><path class="cls-2" d="M105.82,59.42a1.27,1.27,0,1,1-1.27-1.27A1.27,1.27,0,0,1,105.82,59.42Z" transform="translate(0 -1.09)"/><path class="cls-2" d="M51.43,101.58a1.27,1.27,0,1,1-1.27-1.27A1.27,1.27,0,0,1,51.43,101.58Z" transform="translate(0 -1.09)"/><path class="cls-2" d="M96.88,101.61a1.27,1.27,0,1,1-1.27-1.27A1.27,1.27,0,0,1,96.88,101.61Z" transform="translate(0 -1.09)"/><path class="cls-2" d="M64.8,119.65a1.27,1.27,0,1,1-1.27-1.27A1.27,1.27,0,0,1,64.8,119.65Z" transform="translate(0 -1.09)"/><path class="cls-2" d="M83.48,119.68a1.27,1.27,0,1,1-1.27-1.27A1.27,1.27,0,0,1,83.48,119.68Z" transform="translate(0 -1.09)"/><path class="cls-2" d="M42.87,90a1.27,1.27,0,1,1-1.27-1.27A1.26,1.26,0,0,1,42.87,90Z" transform="translate(0 -1.09)"/><path class="cls-2" d="M37.44,101.42a1.27,1.27,0,1,1-1.27-1.27A1.27,1.27,0,0,1,37.44,101.42Z" transform="translate(0 -1.09)"/><path class="cls-2" d="M105.52,90a1.27,1.27,0,1,1-1.27-1.27A1.26,1.26,0,0,1,105.52,90Z" transform="translate(0 -1.09)"/><path class="cls-2" d="M111,101.48a1.27,1.27,0,1,1-1.27-1.27A1.27,1.27,0,0,1,111,101.48Z" transform="translate(0 -1.09)"/><path class="cls-2" d="M83.45,29.61a1.27,1.27,0,1,1-1.27-1.27A1.27,1.27,0,0,1,83.45,29.61Z" transform="translate(0 -1.09)"/><path class="cls-2" d="M74.13,17.24A1.27,1.27,0,1,1,72.86,16,1.27,1.27,0,0,1,74.13,17.24Z" transform="translate(0 -1.09)"/><path class="cls-3" d="M54.16,119.87a14.93,14.93,0,0,1-7.6-1.83,20.52,20.52,0,0,1-5.82-5.26c1.44.09,2.6.17,3.48.26s1.92.12,3.1.12a58.22,58.22,0,0,0,6.33-.38c2.36-.25,4.64-.55,6.84-.88a99.42,99.42,0,0,0,4.17-12.53q2-7.47,3.8-16T71.75,66.2q1.53-8.61,2.91-16.07T77.2,37.47a103.7,103.7,0,0,1-9.56,5.82A11.24,11.24,0,0,1,63,44.68a3.46,3.46,0,0,1-2.66-1.07c-.68-.72-1-2.09-1-4.12A71.18,71.18,0,0,0,66.63,35q4.74-3.22,10.44-7.72T88,17.85a4.18,4.18,0,0,1,1.26,2.09,10.37,10.37,0,0,1,.38,2.84,19,19,0,0,1-1.07,6.08,42.07,42.07,0,0,0-1.71,7.6Q85.55,44.8,84,54.11t-3.67,19q-2.1,9.75-4.94,19.31a162,162,0,0,1-6.64,18.29c.75-.09,1.47-.15,2.15-.19s1.43-.07,2.28-.07a20.32,20.32,0,0,1,8.54,1.71q3.74,1.71,5,7.28-3.16-.37-6.14-.57c-2-.12-3.82-.19-5.51-.19-2.44,0-5,.09-7.72.26s-5.23.35-7.59.57S55.51,119.87,54.16,119.87Z" transform="translate(0 -1.09)"/></g></g></svg>