<svg xmlns="http://www.w3.org/2000/svg" viewBox="0 0 145.77 145.77"><defs><style>.cls-1{fill:#c93f3f;}.cls-2{fill:#e5aab1;}.cls-3{fill:#fff;}</style></defs><g id="Layer_2" data-name="Layer 2"><g id="Layer_5" data-name="Layer 5"><circle class="cls-1" cx="72.88" cy="72.88" r="72.88"/><path class="cls-2" d="M119.49,68.88H24.58v-.25a47.46,47.46,0,1,1,94.91,0Zm-94.41-.5H119a47,47,0,0,0-93.91,0Z" transform="translate(0 -1.72)"/><path class="cls-2" d="M119.49,68.88H24.58v-.25a47.46,47.46,0,1,1,94.91,0Zm-94.41-.5H119a47,47,0,0,0-93.91,0Z" transform="translate(0 -1.72)"/><path class="cls-2" d="M73.31,89.62H73v-.48h.33Zm0-1.44H73V87.7h.33Zm0-1.44H73v-.48h.33Zm0-1.44H73v-.48h.33Zm0-1.43H73v-.48h.33Zm0-1.44H73V82h.33Zm0-1.44H73v-.48h.33Zm0-1.44H73v-.48h.33Zm0-1.44H73v-.48h.33Zm0-1.44H73v-.48h.33Zm0-1.44H73v-.48h.33Zm0-1.44H73v-.48h.33Zm0-1.44H73v-.48h.33Zm0-1.44H73v-.48h.33Zm0-1.44H73V69h.33Zm0-1.44H73v-.48h.33Zm0-1.44H73v-.48h.33Zm0-1.44H73v-.48h.33Zm0-1.44H73v-.48h.33Zm0-1.44H73v-.48h.33Zm0-1.44H73v-.48h.33Zm0-1.44H73v-.48h.33Z" transform="translate(0 -1.72)"/><path class="cls-2" d="M18.9,74.81v-.33h.36v.33Zm1.32,0v-.33h.48v.33Zm1.44,0v-.33h.48v.33Zm1.44,0v-.33h.48v.33Zm1.44,0v-.34H25v.34Zm1.44,0v-.34h.48v.34Zm1.44,0v-.34h.48v.34Zm1.44,0v-.34h.48v.33Zm1.44,0v-.33h.48v.33Zm1.44,0v-.33h.48v.33Zm1.44,0v-.33h.48v.33Zm1.44,0v-.33h.48v.33Zm1.44,0v-.33h.48v.33Zm1.44,0v-.33H38v.33Zm1.44,0v-.33h.48v.33Zm1.44,0v-.33h.47v.33Zm1.43,0v-.34h.48v.34Zm1.44,0v-.34h.48v.34Zm1.44,0v-.34h.48v.34Zm1.44,0v-.34h.48v.33Zm1.44,0v-.33h.48v.33Zm1.44,0v-.33h.48v.33Zm1.44,0v-.33h.48v.33Zm1.44,0v-.33h.48v.33Zm1.44,0v-.33h.48v.33Zm1.44,0v-.33h.48v.33Zm1.44,0v-.33h.48v.33Zm1.44,0v-.33h.48v.33Zm1.44,0v-.33h.48v.34Zm1.44,0v-.34H61v.34Zm1.44,0v-.34h.48v.34Zm1.44,0v-.34h.48v.34Zm1.44,0v-.33h.48v.33Zm1.44,0v-.33h.48v.33Zm1.44,0v-.33h.47v.33Zm1.43,0v-.33h.48v.33Zm1.44,0v-.33h.48v.33Zm1.44,0v-.33h.48v.33Zm1.44,0v-.33H74v.33Zm1.44,0v-.33h.48v.33Zm1.44,0v-.33h.48v.34Zm1.44,0v-.34h.48v.34Zm1.44,0v-.34h.48v.34Zm1.44,0v-.34h.48v.34Zm1.44,0v-.33h.48v.33Zm1.44,0v-.33H84v.33Zm1.44,0v-.33h.48v.33Zm1.44,0v-.33h.48v.33Zm1.44,0v-.33h.48v.33Zm1.44,0v-.33h.48v.33Zm1.44,0v-.33h.48v.33Zm1.44,0v-.33h.48v.33Zm1.44,0v-.33h.48v.33Zm1.43,0v-.34h.48v.34Zm1.44,0v-.34H97v.34Zm1.44,0v-.34h.48v.34Zm1.44,0v-.34h.48v.34Zm1.44,0v-.33h.48v.33Zm1.44,0v-.33h.48v.33Zm1.44,0v-.33h.48v.33Zm1.44,0v-.33h.48v.33Zm1.44,0v-.33h.48v.33Zm1.44,0v-.33h.48v.33Zm1.44,0v-.33H110v.33Zm1.44,0v-.33h.48v.33Zm1.44,0v-.34h.48v.34Zm1.44,0v-.34h.48v.34Zm1.44,0v-.34h.48v.34Zm1.44,0v-.34h.48v.34Zm1.44,0v-.33h.48v.33Zm1.44,0v-.33H120v.33Zm1.44,0v-.33h.48v.33Zm1.43,0v-.33h.48v.33Zm1.44,0v-.33h.48v.33Zm1.44,0v-.33h.48v.33Zm1.44,0v-.33h.48v.33Z" transform="translate(0 -1.72)"/><path class="cls-2" d="M73.14,90.55h-.39v-.33h.47v.33h-.09Zm1.06,0V90.2l.47,0,0,.34Zm-2.41,0-.48,0v-.33l.48,0Zm3.85-.06,0-.34.47,0,0,.34Zm-5.3,0-.48,0,0-.34.47,0Zm6.74-.12L77,90l.47-.06,0,.33Zm-8.17,0-.48-.07,0-.33.47.07Zm9.6-.17-.05-.33.47-.08L79,90Zm-11,0L67,90l.07-.33.47.09Zm12.45-.23-.07-.32.47-.11.07.33Zm-13.87-.06-.47-.11.08-.33.46.11Zm15.28-.28-.09-.32.46-.13.09.32ZM64.66,89.4l-.47-.13.1-.32.46.13Zm18.07-.32-.1-.32.45-.15.11.32ZM63.27,89l-.46-.15.11-.32.46.16Zm20.83-.37L84,88.3l.45-.17.12.31ZM61.9,88.5l-.45-.18.13-.31.44.18Zm23.54-.42-.13-.31.44-.19.13.31ZM60.56,88l-.44-.19.14-.31.43.2Zm26.19-.46-.14-.3L87,87l.15.3Zm-27.51-.15-.43-.21.15-.3.43.21ZM88,86.83l-.16-.29.42-.23.16.3ZM58,86.68l-.43-.24.17-.29.42.23Zm31.34-.56-.17-.28.41-.25.17.29ZM56.7,86l-.41-.25.18-.29.41.26Zm33.82-.59-.18-.28.39-.26.19.27Zm-35-.19-.4-.27.19-.28.4.27Zm36.23-.63-.2-.27L91.9,84l.2.26ZM54.3,84.33,53.92,84l.2-.26.38.28Zm38.56-.67-.21-.26.37-.3.21.26Zm-39.7-.22-.37-.31.21-.25.37.3ZM94,82.74l-.22-.26.36-.31.22.25ZM52.06,82.5l-.36-.32.23-.25.35.32Zm43-.74-.23-.24.34-.33.23.23C95.27,81.54,95.15,81.65,95,81.76Zm-44-.25c-.11-.11-.23-.22-.34-.34l.24-.23.34.33Zm45.06-.78-.24-.23.32-.34.25.22ZM50,80.48l-.32-.36.24-.22.33.35Zm47-.82-.25-.21c.1-.12.21-.24.31-.37l.25.22ZM49,79.4c-.1-.13-.21-.25-.31-.37l.26-.21.31.36ZM98,78.55l-.27-.21L98,78l.26.2Zm-49.84-.28c-.1-.12-.19-.25-.29-.38l.26-.2c.1.13.2.25.29.38Zm50.71-.87-.27-.2.28-.39.27.19Zm-51.57-.29L47,76.72l.27-.19.27.39Zm52.39-.91L99.37,76l.26-.4.28.18Zm-53.19-.29-.26-.4.28-.18.26.4Zm54-.94-.28-.17.24-.41.28.16C100.58,74.69,100.49,74.83,100.41,75Zm-54.7-.29-.24-.42.29-.16.24.41Zm55.41-1-.29-.16c.07-.14.14-.28.22-.42l.29.15ZM45,73.41c-.08-.14-.15-.28-.22-.43l.3-.15.21.43Zm56.75-1-.3-.14.2-.44.3.14C101.91,72.12,101.84,72.27,101.77,72.41Zm-57.39-.29c-.06-.15-.13-.3-.19-.44l.3-.14.2.44Zm58-1-.31-.12.18-.45.31.13Zm-58.55-.29-.18-.45.32-.12c0,.15.11.3.17.45Zm59.08-1.06-.32-.11c.06-.15.11-.3.16-.45l.32.11ZM43.3,69.44c0-.15-.11-.3-.16-.46l.32-.1.15.45Zm60.05-1.08-.32-.1c0-.15.1-.31.14-.46l.32.1C103.45,68.05,103.4,68.2,103.35,68.36Zm-60.5-.3c-.05-.15-.09-.3-.14-.46l.33-.09c0,.15.08.3.13.46ZM103.75,67l-.32-.09.12-.46.32.08Zm-61.29-.3c0-.16-.07-.31-.11-.47l.32-.08.12.47Zm61.63-1.11-.33-.07c0-.16.06-.31.1-.47l.32.07Zm-61.95-.3-.09-.47.33-.07.09.47Zm62.21-1.12-.32-.06c0-.15,0-.31.07-.47l.33,0C104.41,63.82,104.38,64,104.35,64.14Zm-62.46-.31c0-.15,0-.31-.07-.47l.33,0c0,.16,0,.32.07.47Zm62.67-1.12-.33,0c0-.16,0-.32,0-.48l.33,0C104.6,62.39,104.58,62.55,104.56,62.71ZM41.7,62.4c0-.16,0-.32-.05-.48l.33,0c0,.16,0,.32.05.47Zm63-1.13-.33,0,0-.47.33,0ZM41.57,61c0-.16,0-.32,0-.48l.33,0c0,.16,0,.32,0,.48Zm63.2-1.14h-.33c0-.16,0-.31,0-.47h.33C104.78,59.5,104.78,59.66,104.77,59.82Zm-63.26-.31V59h.33c0,.16,0,.32,0,.48Zm.33-.59h-.33v-.49h.33Zm62.61-.54c0-.16,0-.32,0-.48h.34c0,.16,0,.32,0,.49Zm-62.58-.9h-.33l0-.48.33,0ZM104.39,57l0-.47.33,0,0,.48ZM42,56.06l-.33,0c0-.16,0-.32,0-.48l.33,0C42,55.74,42,55.9,42,56.06Zm62.3-.54-.06-.47.34,0c0,.16,0,.32,0,.48Zm-62.14-.89-.33,0c0-.16.05-.32.07-.48l.33,0C42.18,54.32,42.15,54.48,42.13,54.63Zm62-.52c0-.16,0-.32-.07-.48l.33-.05c0,.16,0,.32.07.47Zm-61.72-.89L42,53.16l.09-.47.33.06Zm61.47-.52c0-.16-.06-.32-.1-.47l.33-.07c0,.16.07.31.1.47Zm-61.18-.88-.33-.08.12-.47.32.09C42.72,51.51,42.68,51.66,42.65,51.82Zm60.87-.52-.12-.46.32-.09.12.47ZM43,50.43l-.32-.09c0-.15.09-.31.14-.46l.32.09C43.09,50.13,43.05,50.28,43,50.43Zm60.14-.51c0-.15-.09-.3-.14-.46l.32-.1c0,.16.09.31.14.46Zm-59.72-.86-.31-.1.15-.46.32.11C43.52,48.76,43.47,48.91,43.42,49.06Zm59.28-.5c-.06-.15-.11-.3-.16-.45l.31-.12c.05.16.11.31.16.46Zm-58.79-.85-.32-.12.18-.45.31.13C44,47.41,44,47.56,43.91,47.71Zm58.28-.49-.18-.44.31-.13.18.44Zm-57.74-.84-.3-.13c.06-.15.13-.29.19-.44l.31.14C44.58,46.09,44.51,46.24,44.45,46.38Zm57.18-.47c-.07-.15-.13-.29-.2-.43l.3-.15c.07.15.14.29.2.44Zm-56.57-.83-.3-.14L45,44.5l.3.16Zm56-.46-.23-.42.3-.15.22.42Zm-55.29-.81-.29-.16.23-.42.29.16C45.88,43.53,45.8,43.67,45.72,43.81Zm54.6-.44a3.38,3.38,0,0,0-.24-.41l.29-.17.24.41Zm-53.88-.8-.28-.17.25-.41.28.18Zm53.15-.42-.26-.4.27-.19.27.41Zm-52.37-.78-.28-.19c.09-.13.18-.27.28-.4l.27.19ZM98.79,41l-.27-.39.26-.2c.1.13.19.27.28.4ZM48.05,40.2l-.27-.2.29-.38.27.2C48.24,40,48.14,40.07,48.05,40.2Zm49.89-.39c-.09-.13-.19-.25-.29-.38l.26-.21.3.38Zm-49-.74-.26-.21c.11-.12.21-.25.31-.37l.26.22ZM97,38.69l-.31-.36.25-.22.32.37ZM49.87,38l-.25-.23.32-.35.25.22Zm46.22-.37-.32-.34.24-.23.33.35Zm-45.24-.68-.24-.23.34-.34.23.24ZM95.1,36.6l-.34-.33L95,36l.35.34ZM51.87,36l-.22-.25.35-.32.23.25Zm42.19-.33-.36-.32.22-.25.36.32ZM53,35l-.22-.26.37-.3.21.25Zm40-.32-.37-.3.2-.26.38.31ZM54.06,34.1l-.2-.26.38-.29.2.26Zm37.78-.3-.39-.28.2-.27.39.29Zm-36.63-.55L55,33l.4-.27.18.27ZM90.67,33c-.13-.09-.26-.18-.4-.26l.19-.28.4.27ZM56.4,32.46l-.18-.28.41-.25.17.28Zm33.07-.26L89.06,32l.17-.29.41.25Zm-31.85-.48-.16-.29.42-.23.16.29Zm30.61-.24-.42-.23L88,31l.43.23ZM58.88,31l-.15-.29.43-.22.14.3ZM87,30.81l-.44-.21.15-.3.43.21Zm-26.8-.39-.13-.3.43-.2.14.31Zm25.49-.21L85.21,30l.13-.31.45.19Zm-24.18-.35-.12-.31.45-.18.12.31Zm22.85-.19-.44-.17.11-.31.45.16Zm-21.51-.31L62.7,29l.46-.15.11.31ZM83,29.18,82.52,29l.1-.32.46.15Zm-18.79-.27-.1-.31.46-.14.09.32Zm17.42-.14-.46-.13.09-.32.46.12Zm-16-.23-.08-.33L66,28.1l.07.32Zm14.65-.13-.46-.1.07-.33.47.11ZM67,28.22l-.06-.32.47-.1.06.33Zm11.86-.1L78.34,28l.06-.33.47.08ZM68.36,28l0-.33.48-.07,0,.33Zm9-.07-.47-.06,0-.33a3.93,3.93,0,0,1,.48.06Zm-7.62-.11,0-.33.48-.05,0,.33Zm6.2-.05-.48,0,0-.33.48,0Zm-4.77-.07,0-.33.48,0,0,.33Zm3.34,0-.48,0v-.33l.48,0Zm-1.91,0v-.33h.49v.33Z" transform="translate(0 -1.72)"/><path class="cls-2" d="M73.23,122h-.48v-.33h.48Zm1,0v-.34l.47,0,0,.34Zm-2.41,0-.48,0v-.33l.48,0Zm3.85-.06,0-.34.47,0,0,.34Zm-5.3,0-.48-.05,0-.33.47,0Zm6.74-.12,0-.33.47-.06,0,.33Zm-8.17,0-.48-.07,0-.32.47.06Zm9.6-.17-.05-.33.47-.08.06.33Zm-11,0-.48-.09.07-.33.47.09Zm12.45-.23-.07-.32.47-.11.07.33Zm-13.87-.06-.47-.11.08-.33.46.11ZM81.34,121l-.09-.32.46-.13.09.32Zm-16.68-.08-.47-.13.1-.32.46.13Zm18.07-.32-.1-.32.45-.15.11.32Zm-19.46-.1-.46-.15.11-.32.46.16Zm20.83-.37-.12-.31.45-.17.12.31ZM61.9,120l-.45-.18.13-.31.44.18Zm23.54-.42-.13-.31.43-.19.14.31Zm-24.88-.13-.44-.19.13-.31.44.2ZM86.75,119l-.14-.3.43-.21.15.3Zm-27.51-.15-.43-.21.15-.3.43.21Zm28.8-.5-.16-.3.42-.23.16.3ZM58,118.15l-.43-.24.17-.29.42.23Zm31.34-.55-.17-.29.41-.25.17.29Zm-32.6-.18-.41-.25.18-.29.41.26Zm33.82-.59-.18-.28.39-.26.19.27Zm-35-.19-.4-.27.19-.28.4.27ZM91.71,116l-.2-.27.39-.28.2.26ZM54.3,115.8l-.38-.29.2-.26.38.28Zm38.56-.67-.21-.26.37-.3.21.26Zm-39.7-.22-.37-.31.21-.25.37.3Zm40.81-.7-.22-.25.36-.32.22.25ZM52.06,114l-.36-.32.23-.25.35.32Zm43-.74-.23-.24.34-.33.23.23C95.27,113,95.15,113.12,95,113.23ZM51,113c-.11-.11-.23-.22-.34-.34l.24-.23.34.33Zm45.06-.77-.24-.23c.11-.12.21-.24.32-.35l.25.22ZM50,112l-.32-.36.24-.22.33.35Zm47-.82-.25-.21.31-.37.25.22Zm-48-.26c-.1-.13-.21-.25-.31-.37l.26-.21.3.36ZM98,110l-.27-.21.3-.37.26.2Zm-49.84-.28c-.1-.12-.2-.25-.29-.38l.26-.2.29.38Zm50.71-.87-.27-.2.27-.39.28.19Zm-51.57-.29-.27-.39.27-.19.27.39Zm52.39-.91-.28-.18.26-.4.28.18Zm-53.19-.29-.26-.4.28-.18.26.4Zm54-.94-.28-.17.24-.41.29.16Zm-54.7-.29-.24-.42.29-.16L46,106Zm55.41-1-.29-.16c.07-.14.14-.28.22-.42l.29.15Zm-56.1-.3c-.08-.14-.15-.28-.22-.43l.3-.15.21.43Zm56.75-1-.3-.14.2-.44.3.14C101.91,103.59,101.84,103.74,101.77,103.88Zm-57.39-.3-.19-.43.3-.14.2.44Zm58-1-.31-.12.18-.45.31.13Zm-58.55-.29-.18-.45.32-.12c0,.15.11.3.17.45Zm59.08-1.06-.32-.11c.06-.15.11-.3.16-.45l.32.11Zm-59.59-.29-.16-.46.32-.1.15.45Zm60.05-1.08-.32-.1c0-.15.1-.31.14-.46l.32.1C103.45,99.52,103.4,99.67,103.35,99.83Zm-60.5-.3c-.05-.15-.09-.3-.14-.46L43,99c0,.15.09.31.14.46Zm60.9-1.09-.32-.09.12-.46.32.08Zm-61.29-.3c0-.16-.07-.31-.11-.47l.32-.08.12.47ZM104.09,97l-.33-.07c0-.15.06-.31.1-.47l.32.07Zm-61.95-.3-.09-.47.33-.07.09.47Zm62.21-1.12-.32-.06c0-.15,0-.31.07-.47l.33,0C104.41,95.29,104.38,95.45,104.35,95.61ZM41.89,95.3c0-.15,0-.31-.07-.47l.33,0c0,.16,0,.32.07.47Zm62.67-1.12-.33,0c0-.16,0-.32,0-.48l.33,0C104.6,93.86,104.58,94,104.56,94.18ZM41.7,93.87c0-.16,0-.32-.05-.48l.33,0c0,.16,0,.32.05.47Zm63-1.13-.33,0,0-.47.33,0Zm-63.13-.31c0-.16,0-.32,0-.48l.33,0,0,.48Zm63.2-1.14h-.33c0-.16,0-.32,0-.47h.33C104.78,91,104.78,91.13,104.77,91.29ZM41.51,91V90.5h.33c0,.16,0,.32,0,.48Zm.33-.59h-.33V89.9h.33Zm62.61-.54c0-.16,0-.32,0-.48h.34c0,.16,0,.33,0,.49ZM41.87,89l-.33,0,0-.48.33,0Zm62.52-.54,0-.47.33,0,0,.48ZM42,87.53l-.33,0c0-.16,0-.32,0-.48l.33,0C42,87.21,42,87.37,42,87.53Zm62.3-.53-.06-.48.34,0c0,.16,0,.32,0,.48Zm-62.14-.9-.33,0c0-.16.05-.32.07-.48l.33,0C42.18,85.79,42.15,86,42.13,86.1Zm62-.52c0-.16,0-.32-.07-.48l.33,0c0,.16,0,.32.07.48Zm-61.72-.89L42,84.63l.09-.47.33.06Zm61.47-.52-.09-.47.32-.07c0,.16.07.31.1.47Zm-61.18-.88-.33-.08.12-.46.32.08C42.72,83,42.68,83.13,42.65,83.29Zm60.87-.52-.12-.46.32-.09.12.47ZM43,81.9l-.32-.09c0-.15.09-.31.14-.46l.32.09C43.09,81.6,43.05,81.75,43,81.9Zm60.14-.51c0-.15-.09-.3-.14-.46l.32-.1c0,.16.09.31.14.46Zm-59.72-.86-.31-.1.15-.46.32.11C43.52,80.23,43.47,80.38,43.42,80.53ZM102.7,80c-.06-.15-.11-.3-.16-.45l.31-.12c.05.16.11.31.16.46Zm-58.79-.85-.32-.12.18-.45.31.13C44,78.88,44,79,43.91,79.18Zm58.28-.49-.18-.44.31-.13.18.44Zm-57.74-.84-.3-.13c.06-.15.13-.29.19-.44l.31.14C44.58,77.56,44.51,77.71,44.45,77.85Zm57.18-.47c-.07-.15-.13-.29-.2-.43l.3-.15c.07.15.14.29.2.44Zm-56.57-.83-.3-.14L45,76l.3.16Zm56-.46-.23-.42.3-.15.22.42Zm-55.29-.81-.29-.16.23-.42.29.16Zm54.6-.44a3.38,3.38,0,0,0-.24-.41l.29-.17.24.41ZM46.44,74l-.28-.17.25-.41.28.18Zm53.15-.42-.26-.4.28-.19c.08.14.17.27.26.41Zm-52.37-.78-.28-.19c.09-.13.18-.27.28-.4l.27.19Zm51.57-.41L98.52,72l.26-.2c.1.13.19.27.28.4Zm-50.74-.76-.27-.2.29-.38.27.2C48.24,71.42,48.14,71.54,48.05,71.67Zm49.89-.39c-.09-.13-.19-.25-.29-.38l.26-.21.3.38Zm-49-.74-.26-.21c.11-.12.21-.25.31-.37l.26.22ZM97,70.16l-.31-.36.25-.22.32.37Zm-47.17-.7-.25-.23.32-.35.25.22Zm46.23-.37-.33-.34.24-.23.33.35Zm-45.25-.68-.24-.23.34-.34.23.24Zm44.25-.34-.34-.33.23-.25c.11.12.23.23.34.34Zm-43.23-.65-.22-.25.35-.32.23.25Zm42.19-.33-.36-.32.22-.25.36.32ZM53,66.47l-.22-.25.37-.31.21.25Zm40-.32-.37-.3.2-.26.38.31Zm-38.91-.58-.2-.26.38-.29.2.26Zm37.78-.3L91.45,65l.2-.27L92,65Zm-36.63-.55L55,64.45l.4-.27.18.27Zm35.46-.28-.4-.26.19-.28.4.27ZM56.4,63.93l-.18-.28.41-.25.17.28Zm33.07-.26-.41-.25.17-.29.41.25Zm-31.85-.48-.16-.29.42-.23L58,63ZM88.23,63l-.42-.23.15-.3.43.23Zm-29.35-.44-.15-.29.43-.22.14.3ZM87,62.28l-.44-.2.15-.31.43.21Zm-26.8-.39-.13-.3.43-.2.14.31Zm25.49-.21-.44-.19.13-.31.45.19Zm-24.18-.35L61.35,61l.45-.18.12.31Zm22.85-.19L83.88,61l.11-.31.45.16Zm-21.51-.31-.11-.32.46-.15.11.31ZM83,60.65l-.45-.14.1-.32.46.15Zm-18.79-.27-.1-.31.46-.14.09.32Zm17.42-.14-.46-.13.09-.32.46.13Zm-16-.23-.08-.33.47-.11.07.33Zm14.65-.13-.46-.1.07-.33.47.11ZM67,59.69l-.06-.32a3.89,3.89,0,0,1,.47-.09l.06.32Zm11.86-.1-.47-.08.06-.33.47.08Zm-10.45-.15,0-.33.48-.06,0,.33Zm9-.07-.47-.06L77,59l.48.06Zm-7.62-.11,0-.33.48,0,0,.33Zm6.2,0-.48,0,0-.33.48,0Zm-4.77-.07,0-.33.48,0,0,.33Zm3.34,0-.48,0v-.33l.48,0Zm-1.91,0v-.33h.49v.33Z" transform="translate(0 -1.72)"/><path class="cls-2" d="M73.42,90.55v-.33l.48,0v.34Zm-1,0-.48,0,0-.33.48,0Zm2.42-.08,0-.33.48-.06,0,.33Zm-3.87,0-.48-.07.06-.33.47.07Zm5.31-.17-.07-.33.47-.1.07.33Zm-6.74-.09L69.1,90l.09-.32.46.12Zm8.15-.26-.1-.32.45-.15.11.32Zm-9.55-.13-.46-.16.12-.31.45.15Zm10.92-.36L79,89.1l.43-.19.14.31Zm-12.28-.16-.44-.2.14-.3.43.2Zm13.6-.44-.15-.3c.14-.07.28-.14.41-.22l.17.29ZM65.5,88.6l-.42-.24.17-.29.41.24Zm16.17-.52-.18-.28.4-.26.18.27Zm-17.41-.24-.4-.28.2-.27a4.56,4.56,0,0,0,.39.27Zm18.6-.6L82.65,87c.13-.1.25-.19.37-.3l.22.26C83.11,87,83,87.15,82.86,87.24ZM63.09,87l-.37-.31.22-.25.36.31ZM84,86.3l-.23-.24.34-.33.24.24ZM62,86l-.34-.34.24-.23.33.33Zm23-.73L84.74,85l.31-.35.25.21C85.2,85,85.09,85.15,85,85.27Zm-24-.33-.31-.38.26-.2.3.36Zm24.88-.8-.26-.2.28-.38.27.19Zm-25.77-.35-.27-.4.28-.18c.08.13.17.26.26.39Zm26.59-.85-.28-.18.24-.41.29.17Zm-27.37-.38c-.08-.14-.16-.28-.23-.42l.29-.16.23.42Zm28.07-.9-.3-.15.21-.43.3.14Zm-28.73-.39c-.07-.14-.14-.29-.2-.44l.31-.13c.06.15.12.29.19.43ZM88,80.33l-.31-.12c.06-.15.11-.3.16-.45l.32.11C88.12,80,88.06,80.17,88,80.33Zm-29.86-.4L58,79.47l.32-.1c0,.15.1.3.15.45Zm30.32-1-.32-.09.12-.46.32.08Zm-30.74-.4c0-.16-.07-.32-.11-.48l.33-.07c0,.16.07.31.11.47Zm31.07-1-.33-.06c0-.16.05-.31.08-.47l.33,0C88.84,77.21,88.81,77.37,88.79,77.53Zm-31.35-.42c0-.16,0-.32-.07-.48l.33,0c0,.16,0,.31.07.47Zm31.54-1-.33,0,0-.48.34,0C89,75.76,89,75.93,89,76.09Zm-31.7-.42c0-.16,0-.33,0-.49h.33c0,.16,0,.32,0,.48Zm.3-1h-.33v-.48h.34C57.58,74.34,57.58,74.5,57.58,74.65Zm31.46,0h-.33c0-.15,0-.31,0-.47H89Zm-31.4-1.4-.33,0c0-.16,0-.32,0-.48l.33,0C57.68,72.92,57.66,73.07,57.64,73.23Zm31,0c0-.16,0-.31-.05-.47l.33,0c0,.16,0,.32,0,.48ZM57.84,71.82l-.33-.06.09-.47.33.07Zm30.61,0-.09-.46.32-.07c0,.15.07.31.1.47ZM58.16,70.44l-.32-.09c0-.16.09-.32.14-.47l.31.1C58.25,70.13,58.2,70.28,58.16,70.44Zm30,0c0-.16-.09-.31-.14-.46l.32-.1.14.47ZM58.61,69.08,58.3,69a4.22,4.22,0,0,1,.18-.45l.3.13C58.72,68.79,58.66,68.93,58.61,69.08Zm29.07,0-.18-.44.31-.13L88,69Zm-28.5-1.29-.3-.15c.07-.15.15-.29.22-.43l.3.15C59.32,67.49,59.25,67.63,59.18,67.78Zm27.93,0c-.07-.15-.14-.29-.22-.43l.3-.15c.07.14.15.28.22.43ZM59.87,66.53l-.29-.18c.09-.13.17-.27.26-.41l.28.19C60,66.26,60,66.39,59.87,66.53Zm26.55,0-.25-.4.27-.18c.09.13.18.27.26.41ZM60.67,65.35l-.27-.2.3-.38L61,65C60.86,65.1,60.76,65.22,60.67,65.35Zm25,0L85.33,65l.26-.21.3.38ZM61.57,64.25,61.32,64l.33-.36.24.23C61.78,64,61.68,64.13,61.57,64.25Zm23.15,0c-.11-.12-.21-.24-.32-.35l.24-.23L85,64Zm-22.15-1L62.34,63l.36-.32.22.25Zm21.15,0-.35-.32.22-.25L84,63Zm-20.06-.91-.21-.27.39-.29L64,62Zm19,0L82.25,62l.2-.27.39.29ZM64.82,61.5l-.18-.28.41-.25.17.28Zm16.65,0-.41-.25.17-.29.41.25Zm-15.42-.71-.15-.29.44-.22.14.3Zm14.18,0-.43-.21.14-.3.44.21Zm-12.88-.58-.13-.31.46-.18.11.32Zm11.58,0L78.49,60l.11-.31.45.17Zm-10.24-.46-.09-.32.46-.13.09.32Zm8.89,0-.45-.13.08-.32.47.13Zm-7.51-.34L70,59.07a3.55,3.55,0,0,1,.47-.09l.06.33Zm6.13,0-.46-.09.05-.32.48.08Zm-4.72-.21,0-.33.49-.05,0,.33Zm3.32,0-.48,0,0-.33.48,0Zm-1.9-.09v-.33h.49v.33H72.9Z" transform="translate(0 -1.72)"/><path class="cls-2" d="M128.18,74.6a1.13,1.13,0,1,1-2.25,0,1.13,1.13,0,0,1,2.25,0Z" transform="translate(0 -1.72)"/><path class="cls-2" d="M90,74.6a1.13,1.13,0,1,1-1.12-1.12A1.13,1.13,0,0,1,90,74.6Z" transform="translate(0 -1.72)"/><path class="cls-2" d="M101.24,74.6a1.13,1.13,0,1,1-2.25,0,1.13,1.13,0,0,1,2.25,0Z" transform="translate(0 -1.72)"/><path class="cls-2" d="M74.29,74.6a1.13,1.13,0,1,1-1.12-1.12A1.13,1.13,0,0,1,74.29,74.6Z" transform="translate(0 -1.72)"/><path class="cls-2" d="M74.29,59A1.13,1.13,0,0,1,72,59a1.13,1.13,0,1,1,2.25,0Z" transform="translate(0 -1.72)"/><path class="cls-2" d="M74.29,90.34a1.13,1.13,0,1,1-1.12-1.12A1.13,1.13,0,0,1,74.29,90.34Z" transform="translate(0 -1.72)"/><path class="cls-2" d="M47.12,74.6A1.13,1.13,0,1,1,46,73.48,1.13,1.13,0,0,1,47.12,74.6Z" transform="translate(0 -1.72)"/><path class="cls-2" d="M58.53,74.6a1.13,1.13,0,1,1-2.25,0,1.13,1.13,0,0,1,2.25,0Z" transform="translate(0 -1.72)"/><path class="cls-2" d="M120,68.88H25.07v-.25c0-18.43,21.29-33.43,47.46-33.43S120,50.2,120,68.63Zm-94.42-.5h93.92c-.2-18-21.19-32.68-47-32.68S25.77,50.33,25.57,68.38Z" transform="translate(0 -1.72)"/><path class="cls-2" d="M120,68.88H25.07v-.25c0-13.15,21.29-23.85,47.46-23.85S120,55.48,120,68.63Zm-94.41-.5h93.91c-.27-12.76-21.24-23.1-47-23.1S25.85,55.62,25.58,68.38Z" transform="translate(0 -1.72)"/><path class="cls-2" d="M120,68.88H25.07v-.25c0-5.57,20.85-9.93,47.46-9.93S120,63.06,120,68.63Zm-94.4-.5h93.88c-.69-5-21.9-9.18-46.94-9.18S26.28,63.38,25.59,68.38Z" transform="translate(0 -1.72)"/><path class="cls-2" d="M120,68.88H24.67l.4-.25a47.46,47.46,0,0,1,94.92,0Zm-94.42-.5h93.92a47,47,0,0,0-93.92,0Z" transform="translate(0 -1.72)"/><path class="cls-2" d="M120,68.88H24.67v-.25c0-22.85,21.69-41.44,47.86-41.44S120,45.78,120,68.63Zm-95.23-.5h94.73c-.16-22.46-21.16-40.69-47-40.69S24.91,45.92,24.76,68.38Z" transform="translate(0 -1.72)"/><path class="cls-2" d="M73.06,128A47.5,47.5,0,0,1,25.61,80.58v-.25h94.91v.25A47.5,47.5,0,0,1,73.06,128ZM26.11,80.83a47,47,0,0,0,93.91,0Z" transform="translate(0 -1.72)"/><path class="cls-2" d="M73.06,128A47.5,47.5,0,0,1,25.61,80.58v-.25h94.91v.25A47.5,47.5,0,0,1,73.06,128ZM26.11,80.83a47,47,0,0,0,93.91,0Z" transform="translate(0 -1.72)"/><path class="cls-2" d="M72.57,114C46.4,114,25.11,99,25.11,80.58v-.25H120v.25C120,99,98.73,114,72.57,114Zm-47-33.18c.19,18,21.18,32.68,47,32.68s46.76-14.64,47-32.68Z" transform="translate(0 -1.72)"/><path class="cls-2" d="M72.57,104.43c-26.17,0-47.46-10.7-47.46-23.85v-.25H120v.25C120,93.73,98.73,104.43,72.57,104.43Zm-47-23.6c.27,12.76,21.23,23.1,47,23.1s46.68-10.34,47-23.1Z" transform="translate(0 -1.72)"/><path class="cls-2" d="M72.57,90.51c-26.61,0-47.46-4.36-47.46-9.93v-.25H120v.25C120,86.15,99.18,90.51,72.57,90.51ZM25.63,80.83c.68,5,21.9,9.18,46.94,9.18s46.25-4.18,46.94-9.18Z" transform="translate(0 -1.72)"/><path class="cls-2" d="M72.57,128A47.5,47.5,0,0,1,25.11,80.58v-.25H120v.25A47.5,47.5,0,0,1,72.57,128Zm-47-47.2a47,47,0,0,0,93.91,0Z" transform="translate(0 -1.72)"/><path class="cls-2" d="M72.57,122c-26.17,0-47.46-18.58-47.46-41.43v-.25H120v.25C120,103.43,98.73,122,72.57,122Zm-47-41.18c.15,22.46,21.16,40.68,47,40.68s46.8-18.22,47-40.68Z" transform="translate(0 -1.72)"/><path class="cls-3" d="M86,119.87a33.21,33.21,0,0,1-9.43-1.58q-5.25-1.59-10.89-3.74t-10.82-4a52.64,52.64,0,0,1-7.91,3.8,20.39,20.39,0,0,1-7.15,1.39,11.7,11.7,0,0,1-7.15-2.09A6.62,6.62,0,0,1,29.79,108a5.76,5.76,0,0,1,2.47-4.87c1.64-1.22,4.36-1.84,8.16-1.84a50.12,50.12,0,0,1,6.39.45q3.48.44,7.41,1.2A88.24,88.24,0,0,0,65.93,90.57a128.49,128.49,0,0,0,10.82-16,100.46,100.46,0,0,0,8-17.47,51.52,51.52,0,0,0,3-16.71q0-9-3.86-13.23a12.7,12.7,0,0,0-9.81-4.24,13.64,13.64,0,0,0-9.49,3.42A20.68,20.68,0,0,0,59,34.94a31.38,31.38,0,0,0-1.83,10.5A25.36,25.36,0,0,0,57.7,51a30.81,30.81,0,0,0,1.83,5.44,9.43,9.43,0,0,1-1.13-.06,10.8,10.8,0,0,1-1.27-.19,11.83,11.83,0,0,1-6.71-3q-3-2.65-3-9.11A24.61,24.61,0,0,1,51,31.2,28,28,0,0,1,75.48,17.72,23.09,23.09,0,0,1,88.2,21a20.72,20.72,0,0,1,7.73,8.93,30.18,30.18,0,0,1,2.59,12.72,44.86,44.86,0,0,1-1.33,10.57A68,68,0,0,1,93.46,64.3a90.33,90.33,0,0,1-8,15,115,115,0,0,1-10.7,13.86,108.61,108.61,0,0,1-12,11.52q8.22,1.77,15.06,3a66.91,66.91,0,0,0,11,1.2,15.57,15.57,0,0,0,5.51-.89,52.49,52.49,0,0,0,6.27-3q-2,7.72-5.51,11.33A12,12,0,0,1,86,119.87ZM39.53,110.5a10.75,10.75,0,0,0,3.68-.69,26.47,26.47,0,0,0,4-2,36.24,36.24,0,0,0-4.5-1.14,19.42,19.42,0,0,0-3.48-.38,4.74,4.74,0,0,0-3,.69,2,2,0,0,0-.76,1.33,2.2,2.2,0,0,0,1.33,1.52A5.77,5.77,0,0,0,39.53,110.5Z" transform="translate(0 -1.72)"/></g></g></svg>