<svg xmlns="http://www.w3.org/2000/svg" viewBox="0 0 117.1 104.3"><defs><style>.cls-1{fill:none;stroke:#c04547;stroke-miterlimit:10;stroke-width:2px;opacity:0.13;}.cls-2{fill:#d1bca1;}.cls-3{fill:#7b88c0;}.cls-4{fill:#414c89;}</style></defs><g id="Layer_2" data-name="Layer 2"><g id="Layer_5" data-name="Layer 5"><path class="cls-1" d="M115.63,27.89c-1.47-12.58-8-21.64-20.44-25.55C86.88-.28,78.77,1.07,71.28,5.23,67,7.59,63.14,10.63,59,13.52l-.73.51c-2.15-1.74-4.42-3.78-6.89-5.54C43.7,3.06,35.27,0,25.78,1.46,12.27,3.57,2.91,13.92,1.4,28.15A62.38,62.38,0,0,0,4.34,55.58l.07.21a65.78,65.78,0,0,0,11.4,19.88c11,13.45,25.46,21.89,41.71,27.49a3.3,3.3,0,0,0,1.45.11,4.83,4.83,0,0,0,.89-.2c13.6-4.68,26-11.45,36.22-21.68C110.89,66.61,118.08,48.91,115.63,27.89Z"/><path class="cls-2" d="M85.51,69.12a30.51,30.51,0,0,0,0-32.06V27h-10a30.51,30.51,0,0,0-32.06,0h-10v10a30.51,30.51,0,0,0,0,32.06v10h10a30.51,30.51,0,0,0,32.06,0h10Zm4.16-16a30,30,0,0,1-4.16,15.27V37.83A30,30,0,0,1,89.67,53.09ZM85.12,69a30.41,30.41,0,0,1-9.74,9.74H43.55A30.44,30.44,0,0,1,33.8,69V37.18a30.47,30.47,0,0,1,9.75-9.75H75.38a30.44,30.44,0,0,1,9.74,9.75Zm0-41.58v9a30.69,30.69,0,0,0-9-9ZM59.46,22.88A30,30,0,0,1,74.73,27H44.19A30,30,0,0,1,59.46,22.88ZM33.8,27.43h9a30.6,30.6,0,0,0-9,9ZM29.25,53.09a30,30,0,0,1,4.16-15.27V68.36A30,30,0,0,1,29.25,53.09ZM33.8,78.75v-9a30.69,30.69,0,0,0,9,9ZM59.46,83.3a30,30,0,0,1-15.27-4.16H74.73A30,30,0,0,1,59.46,83.3ZM76.1,78.75a30.77,30.77,0,0,0,9-9v9Z"/><path class="cls-3" d="M57.28,37.22a6.3,6.3,0,0,0-2.52,3.88,50.46,50.46,0,0,1-3.62-5.31c-.75-.21-7.31-1.56-8.38-1.09a39.22,39.22,0,0,1-8.27,4.87,8.22,8.22,0,0,0,9.57-3.81,6.11,6.11,0,0,0,5.47,1c-.2,3.37,2.37,6.43,4.4,7.07a6.08,6.08,0,0,0-.88,2.65A44,44,0,0,1,48.86,42c-.85-.12-8.17-.66-9.27-.06a43.89,43.89,0,0,1-8.51,5.85,9.5,9.5,0,0,0,10-5,7.28,7.28,0,0,0,6.1.36,7.54,7.54,0,0,0,5.1,6.37,3.6,3.6,0,0,0,0,2.57,4.84,4.84,0,0,0-.42,2,56.52,56.52,0,0,1-5.57-4.46c-.85,0-8.17.46-9.19,1.21a43.78,43.78,0,0,1-7.63,6.95,9.52,9.52,0,0,0,9.28-6.28,7.18,7.18,0,0,0,6.08-.47,7.44,7.44,0,0,0,6.6,5.67,4.47,4.47,0,0,0,0,2.67A2.62,2.62,0,0,0,51,61.5a14,14,0,0,0-5.68-1.8c-6.11-3.16-11.56.92-11.88,7.51a16.6,16.6,0,0,0,4,19.24,31.53,31.53,0,0,1-.3-14.13c2,2.35,2.64,7,2.63,10,2.35-2.09,3.59-9.06,0-14.75.27-1.71.44-5.16-.77-7.18,1.09,1,3.57,1.6,5.82,1.88.88,1.11,3.91,2.6,5.76,2.3A4,4,0,0,0,54,68.06c.12,1.1,1.14,3.58,2.73,3.84a5.24,5.24,0,0,1,.65-3.51V36.81A2.22,2.22,0,0,0,57.28,37.22Z"/><path class="cls-4" d="M59.07,71.74c1.24.08,2.48-2.52,2.7-3.92a7,7,0,0,0,2.78-3.27,9,9,0,0,0,6-2.29c2.25-.28,4.73-.76,5.82-1.77-1.21,2-1,5.36-.76,7.07-3.59,5.69-2.34,12.66,0,14.75,0-3,.58-7.64,2.63-10a31.54,31.54,0,0,1-.31,14.13,16.59,16.59,0,0,0,4-19.24c-.32-6.59-5.76-10.67-11.88-7.51a13.46,13.46,0,0,0-5.84,1.92,7,7,0,0,0-.48-.77,5.56,5.56,0,0,0-.61-3.55,7.53,7.53,0,0,0,.29-1c2.23.62,6.46-1,7.74-4.3a7.22,7.22,0,0,0,5.89,1.58,9.53,9.53,0,0,0,8,7.88,44.12,44.12,0,0,1-6.22-8.24c-.86-.92-8-2.73-8.81-2.88-.47.49-5.31,2.58-6.79,3.25A13.49,13.49,0,0,0,62.63,52a4,4,0,0,0,.18-2.13c2.32.26,6.28-1.88,7.09-5.33a7.31,7.31,0,0,0,6.12.77,9.62,9.62,0,0,0,9,6.73,44.38,44.38,0,0,1-7.36-7.33c-1-.79-8.35-1.61-9.21-1.65a54.57,54.57,0,0,1-5.62,4,6.66,6.66,0,0,0-.06-2.7,2.84,2.84,0,0,0,.31-.63c2.11,0,5.51-2.63,5.95-6.16a6.08,6.08,0,0,0,5.57,0,8.22,8.22,0,0,0,8.71,5.51,39.37,39.37,0,0,1-7.24-6.31c-1-.66-7.65-.54-8.42-.47a49.57,49.57,0,0,1-4.47,4.49,12.9,12.9,0,0,0-.89-2.86,12.88,12.88,0,0,0,1.94-5.39c1.51.15,4.53-1.09,4.7-3.08a5.38,5.38,0,0,0,5.42-.2,6,6,0,0,0,5.19,1.51,6.44,6.44,0,0,0,3.86,3.65c-.28,1.15.84,3.82,2.39,4.85a7.11,7.11,0,0,0,1.91,5.38C82.6,52.83,91.9,56.49,89.3,64c8.14-6.23,4.73-18.3-.1-19.87a6.43,6.43,0,0,0-1.89-5.53,5.69,5.69,0,0,0-2.72-5.08A6,6,0,0,0,80,29.38,6.47,6.47,0,0,0,74,27.6a6.26,6.26,0,0,0-5.41.47c-1.75-.3-4.46,1.11-5.64,2.87-2.07,1-4.93,4-5.52,5.87V68.39a2.71,2.71,0,0,1,.41-.57C58.77,68.63,59.16,70.66,59.07,71.74Z"/></g></g></svg>