<svg xmlns="http://www.w3.org/2000/svg" viewBox="0 0 117.1 104.3"><defs><style>.cls-1{fill:none;stroke:#c04547;stroke-miterlimit:10;stroke-width:2px;opacity:0.13;}.cls-2{fill:#d1bca1;}.cls-3{fill:#7b88c0;}.cls-3,.cls-4{fill-rule:evenodd;}.cls-4{fill:#414c89;}</style></defs><g id="Layer_2" data-name="Layer 2"><g id="Layer_5" data-name="Layer 5"><path class="cls-1" d="M115.63,27.89c-1.47-12.58-8-21.64-20.44-25.55C86.88-.28,78.77,1.07,71.28,5.23,67,7.59,63.14,10.63,59,13.52l-.73.51c-2.15-1.74-4.42-3.78-6.89-5.54C43.7,3.06,35.27,0,25.78,1.46,12.27,3.57,2.91,13.92,1.4,28.15A62.38,62.38,0,0,0,4.34,55.58l.07.21a65.78,65.78,0,0,0,11.4,19.88c11,13.45,25.46,21.89,41.71,27.49a3.3,3.3,0,0,0,1.45.11,4.83,4.83,0,0,0,.89-.2c13.6-4.68,26-11.45,36.22-21.68C110.89,66.61,118.08,48.91,115.63,27.89Z"/><path class="cls-2" d="M84.44,68.73a30.38,30.38,0,0,0,0-31.89v-10h-10a30.31,30.31,0,0,0-31.88,0h-10v10a30.38,30.38,0,0,0,0,31.89v10h10a30.31,30.31,0,0,0,31.88,0h10Zm4.13-16A29.9,29.9,0,0,1,84.44,68V37.6A29.89,29.89,0,0,1,88.57,52.78ZM84.05,68.61a30.33,30.33,0,0,1-9.69,9.7H42.7A30.23,30.23,0,0,1,33,68.61V37a30.23,30.23,0,0,1,9.69-9.7H74.36A30.33,30.33,0,0,1,84.05,37Zm0-41.35v9a30.62,30.62,0,0,0-9-9ZM58.53,22.74a29.77,29.77,0,0,1,15.18,4.14H43.34A29.81,29.81,0,0,1,58.53,22.74ZM33,27.26h9a30.71,30.71,0,0,0-9,9ZM28.48,52.78A29.9,29.9,0,0,1,32.62,37.6V68A29.9,29.9,0,0,1,28.48,52.78ZM33,78.31v-9a30.71,30.71,0,0,0,9,9Zm25.52,4.52a29.81,29.81,0,0,1-15.19-4.14H73.71A29.77,29.77,0,0,1,58.53,82.83Zm16.54-4.52a30.62,30.62,0,0,0,9-9v9Z"/><path class="cls-3" d="M28.48,51.42C26.39,36.42,40,26.11,53.4,31.33c2.66-.08,7.78-8.51,8.19-11.36,2.68,4.3,1.41,10.26-.34,14.39C63,38.2,62.94,46,60.75,48.26c-5.59-16.87-22.52-8.5-16.58,1.2,1.11-2,2.28-3.7,3.47-3.84,3.52-.21,3,8.26,2.23,11a35.37,35.37,0,0,1,1.84,6.5c2.37,13.6-14.15,4.77-17.38.47-1.62-.67-7.75-2.61-9.2-7.87-.82-3,1.23-4.24,3.35-4.25Z"/><path class="cls-4" d="M88.62,53.78c2.09,15-11.52,25.31-24.92,20.09C61,74,55.91,82.38,55.51,85.23c-2.68-4.3-1.42-10.26.33-14.4-1.76-3.83-1.68-11.61.51-13.89,5.59,16.87,22.52,8.49,16.58-1.21-1.12,2-2.28,3.7-3.47,3.84-3.52.22-3-8.25-2.24-10.94a36.41,36.41,0,0,1-1.83-6.5c-2.37-13.6,14.15-4.77,17.38-.47,1.62.67,7.75,2.61,9.2,7.86.82,3-1.23,4.24-3.35,4.26Z"/></g></g></svg>