<svg xmlns="http://www.w3.org/2000/svg" viewBox="0 0 117.1 104.3"><defs><style>.cls-1{fill:#d1bca1;}.cls-2,.cls-5{fill:none;}.cls-3{fill:#83c9e1;}.cls-4{fill:#5d9cb8;}.cls-5{stroke:#c04547;stroke-miterlimit:10;stroke-width:2px;opacity:0.13;}</style></defs><g id="Layer_2" data-name="Layer 2"><g id="Layer_5" data-name="Layer 5"><path class="cls-1" d="M85.19,68.6a30.46,30.46,0,0,0,0-32v-10h-10a30.46,30.46,0,0,0-32,0h-10v10a30.46,30.46,0,0,0,0,32v10h10a30.46,30.46,0,0,0,32,0h10Zm4.15-16a30,30,0,0,1-4.15,15.24V37.36A30,30,0,0,1,89.34,52.6ZM84.8,68.49a30.55,30.55,0,0,1-9.73,9.73H43.29a30.45,30.45,0,0,1-9.73-9.73V36.71A30.35,30.35,0,0,1,43.29,27H75.07a30.45,30.45,0,0,1,9.73,9.73ZM84.8,27v9a30.83,30.83,0,0,0-9-9ZM59.18,22.44a30,30,0,0,1,15.24,4.15H43.94A30,30,0,0,1,59.18,22.44ZM33.56,27h9a30.71,30.71,0,0,0-9,9ZM29,52.6a30,30,0,0,1,4.15-15.24V67.84A30,30,0,0,1,29,52.6Zm4.54,25.62v-9a30.83,30.83,0,0,0,9,9Zm25.62,4.54a30,30,0,0,1-15.24-4.15H74.42A30,30,0,0,1,59.18,82.76Zm16.61-4.54a31,31,0,0,0,9-9v9Z"/><path class="cls-2" d="M54.75,59.74v-6.3C47.83,53.1,50.7,57.56,54.75,59.74Z"/><path class="cls-3" d="M54.74,53.44l-.06-25.11c-3.71,2.32-8.74,7.52-10.46,11C41.56,40.74,38,43,37,46c-.8,2.43,1.11,4.32.34,6.67S32.81,57,32,59.46s1.61,4.46.84,6.81-4.51,4.4-5.31,6.83,1.6,4.47.83,6.82h2.39c.8-2.43-1.54-4.46-.77-6.81s4.45-4.4,5.25-6.83-1.54-4.47-.77-6.82,4.44-4.4,5.24-6.83c1.13-3.44-3.33-5.33.58-9.14-2.67,4.33.87,5.7.25,9.14C40.12,55,36.69,57,36.25,59.45s2.28,4.46,1.86,6.81-3.86,4.39-4.29,6.83,2.27,4.46,1.85,6.81h2.39c.44-2.43-2.2-4.47-1.78-6.82s3.78-4.39,4.22-6.83-2.21-4.46-1.79-6.81,3.79-4.4,4.22-6.83c.6-3.37-3.92-5.63-.59-9.46-2.27,4.58,1.62,5.68,1.47,9.46-.1,2.35-3.25,4.39-3.35,6.83s2.88,4.45,2.79,6.81S40,70.64,39.89,73.08s2.89,4.45,2.79,6.81h2.39c.1-2.43-2.82-4.46-2.72-6.81s3.18-4.4,3.28-6.83-2.81-4.46-2.72-6.81,3.18-4.4,3.28-6.83-2.89-4.8-2.8-7.15a8,8,0,0,1,.92-3c.7.29,1.95.19,3.93-.47,3-.49,4.83,4.46,6.37,9.31-11.49,0-7.1,8,.15,11V59.74C50.7,57.56,47.83,53.1,54.74,53.44Z"/><path class="cls-4" d="M61.72,63.39c5.65,4.16,13.73,5.85,20.36,9.15,2.62-.66,6.39-4.45,7-7.07-3.33-6.62-5.05-14.69-9.24-20.32.91-10.21-12.46-22.27-12.18-7.06-4.85-1.52-9.82-3.32-9.34-6.32,1.75-5.3-.47-5.45-3.68-3.44l.06,25.11.57,0c.87,2.75,1.67,5.25,3.62,7.41a8.42,8.42,0,0,1-4.18-1.15V62.3A13.56,13.56,0,0,0,61.72,63.39Zm15.64-21c-2.17-1.94-4.67-2.73-7.42-3.58C69.67,29.52,77.57,37.16,77.36,42.37Z"/><path class="cls-5" d="M115.63,27.89c-1.47-12.58-8-21.64-20.44-25.55C86.88-.28,78.77,1.07,71.28,5.23,67,7.59,63.14,10.63,59,13.52l-.73.51c-2.15-1.74-4.42-3.78-6.89-5.54C43.7,3.06,35.27,0,25.78,1.46,12.27,3.57,2.91,13.92,1.4,28.15A62.38,62.38,0,0,0,4.34,55.58l.07.21a65.78,65.78,0,0,0,11.4,19.88c11,13.45,25.46,21.89,41.71,27.49a3.3,3.3,0,0,0,1.45.11,4.83,4.83,0,0,0,.89-.2c13.6-4.68,26-11.45,36.22-21.68C110.89,66.61,118.08,48.91,115.63,27.89Z"/></g></g></svg>