<svg xmlns="http://www.w3.org/2000/svg" viewBox="0 0 274.33 294.71"><defs><style>.cls-1{fill:#c93f3f;opacity:0.13;}.cls-2{fill:#d8a36a;}.cls-3{fill:#532217;}.cls-4{fill:#fffbe4;}.cls-5{fill:#b69e85;}.cls-6{fill:#8d4d3f;}.cls-7{fill:#000102;opacity:0.14;}.cls-8{fill:#edbfa1;}.cls-9{fill:#d88d70;}.cls-10{fill:#242424;}.cls-11,.cls-19{fill:#e58873;}.cls-11{opacity:0.33;}.cls-12{fill:#8c5247;opacity:0.47;}.cls-13{fill:#c75941;}.cls-14{fill:#c0bfbf;}.cls-15{fill:#9b5e4f;}.cls-16{fill:#6d6e6e;}.cls-17{fill:#f5c178;}.cls-18{fill:#eab371;}.cls-19{opacity:0.29;}.cls-20{fill:#fff;}.cls-21{fill:none;stroke:#d88d70;stroke-linecap:round;stroke-miterlimit:10;stroke-width:1.11px;}</style></defs><g id="Layer_2" data-name="Layer 2"><g id="Layer_5" data-name="Layer 5"><path class="cls-1" d="M175.14,17.82h.6l1.46,0q2.1.06,4.2.24h0c1.24.1,2.48.24,3.72.4l.5.07c1.4.2,2.78.44,4.17.71q3.44.68,6.8,1.67c1.27.37,2.53.77,3.78,1.21A72.85,72.85,0,0,1,234.9,47.08c10,13.43,15,29.79,20.35,45.65,8.64,25.65,18.61,51.5,19.06,78.57.4,24.33-6.82,54.7-39.37,71.8-2.48,1.3-5.11,2.53-7.89,3.67q-2,.81-4.05,1.56a180.27,180.27,0,0,1-18.49,5.5l-.68.17h0l-.14,0q-3.51.84-7.14,1.58A276.47,276.47,0,0,1,141.84,261a261.43,261.43,0,0,1-30-1.68c-1.7-.2-3.38-.41-5-.65a176.92,176.92,0,0,1-31.74-7.21C52,243.68,21.77,216.16,9.73,194.92s-13.56-49-.88-69.84c6.17-10.14,14.83-17.83,24.59-24.46,4.15-2.81,8.49-5.44,12.92-8l2.71-1.54,1.72-1q2.46-1.38,4.94-2.73h0q3.81-2.09,7.61-4.2l.36-.2h0l2.19-1.23,2.16-1.23q3.63-2.09,7.16-4.27l.53-.33,1.58-1q2-1.28,3.93-2.61,2.36-1.6,4.65-3.32c1.78-1.32,3.55-2.68,5.29-4.07.94-.75,1.87-1.51,2.8-2.27l.54-.44,2-1.7,1.3-1.1,1.07-.9c.8-.68,1.6-1.36,2.39-2.05,1.07-.91,2.13-1.83,3.19-2.75l1.84-1.59,3.44-3q1.89-1.63,3.8-3.24l.47-.4q1.73-1.46,3.47-2.88h0c.69-.58,1.39-1.14,2.1-1.71l0,0,1.58-1.26c.72-.56,1.43-1.12,2.16-1.67q2.09-1.59,4.2-3.12l.77-.54c2-1.41,4-2.77,6.09-4.06l1.33-.81c.73-.44,1.47-.88,2.21-1.3l.78-.44.35-.19.92-.5a81.86,81.86,0,0,1,12.09-5.37l.95-.33c.63-.21,1.26-.41,1.9-.6q2.7-.81,5.46-1.39l.9-.18c.78-.16,1.57-.3,2.35-.42,1.38-.23,2.76-.41,4.15-.55,2.27-.23,4.54-.34,6.82-.36h.43"/><path class="cls-2" d="M148.35,282.14c49-.18,83.57-40.13,102.85-70.63-3.56-13.22-7.38-26.56-10.66-36.12-5.46-15.88-72.89-5.33-81.73,10.39s-6.12,32.34-8.44,60.45C149.67,254.86,148.93,268,148.35,282.14Z"/><path class="cls-3" d="M162.8,188.21a332.17,332.17,0,0,0,37.65-2.68c.34-.05,31.74-4.5,44.24-8.76,1.25-.43,0-7.46,0-7.46-5.58,2.84-29.79,7.17-45.2,9.34-11.76,1.66-33.95,3.17-43.15,2.43-1.36-.11-2,6.81.26,7C158.42,188.16,160.52,188.21,162.8,188.21Z"/><path class="cls-4" d="M204.84,62.43c17.52,2.27,25.62,8,33.39,14.91s14.32,24.75,18.36,33.43,11.22,26.45,10.23,31.07,3.47,6.74,3.72,11.88-4.57,18.05-10.1,19.53-15.77-4.24-16.22-7.45,1.69,4.67,0,6.93-8.39,5.05-12.61,2.66-8.87-5.1-13.73-2.14-20.3,5.82-25.78,6.51a45.76,45.76,0,0,1-13.08,0c-4.68-.56-22.89,6.38-24.07,8.36s-8.87,2.24-12.59,1.24-18.1-10.34-20.08-14,0-8.34,1.24-14.66a54.52,54.52,0,0,0-.25-19.09c-1-5.33,0-15.73,2.73-21.81s-1.49-10.29,1-19.1,6.45-16.49,16.61-25S198.37,61.58,204.84,62.43Z"/><path class="cls-5" d="M236.06,132.71a.14.14,0,0,0,.13-.14c-.58-6.36-3.89-27.92-8.34-41.09a.12.12,0,0,0-.16-.08.13.13,0,0,0-.08.16c4.45,13.15,7.76,34.68,8.33,41A.12.12,0,0,0,236.06,132.71Z"/><path class="cls-5" d="M148.2,164.65a.12.12,0,0,0,.12-.11,1.7,1.7,0,0,0-.43-1.29c-1.77-2.22-8.76-4.12-12-4.42a13.94,13.94,0,0,0-6.17,1.3,4.32,4.32,0,0,1-1.64.48.13.13,0,0,0-.16.07.12.12,0,0,0,.06.16c.28.12.79-.07,1.83-.48a14,14,0,0,1,6-1.29c3.18.3,10.07,2.17,11.8,4.33a1.52,1.52,0,0,1,.39,1.11.12.12,0,0,0,.11.14Z"/><path class="cls-5" d="M145.06,161.6a.12.12,0,0,0,.12-.13c-.13-3.38-4.41-8.63-6.57-10.38a.13.13,0,0,0-.18,0,.14.14,0,0,0,0,.18c1.88,1.52,6.35,6.83,6.49,10.2A.12.12,0,0,0,145.06,161.6Z"/><path class="cls-5" d="M146.07,162.11a.11.11,0,0,0,.09,0,.14.14,0,0,0,0-.18c-1.85-1.61-1.67-14.69-1-23,.22-2.61.32-5.86.41-9.3a169.15,169.15,0,0,1,1.6-21.74.12.12,0,0,0-.1-.14.13.13,0,0,0-.14.1,166.2,166.2,0,0,0-1.6,21.77c-.1,3.44-.19,6.69-.41,9.29-.57,6.78-1.07,21.38,1,23.23Z"/><path class="cls-5" d="M234.4,120.73a.12.12,0,0,0,.12-.09c0-.08,1.93-7.86,1.67-13.59,0-.07-.07-.13-.13-.12a.12.12,0,0,0-.12.13c.26,5.7-1.64,13.44-1.66,13.52a.14.14,0,0,0,.09.15Z"/><path class="cls-5" d="M186.36,114.31c1.72,0,3.08-1.23,4.92-4,3.63-5.58,11.81-31,10.52-43.22a.11.11,0,0,0-.13-.11.11.11,0,0,0-.11.13c1.28,12.18-6.87,37.51-10.49,43.07-3.74,5.73-5.28,4.73-12.69,0-6.61-4.26-11-10.35-13.59-18.61a76.27,76.27,0,0,1-2.64-15.8.12.12,0,0,0-.13-.12.13.13,0,0,0-.11.13,75.62,75.62,0,0,0,2.65,15.86c2.55,8.33,7,14.46,13.68,18.75C182.13,112.8,184.46,114.31,186.36,114.31Z"/><path class="cls-6" d="M171.53,2.59C168.6,0,163.74.7,161.12,1.1c-8.33,1.28-14.37,8.51-16.78,14.47-.74,1.84-.24,1.35-1.73,6-2.39,7.52-3.49,8.22-4.71,12.89a34.42,34.42,0,0,0-1.24,12.23c.49,5.39,2,5.62,2.23,10.17.33,6-2.18,6.44-2.81,13.3-.21,2.3-.93,10.11,3.47,16.28,2.17,3,3.22,2.36,4.88,5.38,3.3,6,1.44,12.81,1.32,13.22-.83,2.87-1.64,2.78-2.15,5.45-1,5.08,1.14,9.67,1.65,9.59s-1.14-4,.75-8.35c1.48-3.4,3.55-3.46,5.37-7.44,1.53-3.35,1.26-5.95,1.73-5.95s1.58,3.88,1,8.1c-.61,4.4-2.35,5-2.48,8.76-.15,4.27,2,7.58,2.15,7.52s-1.46-3-.91-6.61,2.74-5.3,4.54-7.6c2.64-3.37,3.47-6.87,5.13-13.88,2.52-10.67-1-20.74-2.4-26.7C153.15,37.28,180.82,10.93,171.53,2.59Z"/><path class="cls-6" d="M168.89,1.31c2.18-1.1,4.31-1.73,8.55-1,2.49.43,10.8,1.87,16.74,8.18,3.66,3.89,2.37,5.33,7.19,16.24,6,13.53,9.08,13.85,8.8,19.46-.38,7.62-6.33,11.48-4,16.37,1.36,2.79,3.67,2.27,5.21,5.45,2.51,5.18-1.13,11.79-1.74,12.89-3.47,6.32-7.56,5.8-9.91,11.53-2.22,5.41-.34,10.15-1.12,10.29S194.45,95,196.16,90c1-3.09,3-3.08,6.45-8.06,2.31-3.32,4-5.78,3.59-8.43-.5-3.08-3.58-4.58-7.68-7.19-6.87-4.38-3.17-3.32-14.14-11-16.65-11.72-20.11-10.59-22.56-16.12-1.18-2.67-.66-7.56.38-17.35C164.15,3.21,167.59,2,168.89,1.31Z"/><path class="cls-7" d="M168.89,1.31c2.18-1.1,4.31-1.73,8.55-1,2.49.43,10.8,1.87,16.74,8.18,3.66,3.89,2.37,5.33,7.19,16.24,6,13.53,9.08,13.85,8.8,19.46-.38,7.62-6.33,11.48-4,16.37,1.36,2.79,3.67,2.27,5.21,5.45,2.51,5.18-1.13,11.79-1.74,12.89-3.47,6.32-7.56,5.8-9.91,11.53-2.22,5.41-.34,10.15-1.12,10.29S194.45,95,196.16,90c1-3.09,3-3.08,6.45-8.06,2.31-3.32,4-5.78,3.59-8.43-.5-3.08-3.58-4.58-7.68-7.19-6.87-4.38-3.17-3.32-14.14-11-16.65-11.72-20.11-10.59-22.56-16.12-1.18-2.67-.66-7.56.38-17.35C164.15,3.21,167.59,2,168.89,1.31Z"/><path class="cls-6" d="M166.55,30.94c11.32-1.85,15.6,5.58,17.83,5.7s3.35-1.86,7-.25,4.83,4.73,4.83,10.36S198,59.94,201.86,62s3.72,7.13,2.61,10.6-4.09-3.84-7.44-3.9-19.71-2.21-22.44-3.87S161.48,31.76,166.55,30.94Z"/><path class="cls-8" d="M186.62,50.15c-.62,6-.75,10.29,2,14.13S197,68.69,197,68.69s1.11-.19,0,10.22-7.68,27-10.78,28.76-15.09-13-17.69-16.32-2.77-15.78-2.77-15.78Z"/><path class="cls-9" d="M165.79,75.69l5.08,2.66L174,83.93a49.69,49.69,0,0,1-7.71-.59C165.89,79.78,165.81,76.36,165.79,75.69Z"/><path class="cls-9" d="M186.71,55.44c-.2,10.58-.84,24.3-4.43,28.49a5.35,5.35,0,0,1-8.48-.41c-1.15-2-6.15-8.82-6.15-8.82Z"/><path class="cls-9" d="M177.44,90.32l.06,0a.12.12,0,0,0,.05-.16c0-.09-4.74-9.1-7.29-12.54a.12.12,0,0,0-.17,0,.14.14,0,0,0,0,.18c2.54,3.42,7.23,12.41,7.27,12.5A.14.14,0,0,0,177.44,90.32Z"/><path class="cls-7" d="M161.15,28.13c-.5-.65-10-2.78-13.91.74-1.93,1.75-9.73,9.32-8.6,18a48.58,48.58,0,0,0,4.13,12.23c.87,1.8,1.4,2.63,1.49,4.13.25,4.15-3.38,5.11-4.79,9.75-1.84,6,1.82,12.45,2.64,13.89,2,3.58,3.21,3.15,3.8,5.45,1.27,4.92-4.11,6.79-5.62,14.88a22.55,22.55,0,0,0,2.15,13.72c1,1.86,2.25,3.42,2.48,3.3s-2.38-3.86-2.64-8.92a19.82,19.82,0,0,1,2.15-9.42c1.79-3.91,3-3.87,4.29-7.28,1.75-4.68.75-8.39,1.16-8.43s2.56,5,1.16,10.42c-1.23,4.73-3.76,4.35-5,8.76-1.26,4.64,0,10.74,2.64,15,1.13,1.84,2.18,2.8,2.32,4.79.26,3.72-2.92,6.34-2.32,6.94s3.2-.58,4.47-2.81c1.56-2.75.3-6.15-.66-8.76-1.73-4.66-3.23-4.37-3.64-7.1-.55-3.67,2.06-4.8,4.13-11.24,1.9-5.92,1.28-9.89,2-9.92s2.55,4.91,1.81,10.25c-.71,5.14-3.09,5.93-2.81,9.75a10.92,10.92,0,0,0,6.12,8.76c3.86,1.77,8.08.51,8.1,0s-6.35.32-8.93-3.31c-1.8-2.53-1-6.27-.33-9.58.75-3.59,1.55-3.92,2.32-6.78a16.68,16.68,0,0,0-2.22-14.22c-2.16-3.05-6.3-3-10-9.5-4.22-7.31,3.73-16.1,2.5-19.92-1.33-4.15-4.43-3.95-6.61-8.09-2.56-4.88-.69-12.38,0-14.88C147.89,28.15,161.88,29.08,161.15,28.13Z"/><path class="cls-8" d="M155.75,30.19a58.61,58.61,0,0,1,7.68.38c4.88.56,7.55.86,10.54,2.23,6.25,2.85,9.19,8.16,12.15,7.06a11,11,0,0,0,1.86-1c2.17-1.39,2.43-2.46,3.35-2.48,1.24,0,2.71,1.91,3,3.85.62,4.58-2.39,9.69-2.54,10.28-.43,1.7-1.24,2.68-1.92,2.61-1.13-.13-.66-.64-2.23-.87-.87-.12-.87,8.31-2.85,13s-10.17,13.3-13.14,14.46a18.12,18.12,0,0,1-8.31.78c-1.61-.24-8.23-8.6-10-11.4a27.93,27.93,0,0,1-3.91-9.56c-.74-3-.79-3.81-1.78-5.87s-1.54-4.3-1.71-9.18,2.2-10.76,5.5-12.66S155.75,30.19,155.75,30.19Z"/><path class="cls-3" d="M166.6,45.4c6.76.28,6.18-.36,8.89.08s4.43,2.7,4.41,3.21-3.47-1-4.69-1.23-8.11.44-9,.31S164.15,45.3,166.6,45.4Z"/><path class="cls-3" d="M155.34,46.4c-3.35.69-6.86,1.9-7.52,2.52s-1.43,2.61-1.17,3.1.55-.61,1.9-1.35c.81-.44,6.83-1.58,7.52-2S156.55,46.15,155.34,46.4Z"/><path class="cls-10" d="M169.79,54.05c-.39-1.68,0-3.21.89-3.42s1.91,1,2.3,2.69,0,3.22-.89,3.42S170.18,55.74,169.79,54.05Z"/><path class="cls-10" d="M153,55.8c-.39-1.68,0-3.21.88-3.42s1.91,1,2.3,2.69,0,3.22-.89,3.42S153.35,57.49,153,55.8Z"/><path class="cls-11" d="M173.47,61.63c-.84-2,1-4.61,4-5.91s6.24-.77,7.07,1.19-1,4.61-4.05,5.91S174.3,63.59,173.47,61.63Z"/><path class="cls-11" d="M149.44,59.56c-.17-.67-.3-1.22-.41-1.71a9.1,9.1,0,0,1,1.67.51c3.06,1.3,4.88,4,4,5.91a3.49,3.49,0,0,1-3.06,1.85A28.82,28.82,0,0,1,149.44,59.56Z"/><path class="cls-9" d="M189.18,49.69a.93.93,0,0,0,.24,0c.43-.13.56-.6.76-1.3,0-.16.09-.33.15-.52a9.61,9.61,0,0,1,1.1-2.44,4.1,4.1,0,0,0,.72-1.79c.25-1.59-.18-3.73-1-3.86s-1.51,1.33-2,2.55a.13.13,0,0,0,.06.17.12.12,0,0,0,.16-.07c.67-1.55,1.35-2.47,1.77-2.4s1.07,1.9.81,3.57a3.91,3.91,0,0,1-.69,1.7,9.73,9.73,0,0,0-1.13,2.5c-.05.19-.1.36-.15.52-.18.65-.29,1-.59,1.13a1,1,0,0,1-.79-.18,1.5,1.5,0,0,1-.71-1c-.07-.51.31-.93.72-1.37s.85-.92.77-1.51-.66-1.14-1.73-1.59a.12.12,0,0,0-.16.07.14.14,0,0,0,.07.16c1,.41,1.51.88,1.58,1.39s-.32.88-.71,1.31-.88,1-.78,1.58a1.71,1.71,0,0,0,.82,1.13A1.48,1.48,0,0,0,189.18,49.69Z"/><path class="cls-12" d="M164.7,23.17a17.27,17.27,0,0,1,8.47-1.47A8.19,8.19,0,0,1,177,23.26a13.68,13.68,0,0,1,2.85,3.15,20.57,20.57,0,0,0,2.82,3.48,7.86,7.86,0,0,0,4.05,1.91,9.29,9.29,0,0,0,4.41-.6,6.48,6.48,0,0,1,4.18-.4,6.57,6.57,0,0,1,3.19,2.61,13.75,13.75,0,0,1,1.7,3.9,17.45,17.45,0,0,1,.39,8.48c-.32,1.39-.9,2.77-1.16,4.29a12.42,12.42,0,0,0,.07,4.55,16.37,16.37,0,0,0,4.15,7.83l.08-.07a17.66,17.66,0,0,1-3.47-7.89,11.4,11.4,0,0,1,.11-4.24c.29-1.38.84-2.75,1.21-4.23a14.16,14.16,0,0,0,.37-4.54,23.61,23.61,0,0,0-.86-4.43,13,13,0,0,0-2-4.1,6.9,6.9,0,0,0-3.68-2.68,5,5,0,0,0-2.3-.06,21.23,21.23,0,0,0-2.14.65,12.88,12.88,0,0,1-2.1.6,6.47,6.47,0,0,1-2.15,0,6.67,6.67,0,0,1-3.72-2A21.72,21.72,0,0,1,180.56,26a12.83,12.83,0,0,0-3-3.4,9,9,0,0,0-4.28-1.61,15.5,15.5,0,0,0-8.61,2.14Z"/><path class="cls-12" d="M159.48,22.58a17.81,17.81,0,0,0-10.38.67A16.67,16.67,0,0,0,141,29.92a18.88,18.88,0,0,0-2.83,10,26.82,26.82,0,0,0,2.25,10.17,36.1,36.1,0,0,0,2.38,4.68c.46.75.93,1.48,1.43,2.2s1.06,1.4,1.45,2.1a4.41,4.41,0,0,1,.55,2.27,5.82,5.82,0,0,1-.49,2.32A22.54,22.54,0,0,1,143,67.91a14.93,14.93,0,0,0-2.59,4.67,11,11,0,0,0-.27,5.35,22.51,22.51,0,0,0,4.71,9.32l.08-.06a24.43,24.43,0,0,1-4-9.38,10,10,0,0,1,.41-4.93,15.28,15.28,0,0,1,2.49-4.35,21.36,21.36,0,0,0,3-4.43,6.32,6.32,0,0,0-.19-5.45c-.49-.81-1.05-1.46-1.56-2.15s-1-1.39-1.47-2.11a39.5,39.5,0,0,1-2.55-4.48A22.39,22.39,0,0,1,138.53,40a18.31,18.31,0,0,1,.23-2.56,17.77,17.77,0,0,1,.66-2.48,18.68,18.68,0,0,1,2.29-4.55A17.45,17.45,0,0,1,149.39,24a19.47,19.47,0,0,1,10.07-1.28Z"/><path class="cls-12" d="M194.87,46.79a12.47,12.47,0,0,0-1.24,5.77,8.9,8.9,0,0,0,.62,3,8.21,8.21,0,0,0,1.55,2.61,25.44,25.44,0,0,0,4.66,3.63,15.58,15.58,0,0,1,4.14,4,14.53,14.53,0,0,1,2.06,10.82,16,16,0,0,1-6.06,9.37l.05.08a14.15,14.15,0,0,0,7-9.24A13.8,13.8,0,0,0,205,65.43a23.3,23.3,0,0,0-4.38-3.93,21.43,21.43,0,0,1-4.21-3.89,10.11,10.11,0,0,1-2-5.11,15.77,15.77,0,0,1,.57-5.68Z"/><path class="cls-12" d="M150.63,68.6a11.31,11.31,0,0,0-2.8,7,7.4,7.4,0,0,0,1,3.77,12.81,12.81,0,0,0,2.54,2.88,29.69,29.69,0,0,1,5.09,5.36A24.12,24.12,0,0,1,160,94.08a13.42,13.42,0,0,1,.43,7.15c-.5,2.36-2,4.31-3.37,6.41a13.75,13.75,0,0,0-1.7,3.46,11.38,11.38,0,0,0-.43,3.84,13.29,13.29,0,0,0,2.69,7l.08,0a14.64,14.64,0,0,1-2-7,10.43,10.43,0,0,1,.57-3.52,14.73,14.73,0,0,1,1.67-3.19c.67-1,1.42-2,2-3.16a12.3,12.3,0,0,0,1.37-3.62,12.91,12.91,0,0,0-.83-7.53,37.39,37.39,0,0,0-3.7-6.53c-.71-1-1.45-2.05-2.25-3s-1.69-1.87-2.56-2.75a16.27,16.27,0,0,1-2.37-2.73,6.68,6.68,0,0,1-1-3.33,12.62,12.62,0,0,1,2.12-6.89Z"/><path class="cls-9" d="M160.26,30.29c1,.06,2.05.15,3.17.28,4.88.56,7.55.86,10.54,2.23,6.25,2.85,9.19,8.16,12.15,7.06a11,11,0,0,0,1.86-1q.33-.21.6-.42c-2.78,2.1-3.2,8.11-3.42,8.3s-2.14-3.91-5.11-6.89S169.57,33.14,160.26,30.29Z"/><path class="cls-13" d="M169.91,67.46a81.73,81.73,0,0,1-10.64,1.16c-1.1,0,2.21,3.51,5.4,3.39S171,67.3,169.91,67.46Z"/><path class="cls-14" d="M199.9,186.35c-1.6-1.07-2.19-5.69-2.08-7.35a2,2,0,0,1,.88-1.82c.49-.24,11.31-3,12.6-1.42,1.81,2.19,2.17,7.11.64,8.78-1.11,1.22-6.15,2.26-9.44,2.26A5.32,5.32,0,0,1,199.9,186.35Zm-.09-7.49c-.24,1.2.46,5.25,1.17,5.83,1.2.59,8.57-.57,9.5-1.49.71-.78.63-4.28-.56-6C208.41,177.06,201.52,178.27,199.81,178.86Z"/><path class="cls-14" d="M200.87,181.86H201c.44-.15,3.92-.68,5.23-.87a.25.25,0,0,0,.21-.28.26.26,0,0,0-.29-.21c-.48.07-4.74.7-5.31.89a.24.24,0,0,0-.15.31A.23.23,0,0,0,200.87,181.86Z"/><path class="cls-15" d="M188.56,180.65l42.77-10.79a2.83,2.83,0,0,0,2.07-3.36l-8.82-39.93a2.83,2.83,0,0,0-3.46-2.14l-42.76,10.78a2.85,2.85,0,0,0-2.08,3.37l8.82,39.93A2.83,2.83,0,0,0,188.56,180.65Z"/><path class="cls-3" d="M206.62,156.22c-.62,4-5.09,7.94-6.49,9.76s-8.6,10.41-11.16,11.32a10.05,10.05,0,0,1-4,.76l-1.57-7.1Z"/><path class="cls-8" d="M172.2,157.07c1.81-2,3.71-2.33,4.42-3.35s.86-3.74,1.9-4,1.4,7.37,1.4,7.37,4.3-1,7.32-1.84,8.43-2.64,10.82-3.12,3.41,0,3.59.65,1-.42,2.28,0,1.57,1.23,1,1.88l-.58.65s1.7-.13,2.28.9-2.9,4-3.68,4.51-4.81,3-5.21,3.26-3.51,4.71-5.54,7-2.43,3.16-4.13,3.9-4.67.83-7.72.79-3.85-.46-5.07-.34-21.75,8.85-28.57,10.21-6.69-3.1-7.19-5,2.11-13.76,6-15.37,10.78-.37,15-.37,5.33-2.73,7.93-5A20.45,20.45,0,0,1,172.2,157.07Z"/><path class="cls-9" d="M180.67,163.21a.11.11,0,0,0,.07,0c.21-.15,2.58-1.11,4.87-2s4.64-1.88,5.83-2.42c2.35-1.06,7.6-3.52,9.06-4.4.9-.55,1.3-1,1.3-1.42s-.22-.62-.68-.9a.12.12,0,0,0-.17,0,.13.13,0,0,0,0,.17c.38.24.57.46.57.69s-.39.72-1.19,1.2c-1.45.89-6.68,3.34-9,4.4-1.19.53-3.55,1.49-5.83,2.41-2.91,1.18-4.69,1.9-4.92,2.06a.15.15,0,0,0,0,.18A.16.16,0,0,0,180.67,163.21Z"/><path class="cls-16" d="M252.17,119.74l2.08-3.48a1.49,1.49,0,0,0-2.56-1.53l-3.05,5.1Z"/><path class="cls-9" d="M184.33,167.84s3.68-2.49,6-3.72c1.21-.63,2.85-1.7,4.58-2.83s3.27-2.11,4.53-2.81l.75-.41c2.55-1.37,5.44-2.93,5.08-4.38l-.24.06c.31,1.26-2.61,2.84-4.95,4.11l-.76.4c-1.27.7-2.93,1.78-4.54,2.83s-3.37,2.18-4.56,2.81c-2.34,1.23-6,3.71-6,3.73Z"/><path class="cls-9" d="M187.67,171.08a.09.09,0,0,0,.07,0c.65-.48,7.91-5.62,11.46-7.86a.12.12,0,1,0-.13-.21c-3.63,2.29-10.81,7.38-11.47,7.88a.12.12,0,0,0,0,.17A.12.12,0,0,0,187.67,171.08Z"/><path class="cls-9" d="M175.66,157.75a19.83,19.83,0,0,0,3.92-.56.11.11,0,0,0,.09-.15.13.13,0,0,0-.15-.09,16,16,0,0,1-4.23.53.12.12,0,0,0-.14.1.12.12,0,0,0,.1.14A2.22,2.22,0,0,0,175.66,157.75Z"/><path class="cls-9" d="M173.9,166.1l.06-.25c-.08,0-.22-.16-.37-.53a4.65,4.65,0,0,1,.19-3.78l-.2-.14a4.87,4.87,0,0,0-.22,4C173.47,165.7,173.66,166,173.9,166.1Z"/><path class="cls-9" d="M177.68,172.53a1.33,1.33,0,0,0,.69-.17l-.12-.21a2.31,2.31,0,0,1-2.29-.57,1.4,1.4,0,0,1-.57-1.47l-.23-.09a1.57,1.57,0,0,0,.64,1.75A3.06,3.06,0,0,0,177.68,172.53Z"/><path class="cls-9" d="M182,173.92a1,1,0,0,0,.38-.06l-.1-.23c-.29.12-1.21.07-2.65-1l-.14.2A4.46,4.46,0,0,0,182,173.92Z"/><path class="cls-8" d="M235.13,138c-.5-4.71-.58-5.78,0-7.68s1.4-4.88,2.27-6a42.2,42.2,0,0,1,3.59-3.71,1.9,1.9,0,0,1,3.07.69,2.46,2.46,0,0,1,.13,1.17c-.19.9-2.95,4.12-2.85,4.16s2,1.76,3.17,1c.55-.35,9.22-.52,9.13-.61-3.4-3.69-4.11-2.86-7.35-3.42a1.61,1.61,0,0,1-.83-2.64c.62-.74,3.12-1.41,4.89-1.33a11.25,11.25,0,0,1,3.39.39c.78.31,4.15,5,4.9,6.1a9.88,9.88,0,0,1,1.77,3.91c.31,1.61-1.37,2.1-1.59,3.16s1.24,2.63.19,3.93-1.77,1.37-2,2a14.27,14.27,0,0,1-2.39,3.38c-.75.71.84,2.21,1.77,3a7.5,7.5,0,0,1,2.76,4.71c.49,2.67-.56,8.31-2.48,12.31a8.87,8.87,0,0,1-7.78,4.92c-2.2.19-5.52-1.61-8.43-5.3s-3.5-15.87-4-18.61S235.23,139,235.13,138Z"/><path class="cls-9" d="M187.36,175.17a1,1,0,0,0,.35,0l-.09-.23a2.84,2.84,0,0,1-2.71-1.33l-.22.11A3.1,3.1,0,0,0,187.36,175.17Z"/><path class="cls-9" d="M174.92,175.5l.1-.22c-2.82-1.32-6.69-4.12-7.26-5.27l-.22.11C168.19,171.43,172.25,174.26,174.92,175.5Z"/><path class="cls-9" d="M256.59,133.33a.11.11,0,0,0,.11-.08.13.13,0,0,0-.07-.16,32.34,32.34,0,0,0-4-1.08,19.94,19.94,0,0,0-6-.62c-2.12.16-4.47.29-5.51-.27a1.48,1.48,0,0,1-.79-1.23,1.71,1.71,0,0,1,.8-1.5c.88-.61,2.33-.61,3.86-.61.47,0,.94,0,1.4,0,.75,0,1.61-.14,2.61-.26a41.13,41.13,0,0,1,5.49-.44.12.12,0,0,0,.12-.12.13.13,0,0,0-.12-.13,43.06,43.06,0,0,0-5.52.44c-1,.13-1.85.24-2.59.27-.45,0-.93,0-1.39,0-1.57,0-3.06,0-4,.66a2,2,0,0,0-.91,1.71,1.73,1.73,0,0,0,.92,1.43c1.1.6,3.49.48,5.65.31a19.54,19.54,0,0,1,5.92.61,29.78,29.78,0,0,1,4,1.08Z"/><path class="cls-9" d="M251.7,131.31a.15.15,0,0,0,.09,0,3,3,0,0,0,0-3.41.13.13,0,0,0-.17,0,.13.13,0,0,0,0,.17,2.74,2.74,0,0,1,0,3.12.13.13,0,0,0,0,.18A.11.11,0,0,0,251.7,131.31Z"/><path class="cls-9" d="M247.15,130.44a.11.11,0,0,0,.1-.06,2.14,2.14,0,0,0,0-2.14.11.11,0,0,0-.16-.06.13.13,0,0,0-.06.17,2,2,0,0,1,0,1.9.13.13,0,0,0,0,.17Z"/><path class="cls-9" d="M252.9,123.33a.11.11,0,0,0,.08,0,2.74,2.74,0,0,0,.65-2.73.12.12,0,1,0-.23.07,2.47,2.47,0,0,1-.59,2.48.12.12,0,0,0,0,.17A.13.13,0,0,0,252.9,123.33Z"/><path class="cls-9" d="M254.55,138.13a.13.13,0,0,0,.12-.11.12.12,0,0,0-.11-.14c-.8-.11-1.86-.35-3-.6a35.29,35.29,0,0,0-4.15-.77c-4.13-.33-6.8-.85-7.33-1.4a1.28,1.28,0,0,1-.17-1.41,1.91,1.91,0,0,1,2.06-1c.88,0,2,.17,3.19.29a37.48,37.48,0,0,0,4.59.33,19.78,19.78,0,0,1,2.86.16c.95.09,2,.19,3.21.21a.12.12,0,0,0,0-.24c-1.17,0-2.24-.13-3.19-.22a20.17,20.17,0,0,0-2.89-.16,37,37,0,0,1-4.56-.32c-1.19-.13-2.31-.25-3.2-.3a2.27,2.27,0,0,0-2.29,1.13,1.52,1.52,0,0,0,.21,1.69c.78.82,5,1.28,7.49,1.48a35.43,35.43,0,0,1,4.12.76c1.13.26,2.2.5,3,.6Z"/><path class="cls-9" d="M251.7,142a.12.12,0,0,0,.11-.08.11.11,0,0,0-.07-.16l-1.34-.53a59.86,59.86,0,0,0-5.9-2.12c-2.56-.76-3.12-1.16-3.48-1.84a.86.86,0,0,1,.13-.89c.19-.24.45-.38.56-.35a.12.12,0,0,0,.14-.1.11.11,0,0,0-.09-.14.91.91,0,0,0-.8.44,1.07,1.07,0,0,0-.16,1.16c.41.77,1,1.18,3.63,2a59.41,59.41,0,0,1,5.88,2.11l1.34.53Z"/><path class="cls-9" d="M246.45,135.65a.12.12,0,0,0,.12-.1,6.36,6.36,0,0,0,0-2.37.12.12,0,0,0-.24.06,6.22,6.22,0,0,1,0,2.26.12.12,0,0,0,.09.14Z"/><path class="cls-9" d="M253.64,136.72a.12.12,0,0,0,.1-.05,2.7,2.7,0,0,0,.39-2.35.14.14,0,0,0-.16-.07.13.13,0,0,0-.08.16,2.44,2.44,0,0,1-.35,2.11.13.13,0,0,0,0,.18Z"/><path class="cls-9" d="M247.15,139.28a.11.11,0,0,0,.11-.06,3.88,3.88,0,0,0,.27-1.76.12.12,0,0,0-.12-.12.13.13,0,0,0-.13.13,3.49,3.49,0,0,1-.24,1.63.13.13,0,0,0,.05.17Z"/><path class="cls-9" d="M240.54,128.42a.11.11,0,0,0,.1-.06c.1-.15,1-1.46.89-2,0-.11.38-.52.69-.85a7,7,0,0,0,2.12-3.37.13.13,0,0,0-.11-.14c-.06,0-.13,0-.13.11a6.81,6.81,0,0,1-2.06,3.23c-.55.58-.79.85-.75,1.06a4.87,4.87,0,0,1-.85,1.77.12.12,0,0,0,0,.17A.11.11,0,0,0,240.54,128.42Z"/><path class="cls-9" d="M237,143.37a.13.13,0,0,0,.12-.09,5.69,5.69,0,0,1,2.34-3.15.12.12,0,0,0,0-.16.13.13,0,0,0-.17-.05,5.82,5.82,0,0,0-2.45,3.3.12.12,0,0,0,.09.15Z"/><path class="cls-9" d="M242.45,148a6.79,6.79,0,0,0,.88-.07c1.6-.26,8.34-3.4,10.61-4.52a.12.12,0,1,0-.11-.22c-2.26,1.11-9,4.24-10.54,4.49a6.84,6.84,0,0,1-5.43-1.9.12.12,0,0,0-.17,0,.13.13,0,0,0,0,.18A7.36,7.36,0,0,0,242.45,148Z"/><path class="cls-16" d="M246.26,123.6l-9.57,16a2,2,0,0,0-.27.78l-.36,2.92,2.55-1.55a2,2,0,0,0,.66-.68l10.17-17Z"/><path class="cls-7" d="M224.59,127.75a2.84,2.84,0,0,0-3.46-2.14L178.36,136.4a2.84,2.84,0,0,0-2.08,2.18,2.83,2.83,0,0,1,2.08-3.36l42.76-10.79a2.83,2.83,0,0,1,3.46,2.14l8.82,39.93a2.93,2.93,0,0,1,0,1.18Z"/><path class="cls-17" d="M57.14,150.05c-8.11,3.88-19.51,10.49-27.28,18.42s-9.59,23.14-9.75,28.6-.17,14.71.66,18.18-.33,10.08.33,14.54,1.65,25,3.47,29.09,10.74,17.36,15.54,20,7.43,5.62,10.08,4.47,6,1.65,4.46,7.27,88,5.44,95.89-.51-5.48-43.62-8.12-50.9-4.25-15.86-3.12-20.82-1.13-19,0-19.17,5.93,8.92,7.74,10.9,5.13,4.47,6.62,4.14,22.64,22.47,26.94,20.82,10.24-3.47,12.23-8.26,4-13.72-1.49-19.84-3.47-8.59-7.77-12.23-7.77-8.92-12.06-11.07S161.92,169,158,167.15s-5.12-3.17-10.41-8-12.4-9-16.86-9.82-15.78-.52-22.44-.75S57.14,150.05,57.14,150.05Z"/><path class="cls-2" d="M112.22,165c-2.94-.08-5.78-2.64-7.17-2.48s-10.64,9.74-11.81,10.42c-2.14,1.23-10.33-1.41-12.23-2.73s-10.91,12.39-12.1,12-4.67-7.64-6.74-13.1S56.63,153,56.73,152.28s45.19.75,49.57,2.64S112.22,165,112.22,165Z"/><path class="cls-18" d="M94.77,168.28c4.17-5.09,6.81-8.33,8.87-9.16s7,6.38,8.58,5.88-3.85-20-3.85-21.15-14.55-5.79-13.56-1.66S94.77,168.28,94.77,168.28Z"/><path class="cls-8" d="M68.09,122.82c-.07,6.82-1.23,19.8-1.71,22.49s17.35,23.13,21.78,25.51a6.51,6.51,0,0,0,4.44,0c3.44-2,4.9-9.53,4.9-11,0-1.9.22-16.22,0-17.33S68.16,116.47,68.09,122.82Z"/><path class="cls-9" d="M88.52,162.1C80.16,159.41,74,141.81,73,125.52c-.08-1.3,7.16,3,15,8.49,5.19,4.23,9.39,8,9.48,8.45.22,1.11,0,15.43,0,17.33a4.6,4.6,0,0,1-.31,1.28A11.72,11.72,0,0,1,88.52,162.1Z"/><path class="cls-8" d="M115.17,92.46c1.42,4.05,1.68,11.28,1.68,14.25a33.8,33.8,0,0,1-.59,6.74c-.3,1.28-1.29,4-1.09,5.26s-.52,8.19-1.17,11.7A90.66,90.66,0,0,1,110.38,142c-.78,2.08-4.81,6.46-6.83,7.7s-6.3,1-10.75-1.24-18.89-13.17-19.72-16.08-1.73-8.83-2.2-8.24a6.47,6.47,0,0,1-2.79,2.44c-1.36.41-5.22-3-6.17-5.73S60,116,60.31,113.45s1.48-4.6,2.79-4.6,1.54-11,2.31-15.09S77.89,83,86.74,81.4s25.07,7.08,26.43,8A5.12,5.12,0,0,1,115.17,92.46Z"/><path class="cls-10" d="M96.27,116.23c.33-1.69,1.33-2.93,2.23-2.75s1.37,1.69,1,3.39-1.33,2.93-2.23,2.75S95.94,117.93,96.27,116.23Z"/><path class="cls-10" d="M111.16,116.46c.33-1.69,1.32-2.93,2.22-2.75s1.37,1.69,1,3.39-1.33,2.93-2.23,2.75S110.83,118.16,111.16,116.46Z"/><path class="cls-3" d="M103.75,106.87a31.27,31.27,0,0,0-8.69.79c-1.46.3-4.9,2.46-5,3.37s2.85-.65,5.62-1,7.55-.45,8.59-.69S105.27,107,103.75,106.87Z"/><path class="cls-3" d="M112.59,107.51a20.48,20.48,0,0,1,5,1.24c.87.33.32,2.87,0,2.76-2.22-.66-5.2-1.32-5.9-1.67S111.31,107.37,112.59,107.51Z"/><path class="cls-9" d="M113.17,89.42c-.19,1.58-3,2.54-4.34,3-4,1.37-7.83,0-11.52-.83-5.67-1.28-7.43-3.5-9.62-2.37-1.86,1-2.57,3.32-2.85,4.27-1.06,3.55.75,5.25-.48,7.13s-3.86.7-6.06,2.61c-2,1.77-1.63,4.43-2,10.34-.26,4.06-1,12-1.78,12-.89,0-3.9-11.58-1.3-24.48,1.58-7.83,3.36-16.66,10.57-20.55C95.49,74.22,113.68,85.19,113.17,89.42Z"/><path class="cls-3" d="M63.09,108.85c.5.37,3.57-.41,6.18,3.25a10.24,10.24,0,0,1,1.43,4.06l4.8,4.2c.06-3,.17-6.11.25-8.29.18-4.63-.65-6.88,1.49-7.66s3.92.35,5.7-1.36.58-6.36.41-9.69,1.6-4.63,2.8-4.87c3.53-.71,6.5.53,8.43.84,6.74,1.06,7.49,2.18,10.8,1.66s4.78-1.92,7-.95c1.91.82,3,2.78,3.21,2.61s-1.22-1.66-1.3-3.8c0-1.45.56-2.11,1-3.33,1.2-3.77-1.41-7.75-1.55-8a10,10,0,0,0-8.55-4.52c-1.62.12-1.56.69-3.56.83-2.85.21-3.81-.86-6.54-.83-2,0-2.49.63-4.63,1.06-3.88.8-6.16-.43-8.79-.7C75.2,72.72,68.22,77.93,65,83.26c-2.23,3.69-2.53,7.2-3,12.36C61.61,100.55,60.45,106.85,63.09,108.85Z"/><path class="cls-9" d="M65.47,123.71a.78.78,0,0,0,.45-.13,3.8,3.8,0,0,0,1.22-1.52c.2-.4.31-.56.43-.55a.58.58,0,0,0,.64-.26c.29-.46.05-1.33-.6-2.21a.24.24,0,0,0-.34-.05.25.25,0,0,0,0,.33c.62.83.71,1.48.59,1.68,0,0,0,.07-.15,0-.49-.09-.71.34-.94.79a3.24,3.24,0,0,1-1.06,1.34s-.17.12-.44,0c-1.13-.51-3-3.74-3.39-6.49-.49-3.23.48-5.43,1.39-5.59,1.07-.19,3,.87,3.84,4.49a.24.24,0,0,0,.29.18.24.24,0,0,0,.18-.28c-.86-3.94-3.16-5.07-4.39-4.86s-2.29,2.73-1.78,6.13c.41,2.72,2.29,6.24,3.67,6.85A1.14,1.14,0,0,0,65.47,123.71Z"/><path class="cls-19" d="M86.08,121.59c1-2.14,4.24-2.71,7.15-1.3s4.43,4.3,3.39,6.43-4.25,2.71-7.15,1.3S85,123.72,86.08,121.59Z"/><path class="cls-19" d="M115,121.42l.14,0c-.18,2.45-.58,6-1,8.37a3.75,3.75,0,0,1-2.54-1.89C110.54,125.72,112.06,122.84,115,121.42Z"/><path class="cls-18" d="M66.46,136c-8.9,7.31-9.1,13.64-9.72,15.87S68,181.74,68.91,182.23s7.72-15.93,8.71-16,6,2.91,6,2.91-10.25-14.4-13.35-21.5A52.76,52.76,0,0,1,66.46,136Z"/><path class="cls-8" d="M142.29,222.77c7.3-2.78,10.75-4.71,13.62-7.44s5.35-5.21,8.57-6.07,17.36,6.61,20.21,10.93.12,12.33-4.09,14.89-13.64,3.8-17.61,3.8-16.23-.12-17.6,0S140.66,223.39,142.29,222.77Z"/><path class="cls-2" d="M28.54,173.59a.18.18,0,0,0,.1,0,65.49,65.49,0,0,0,7.09-5.36c6.07-4.89,14.38-11.59,20-14a.25.25,0,0,0,.13-.33.24.24,0,0,0-.32-.13c-5.7,2.43-14,9.16-20.13,14.07a66.6,66.6,0,0,1-7,5.29.24.24,0,0,0-.12.33A.25.25,0,0,0,28.54,173.59Z"/><path class="cls-2" d="M58.25,252.64a.24.24,0,0,0,.24-.24,12.18,12.18,0,0,0-.59-3.15,21.46,21.46,0,0,1-.93-5.12c-.06-1.41-.24-3.54-.43-5.79-.34-4-.73-8.5-.65-11.23.07-2.4-1-5.73-2-9a37.62,37.62,0,0,1-1.84-7.33c-1.52-18.27-8.43-28.57-14-34a.25.25,0,1,0-.35.35c5.47,5.36,12.31,15.55,13.81,33.67a38.25,38.25,0,0,0,1.87,7.44c1,3.18,2,6.47,2,8.79-.07,2.76.31,7.29.65,11.28.2,2.25.38,4.38.44,5.77a22.23,22.23,0,0,0,.94,5.23,12,12,0,0,1,.58,3A.25.25,0,0,0,58.25,252.64Z"/><path class="cls-2" d="M64.2,258.59h.06a.25.25,0,0,0,.19-.3C63,252.53,55,252.07,48,253.56a.24.24,0,0,0-.19.29.23.23,0,0,0,.29.19c6.78-1.44,14.49-1,15.83,4.36A.26.26,0,0,0,64.2,258.59Z"/><path class="cls-2" d="M55.15,250.38a.23.23,0,0,0,.17-.07.24.24,0,0,0,0-.35C51,245.51,41,245.6,37.83,246.83a.25.25,0,1,0,.17.47c3-1.17,12.82-1.23,17,3A.24.24,0,0,0,55.15,250.38Z"/><path class="cls-2" d="M45.73,202.19a.27.27,0,0,0,.12,0,.25.25,0,0,0,.09-.34c-4.93-8.51-13.39-13.55-13.48-13.6a.25.25,0,0,0-.34.08.25.25,0,0,0,.09.34,42.11,42.11,0,0,1,13.3,13.43A.25.25,0,0,0,45.73,202.19Z"/><path class="cls-2" d="M44.11,207.15a.26.26,0,0,0,.22-.13.24.24,0,0,0-.1-.33c-3.11-1.75-8-1.89-8.17-1.9s-.25.11-.25.25a.24.24,0,0,0,.24.25c.05,0,4.93.14,7.94,1.83Z"/><path class="cls-2" d="M105.05,225.25a.25.25,0,0,0,.24-.28c-.65-5.59-7.4-41.3-12.32-52.14a.24.24,0,0,0-.32-.12.25.25,0,0,0-.13.33c4.9,10.79,11.63,46.41,12.28,52A.26.26,0,0,0,105.05,225.25Z"/><path class="cls-2" d="M138.61,197.15a.26.26,0,0,0,.25-.29c-2.64-14.81-4.58-24.4-6.29-31.09-2-7.73-4.64-11.49-4.66-11.52a.25.25,0,1,0-.4.29s2.64,3.73,4.58,11.35c1.71,6.68,3.65,16.26,6.28,31.06A.25.25,0,0,0,138.61,197.15Z"/><path class="cls-2" d="M139.3,188.68a.25.25,0,0,0,.24-.17c0-.09,3.33-9.07,9-15.41a.25.25,0,0,0-.37-.33c-5.75,6.41-9.08,15.49-9.11,15.58a.24.24,0,0,0,.15.31Z"/><path class="cls-2" d="M138.62,183.43a.24.24,0,0,0,.24-.22,51,51,0,0,1,3.23-11.67.25.25,0,0,0-.14-.32.24.24,0,0,0-.32.13,51.08,51.08,0,0,0-3.26,11.8.25.25,0,0,0,.22.28Z"/><path class="cls-2" d="M163.86,208.55a.27.27,0,0,0,.17-.06c3.13-3,11-7,18.4-1.39a.25.25,0,0,0,.3-.4c-7.67-5.83-15.81-1.62-19,1.43a.25.25,0,0,0,0,.35A.24.24,0,0,0,163.86,208.55Z"/><path class="cls-2" d="M166.71,205.25a.25.25,0,0,0,.22-.13c.92-1.75,4.82-4.73,13-3.51a.24.24,0,0,0,.28-.21.25.25,0,0,0-.2-.28c-8.51-1.27-12.6,1.91-13.57,3.76a.26.26,0,0,0,.11.34A.2.2,0,0,0,166.71,205.25Z"/><path class="cls-2" d="M163.41,208.55a.24.24,0,0,0,.24-.2c0-.06,1.13-6.2,6.57-9.16a.26.26,0,0,0,.1-.34.25.25,0,0,0-.34-.1c-5.66,3.08-6.81,9.45-6.82,9.51a.25.25,0,0,0,.21.29Z"/><path class="cls-2" d="M153.57,206.42a.25.25,0,0,0,.24-.17c.66-2,4.49-8.75,13.07-13.85a.25.25,0,0,0,.09-.34.24.24,0,0,0-.34-.08c-8.71,5.17-12.61,12.1-13.29,14.11a.24.24,0,0,0,.15.32Z"/><path class="cls-15" d="M102.91,277.32l50.48-12.74a3.35,3.35,0,0,0,2.45-4l-10.41-47.14a3.35,3.35,0,0,0-4.09-2.52L90.86,223.69a3.35,3.35,0,0,0-2.45,4l10.41,47.13A3.35,3.35,0,0,0,102.91,277.32Z"/><path class="cls-7" d="M124.22,248.49c-.73,4.68-6,9.36-7.66,11.51s-10.14,12.29-13.17,13.36a12,12,0,0,1-4.68.9l-1.86-8.39Z"/><path class="cls-8" d="M83.59,249.49c2.15-2.37,4.39-2.76,5.22-4s1-4.42,2.24-4.76,1.66,8.71,1.66,8.71,5.07-1.25,8.63-2.17,10-3.13,12.78-3.69,4,0,4.24.76,1.18-.49,2.69.05,1.85,1.44,1.17,2.21l-.68.77s2-.15,2.68,1.07-3.42,4.68-4.34,5.31-5.67,3.54-6.15,3.86-4.14,5.56-6.53,8.21-2.88,3.74-4.88,4.61-5.51,1-9.12.93-4.54-.54-6-.39S61.55,281.46,53.5,283.07s-7.9-3.66-8.49-5.86S47.5,261,52,259.07s12.73-.44,17.7-.44,6.29-3.22,9.36-5.85A23.6,23.6,0,0,1,83.59,249.49Z"/><path class="cls-9" d="M93.59,256.73a.11.11,0,0,0,.08,0c.26-.18,3-1.31,5.75-2.4s5.48-2.22,6.89-2.85c2.78-1.26,9-4.16,10.69-5.2,1-.64,1.54-1.17,1.54-1.68s-.26-.72-.8-1.06a.15.15,0,0,0-.21.05.15.15,0,0,0,0,.2c.45.28.67.54.67.81s-.46.86-1.4,1.43c-1.7,1-7.88,3.93-10.66,5.18-1.4.63-4.19,1.76-6.88,2.85-3.44,1.39-5.54,2.25-5.81,2.43a.16.16,0,0,0,0,.21A.14.14,0,0,0,93.59,256.73Z"/><path class="cls-9" d="M97.92,262.19s4.34-2.94,7.08-4.38c1.42-.75,3.36-2,5.41-3.34,1.89-1.23,3.85-2.5,5.34-3.32l.9-.48c3-1.63,6.4-3.47,6-5.17l-.28.07c.37,1.48-3.08,3.34-5.84,4.84l-.9.48c-1.5.83-3.46,2.1-5.36,3.33s-4,2.59-5.39,3.33c-2.75,1.45-7.07,4.37-7.11,4.4Z"/><path class="cls-9" d="M101.86,266a.11.11,0,0,0,.08,0c1-.73,9.45-6.71,13.53-9.28a.15.15,0,0,0,0-.21.14.14,0,0,0-.2,0c-4.08,2.58-12.57,8.57-13.54,9.3a.14.14,0,0,0,0,.2A.14.14,0,0,0,101.86,266Z"/><path class="cls-9" d="M87.68,250.28a23.61,23.61,0,0,0,4.63-.65.14.14,0,0,0,.1-.18.14.14,0,0,0-.17-.11,17.79,17.79,0,0,1-5,.62.15.15,0,1,0,0,.29A3,3,0,0,0,87.68,250.28Z"/><path class="cls-9" d="M85.61,260.14l.06-.29c-.09,0-.26-.19-.43-.62a5.45,5.45,0,0,1,.23-4.47l-.24-.16a5.66,5.66,0,0,0-.26,4.74C85.1,259.67,85.32,260.08,85.61,260.14Z"/><path class="cls-9" d="M90.06,267.73a1.71,1.71,0,0,0,.82-.19l-.14-.26a2.73,2.73,0,0,1-2.71-.67c-.3-.26-1-.95-.67-1.73l-.27-.11a1.87,1.87,0,0,0,.75,2.07A3.7,3.7,0,0,0,90.06,267.73Z"/><path class="cls-9" d="M95.15,269.38a1.25,1.25,0,0,0,.45-.08l-.12-.27c-.34.15-1.43.08-3.12-1.2l-.18.23A5.36,5.36,0,0,0,95.15,269.38Z"/><path class="cls-9" d="M101.49,270.85a1.4,1.4,0,0,0,.42-.05l-.11-.27A3.31,3.31,0,0,1,98.6,269l-.26.14A3.65,3.65,0,0,0,101.49,270.85Z"/><path class="cls-9" d="M86.8,271.24l.13-.26c-3.33-1.55-7.9-4.87-8.57-6.22l-.26.13C78.87,266.43,83.65,269.77,86.8,271.24Z"/><path class="cls-7" d="M145.43,214.88a3.33,3.33,0,0,0-4.08-2.52L90.87,225.09a3.32,3.32,0,0,0-2.45,2.57,3.34,3.34,0,0,1,2.44-4L141.34,211a3.35,3.35,0,0,1,4.09,2.52l10.41,47.14a3.42,3.42,0,0,1,0,1.39Z"/><path class="cls-20" d="M110.92,134.36c-3.47,1-11.31.26-13,0s3.75,4.63,7.07,4.3C108.09,138.35,111.78,134.1,110.92,134.36Z"/><path class="cls-21" d="M160.65,53.41s1.11,7.75,0,10,3.32,2.22,4.43,1.11"/><path class="cls-21" d="M108.62,114.23s-.49,7.7,1.83,10.88-4.64,5.26-6.23,3.91"/></g></g></svg>