<svg xmlns="http://www.w3.org/2000/svg" viewBox="0 0 888.29 434.45"><defs><style>.cls-1{fill:#3b8aac;}</style></defs><g id="Layer_2" data-name="Layer 2"><g id="Layer_5" data-name="Layer 5"><rect class="cls-1" y="22.22" width="888.29" height="389.82"/><rect class="cls-1" x="8.09" y="2.09" width="28.63" height="28.63" rx="9.26" transform="translate(-5.04 20.65) rotate(-45)"/><rect class="cls-1" x="36.3" y="2.09" width="28.63" height="28.63" rx="9.26" transform="translate(3.22 40.6) rotate(-45)"/><rect class="cls-1" x="64.51" y="2.09" width="28.63" height="28.63" rx="9.26" transform="translate(11.48 60.55) rotate(-45)"/><rect class="cls-1" x="92.72" y="2.09" width="28.63" height="28.63" rx="9.26" transform="translate(19.75 80.49) rotate(-45)"/><rect class="cls-1" x="120.93" y="2.09" width="28.63" height="28.63" rx="9.26" transform="translate(28.01 100.44) rotate(-45)"/><rect class="cls-1" x="149.13" y="2.09" width="28.63" height="28.63" rx="9.26" transform="translate(36.27 120.38) rotate(-45)"/><rect class="cls-1" x="177.34" y="2.09" width="28.63" height="28.63" rx="9.26" transform="translate(44.53 140.33) rotate(-45)"/><rect class="cls-1" x="205.55" y="2.09" width="28.63" height="28.63" rx="9.26" transform="translate(52.79 160.28) rotate(-45)"/><rect class="cls-1" x="233.76" y="2.09" width="28.63" height="28.63" rx="9.26" transform="translate(61.05 180.22) rotate(-45)"/><rect class="cls-1" x="261.97" y="2.09" width="28.63" height="28.63" rx="9.26" transform="translate(69.32 200.17) rotate(-45)"/><rect class="cls-1" x="290.17" y="2.09" width="28.63" height="28.63" rx="9.26" transform="translate(77.58 220.11) rotate(-45)"/><rect class="cls-1" x="318.38" y="2.09" width="28.63" height="28.63" rx="9.26" transform="translate(85.84 240.06) rotate(-45)"/><rect class="cls-1" x="346.59" y="2.09" width="28.63" height="28.63" rx="9.26" transform="translate(94.1 260.01) rotate(-45)"/><rect class="cls-1" x="374.8" y="2.09" width="28.63" height="28.63" rx="9.26" transform="translate(102.36 279.95) rotate(-45)"/><rect class="cls-1" x="403" y="2.09" width="28.63" height="28.63" rx="9.26" transform="translate(110.63 299.9) rotate(-45)"/><rect class="cls-1" x="431.21" y="2.09" width="28.63" height="28.63" rx="9.26" transform="translate(118.89 319.84) rotate(-45)"/><rect class="cls-1" x="459.42" y="2.09" width="28.63" height="28.63" rx="9.26" transform="translate(127.15 339.79) rotate(-45)"/><rect class="cls-1" x="487.63" y="2.09" width="28.63" height="28.63" rx="9.26" transform="translate(135.41 359.73) rotate(-45)"/><rect class="cls-1" x="515.84" y="2.09" width="28.63" height="28.63" rx="9.26" transform="translate(143.67 379.68) rotate(-45)"/><rect class="cls-1" x="544.04" y="2.09" width="28.63" height="28.63" rx="9.26" transform="translate(151.93 399.62) rotate(-45)"/><rect class="cls-1" x="572.25" y="2.09" width="28.63" height="28.63" rx="9.26" transform="translate(160.2 419.57) rotate(-45)"/><rect class="cls-1" x="600.46" y="2.09" width="28.63" height="28.63" rx="9.26" transform="translate(168.46 439.52) rotate(-45)"/><rect class="cls-1" x="628.67" y="2.09" width="28.63" height="28.63" rx="9.26" transform="translate(176.72 459.46) rotate(-45)"/><rect class="cls-1" x="656.87" y="2.09" width="28.63" height="28.63" rx="9.26" transform="translate(184.98 479.41) rotate(-45)"/><rect class="cls-1" x="685.08" y="2.09" width="28.63" height="28.63" rx="9.26" transform="translate(193.24 499.36) rotate(-45)"/><rect class="cls-1" x="713.29" y="2.09" width="28.63" height="28.63" rx="9.26" transform="translate(201.51 519.3) rotate(-45)"/><rect class="cls-1" x="741.5" y="2.09" width="28.63" height="28.63" rx="9.26" transform="translate(209.77 539.25) rotate(-45)"/><rect class="cls-1" x="769.71" y="2.09" width="28.63" height="28.63" rx="9.26" transform="translate(218.03 559.19) rotate(-45)"/><rect class="cls-1" x="797.91" y="2.09" width="28.63" height="28.63" rx="9.26" transform="translate(226.29 579.14) rotate(-45)"/><rect class="cls-1" x="826.12" y="2.09" width="28.63" height="28.63" rx="9.26" transform="translate(234.55 599.09) rotate(-45)"/><rect class="cls-1" x="854.33" y="2.09" width="28.63" height="28.63" rx="9.26" transform="translate(242.82 619.03) rotate(-45)"/><rect class="cls-1" x="7.71" y="403.72" width="28.63" height="28.63" rx="9.26" transform="translate(-289.14 138.02) rotate(-45)"/><rect class="cls-1" x="35.92" y="403.72" width="28.63" height="28.63" rx="9.26" transform="translate(-280.88 157.96) rotate(-45)"/><rect class="cls-1" x="64.13" y="403.72" width="28.63" height="28.63" rx="9.26" transform="translate(-272.62 177.91) rotate(-45)"/><rect class="cls-1" x="92.34" y="403.72" width="28.63" height="28.63" rx="9.26" transform="translate(-264.36 197.85) rotate(-45)"/><rect class="cls-1" x="120.55" y="403.72" width="28.63" height="28.63" rx="9.26" transform="translate(-256.09 217.8) rotate(-45)"/><rect class="cls-1" x="148.75" y="403.72" width="28.63" height="28.63" rx="9.26" transform="translate(-247.83 237.75) rotate(-45)"/><rect class="cls-1" x="176.96" y="403.72" width="28.63" height="28.63" rx="9.26" transform="translate(-239.57 257.69) rotate(-45)"/><rect class="cls-1" x="205.17" y="403.72" width="28.63" height="28.63" rx="9.26" transform="translate(-231.31 277.64) rotate(-45)"/><rect class="cls-1" x="233.38" y="403.72" width="28.63" height="28.63" rx="9.26" transform="translate(-223.05 297.58) rotate(-45)"/><rect class="cls-1" x="261.58" y="403.72" width="28.63" height="28.63" rx="9.26" transform="translate(-214.79 317.53) rotate(-45)"/><rect class="cls-1" x="289.79" y="403.72" width="28.63" height="28.63" rx="9.26" transform="translate(-206.52 337.48) rotate(-45)"/><rect class="cls-1" x="318" y="403.72" width="28.63" height="28.63" rx="9.26" transform="translate(-198.26 357.42) rotate(-45)"/><rect class="cls-1" x="346.21" y="403.72" width="28.63" height="28.63" rx="9.26" transform="translate(-190 377.37) rotate(-45)"/><rect class="cls-1" x="374.42" y="403.72" width="28.63" height="28.63" rx="9.26" transform="translate(-181.74 397.31) rotate(-45)"/><rect class="cls-1" x="402.62" y="403.72" width="28.63" height="28.63" rx="9.26" transform="translate(-173.48 417.26) rotate(-45)"/><rect class="cls-1" x="430.83" y="403.72" width="28.63" height="28.63" rx="9.26" transform="translate(-165.21 437.21) rotate(-45)"/><rect class="cls-1" x="459.04" y="403.72" width="28.63" height="28.63" rx="9.26" transform="translate(-156.95 457.15) rotate(-45)"/><rect class="cls-1" x="487.25" y="403.72" width="28.63" height="28.63" rx="9.26" transform="translate(-148.69 477.1) rotate(-45)"/><rect class="cls-1" x="515.45" y="403.72" width="28.63" height="28.63" rx="9.26" transform="translate(-140.43 497.04) rotate(-45)"/><rect class="cls-1" x="543.66" y="403.72" width="28.63" height="28.63" rx="9.26" transform="translate(-132.17 516.98) rotate(-45)"/><rect class="cls-1" x="571.87" y="403.72" width="28.63" height="28.63" rx="9.26" transform="translate(-123.9 536.94) rotate(-45)"/><rect class="cls-1" x="600.08" y="403.72" width="28.63" height="28.63" rx="9.26" transform="translate(-115.64 556.88) rotate(-45)"/><rect class="cls-1" x="628.29" y="403.72" width="28.63" height="28.63" rx="9.26" transform="translate(-107.38 576.83) rotate(-45)"/><rect class="cls-1" x="656.49" y="403.72" width="28.63" height="28.63" rx="9.26" transform="translate(-99.12 596.77) rotate(-45)"/><rect class="cls-1" x="684.7" y="403.72" width="28.63" height="28.63" rx="9.26" transform="translate(-90.86 616.72) rotate(-45)"/><rect class="cls-1" x="712.91" y="403.72" width="28.63" height="28.63" rx="9.26" transform="translate(-82.6 636.67) rotate(-45)"/><rect class="cls-1" x="741.12" y="403.72" width="28.63" height="28.63" rx="9.26" transform="translate(-74.33 656.61) rotate(-45)"/><rect class="cls-1" x="769.32" y="403.72" width="28.63" height="28.63" rx="9.26" transform="translate(-66.07 676.56) rotate(-45)"/><rect class="cls-1" x="797.53" y="403.72" width="28.63" height="28.63" rx="9.26" transform="translate(-57.81 696.5) rotate(-45)"/><rect class="cls-1" x="825.74" y="403.72" width="28.63" height="28.63" rx="9.26" transform="translate(-49.55 716.45) rotate(-45)"/><rect class="cls-1" x="853.95" y="403.72" width="28.63" height="28.63" rx="9.26" transform="translate(-41.29 736.4) rotate(-45)"/></g></g></svg>