<svg xmlns="http://www.w3.org/2000/svg" viewBox="0 0 340.3 261.64"><defs><style>.cls-1{fill:#c93f3f;opacity:0.13;}.cls-2{fill:#f0954d;}.cls-3{fill:#cc5c54;}.cls-4{fill:#f1a29f;}.cls-5{fill:#8a613e;}.cls-6{fill:#c05d51;}.cls-7{fill:#225173;}.cls-8{fill:#1b3e52;}.cls-9{fill:#4e76d9;}.cls-10{fill:#070633;}.cls-11{fill:#fff;}.cls-12{fill:#3962bf;}.cls-13{opacity:0.7;}</style></defs><g id="Layer_2" data-name="Layer 2"><g id="Layer_5" data-name="Layer 5"><path class="cls-1" d="M335.94,163.88A51.64,51.64,0,0,1,328.19,177c-9,11.14-21.89,17.91-35.41,23.21-5.16,2-10.43,3.83-15.61,5.59-83.46,28.28-142.09,39.27-201.25-23.55C26.34,129.6,37.22,87.69,83.06,30.5c37.8-47.15,112.48-33.11,158.21-1.81,27,18.51,60.62,34.48,81.27,61.24C338.54,110.66,345.53,140.42,335.94,163.88Z"/><path class="cls-2" d="M67.24,236.43h.07a.35.35,0,0,0,.29-.4c-8.12-49.6-16.78-85-24.38-99.68a6.08,6.08,0,0,1-.33-.68.35.35,0,0,0-.45-.2.33.33,0,0,0-.2.44,6.12,6.12,0,0,0,.36.76c7.57,14.62,16.2,49.94,24.31,99.47A.34.34,0,0,0,67.24,236.43Z"/><path class="cls-2" d="M37,133c.91,1.66,6.13,5.16,6.6,4.9s.3-6.54-.61-8.2a3.42,3.42,0,0,0-6,3.3Z"/><path class="cls-2" d="M47.19,139c-.79,1.77-.44,8.18.07,8.41s5.53-3.78,6.32-5.54A3.5,3.5,0,0,0,47.19,139Z"/><path class="cls-2" d="M39.11,149.13c1.9.37,8.07-1.42,8.18-2s-4.93-4.53-6.83-4.91a3.5,3.5,0,1,0-1.35,6.87Z"/><path class="cls-2" d="M59.45,172.81c-1.64,2.8-2.21,13.58-1.41,14.05s9.91-5.31,11.55-8.11a5.88,5.88,0,0,0-10.14-5.94Z"/><path class="cls-2" d="M44.14,188.19c3.1,1,13.72-.91,14-1.79s-7.41-8.46-10.5-9.43a5.88,5.88,0,0,0-3.5,11.22Z"/><path class="cls-2" d="M66.25,185.84c-2.71,2.9-6.29,15.61-5.46,16.38s13.26-3.66,16-6.56a7.19,7.19,0,0,0-10.51-9.82Z"/><path class="cls-2" d="M44.63,205.75c3.89.79,16.59-2.82,16.81-3.93s-10.07-9.37-14-10.16a7.19,7.19,0,0,0-2.85,14.09Z"/><path class="cls-2" d="M69.4,202.08c-2.71,2.9-6.3,15.61-5.47,16.38s13.26-3.66,16-6.56a7.19,7.19,0,0,0-10.5-9.82Z"/><path class="cls-2" d="M47.77,222c3.89.79,16.59-2.82,16.82-3.93s-10.08-9.37-14-10.16A7.19,7.19,0,0,0,47.77,222Z"/><path class="cls-2" d="M78.19,223.12c-3.61,1.65-11.76,12-11.29,13.06s13.65,1.67,17.26,0a7.19,7.19,0,1,0-6-13.08Z"/><path class="cls-2" d="M50.34,238c3.76,1.27,16.81-.73,17.17-1.8s-8.82-10.56-12.58-11.82A7.19,7.19,0,1,0,50.34,238Z"/><path class="cls-2" d="M51,149.55c-.8,1.79-.45,8.31.07,8.54s5.61-3.84,6.42-5.63A3.56,3.56,0,1,0,51,149.55Z"/><path class="cls-2" d="M43,160c1.93.38,8.2-1.44,8.31-2s-5-4.61-6.93-5A3.56,3.56,0,0,0,43,160Z"/><path class="cls-2" d="M55.53,159.45c-1.34,2.44-1.59,11.72-.9,12.1s8.41-4.78,9.75-7.22a5.05,5.05,0,0,0-8.85-4.88Z"/><path class="cls-2" d="M43,174.07c2.74.54,11.65-2,11.8-2.82s-7.11-6.55-9.85-7.09A5.05,5.05,0,1,0,43,174.07Z"/><path class="cls-2" d="M293.93,230.52h-.06a.28.28,0,0,1-.22-.33c8.48-39.56,16.82-67.68,23.51-79.19.15-.25.26-.44.3-.53a.28.28,0,0,1,.36-.15.28.28,0,0,1,.15.37,5.65,5.65,0,0,1-.32.6c-6.66,11.45-15,39.51-23.45,79A.28.28,0,0,1,293.93,230.52Z"/><path class="cls-2" d="M322.28,148.58c-.8,1.29-5.13,3.9-5.5,3.68s0-5.27.81-6.57a2.75,2.75,0,1,1,4.69,2.89Z"/><path class="cls-2" d="M313.87,153c.56,1.45,0,6.6-.39,6.76s-4.29-3.26-4.86-4.71a2.82,2.82,0,0,1,5.25-2.05Z"/><path class="cls-2" d="M320,161.43c-1.54.23-6.43-1.45-6.5-1.89s4.14-3.46,5.68-3.69a2.82,2.82,0,1,1,.82,5.58Z"/><path class="cls-2" d="M302.69,179.68c1.2,2.31,1.24,11,.58,11.34s-7.76-4.65-9-7a4.73,4.73,0,1,1,8.39-4.37Z"/><path class="cls-2" d="M314.39,192.63c-2.53.66-11-1.26-11.18-2s6.28-6.51,8.81-7.17a4.73,4.73,0,0,1,2.37,9.15Z"/><path class="cls-2" d="M296.7,189.88c2.07,2.44,4.45,12.8,3.76,13.39s-10.52-3.47-12.59-5.91a5.79,5.79,0,0,1,8.83-7.48Z"/><path class="cls-2" d="M313.31,206.74c-3.16.48-13.23-2.92-13.36-3.82s8.46-7.14,11.62-7.62a5.79,5.79,0,1,1,1.74,11.44Z"/><path class="cls-2" d="M293.54,202.82c2.06,2.43,4.45,12.79,3.75,13.38s-10.52-3.47-12.58-5.9a5.79,5.79,0,1,1,8.83-7.48Z"/><path class="cls-2" d="M310.15,219.67c-3.16.48-13.23-2.92-13.37-3.82s8.47-7.14,11.63-7.62a5.79,5.79,0,1,1,1.74,11.44Z"/><path class="cls-2" d="M285.64,219.39c2.84,1.46,9,10.13,8.57,10.94s-11,.8-13.88-.66a5.79,5.79,0,0,1,5.31-10.28Z"/><path class="cls-2" d="M307.45,232.43c-3.07.87-13.49-1.25-13.73-2.12s7.5-8.14,10.58-9a5.79,5.79,0,0,1,3.15,11.14Z"/><path class="cls-2" d="M310.42,161.3c.58,1.48,0,6.7-.38,6.87s-4.37-3.31-5-4.78a2.86,2.86,0,0,1,5.33-2.09Z"/><path class="cls-2" d="M316.43,170c-1.57.23-6.54-1.48-6.6-1.93s4.2-3.51,5.77-3.74a2.87,2.87,0,0,1,.83,5.67Z"/><path class="cls-2" d="M306.36,169.08c1,2,.82,9.49.25,9.77s-6.57-4.17-7.56-6.19a4.07,4.07,0,0,1,7.31-3.58Z"/><path class="cls-2" d="M315.9,181.34c-2.22.32-9.29-2.1-9.38-2.74s6-5,8.2-5.31a4.07,4.07,0,0,1,1.18,8.05Z"/><path class="cls-2" d="M293.44,227.41l0,0a.2.2,0,0,1,0-.28c17.14-23,30.83-38.63,38.53-44.06a3.89,3.89,0,0,0,.35-.26.19.19,0,0,1,.28,0,.2.2,0,0,1,0,.28l-.39.28c-7.67,5.41-21.32,21-38.45,44A.2.2,0,0,1,293.44,227.41Z"/><path class="cls-2" d="M335.91,183c-.89.6-4.45,1-4.63.75s1.57-3.39,2.47-4a1.95,1.95,0,1,1,2.16,3.24Z"/><path class="cls-2" d="M329.19,183.37c-.07,1.1-1.93,4.25-2.25,4.24s-1.8-3.37-1.74-4.47a2,2,0,0,1,4,.23Z"/><path class="cls-2" d="M330.63,190.6c-1.06-.31-3.72-2.84-3.63-3.14s3.69-1,4.75-.69a2,2,0,0,1-1.12,3.83Z"/><path class="cls-2" d="M314.1,197.24c.1,1.85-2.44,7.46-3,7.48s-3.62-5.29-3.72-7.13a3.35,3.35,0,0,1,6.69-.35Z"/><path class="cls-2" d="M317.82,209.05c-1.83-.32-6.71-4.06-6.62-4.58s6-2.34,7.79-2a3.35,3.35,0,0,1-1.17,6.6Z"/><path class="cls-2" d="M307.24,202.05c.61,2.18-.92,9.56-1.54,9.73s-5.75-5.34-6.36-7.52a4.1,4.1,0,0,1,7.9-2.21Z"/><path class="cls-2" d="M313,217.82c-2.17-.63-7.65-5.79-7.48-6.42s7.57-2.09,9.74-1.47a4.1,4.1,0,0,1-2.26,7.89Z"/><path class="cls-2" d="M301.38,209.45c.61,2.18-.92,9.55-1.54,9.73s-5.75-5.34-6.36-7.52a4.1,4.1,0,1,1,7.9-2.21Z"/><path class="cls-2" d="M307.09,225.21c-2.17-.62-7.65-5.79-7.48-6.41s7.57-2.1,9.74-1.47a4.1,4.1,0,0,1-2.26,7.88Z"/><path class="cls-2" d="M291.4,217.79c1.39,1.78,2.79,9.18,2.28,9.58s-7.35-2.75-8.75-4.53a4.1,4.1,0,1,1,6.47-5.05Z"/><path class="cls-2" d="M301.59,232.63c-2.24-.35-8.32-4.78-8.22-5.42s7.24-3,9.48-2.68a4.1,4.1,0,0,1-1.26,8.1Z"/><path class="cls-2" d="M324.52,187.7c-.07,1.12-2,4.32-2.28,4.3s-1.84-3.42-1.77-4.53a2,2,0,0,1,4,.23Z"/><path class="cls-2" d="M325.82,195.06c-1.07-.32-3.77-2.88-3.68-3.19s3.74-1,4.82-.7a2,2,0,1,1-1.14,3.89Z"/><path class="cls-2" d="M319.6,191.51c0,1.59-2.27,6.35-2.73,6.36s-3-4.63-3-6.22a2.88,2.88,0,0,1,5.76-.14Z"/><path class="cls-2" d="M322.13,202.22c-1.53-.45-5.36-4.1-5.24-4.53s5.32-1.45,6.85-1a2.88,2.88,0,0,1-1.61,5.53Z"/><path class="cls-2" d="M55.36,227.4l0,0a.21.21,0,0,0,0-.28c-23.2-17.77-41-29.31-50-32.5l-.41-.15a.2.2,0,0,0-.18.36l.46.17c9,3.18,26.75,14.7,49.91,32.44A.2.2,0,0,0,55.36,227.4Z"/><path class="cls-2" d="M1.38,195.66c1,.34,4.65-.26,4.74-.55s-2.47-2.89-3.52-3.23a2,2,0,0,0-1.22,3.78Z"/><path class="cls-2" d="M8.07,194.15c.37,1.06,3.08,3.64,3.38,3.53s.84-3.8.47-4.86a2,2,0,0,0-3.85,1.33Z"/><path class="cls-2" d="M8.67,201.64c.95-.6,2.85-3.81,2.68-4.08s-3.89,0-4.84.63a2,2,0,0,0,2.16,3.45Z"/><path class="cls-2" d="M26.72,203.57c.42,1.84,4.47,6.63,5,6.51s2.09-6.2,1.67-8a3.42,3.42,0,0,0-6.66,1.53Z"/><path class="cls-2" d="M26.36,216.18c1.69-.83,5.45-5.85,5.21-6.34s-6.5-.63-8.2.19a3.42,3.42,0,1,0,3,6.15Z"/><path class="cls-2" d="M34.79,206.37c0,2.31,3.55,9.12,4.21,9.12s4.15-6.84,4.15-9.14a4.18,4.18,0,1,0-8.36,0Z"/><path class="cls-2" d="M33.56,223.42c2-1.22,5.9-7.81,5.55-8.37s-8,0-10,1.27a4.18,4.18,0,0,0,4.41,7.1Z"/><path class="cls-2" d="M42.59,212c0,2.31,3.55,9.11,4.21,9.11S51,214.28,51,212a4.18,4.18,0,1,0-8.36,0Z"/><path class="cls-2" d="M41.36,229c2-1.21,5.9-7.8,5.55-8.36s-8,0-10,1.26a4.18,4.18,0,0,0,4.41,7.1Z"/><path class="cls-2" d="M54.69,217.4c-.87,2.14-.19,9.78.42,10s6.45-4.73,7.32-6.87a4.18,4.18,0,0,0-7.74-3.16Z"/><path class="cls-2" d="M48.82,234.79c2.1-1,6.83-7,6.55-7.6s-7.94-1-10,0a4.18,4.18,0,0,0,3.49,7.6Z"/><path class="cls-2" d="M13.86,197.1c.37,1.08,3.12,3.7,3.43,3.59s.85-3.86.47-4.94a2.06,2.06,0,1,0-3.9,1.35Z"/><path class="cls-2" d="M14.62,204.68c1-.61,2.9-3.88,2.73-4.15s-4,0-4.93.65a2.07,2.07,0,1,0,2.2,3.5Z"/><path class="cls-2" d="M19.74,199.47c.4,1.57,4,5.6,4.44,5.48s1.65-5.37,1.25-6.94a2.94,2.94,0,1,0-5.69,1.46Z"/><path class="cls-2" d="M20.23,210.67c1.38-.86,4.12-5.5,3.88-5.89s-5.62.06-7,.92a2.93,2.93,0,0,0,3.12,5Z"/><path class="cls-3" d="M187.16,58.73s10-7.26,28,2.64c0,0,11.89,4.46,11.89,16.21a20.21,20.21,0,0,1,7.21,18.25s6.12,5.46,5,17c0,0,5.77,6.14,2.53,19.82A19.22,19.22,0,0,1,238.53,149s1.48,9.87-7.14,13.18c0,0-5.28,11.91-21.39,10.86,0,0-5.47,4.38-16.28,1.57S184,165.3,184,165.3V60.3Z"/><path class="cls-4" d="M194.36,120.65a1,1,0,0,1-1-.9,1,1,0,0,1,.9-1c5.08-.31,8.68-2.55,10.7-6.64a15.69,15.69,0,0,0,1.54-6.15,1,1,0,0,1,1.91,0,17.4,17.4,0,0,1-1.74,7c-1.61,3.27-5.05,7.26-12.3,7.7Z"/><path class="cls-4" d="M207.49,126.78a1,1,0,0,1-.94-.84c0-.21-.71-5-6.56-6.78a1,1,0,1,1,.56-1.82c7.08,2.2,7.86,8.12,7.89,8.37a1,1,0,0,1-.83,1.06Z"/><path class="cls-4" d="M213,170.58a1.06,1.06,0,0,1-.73-1.83c.14-.13,3.1-3.06,2.32-9.11a1.06,1.06,0,0,1,.91-1.19,1.07,1.07,0,0,1,1.19.92c.93,7.19-2.81,10.78-3,10.92A1,1,0,0,1,213,170.58Z"/><path class="cls-4" d="M210.77,161.53a18.79,18.79,0,0,1-2.32-.16,1.06,1.06,0,0,1,.27-2.1c9.64,1.26,10.86-6.36,10.9-6.68a1.07,1.07,0,0,1,1.2-.9,1.05,1.05,0,0,1,.9,1.19,10.4,10.4,0,0,1-10.95,8.65Z"/><path class="cls-4" d="M197.82,73.11h-.16a1.19,1.19,0,0,1-1-1.34c.55-4.24,2.23-7.41,5-9.41a14,14,0,0,1,10-2.16,1.2,1.2,0,0,1-.43,2.36c-.06,0-4.65-.8-8.14,1.75-2.2,1.6-3.55,4.22-4,7.77A1.2,1.2,0,0,1,197.82,73.11Z"/><path class="cls-4" d="M206.32,79.55a1.2,1.2,0,0,1-1.1-.72,9,9,0,0,0-2.95-3.29c-2.88-2-6.69-2.52-11.33-1.56a1.2,1.2,0,0,1-.49-2.35c3.71-.76,9-1,13.32,2a11.21,11.21,0,0,1,3.65,4.21,1.2,1.2,0,0,1-.63,1.58A1.28,1.28,0,0,1,206.32,79.55Z"/><path class="cls-4" d="M213.8,142.58a15.59,15.59,0,0,1-10-3.71,1.2,1.2,0,0,1,1.73-1.67,13.57,13.57,0,0,0,8.3,3h.6a8.56,8.56,0,0,0,6.55-3.55A7.45,7.45,0,0,0,222,128.4a11.13,11.13,0,0,0-2.69-3.52,1.2,1.2,0,0,1,1.52-1.87,13.79,13.79,0,0,1,3.34,4.36,9.8,9.8,0,0,1-1.32,10.7,11,11,0,0,1-8.32,4.48C214.32,142.57,214.06,142.58,213.8,142.58Z"/><path class="cls-4" d="M236.85,147.56a1.06,1.06,0,0,1-.38-.07,29.9,29.9,0,0,0-16.45,0,1.2,1.2,0,1,1-.72-2.29,31.64,31.64,0,0,1,17.93,0,1.2,1.2,0,0,1-.38,2.34Z"/><path class="cls-4" d="M196.06,102.46a1.19,1.19,0,0,1-.45-.08,1.21,1.21,0,0,1-.66-1.57,10.67,10.67,0,0,1,9.31-7,16.76,16.76,0,0,1,6.1.56,1.19,1.19,0,0,1,.79,1.5,1.21,1.21,0,0,1-1.5.79,14.48,14.48,0,0,0-5.21-.45,8.29,8.29,0,0,0-7.27,5.45A1.2,1.2,0,0,1,196.06,102.46Z"/><path class="cls-4" d="M188.77,156.36a1.2,1.2,0,0,1-.72-2.16c9.67-7.35,15.17-3.38,15.4-3.2L202,152.91h0a5.6,5.6,0,0,0-3.1-.75h0c-3.48,0-7,2.14-9.4,3.94A1.17,1.17,0,0,1,188.77,156.36Z"/><path class="cls-4" d="M193.72,153.16a1.2,1.2,0,0,1-.66-2.21c3-1.93,2.2-8.47,1.65-10.83a1.2,1.2,0,0,1,2.34-.54,26.16,26.16,0,0,1,.57,5.27c0,4-1.09,6.71-3.25,8.11A1.21,1.21,0,0,1,193.72,153.16Z"/><path class="cls-3" d="M181.34,58.73s-10-7.26-28,2.64c0,0-11.9,4.46-11.9,16.21a20.23,20.23,0,0,0-7.21,18.25s-6.12,5.46-5,17c0,0-5.77,6.14-2.52,19.82A19.22,19.22,0,0,0,130,149s-1.49,9.87,7.13,13.18c0,0,5.28,11.91,21.39,10.86,0,0,5.47,4.38,16.29,1.57s9.73-9.28,9.73-9.28V60.3Z"/><path class="cls-4" d="M154.08,82.23A23.37,23.37,0,0,1,143,79.38a1.2,1.2,0,1,1,1.24-2.06,21,21,0,0,0,12.41,2.32A1.2,1.2,0,1,1,157,82,21.41,21.41,0,0,1,154.08,82.23Z"/><path class="cls-4" d="M146.85,94.66a1.25,1.25,0,0,1-.56-.14,1.2,1.2,0,0,1-.5-1.62,20.21,20.21,0,0,0,1.45-12.41,1.2,1.2,0,0,1,2.34-.5,22.27,22.27,0,0,1-1.67,14A1.2,1.2,0,0,1,146.85,94.66Z"/><path class="cls-4" d="M173.44,126.41h-.15a18.79,18.79,0,0,1-14-9.1,24.44,24.44,0,0,1-3.14-7.73,1.2,1.2,0,1,1,2.36-.43,22.36,22.36,0,0,0,2.86,7A16.21,16.21,0,0,0,173.58,124a1.2,1.2,0,0,1-.14,2.4Z"/><path class="cls-4" d="M156.85,133.86h-.13a1.19,1.19,0,0,1-1.06-1.32,12.66,12.66,0,0,1,1.6-4.47,14.15,14.15,0,0,1,8.33-6.48,1.2,1.2,0,1,1,.71,2.29,11.4,11.4,0,0,0-8.25,8.93A1.2,1.2,0,0,1,156.85,133.86Z"/><path class="cls-4" d="M156.91,109.89a13.41,13.41,0,0,1-7-2.06,17.19,17.19,0,0,1-4.74-4.3,1.2,1.2,0,0,1,2-1.38,15.05,15.05,0,0,0,4.1,3.68,10.74,10.74,0,0,0,10.48.57,1.2,1.2,0,1,1,1,2.18A13.9,13.9,0,0,1,156.91,109.89Z"/><path class="cls-4" d="M160.84,172.18a1.21,1.21,0,0,1-.82-.32c-.18-.17-4.42-4.24-3.37-12.39a1.2,1.2,0,0,1,1.34-1,1.21,1.21,0,0,1,1,1.35c-.9,6.94,2.59,10.29,2.62,10.32a1.2,1.2,0,0,1-.81,2.08Z"/><path class="cls-4" d="M163.3,161.92a11.79,11.79,0,0,1-12.41-9.8,1.2,1.2,0,0,1,2.38-.33,9.9,9.9,0,0,0,2,4.39c2.23,2.71,5.7,3.78,10.31,3.18a1.2,1.2,0,1,1,.31,2.38A19.88,19.88,0,0,1,163.3,161.92Z"/><path class="cls-4" d="M170.68,73.11a1.2,1.2,0,0,1-1.18-1c-.47-3.55-1.82-6.17-4-7.77-3.5-2.56-8.1-1.76-8.14-1.75a1.21,1.21,0,0,1-1.4-1,1.19,1.19,0,0,1,1-1.39,14,14,0,0,1,10,2.16c2.76,2,4.44,5.17,5,9.41a1.2,1.2,0,0,1-1,1.34Z"/><path class="cls-4" d="M162.19,79.55a1.37,1.37,0,0,1-.48-.1,1.2,1.2,0,0,1-.63-1.58,11.18,11.18,0,0,1,3.66-4.21c4.29-3.06,9.61-2.79,13.31-2A1.18,1.18,0,0,1,179,73a1.2,1.2,0,0,1-1.41.94c-4.71-1-8.56-.42-11.44,1.63a9,9,0,0,0-2.84,3.21A1.22,1.22,0,0,1,162.19,79.55Z"/><path class="cls-4" d="M154.7,142.58l-.77,0a11,11,0,0,1-8.31-4.48,9.78,9.78,0,0,1-1.32-10.7,13.48,13.48,0,0,1,3.34-4.36,1.2,1.2,0,1,1,1.51,1.87,11.28,11.28,0,0,0-2.72,3.59,7.44,7.44,0,0,0,1.1,8.14,8.54,8.54,0,0,0,6.54,3.55,13.31,13.31,0,0,0,5.56-1,10.51,10.51,0,0,0,3.35-2,1.2,1.2,0,0,1,1.72,1.67A15.56,15.56,0,0,1,154.7,142.58Z"/><path class="cls-4" d="M148.85,147.56a1.24,1.24,0,0,1-.37-.06,29.68,29.68,0,0,0-16.45,0,1.21,1.21,0,0,1-1.52-.77,1.19,1.19,0,0,1,.76-1.51,31.68,31.68,0,0,1,17.94,0,1.2,1.2,0,0,1-.36,2.35Z"/><path class="cls-4" d="M172.45,102.46a1.2,1.2,0,0,1-1.12-.75,8.28,8.28,0,0,0-7.26-5.45,14.36,14.36,0,0,0-5.21.45,1.2,1.2,0,0,1-1.5-.79,1.19,1.19,0,0,1,.78-1.5,16.84,16.84,0,0,1,6.1-.56,10.67,10.67,0,0,1,9.32,7,1.2,1.2,0,0,1-.67,1.57A1.11,1.11,0,0,1,172.45,102.46Z"/><path class="cls-4" d="M178.27,156.36a1.21,1.21,0,0,1-1.1-.73,6,6,0,0,0-3.54-3.63c-3.27-1.14-7.24,1-7.28,1a1.2,1.2,0,0,1-1.15-2.11c.2-.11,4.91-2.65,9.21-1.17a8.35,8.35,0,0,1,5,5,1.2,1.2,0,0,1-.64,1.57A1.1,1.1,0,0,1,178.27,156.36Z"/><path class="cls-4" d="M174.79,152.39a1.18,1.18,0,0,1-.65-.2c-5-3.24-2.77-12.25-2.68-12.63a1.2,1.2,0,0,1,2.33.59h0c-.54,2.14-1.29,8.11,1.65,10a1.2,1.2,0,0,1,.36,1.66A1.22,1.22,0,0,1,174.79,152.39Z"/><rect class="cls-4" x="130.72" y="112.77" width="107.32" height="2.4" transform="translate(69.96 298.07) rotate(-89.86)"/><path class="cls-5" d="M263.09,201.67c-1.43-6.69-2.79-13.24-4-19.26-.54-2.71-1-5.3-1.48-7.75-1.72-9.27-2.78-16.46-2.67-19.52.31-8.4,5-25.64,9.53-36.56h0v0c.52-1.23,1-2.38,1.52-3.43s1.12-2.23,1.65-3.12h0c.21-.35.42-.68.62-1h0a6.94,6.94,0,0,1,1.78-2,1.08,1.08,0,0,1,1.37,0,4.71,4.71,0,0,1,1.23,2.91h0c0,.21.06.43.09.67.07.65.12,1.36.14,2.12,0,1.53,0,3.25-.09,5.06-.45,9-2,20,1.21,18.62s6.47-8.22,8-14.45c.13-.52.24-1,.35-1.54h0a18.29,18.29,0,0,0,.38-7.18c-.56-2.41-3.33-6.62-6.56-9.9l-.81-.79c-.46-.43-.92-.84-1.37-1.23h0c-3.54-3.06-6.7-5.06-5.26-7h0c.75-1,1.8-.91,3.16-.36h0l.05,0,.86.38.05,0,1.64.77h0c.49.22,1,.45,1.55.67,6.81,2.64,15.16,9.8,15.16,9.8a59.91,59.91,0,0,0-1-13.82c-1.12-5.4-4.21-10.87-2.83-12h0a1.05,1.05,0,0,1,.21-.12c1.14-.43,2.42.29,3.8,2h0c2.29,2.88,4.85,8.51,7.51,16.26,4.27,12.47,3.58,15.15,4.07,14.74.26-.22,1.4-7.72,1.34-15.56,0-6.64-1.22-14.19.92-14.56h0a1.14,1.14,0,0,1,.41,0c.89.17,1.68,2.06,2.39,4.84h0c2.11,8.36,3.39,24.81,3.83,27.17.05-.22,2-10.23,4.6-11.57h0a1.12,1.12,0,0,1,.49-.15c.83-.07,1.31,1.59,1.5,4.15h0c.48,6.4-.8,18.45-2.76,23.48a53.85,53.85,0,0,1-3.09,6.52,100.47,100.47,0,0,1-5.87,9.29h0c-7.48,10.62-16.3,19.89-17.71,21.82-.27.37.67,3.26,2.38,7.76,1.33,3.5,3.14,8,5.22,13a99.22,99.22,0,0,1-27.61,9.72c-1.16.23-2.3.43-3.42.61C264.78,201.43,263.93,201.55,263.09,201.67Z"/><path class="cls-6" d="M305.87,90l2-.33a.51.51,0,0,0,.32-.62l-.63-2.62c-.35-1.13-.76-2.26-1.46-2.14l-.18,0a1.63,1.63,0,0,0-1,2l.53,3.18C305.42,89.84,305.64,90.05,305.87,90Z"/><path class="cls-6" d="M290.37,86.93l1.82-1.19a.54.54,0,0,0,.05-.76l-2-3a1.69,1.69,0,0,0-2.19-.81l-.17.11a1.79,1.79,0,0,0-.16,2.48l1.92,3A.55.55,0,0,0,290.37,86.93Z"/><path class="cls-6" d="M274,99.7l.87-2c.1-.23-.38-.66-.38-.66l-3.33-1.47a1.69,1.69,0,0,0-2.28.53l-.08.19A1.8,1.8,0,0,0,270,98.46l3.23,1.41A.56.56,0,0,0,274,99.7Z"/><path class="cls-6" d="M316.8,109.31l1.49-.06c.17,0,.31-.23.3-.5l-.11-2.89c0-.83-.49-1.48-1-1.46h-.14c-.56,0-1,.74-1,1.62l.11,2.8C316.48,109.1,316.63,109.31,316.8,109.31Z"/><path class="cls-5" d="M272.82,119.8s1-10.91-1.82-11.09-8,13.66-8,13.66Z"/><path class="cls-6" d="M267.84,115.18l3.4.61a.71.71,0,0,0,.84-.55l.73-4a2.17,2.17,0,0,0-1.81-2.48l-.32,0a2.29,2.29,0,0,0-2.72,1.79l-.71,3.92A.71.71,0,0,0,267.84,115.18Z"/><path class="cls-7" d="M317.67,238l-25-60.78-33.55,5.16-4.73.65,3.49,78.58C273.34,252.66,303,246.54,317.67,238Z"/><path class="cls-8" d="M265.92,198.16a3.23,3.23,0,1,1,1.17-4.42A3.24,3.24,0,0,1,265.92,198.16Z"/><path class="cls-8" d="M268.75,214.66a3.23,3.23,0,1,1,1.18-4.42A3.24,3.24,0,0,1,268.75,214.66Z"/><path class="cls-8" d="M271.09,231.57a3.24,3.24,0,1,1,1.17-4.43A3.24,3.24,0,0,1,271.09,231.57Z"/><path class="cls-5" d="M110.55,201.67c1.42-6.69,2.79-13.24,4-19.26.53-2.71,1-5.3,1.48-7.75,1.71-9.27,2.78-16.46,2.67-19.52-.31-8.4-5-25.64-9.54-36.56h0v0c-.51-1.23-1-2.38-1.52-3.43s-1.11-2.23-1.64-3.12h0c-.21-.35-.42-.68-.63-1h0a6.79,6.79,0,0,0-1.77-2,1.1,1.1,0,0,0-1.38,0,4.71,4.71,0,0,0-1.22,2.91h0c0,.21-.06.43-.09.67-.08.65-.12,1.36-.14,2.12,0,1.53,0,3.25.09,5.06.45,9,2,20-1.21,18.62s-6.47-8.22-8-14.45c-.13-.52-.25-1-.35-1.54h0a18.32,18.32,0,0,1-.39-7.18c.57-2.41,3.33-6.62,6.57-9.9.27-.27.53-.53.81-.79.45-.43.91-.84,1.37-1.23h0c3.53-3.06,6.7-5.06,5.26-7h0c-.76-1-1.81-.91-3.17-.36h0l0,0-.86.38-.06,0-1.64.77h0c-.49.22-1,.45-1.56.67-6.8,2.64-15.15,9.8-15.15,9.8a59.59,59.59,0,0,1,1-13.82c1.13-5.4,4.22-10.87,2.84-12h0a1.43,1.43,0,0,0-.21-.12c-1.14-.43-2.42.29-3.8,2h0c-2.29,2.88-4.85,8.51-7.51,16.26-4.28,12.47-3.58,15.15-4.07,14.74-.26-.22-1.4-7.72-1.35-15.56,0-6.64,1.23-14.19-.92-14.56h0a1.09,1.09,0,0,0-.4,0c-.89.17-1.69,2.06-2.39,4.84h0c-2.11,8.36-3.39,24.81-3.84,27.17,0-.22-2-10.23-4.59-11.57h0a1.08,1.08,0,0,0-.48-.15c-.83-.07-1.31,1.59-1.5,4.15h0c-.49,6.4.8,18.45,2.75,23.48A55.4,55.4,0,0,0,61,139.09a102.63,102.63,0,0,0,5.87,9.29h0c7.48,10.62,16.3,19.89,17.72,21.82.26.37-.67,3.26-2.38,7.76-1.34,3.5-3.15,8-5.23,13a99.33,99.33,0,0,0,27.61,9.72c1.16.23,2.31.43,3.43.61C108.85,201.43,109.71,201.55,110.55,201.67Z"/><path class="cls-6" d="M67.76,90l-2-.33a.51.51,0,0,1-.32-.62l.63-2.62c.35-1.13.76-2.26,1.46-2.14l.18,0a1.63,1.63,0,0,1,1,2l-.53,3.18A.52.52,0,0,1,67.76,90Z"/><path class="cls-6" d="M83.26,86.93l-1.82-1.19a.54.54,0,0,1,0-.76l2-3a1.7,1.7,0,0,1,2.2-.81l.17.11a1.79,1.79,0,0,1,.16,2.48l-1.93,3A.55.55,0,0,1,83.26,86.93Z"/><path class="cls-6" d="M99.67,99.7l-.87-2c-.11-.23.37-.66.37-.66l3.34-1.47a1.69,1.69,0,0,1,2.28.53l.08.19a1.8,1.8,0,0,1-1.23,2.16l-3.22,1.41A.55.55,0,0,1,99.67,99.7Z"/><path class="cls-6" d="M56.84,109.31l-1.49-.06c-.18,0-.31-.23-.3-.5l.11-2.89c0-.83.49-1.48,1-1.46h.14c.56,0,1,.74,1,1.62l-.11,2.8C57.16,109.1,57,109.31,56.84,109.31Z"/><path class="cls-5" d="M100.82,119.8s-1-10.91,1.82-11.09,8,13.66,8,13.66Z"/><path class="cls-6" d="M105.79,115.18l-3.39.61a.73.73,0,0,1-.85-.55l-.73-4a2.19,2.19,0,0,1,1.82-2.48l.32,0a2.3,2.3,0,0,1,2.72,1.79l.71,3.92A.71.71,0,0,1,105.79,115.18Z"/><path class="cls-7" d="M56,238l25-60.78,33.56,5.16,4.72.65-3.48,78.58C100.3,252.66,70.61,246.54,56,238Z"/><path class="cls-8" d="M107.72,198.16a3.23,3.23,0,1,0-1.17-4.42A3.23,3.23,0,0,0,107.72,198.16Z"/><path class="cls-8" d="M104.88,214.66a3.24,3.24,0,1,0-1.17-4.42A3.23,3.23,0,0,0,104.88,214.66Z"/><path class="cls-8" d="M102.55,231.57a3.23,3.23,0,1,0-1.18-4.43A3.24,3.24,0,0,0,102.55,231.57Z"/><path class="cls-3" d="M122.1,41c-5.81-8.88-15.17.7-15.17.7S99.2,30.74,92.06,38.59s13.07,25.66,13.07,25.66S127.91,49.86,122.1,41Z"/><path class="cls-9" d="M268.45,71.87s.29,1.47.8,1.7,5.63.07,5.92-.24a5.62,5.62,0,0,0,.51-1.72Z"/><path class="cls-3" d="M286,42.25c-.15-7.42-6.78-13.31-14.81-13.15s-14.43,6.31-14.28,13.73A12.83,12.83,0,0,0,261.15,52a11.59,11.59,0,0,1,3.72,8.25h0a4.61,4.61,0,0,0,4.7,4.52l4.71-.1A4.6,4.6,0,0,0,278.79,60h0a11.57,11.57,0,0,1,3.4-8.39A12.9,12.9,0,0,0,286,42.25Z"/><path class="cls-10" d="M274.51,66.36a.17.17,0,0,1-.18-.16c-.11-1.49,1.7-24.93,1.78-25.93a.17.17,0,0,1,.18-.16.18.18,0,0,1,.16.19c0,.24-1.88,24.41-1.77,25.88a.18.18,0,0,1-.16.18Z"/><path class="cls-10" d="M269.27,66.47h0a.18.18,0,0,1-.16-.18c0-1.47-2.77-25.55-2.8-25.79a.17.17,0,0,1,.15-.19.16.16,0,0,1,.19.15c.12,1,2.85,24.34,2.8,25.84A.18.18,0,0,1,269.27,66.47Z"/><path class="cls-11" d="M273.76,41a.07.07,0,0,0-.05,0,5.22,5.22,0,0,0,0,3.77,2.54,2.54,0,0,0,.27.51,1.69,1.69,0,0,1-.49.27,1.47,1.47,0,0,1-1,0,2.15,2.15,0,0,0,.35-.85,4.62,4.62,0,0,0-.09-1.91,1.48,1.48,0,0,0-.25-.66.64.64,0,0,0-.69-.24s-.05,0-.05.06a7.17,7.17,0,0,0-.21,2.35,2,2,0,0,0,.18.79,1.3,1.3,0,0,0,.51.53,1.67,1.67,0,0,1-.6.46,1.79,1.79,0,0,1-1.74-.24,2,2,0,0,0,.41-.52,4.14,4.14,0,0,0,.4-1.76,2.53,2.53,0,0,0-.17-1.34,1,1,0,0,0-1.21-.54,1.13,1.13,0,0,0-.46.44,2.66,2.66,0,0,0-.23,1.79,3.23,3.23,0,0,0,1,1.93h0a1.22,1.22,0,0,1-.81.25,1.5,1.5,0,0,1-1.13-.79,11.64,11.64,0,0,1-.71-2h0c0-.14-.07-.27-.1-.37s0,0,0,0l-.08,0a.09.09,0,0,0-.06.11s0,.12,0,.19h0c.08.29.2.72.33,1.13h0a7.06,7.06,0,0,0,.45,1.13,1.69,1.69,0,0,0,1.27.87,1.42,1.42,0,0,0,1-.31,2.11,2.11,0,0,0,1.29.43,1.63,1.63,0,0,0,.66-.14,1.8,1.8,0,0,0,.68-.55,1.6,1.6,0,0,0,1.12.06,1.77,1.77,0,0,0,.54-.29,1.06,1.06,0,0,0,.72.41,1.09,1.09,0,0,0,.61-.17,1.58,1.58,0,0,0,.34-.29,1.43,1.43,0,0,0,.3-1.13.09.09,0,1,0-.17,0,1.24,1.24,0,0,1-.11.73,1.17,1.17,0,0,1-.45.51.82.82,0,0,1-.5.14.88.88,0,0,1-.61-.34,2.56,2.56,0,0,0,.67-1,4.68,4.68,0,0,0,.14-2,2.08,2.08,0,0,0-.28-1A.83.83,0,0,0,273.76,41Zm-4,4.71a3.11,3.11,0,0,1-.92-1.83A2.43,2.43,0,0,1,269,42.2a.89.89,0,0,1,.38-.37.59.59,0,0,1,.22,0,.92.92,0,0,1,.77.51,2.38,2.38,0,0,1,.15,1.25,4,4,0,0,1-.38,1.69,1.83,1.83,0,0,1-.4.49Zm2.15-.69a2.08,2.08,0,0,1-.16-.73,7.08,7.08,0,0,1,.19-2.25.47.47,0,0,1,.45.2,1.46,1.46,0,0,1,.23.59,4.47,4.47,0,0,1,.08,1.84,2.34,2.34,0,0,1-.33.81A1.13,1.13,0,0,1,271.88,45Zm2.69-3.56a1.86,1.86,0,0,1,.25.91,4.31,4.31,0,0,1-.14,1.89,2.31,2.31,0,0,1-.6,1,2.58,2.58,0,0,1-.24-.46,5,5,0,0,1,0-3.61A.72.72,0,0,1,274.57,41.45Z"/><path class="cls-12" d="M266.19,68.78h11.7a0,0,0,0,1,0,0v2a1.33,1.33,0,0,1-1.33,1.33h-9a1.33,1.33,0,0,1-1.33-1.33v-2A0,0,0,0,1,266.19,68.78Z" transform="translate(-1.34 5.41) rotate(-1.14)"/><path class="cls-9" d="M272.75,70.38a23.94,23.94,0,0,1-6.72-.91,1.11,1.11,0,0,1,.65-2.13c.1,0,6.5,1.92,10.43-.15a1.12,1.12,0,1,1,1,2A12.32,12.32,0,0,1,272.75,70.38Z"/><path class="cls-12" d="M272.72,68.57a24,24,0,0,1-6.73-.91,1.11,1.11,0,1,1,.65-2.13c.11,0,6.5,1.92,10.44-.15a1.12,1.12,0,0,1,1,2A12.27,12.27,0,0,1,272.72,68.57Z"/><path class="cls-9" d="M272.68,66.76a23.86,23.86,0,0,1-6.72-.91,1.11,1.11,0,0,1,.65-2.13c.1,0,6.5,1.92,10.43-.15a1.12,1.12,0,0,1,1,2A12.32,12.32,0,0,1,272.68,66.76Z"/><g class="cls-13"><path class="cls-11" d="M267.87,32.17c-1.33-.38-3.18-.07-5.29,1.68s-1,3.09-.22,3.34C263.52,37.58,272.25,33.43,267.87,32.17Z"/></g><path class="cls-11" d="M133.45,74.73h0a1.8,1.8,0,0,1-2.53.25l-7.82-6.4a1.8,1.8,0,0,1-.25-2.53h0a1.8,1.8,0,0,1,2.53-.25l7.81,6.4A1.81,1.81,0,0,1,133.45,74.73Z"/><path class="cls-11" d="M236.24,74.66h0a1.71,1.71,0,0,0,2.4.23l8-6.51a1.7,1.7,0,0,0,.24-2.4h0a1.7,1.7,0,0,0-2.4-.24l-8,6.52A1.7,1.7,0,0,0,236.24,74.66Z"/><path class="cls-11" d="M184.48,54h0a2,2,0,0,1-2-1.94l-.19-9.73a2,2,0,0,1,1.94-2h0a2,2,0,0,1,2,1.94l.19,9.74A2,2,0,0,1,184.48,54Z"/></g></g></svg>