<svg id="Layer_1" data-name="Layer 1" xmlns="http://www.w3.org/2000/svg" viewBox="0 0 850.85 44.99"><defs><style>.cls-1{fill:#3b8aac;}</style></defs><g id="Layer_2" data-name="Layer 2"><g id="Layer_5" data-name="Layer 5"><rect class="cls-1" x="2.09" y="9.09" width="28.63" height="28.63" rx="9.26" transform="translate(-11.74 18.45) rotate(-45)"/><rect class="cls-1" x="30.29" y="9.09" width="28.63" height="28.63" rx="9.26" transform="translate(-3.48 38.4) rotate(-45)"/><rect class="cls-1" x="58.51" y="9.08" width="28.63" height="28.63" rx="9.26" transform="translate(4.79 58.35) rotate(-45)"/><rect class="cls-1" x="86.72" y="9.08" width="28.63" height="28.63" rx="9.26" transform="translate(13.05 78.29) rotate(-45)"/><rect class="cls-1" x="114.93" y="9.08" width="28.63" height="28.63" rx="9.26" transform="translate(21.31 98.24) rotate(-45)"/><rect class="cls-1" x="143.13" y="9.09" width="28.63" height="28.63" rx="9.26" transform="translate(29.57 118.18) rotate(-45)"/><rect class="cls-1" x="171.33" y="9.09" width="28.63" height="28.63" rx="9.26" transform="translate(37.83 138.13) rotate(-45)"/><rect class="cls-1" x="199.55" y="9.08" width="28.63" height="28.63" rx="9.26" transform="translate(46.1 158.08) rotate(-45)"/><rect class="cls-1" x="227.76" y="9.08" width="28.63" height="28.63" rx="9.26" transform="translate(54.36 178.02) rotate(-45)"/><rect class="cls-1" x="255.97" y="9.08" width="28.63" height="28.63" rx="9.26" transform="translate(62.62 197.97) rotate(-45)"/><rect class="cls-1" x="284.17" y="9.09" width="28.63" height="28.63" rx="9.26" transform="translate(70.88 217.91) rotate(-45)"/><rect class="cls-1" x="312.37" y="9.09" width="28.63" height="28.63" rx="9.26" transform="translate(79.14 237.86) rotate(-45)"/><rect class="cls-1" x="340.58" y="9.08" width="28.63" height="28.63" rx="9.26" transform="translate(87.4 257.8) rotate(-45)"/><rect class="cls-1" x="368.8" y="9.08" width="28.63" height="28.63" rx="9.26" transform="translate(95.67 277.76) rotate(-45)"/><rect class="cls-1" x="397" y="9.08" width="28.63" height="28.63" rx="9.26" transform="translate(103.93 297.7) rotate(-45)"/><rect class="cls-1" x="425.21" y="9.08" width="28.63" height="28.63" rx="9.26" transform="translate(112.19 317.64) rotate(-45)"/><rect class="cls-1" x="453.41" y="9.09" width="28.63" height="28.63" rx="9.26" transform="translate(120.45 337.59) rotate(-45)"/><rect class="cls-1" x="481.62" y="9.08" width="28.63" height="28.63" rx="9.26" transform="translate(128.71 357.53) rotate(-45)"/><rect class="cls-1" x="509.84" y="9.08" width="28.63" height="28.63" rx="9.26" transform="translate(136.98 377.49) rotate(-45)"/><rect class="cls-1" x="538.04" y="9.08" width="28.63" height="28.63" rx="9.26" transform="translate(145.24 397.43) rotate(-45)"/><rect class="cls-1" x="566.25" y="9.08" width="28.63" height="28.63" rx="9.26" transform="translate(153.5 417.37) rotate(-45)"/><rect class="cls-1" x="594.45" y="9.09" width="28.63" height="28.63" rx="9.26" transform="translate(161.76 437.32) rotate(-45)"/><rect class="cls-1" x="622.66" y="9.08" width="28.63" height="28.63" rx="9.26" transform="translate(170.02 457.26) rotate(-45)"/><rect class="cls-1" x="650.87" y="9.09" width="28.63" height="28.63" rx="9.26" transform="translate(178.28 477.21) rotate(-45)"/><rect class="cls-1" x="679.08" y="9.08" width="28.63" height="28.63" rx="9.26" transform="translate(186.55 497.16) rotate(-45)"/><rect class="cls-1" x="707.29" y="9.08" width="28.63" height="28.63" rx="9.26" transform="translate(194.81 517.1) rotate(-45)"/><rect class="cls-1" x="735.49" y="9.09" width="28.63" height="28.63" rx="9.26" transform="translate(203.07 537.05) rotate(-45)"/><rect class="cls-1" x="763.7" y="9.08" width="28.63" height="28.63" rx="9.26" transform="translate(211.33 556.99) rotate(-45)"/><rect class="cls-1" x="791.9" y="9.09" width="28.63" height="28.63" rx="9.26" transform="translate(219.59 576.94) rotate(-45)"/><rect class="cls-1" x="820.12" y="9.08" width="28.63" height="28.63" rx="9.26" transform="translate(227.86 596.89) rotate(-45)"/></g></g></svg>