<svg xmlns="http://www.w3.org/2000/svg" viewBox="0 0 315.64 312.09"><defs><style>.cls-1{isolation:isolate;}.cls-2{fill:#c93f3f;opacity:0.13;}.cls-3{fill:#e9ba65;}.cls-4,.cls-9{fill:#a7b252;}.cls-4,.cls-8{opacity:0.5;mix-blend-mode:multiply;}.cls-5{fill:#481e1c;}.cls-13,.cls-18,.cls-6{fill:none;}.cls-7{fill:#cc5c54;}.cls-10{fill:#edb9b9;}.cls-11{fill:#875733;}.cls-12{fill:#593627;}.cls-13{stroke:#593627;}.cls-13,.cls-18{stroke-miterlimit:10;stroke-width:1.25px;}.cls-14{fill:#0a2240;}.cls-15{fill:#f5c696;}.cls-16{fill:#331212;}.cls-17{fill:#c67c6b;}.cls-18{stroke:#c67c6b;}.cls-19{fill:#e78b72;}.cls-20{fill:#eecf79;}</style></defs><g class="cls-1"><g id="Layer_2" data-name="Layer 2"><g id="Layer_5" data-name="Layer 5"><path class="cls-2" d="M101.06,49.24c-51.33,0-101.64,15.58-101,75C.39,163.36,4.65,203.33,22,238S61.33,286,100.34,290.46a104.63,104.63,0,0,0,11.86.66c21.29,0,42.63-6,63.39-12,82.92-23.88,104.14-27.81,122.91-44.81,34.71-31.46,10.06-74.08-15.55-99.72C247.42,99,250.21,81.37,202.21,65.16c-15.83-5.34-58.84-15.92-101.15-15.92"/><g id="BOY_AND_GIRL" data-name="BOY AND GIRL"><path class="cls-3" d="M102.72,259.35c-11.63,39.42,18.45,45,59.52,43.65s72.46-52.07,72.46-52.07c-1.34-41.08-30.83-70.43-71.91-69.09S115.94,214.52,102.72,259.35Z"/><path class="cls-4" d="M102.72,259.35c-11.63,39.42,18.45,45,59.52,43.65s72.46-52.07,72.46-52.07c-1.34-41.08-30.83-70.43-71.91-69.09S115.94,214.52,102.72,259.35Z"/><path class="cls-5" d="M100.16,256.49l11,12.81.18,5.39h0a94.94,94.94,0,0,1-45.51-24.58L79.15,238.6S89.82,252.9,100.16,256.49Z"/><path class="cls-5" d="M130,90.62c3-.1,5.93-.05,8.85.12l-.08.1a95,95,0,1,1-100.64,98v-.11A95,95,0,0,1,130,90.62Z"/><path class="cls-6" d="M184.46,215a42.94,42.94,0,0,1,5.69,78.42,48,48,0,0,0,12-33.59,50,50,0,0,0-4-18.19h-.29L189,248.39a34.52,34.52,0,0,1-65,17.32,139,139,0,0,0,28.1-8.3C167.94,250.68,179.64,226.53,184.46,215Z"/><path class="cls-3" d="M91.16,261.1c.91,27.75,21.57,54.62,62.41,50.58a57.14,57.14,0,0,0,27.53-10.14l-1.64,7.19c33.59-4.89,56.78-33.58,55.65-68.3-1.05-32-34.9-57.47-66.81-58.76-9.71-.4-17.83.58-26.05,4.53l1.82,2.79C105.84,196.13,90.29,234.15,91.16,261.1ZM124,265.71a139.52,139.52,0,0,0,28.1-8.3c15.85-6.73,27.55-30.88,32.36-42.44a42.95,42.95,0,0,1,5.71,78.42,48,48,0,0,0,12-33.58,50.06,50.06,0,0,0-4-18.19h-.29L189,248.39a34.51,34.51,0,0,1-65,17.32Z"/><path class="cls-5" d="M130,90.62c3-.1,5.93-.05,8.85.12l-.08.1a95,95,0,1,1-100.64,98v-.11A95,95,0,0,1,130,90.62Z"/><path class="cls-3" d="M91.16,261.1c0,.8.06,1.62.13,2.42l33.63,3.82c-.33-.53-.64-1.08-.93-1.63a139.52,139.52,0,0,0,28.1-8.3c15.85-6.73,27.55-30.88,32.36-42.44a42.47,42.47,0,0,1,4.8,2.05l.57-31a71.48,71.48,0,0,0-21.52-4.38c-9.71-.4-17.83.58-26.05,4.53l1.82,2.79C105.84,196.13,90.29,234.15,91.16,261.1Z"/><path class="cls-7" d="M111.39,274.69h0l7-20.19h0a52.4,52.4,0,0,0,10.92-1.24,67.55,67.55,0,0,0,40.15-24.72c21.55-26.78,16.2-56.86,6.31-73.51h0L203,118.68a95,95,0,0,1-67.84,158.21A95.66,95.66,0,0,1,111.39,274.69Z"/><path class="cls-7" d="M128.91,86.83A95.07,95.07,0,0,1,223.5,156c-17.84,7.92-31.61-5.63-36.31-16.36s-13.89-32.9-35.75-24.92-31.71-3.64-45.57-8.32c-3.44-1.16-8.14-2.85-11.81-1.65a3.32,3.32,0,0,0-1.72,1.14,9.61,9.61,0,0,1-.36.91v0c.09-1.47-6-.65-6.74-.54a21.83,21.83,0,0,0-14.52,8A47.94,47.94,0,0,0,64,127.82c-5.26,15.21.72,30.77-4,46-4.58,14.77-11.63,25.85-19.42,33.77A95.11,95.11,0,0,1,128.91,86.83Z"/><g id="SHADOWS" class="cls-8"><path class="cls-9" d="M147.52,188.43c1.54-.2,3.6,2.06,5.71,4.7a1.74,1.74,0,0,0-.8-.09c-40.74,5.43-57.26,44.93-56.35,72.67.41,12.73,5,25.28,13.77,34.74-12-9.74-18.2-24.42-18.69-39.34C90.25,233.36,106.78,193.87,147.52,188.43Z"/><path class="cls-9" d="M178.72,182.92l5.61,1.35c.67,13.91-3.06,29.58-14.87,44.26a67.55,67.55,0,0,1-40.15,24.72,52.4,52.4,0,0,1-10.92,1.24h0C184.08,239.87,178.72,182.92,178.72,182.92Z"/></g><path class="cls-7" d="M149.3,182.58s11.42-1.76,12.84,1.48-9.92,4.61-9.92,4.61,4.62,5.08,2.22,7.5-7.44-.65-7.44-.65,2.93,6.59-1.21,8.71-7.82-4.45-7.82-4.45.69,5.92-2.25,6.76-4.18-5.81-4.18-5.81-3.74,7.55-8.79,7.47-.19-5.94-.19-5.94-4.8,5.44-8.23,3.9.79-8.89,10.76-10.56Z"/><path class="cls-10" d="M154.44,196.14c2.4-2.41-2.22-7.5-2.22-7.5s11.34-1.36,9.92-4.6c-.72-1.64-4-2-7-2,3.38-.17,7.61,0,8.44,1.91,1.42,3.25-9.92,4.61-9.92,4.61s4.62,5.08,2.23,7.49a3.65,3.65,0,0,1-3.08.9A3,3,0,0,0,154.44,196.14Z"/><path class="cls-10" d="M138,199.75a14.27,14.27,0,0,0,1.45,2.06c-.08,1.79-.53,4.15-2.31,4.66a1.8,1.8,0,0,1-1.13-.05C138.62,205.31,138,199.75,138,199.75Z"/><path class="cls-10" d="M145.8,204.2c4.14-2.11,1.2-8.7,1.2-8.7a12.94,12.94,0,0,0,1.74.84c.63,1.87,1.66,6.18-1.54,7.82a3.63,3.63,0,0,1-2.28.37A4.13,4.13,0,0,0,145.8,204.2Z"/><path class="cls-10" d="M122.56,202.24a13.19,13.19,0,0,0-1.68,2.65,6.47,6.47,0,0,1-4.37,1.43C119.49,205.71,122.56,202.24,122.56,202.24Z"/><path class="cls-10" d="M131.54,200.71s.14.71.42,1.64c-1.43,2.23-4.3,5.84-7.81,5.78a3.44,3.44,0,0,1-.46,0C128.26,207.33,131.54,200.71,131.54,200.71Z"/><g id="GIRL_FACE" data-name="GIRL FACE"><path class="cls-11" d="M94.62,156.8l.07-.08a38.55,38.55,0,0,1-4.31-12.37c-3.33-18.39-6.78-33.23,3.1-35s19,3.84,23.31,8.27c0,0,36.19,34.33,23.9,51.08a14.79,14.79,0,0,1-1.44,1.67h0l10.05,12.26s1.17,5.9-5,11-18.72,2.59-18.72,2.59l-24-28.77c-3.82,2.91-13.9-4.47-13.71-7.93C88.08,155.75,94,156.7,94.62,156.8Z"/><path class="cls-12" d="M87.74,159.53c.14-2.55,2.89-2.94,4.85-2.9-1.71.16-3.5.82-3.61,2.86-.15,2.81,6.47,8.21,11,8.57C95.55,168.79,87.58,162.61,87.74,159.53Z"/><path class="cls-12" d="M139.21,170.35s-7,16.76-33.14-1.53C106.07,168.82,126.1,180.79,139.21,170.35Z"/><path class="cls-13" d="M113.5,141.77s16.61,8,16.75,8.63c.23,1.1-3.72,4-4,3.82"/><path class="cls-12" d="M119.28,139.65c.93,0,3.86-.31,5.27-2.52a7.28,7.28,0,0,0,1.06-4.25.53.53,0,1,0-1,.11h0a6.28,6.28,0,0,1-.9,3.57c-1.34,2.09-4.61,2-4.65,2a.53.53,0,0,0,0,1.06Z"/><path class="cls-12" d="M106.14,153.44h0c.18,0,4.3-.27,5.93-2.3a6,6,0,0,0,1.11-5.06.57.57,0,0,0-.7-.39.57.57,0,0,0-.39.7,4.82,4.82,0,0,1-.9,4c-1.32,1.64-5.08,1.88-5.11,1.88a.56.56,0,0,0-.53.6A.55.55,0,0,0,106.14,153.44Z"/><path class="cls-12" d="M123.38,125.28s-8.49.57-8.51,8.09c0,0,1.64.26,2.28-2C117.6,129.69,120.57,125.9,123.38,125.28Z"/><path class="cls-12" d="M109.56,139.29c.27.6.26,1.2-.07,1.43-1,.72-8,3-8.83,5a19.49,19.49,0,0,0-1,4.74s-1.11-4.15.32-6.27,5.9-5,9.17-5.72A3,3,0,0,1,109.56,139.29Z"/><path class="cls-12" d="M130.64,162.37a5.87,5.87,0,0,0,3.78-1.32c2.39-2.15,1.31-5.71,1.27-5.86a.66.66,0,0,0-1.26.39s.86,2.91-.89,4.49-4.77.84-4.81.84a.66.66,0,1,0-.28,1.28A9.28,9.28,0,0,0,130.64,162.37Z"/><path class="cls-12" d="M134.72,155.85s-2,1-2.33,1.54.42,1.1-.2,1.49-.74-.72-1.67-.25a4.79,4.79,0,0,0-1.63,2.71,4,4,0,0,0,5.41-1.07A3.78,3.78,0,0,0,134.72,155.85Z"/></g><path class="cls-5" d="M93.08,109.25c.44-.08.89-.15,1.33-.2,8.45-3.78,17.52,3.55,22,7.75-7,2-12.33,1.36-16.17-.72,2.78,3.51,8.23,12.34.34,20.15-7.41,7.31-5.88,16.44-6,20.61-3.67-2-6.16-8.62-6.85-12.46C84.44,126,83.2,111.07,93.08,109.25Z"/><path class="cls-14" d="M93.57,109.39Z"/><path class="cls-5" d="M115.69,116.52l.41.39c-6.51,1.88-11.57,1.43-15.33-.31,2.18,2.26,9.48,11,.76,19.66-7.41,7.32-6.8,16.41-6.94,20.58,0-4.53-1.17-13.67,5.51-20.53,8-8.17,2-17.67.44-19.82a14.92,14.92,0,0,1-7-7.1C96.6,115.32,103.74,119.83,115.69,116.52Z"/><path class="cls-3" d="M201.65,254.1s-1.06-9.55-3.82-12.49L189,248.39a31.37,31.37,0,0,1-4.56,18.18"/><g id="BOY_HEAD" data-name="BOY HEAD"><path class="cls-15" d="M127.53,17.07S141.15-1.6,159.91,7.79c18.25,9.14,19.54,27.67,14.67,47.05a13.32,13.32,0,0,1,1,2.4l-8.42,44.53s-10.6,11.3-24.84,7.4C131.11,106.08,133,98.68,133,98.68l3.59-12.25h0C124.66,84.57,121.9,73,119.86,54.22,117.63,33.84,127.53,17.07,127.53,17.07Z"/><path class="cls-5" d="M102.12,25.53c6.8,6.25,12.09,1.2,18.7-7.21,7.09-9,12.58-19,31.5-18.28s27.89,17,27.89,17l-.23.37a1.26,1.26,0,0,1,.26.39c2.15,4.82,2.37,11.25,2,21.49s-6.4,9.64-6.4,9.64c-3.25-11.94-7.55-15.25-10.73-15.82a51.3,51.3,0,0,1-28.45,10.32C96.89,45.22,102.12,25.53,102.12,25.53Z"/><path class="cls-16" d="M140.88,41a72.84,72.84,0,0,0,23-7.67,4.84,4.84,0,0,0-3.08.59,6.11,6.11,0,0,1,3.66-.92C177.16,25.71,180.21,17,180.21,17s-1.89,9.06-13,16.77c2.82,1.55,6.07,5.58,8.66,15.08a5,5,0,0,0,3.41-1.24,5.2,5.2,0,0,1-4.36,2.26c-2.65-9.7-5.79-13.91-8.44-15.6-5.45,3.62-13,6.89-23.43,8.71-20.25,3.53-30.9,0-38.36-7.59C112.05,41.72,122.51,44.18,140.88,41Z"/><path class="cls-15" d="M176.21,46.93s1.81-8.61,6.06-7.64-2.13,18.3-4.3,19-4.56-4.51-4.56-4.51Z"/><path class="cls-17" d="M181.58,40a3,3,0,0,0-2.77.81,3.41,3.41,0,0,1,3.46-1.55c4.15,1-1.81,17.41-4.12,18.94C180.74,54.64,185.35,40.9,181.58,40Z"/><path class="cls-17" d="M136.55,86.43s22.14,13.6,34.67-25.72C171.22,60.71,160.28,88.23,136.55,86.43Z"/><path class="cls-12" d="M152.86,56.94A12.9,12.9,0,0,0,156,56a.92.92,0,0,0,.42-1.24.91.91,0,0,0-1.23-.43,11,11,0,0,1-3.32.85,8,8,0,0,1-6.3-1.9.93.93,0,0,0-1.22,1.4A10.06,10.06,0,0,0,152.86,56.94Z"/><path class="cls-12" d="M128.53,53.79a9.2,9.2,0,0,0,2.47-.56.71.71,0,0,0,.4-.93.72.72,0,0,0-.93-.4,8.39,8.39,0,0,1-2.6.5,6.25,6.25,0,0,1-4.76-1.79.71.71,0,1,0-1,1A7.78,7.78,0,0,0,128.53,53.79Z"/><path class="cls-18" d="M136.09,68.55c-1,.85-5.66-.59-4.89-2.42,5.77-13.79,6.22-12.95,7-12.75"/><path class="cls-17" d="M136,77.81l.77-.06a10.32,10.32,0,0,0,3.65-1.11,1.08,1.08,0,0,0-1-1.88c-.2.11-4.8,2.59-8.21-1.15a1.08,1.08,0,1,0-1.59,1.45A8.09,8.09,0,0,0,136,77.81Z"/></g><g id="HANDS"><path class="cls-11" d="M118.39,254.54c-1-2-1.9-5-4.33-6.57-3.08-2-12.34-7.57-13.44-13,0,0-3.47.34-3.08,5.31s5.68,7.07,4.68,8.61-31.67-.29-31.91,3.51c-.2,3.07,11.19,2.15,16.8,2.93,1.92.27,3,.41,2.9,1.42,0,.66-1.59.84-3.3.86-7.94.12-20,.4-20.26,2.27s1.89,2.44,5.76,2.59c.64,0,10.17.48,16.79.81,1.63.09,2.13.56,2.14,1s-.93.79-2.63.87c-8.33.39-18.55-.35-18.72,2.22-.11,1.6,3.21,1.94,7.08,2,3.45,0,6.92.06,11.13.19,2.24.07,3.76-.14,3.78.83,0,.53-.74.7-3.53.75-3.49.07-8.8.08-8.92,1.67s26,2.71,32.41.91Z"/><path class="cls-11" d="M182.6,296.22c-.4-1.2-1.08-1.92-3.24-3.11-2.75-1.51-11-5.78-12.27-9.4,0,0-2.91,0-2.23,3.24s5.29,5,4.56,5.92-26.78-2.4-26.72.05c.05,2,9.61,2.18,14.4,3.08,1.65.31,2.53.47,2.55,1.13,0,.42-1.28.43-2.73.32-6.69-.48-16.87-1.14-16.95.06s1.77,1.72,5.05,2.08l14.24,1.71c1.38.17,1.84.51,1.87.8s-.73.45-2.15.38c-7-.33-15.7-1.52-15.67.13,0,1,2.85,1.49,6.13,1.78,2.91.26,5.84.52,9.41.9,1.89.2,3.17.17,3.25.81.05.34-.57.4-2.93.24-2.94-.2-7.43-.57-7.42.46s22.4,2.65,27.72,1.93Z"/><path class="cls-11" d="M189,248.39c-1.42-.46-3.41-.73-5-2.23-2-1.9-7.76-7.66-11.15-7.81,0,0-.78-2.43,2.13-2.73s5.59,3.12,6.18,2.26-9.12-21.84-7-22.44c1.68-.48,4.38,7.49,6.4,11.27.7,1.3,1.07,2,1.62,1.84.36-.1,0-1.19-.44-2.37-2.18-5.5-5.44-13.87-4.46-14.25s1.92,1,3.1,3.68c.19.44,3.14,7,5.2,11.51.51,1.11.92,1.4,1.17,1.36s.18-.73-.25-1.91c-2.13-5.8-5.44-12.78-4-13.19.87-.25,2,2,3.12,4.67,1,2.38,2,4.77,3.25,7.67.67,1.53,1,2.61,1.53,2.51.31,0,.19-.59-.57-2.52-.95-2.42-2.44-6.09-1.58-6.35S197,237,197.82,241.64Z"/></g><g id="FLOWER"><path class="cls-19" d="M72.25,126.67a4.49,4.49,0,0,0,3.08,2.87,21.68,21.68,0,0,0,4.33.66,23.54,23.54,0,0,1,11.51,4.58c.06-3.47-2-6.93-4.56-9.21-2.77-2.51-7.77-4.91-11.55-3.51C73.21,122.75,71.75,124.76,72.25,126.67Z"/><path class="cls-19" d="M75.83,127.41a4.69,4.69,0,0,0-2.15,1,3.57,3.57,0,0,0-.46,4.42,7.27,7.27,0,0,0,4.11,2.64,20.85,20.85,0,0,0,7.11,1.18,11.76,11.76,0,0,0,6.77-2.25,13.56,13.56,0,0,0-2.86-3A19.88,19.88,0,0,0,82.52,128,12.13,12.13,0,0,0,75.83,127.41Z"/><path class="cls-19" d="M73,133.33a4,4,0,0,1,3.59-1.11,19.07,19.07,0,0,1,3.72,1.16,21.1,21.1,0,0,0,11,.78c-1.3,2.8-4.32,4.76-7.23,5.61-3.18.94-8.12.93-10.61-1.66A3.7,3.7,0,0,1,73,133.33Z"/><path class="cls-7" d="M88,138.55a6.5,6.5,0,1,0-8.77-2.76A6.5,6.5,0,0,0,88,138.55Z"/><path class="cls-7" d="M85.31,140.77c-2.88,1.37-7.56,2.09-10.29,0a3.56,3.56,0,0,1-1.16-4.47,3.85,3.85,0,0,1,3.23-1.57,18,18,0,0,1,3.7.54,20.24,20.24,0,0,0,10.35-.83,23.74,23.74,0,0,0-9.41-7.76,20.72,20.72,0,0,1-3.91-2,4.51,4.51,0,0,1-2-3.68c.11-2,2.13-3.43,4.1-3.51,4-.17,8,3.66,9.9,6.9,1.68,3,2.62,6.89,1.49,10.18h0A11.14,11.14,0,0,1,85.31,140.77Z"/><path class="cls-20" d="M82.26,131.3a.61.61,0,0,1,.42-.59.5.5,0,0,1,.49.21.71.71,0,0,1,.11.53.58.58,0,0,1-.42.52.49.49,0,0,1-.46-.19A.68.68,0,0,1,82.26,131.3Z"/><path class="cls-20" d="M83.78,133.56a.62.62,0,0,1,.52-.8.48.48,0,0,1-.52.8Z"/><path class="cls-20" d="M83.28,128.65a.67.67,0,0,1,.42-.2.42.42,0,0,1,.39.24.74.74,0,0,1-.74.81.43.43,0,0,1-.28-.4A.66.66,0,0,1,83.28,128.65Z"/><path class="cls-20" d="M82.05,133.74a.42.42,0,0,1,.31-.33.41.41,0,0,1,.43.15.42.42,0,1,1-.74.18Z"/><path class="cls-20" d="M85.9,133.73a.52.52,0,0,1-.41-.45.51.51,0,0,1,.49-.52.5.5,0,0,1,.48.53A.51.51,0,0,1,85.9,133.73Z"/><path class="cls-20" d="M84.61,134.82a.41.41,0,0,1-.61.05.94.94,0,0,1,.5-.38A.25.25,0,0,1,84.61,134.82Z"/></g></g><path class="cls-7" d="M212.34,178.62,175.78,155s-12.89-25.48-44.35-37.9-8.8-13.35-8.8-13.35l10.7,7.64,16.48,1.82,38-3.85,27.3,38.17"/></g></g></g></svg>