<svg xmlns="http://www.w3.org/2000/svg" viewBox="0 0 327.31 331.02"><defs><style>.cls-1{fill:#c93f3f;opacity:0.13;}.cls-2{fill:#673b31;}.cls-3{fill:#efbd92;}.cls-4{fill:#8d4d3f;}.cls-5{fill:#89a5a8;}.cls-6{fill:none;stroke:#8d4d3f;stroke-miterlimit:10;}.cls-7{fill:#e9796d;}.cls-8{fill:#ee8980;}</style></defs><g id="Layer_2" data-name="Layer 2"><g id="Layer_5" data-name="Layer 5"><path class="cls-1" d="M222.51,80.19c53.24,0,105.4,16.15,104.8,77.74-.4,40.59-4.82,82-22.8,118s-40.8,49.71-81.25,54.38A107.64,107.64,0,0,1,211,331c-22.07,0-44.2-6.26-65.74-12.46-86-24.76-108-28.84-127.45-46.47-36-32.62-10.43-76.82,16.13-103.4,36.84-36.89,33.95-55.18,83.72-72,16.41-5.55,61-16.51,104.89-16.51"/><path class="cls-2" d="M70.46,62.68S53,87.38,66.83,107.73s24.7,32.69,25.42,61,4.81,52.16,34.88,57.39c33.41,5.81,73.37-7.26,77-52.31s-53-125-56.66-126.4S70.46,62.68,70.46,62.68Z"/><path class="cls-3" d="M76.47,93.27S94,137,100.53,156s17.5,33.54,37.91,32.81c15.45-.55,32.07-12.39,32.07-12.39l16.84,35.35-36.93,17.91s58.43,50.23,89.05,36.38,33.67-53.21,33.67-53.21l-42.85-59.76s-10.21-62-26.24-80.19-27.71-33.53-48.12-36.45S64.81,45.16,76.47,93.27Z"/><path class="cls-4" d="M72.1,72.13s28.43,12.39,59.05,8.75S202.5,214.57,256.44,199.26s68.62-60.79,41.65-84.12-34.59-24.31-65.61-70C189.6-18,130.41-8,85.22,32.77,54.48,60.5,72.1,72.13,72.1,72.13Z"/><path class="cls-5" d="M158.57,224.76S194.4,267.11,233,250.28c37.24-16.27,26.6-52.67,26.6-52.67s48.63-14.87,66.79-7.6c0,0-3.07,103-57.56,129.12S148,321.58,114.05,310.41c-29.33-9.64-38-11.26-38-11.26S82,254.62,158.57,224.76Z"/><path class="cls-6" d="M91.39,109.81s7.43-5.56,13.74.74,10.75,34.87,13,36.72,12.61,2.23,15.94-6.68"/><path class="cls-4" d="M85.7,114.47s5.51-13.17,17.06-6C102.76,108.42,90.8,109.36,85.7,114.47Z"/><path class="cls-4" d="M116.57,104.33s7.29-17.43,22.59-8C139.16,96.33,123.33,97.57,116.57,104.33Z"/><path class="cls-6" d="M91.06,122.42s8.8,5.31,14.6-4.48"/><line class="cls-6" x1="92.88" y1="123.42" x2="91.89" y2="125.91"/><line class="cls-6" x1="95.68" y1="124.28" x2="95.45" y2="126.96"/><line class="cls-6" x1="98.53" y1="123.91" x2="99.16" y2="126.92"/><line class="cls-6" x1="101.02" y1="123.08" x2="102.7" y2="125.81"/><line class="cls-6" x1="103.35" y1="121.19" x2="105.27" y2="123.06"/><line class="cls-6" x1="105.33" y1="119.1" x2="107.16" y2="120.43"/><path class="cls-6" d="M122.56,113.4s11.81,4.45,17.37-7.78"/><line class="cls-6" x1="125" y1="114.2" x2="124.18" y2="117.22"/><line class="cls-6" x1="128.61" y1="114.68" x2="128.77" y2="117.77"/><line class="cls-6" x1="132.08" y1="113.74" x2="133.37" y2="117.06"/><line class="cls-6" x1="135.03" y1="112.34" x2="137.58" y2="115.15"/><line class="cls-6" x1="137.6" y1="109.76" x2="140.3" y2="111.54"/><line class="cls-6" x1="139.72" y1="107.01" x2="142.2" y2="108.19"/><path class="cls-7" d="M120.18,164.22s2.57-8.29,7.6-7.11l3,1.11,1.05-2.85s2.46-4.35,13.49-.52Z"/><path class="cls-8" d="M120.18,164.22s16.62,9.79,25.14-9.37Z"/></g></g></svg>