<svg xmlns="http://www.w3.org/2000/svg" viewBox="0 0 327.31 331.02"><defs><style>.cls-1{fill:#c93f3f;opacity:0.13;}.cls-2{fill:#673b31;}.cls-3{fill:#efbd92;}.cls-4{fill:#8d4d3f;}.cls-5{fill:#89a5a8;}.cls-6{fill:none;stroke:#8d4d3f;stroke-miterlimit:10;}.cls-7{fill:#e9796d;}.cls-8{fill:#ee8980;}.cls-9{fill:#e4cace;}</style></defs><g id="Layer_2" data-name="Layer 2"><g id="Layer_5" data-name="Layer 5"><path class="cls-1" d="M222.51,80.19c53.24,0,105.4,16.15,104.8,77.74-.4,40.59-4.82,82-22.8,118s-40.8,49.71-81.25,54.38A107.64,107.64,0,0,1,211,331c-22.07,0-44.2-6.26-65.74-12.46-86-24.76-108-28.84-127.45-46.47-36-32.62-10.43-76.82,16.13-103.4,36.84-36.89,33.95-55.18,83.72-72,16.41-5.55,61-16.51,104.89-16.51"/><path class="cls-2" d="M70.46,62.68S53,87.38,66.83,107.73s24.7,32.69,25.42,61,4.81,52.16,34.88,57.39c33.41,5.81,73.37-7.26,77-52.31s-53-125-56.66-126.4S70.46,62.68,70.46,62.68Z"/><path class="cls-3" d="M76.47,93.27S94,137,100.53,156s17.5,33.54,37.91,32.81c15.45-.55,32.07-12.39,32.07-12.39l16.84,35.35-36.93,17.91s58.43,50.23,89.05,36.38,33.67-53.21,33.67-53.21l-42.85-59.76s-10.21-62-26.24-80.19-27.71-33.53-48.12-36.45S64.81,45.16,76.47,93.27Z"/><path class="cls-4" d="M72.1,72.13s28.43,12.39,59.05,8.75S202.5,214.57,256.44,199.26s68.62-60.79,41.65-84.12-34.59-24.31-65.61-70C189.6-18,130.41-8,85.22,32.77,54.48,60.5,72.1,72.13,72.1,72.13Z"/><path class="cls-5" d="M158.57,224.76S194.4,267.11,233,250.28c37.24-16.27,26.6-52.67,26.6-52.67s48.63-14.87,66.79-7.6c0,0-3.07,103-57.56,129.12S148,321.58,114.05,310.41c-29.33-9.64-38-11.26-38-11.26S82,254.62,158.57,224.76Z"/><path class="cls-6" d="M91.39,109.81s7.43-5.56,13.74.74,10.75,34.87,13,36.72,12.61,2.23,15.94-6.68"/><path class="cls-4" d="M85.7,114.47s5.51-13.17,17.06-6C102.76,108.42,90.8,109.36,85.7,114.47Z"/><path class="cls-4" d="M116.57,104.33s7.29-17.43,22.59-8C139.16,96.33,123.33,97.57,116.57,104.33Z"/><path class="cls-6" d="M91.06,122.42s8.8,5.31,14.6-4.48"/><line class="cls-6" x1="92.88" y1="123.42" x2="91.89" y2="125.91"/><line class="cls-6" x1="95.68" y1="124.28" x2="95.45" y2="126.96"/><line class="cls-6" x1="98.53" y1="123.91" x2="99.16" y2="126.92"/><line class="cls-6" x1="101.02" y1="123.08" x2="102.7" y2="125.81"/><line class="cls-6" x1="103.35" y1="121.19" x2="105.27" y2="123.06"/><line class="cls-6" x1="105.33" y1="119.1" x2="107.16" y2="120.43"/><path class="cls-6" d="M122.56,113.4s11.81,4.45,17.37-7.78"/><line class="cls-6" x1="125" y1="114.2" x2="124.18" y2="117.22"/><line class="cls-6" x1="128.61" y1="114.68" x2="128.77" y2="117.77"/><line class="cls-6" x1="132.08" y1="113.74" x2="133.37" y2="117.06"/><line class="cls-6" x1="135.03" y1="112.34" x2="137.58" y2="115.15"/><line class="cls-6" x1="137.6" y1="109.76" x2="140.3" y2="111.54"/><line class="cls-6" x1="139.72" y1="107.01" x2="142.2" y2="108.19"/><path class="cls-7" d="M120.18,164.22s2.57-8.29,7.6-7.11l3,1.11,1.05-2.85s2.46-4.35,13.49-.52Z"/><path class="cls-8" d="M120.18,164.22s16.62,9.79,25.14-9.37Z"/><path class="cls-9" d="M53.39,186.55a9.69,9.69,0,0,0-7.34-2.66A16.16,16.16,0,0,0,37.87,187c-4.62,3.15-8.57,8.36-7.3,14.26,1.23,5.73,7.38,8.29,12.74,7.64a23.57,23.57,0,0,0,8.56-2.95A17.21,17.21,0,0,0,58,200.42c1.46-2.25,2.23-5.36.53-7.7s-4.6-3.57-7.18-4.26c-5.13-1.38-11.38-.45-15.11,3.59a8.45,8.45,0,0,0-2.39,6.39,7.53,7.53,0,0,0,3,5.57c2.22,1.52,5,1.13,7.28-.11a15.36,15.36,0,0,0,3.42-2.63A13.65,13.65,0,0,0,50.26,198a3.93,3.93,0,0,0,.19-3.56,2.61,2.61,0,0,0-2.74-1.5A14.06,14.06,0,0,0,44,194.18a9.59,9.59,0,0,0-3,2,4.44,4.44,0,0,0-1.46,3.19c.17,1.27,1.67,1.41,2.69,1.27a3.06,3.06,0,0,0,2.7-2.05,2,2,0,0,0-1.19-2.5,1.75,1.75,0,0,0-2.19,1.09c-.19.62.78.88,1,.27a.72.72,0,0,1,.89-.41.94.94,0,0,1,.57,1.2c-.25,1.17-1.76,1.6-2.8,1.43a.85.85,0,0,1-.6-.28c-.16-.24,0-.69.11-.92a4.46,4.46,0,0,1,.8-1.34,7.63,7.63,0,0,1,2.42-1.79,18,18,0,0,1,2.93-1.15,2.72,2.72,0,0,1,1.86-.16,1.88,1.88,0,0,1,.94,1.11,3.51,3.51,0,0,1-.73,3.14A17.84,17.84,0,0,1,46.46,201c-1.71,1.59-3.92,3.09-6.36,3a5.24,5.24,0,0,1-4.52-3.08,7.06,7.06,0,0,1-.31-5.43,9.48,9.48,0,0,1,4.17-4.71A15.61,15.61,0,0,1,53,190c2,.82,4.74,2.22,5.41,4.49s-.65,4.94-2.17,6.71a18.4,18.4,0,0,1-5.45,4.14,22.08,22.08,0,0,1-7.44,2.48c-4.47.55-9.76-1.15-11.44-5.73-1.77-4.82,1-9.73,4.58-12.84s8.68-5.57,13.44-3.82a7.89,7.89,0,0,1,2.8,1.79.5.5,0,0,0,.7-.7Z"/><path class="cls-9" d="M277.42,38.51c-6-3.26-13.7-3.32-19.08,1.19a14,14,0,0,0-4.75,7.69,8.93,8.93,0,0,0,.14,4.89,6.64,6.64,0,0,0,3.1,3.44,22.56,22.56,0,0,0,4.85,1.91,27.16,27.16,0,0,0,5.66,1,17.81,17.81,0,0,0,10-2,12.7,12.7,0,0,0,6.13-7.15c1.08-3.54-.64-6.93-3.23-9.32-5.38-5-13.32-5-19.79-2.32-2.8,1.18-6,3-6.92,6.1-1,3.28,1.16,6.46,4,7.93a18.26,18.26,0,0,0,11.06,1.34c3.18-.51,6.82-1.92,7.75-5.35s-1.82-5.88-5-6.11A13.57,13.57,0,0,0,265.55,43a16.71,16.71,0,0,0-4.77,2.54c-1.09.93-1.83,2.45-.84,3.74a7,7,0,0,0,4.33,2.07,9.4,9.4,0,0,0,4.87-.55c1.28-.51,3-1.47,3.06-3S270.26,45,269,44.48s-3.46-1.28-4.9-.53c-2.32,1.2-1,5.31,1.66,4.45a2.55,2.55,0,0,0,1.81-2.82c-.1-.63-1.06-.36-1,.27.18,1.12-1.42,2.21-2.31,1.37a1.55,1.55,0,0,1,.44-2.46,4.14,4.14,0,0,1,2.26.1,8.72,8.72,0,0,1,2.26.86A5.34,5.34,0,0,1,270.93,47c.55.72.09,1.46-.5,2-2.16,1.86-5.78,1.92-8.25.75a3.52,3.52,0,0,1-1.55-1.16,1.65,1.65,0,0,1,.51-2,12.12,12.12,0,0,1,3.95-2.31c2.72-1.18,6.58-2.56,9.18-.39s.92,5.53-1.44,6.93c-2.65,1.58-6.13,1.87-9.14,1.64s-6.36-1.05-8.23-3.55a5.29,5.29,0,0,1-1.1-4,6.06,6.06,0,0,1,2-3.37,17.87,17.87,0,0,1,8-3.91c5.63-1.41,12-.39,16.08,4.06a9.76,9.76,0,0,1,2.26,3.85,6.89,6.89,0,0,1-.51,4.78A12.29,12.29,0,0,1,276.54,56c-5.5,2.87-12.18,1.9-17.7-.38a8.43,8.43,0,0,1-3.35-2.21,5.87,5.87,0,0,1-1.14-4.28,12.28,12.28,0,0,1,3.07-7.1,15.09,15.09,0,0,1,15.34-4.28,18.44,18.44,0,0,1,4.16,1.66c.57.31,1.07-.56.5-.87Z"/><path class="cls-9" d="M41.52,105.44a5.5,5.5,0,0,0-6-1.27c-2.38.89-4,3.09-5,5.33-.88,2-1.55,4.44-.66,6.54,1.08,2.54,4.16,2.87,6.59,2.92,2.64.06,5.68-.34,7.89-1.9,1.9-1.35,2.92-3.65,1.36-5.69A6.69,6.69,0,0,0,38.8,109c-2,.63-4,2.89-3.18,5.11.54,1.39,2.14,1.34,3.4,1.29a4.47,4.47,0,0,0,3.72-1.75,2.41,2.41,0,0,0-.19-3.12,2.07,2.07,0,0,0-2.82-.14c-.47.43.24,1.13.71.7s1.52,0,1.74.63A2.1,2.1,0,0,1,40.91,114a6.31,6.31,0,0,1-3.28.4c-.56,0-1-.2-1.12-.76a2.31,2.31,0,0,1,.07-1.3,4.08,4.08,0,0,1,4.68-2.48c1.74.31,4.31,1.73,4.24,3.8-.06,1.78-2,3-3.52,3.5a16.11,16.11,0,0,1-6.58.76c-2-.17-4.24-.6-4.8-2.8a8.08,8.08,0,0,1,.78-5.1,9,9,0,0,1,4.09-4.76,4.6,4.6,0,0,1,5.35.9c.42.49,1.12-.22.7-.71Z"/><path class="cls-9" d="M83.18,152.51c-1.51-1.58-4-.88-5.28.63a9.32,9.32,0,0,0-1.57,3.19,10.09,10.09,0,0,0-.68,3.68c.29,4.72,6.28,4.71,9.65,3.7,1.71-.51,3.72-1.53,4.21-3.41.58-2.21-1.22-4.14-3.18-4.82a6.07,6.07,0,0,0-6,1.2c-1.5,1.39-2.26,3.93-1,5.73,1.12,1.63,3.88,2.38,5.24.61,1.1-1.44.57-4-1.32-4.44-.63-.14-.9.82-.27,1a1.85,1.85,0,0,1,.8,2.86c-1,1.27-3,.46-3.71-.7-.88-1.52-.05-3.5,1.21-4.52a5.11,5.11,0,0,1,4.82-.75c1.51.54,3.08,2.14,2.39,3.87-.53,1.35-2.13,2.05-3.42,2.44-2.36.7-6.74,1.2-8.07-1.5a5,5,0,0,1,0-3.45,14.77,14.77,0,0,1,1-2.91A4,4,0,0,1,80,152.8a2.25,2.25,0,0,1,2.46.41c.44.47,1.15-.24.71-.7Z"/><path class="cls-9" d="M294.21,87.85c-.66-2.13-3.31-2.53-5-1.4a7,7,0,0,0-2.79,5.64,7.4,7.4,0,0,0,2.15,5.58,5.92,5.92,0,0,0,5.23,1.43A5.6,5.6,0,0,0,297.94,96a5.15,5.15,0,0,0-1.15-5.52,4.69,4.69,0,0,0-5.62-1.06c-1.74.91-2.7,3.15-1.27,4.76a3,3,0,0,0,2.62,1,2.07,2.07,0,0,0,1.73-2.09,1.5,1.5,0,0,0-1.92-1.55,1.38,1.38,0,0,0-.66,2.2c.44.46,1.15-.24.7-.71-.24-.25.62-1,.85-.14a1.08,1.08,0,0,1-1,1.32,1.93,1.93,0,0,1-2-2.45,3.25,3.25,0,0,1,3.78-1.8,4.45,4.45,0,0,1,3.05,2.94c.93,2.87-1.59,5.17-4.33,5.29-3.06.13-5.15-2.46-5.36-5.36A6.67,6.67,0,0,1,289,88a3.17,3.17,0,0,1,2.37-1.17,2,2,0,0,1,1.91,1.32c.19.61,1.16.35,1-.27Z"/><path class="cls-9" d="M92.87,244.25a12.81,12.81,0,0,1-11.69-8.53,10.38,10.38,0,0,1-.58-4,5.5,5.5,0,0,1,2.08-3.93,13.07,13.07,0,0,1,8.56-2.56,12.25,12.25,0,0,1,7.8,2.64,6.33,6.33,0,0,1,2,6.73c-1,2.95-4.25,3.33-7,3.15a16.59,16.59,0,0,1-4.2-.79A8.85,8.85,0,0,1,86,234.7c-.46-.53.21-.87.61-1.14s.72-.45,1.1-.65a13.35,13.35,0,0,1,2.44-1,9.11,9.11,0,0,1,5-.4,2,2,0,0,1,.8,3.44,2.12,2.12,0,0,1-2,.27,1.53,1.53,0,0,1-.88-.85c-.16-.44.07-1.06.63-.89s.88-.77.26-1a1.51,1.51,0,0,0-1.76.73,1.91,1.91,0,0,0,.32,2.12,2.94,2.94,0,0,0,4.75-3.42c-.87-1.58-2.85-1.71-4.45-1.57A14.59,14.59,0,0,0,87.44,232a8.33,8.33,0,0,0-2.26,1.48,1.4,1.4,0,0,0,.15,2c2.41,2.61,6.57,3.4,10,3.4a7.81,7.81,0,0,0,5-1.43,5.62,5.62,0,0,0,2-3.67A7.74,7.74,0,0,0,98.05,226a15.56,15.56,0,0,0-10.45-1.42c-3.38.66-7.31,2.67-7.91,6.41a12,12,0,0,0,2.83,9.14,13.83,13.83,0,0,0,8,4.92,12.93,12.93,0,0,0,2.32.22.5.5,0,0,0,0-1Z"/><path class="cls-9" d="M318.52,165.2a3.38,3.38,0,0,0-4.22-1.39,9,9,0,0,0-4.2,4.22c-.89,1.66-1.26,3.75.12,5.27a5,5,0,0,0,4.93,1.17,13.87,13.87,0,0,0,5.29-3.15,5.09,5.09,0,0,0,2-4.68,3.06,3.06,0,0,0-3.71-2.5c-1.68.3-3.39,1.66-3.22,3.52s2.35,3.14,3.77,1.54a1.72,1.72,0,0,0,.14-2.28,1.48,1.48,0,0,0-2.19-.11c-.41.49.29,1.21.71.71s1,.18.82.65a1.12,1.12,0,0,1-1.46.69c-1.21-.56-.88-2.22-.07-2.94s2.73-1.3,3.67-.27a2.93,2.93,0,0,1,.24,3.27,8.36,8.36,0,0,1-2.89,2.84,9.19,9.19,0,0,1-4.13,1.9,3.73,3.73,0,0,1-3.23-1.13c-.95-1.14-.58-2.71.05-3.91A9.23,9.23,0,0,1,314,165c1.16-.68,2.94-.71,3.62.66.28.58,1.14.07.86-.5Z"/></g></g></svg>