<svg xmlns="http://www.w3.org/2000/svg" viewBox="0 0 309.32 331.5"><defs><style>.cls-1{isolation:isolate;}.cls-2,.cls-4{fill:#c93f3f;}.cls-2{opacity:0.13;}.cls-3{opacity:0.12;mix-blend-mode:multiply;}.cls-5{fill:#b1805f;}.cls-6{fill:#333;}.cls-7{fill:#27364f;}.cls-8{fill:#6f808a;}.cls-9{fill:#546872;}.cls-10{fill:#f5c696;}.cls-11{fill:#a8724c;}.cls-12{fill:#f0954d;}.cls-13{fill:#225173;}.cls-14{fill:#edb9b9;}.cls-15{opacity:0.3;}.cls-16{fill:#9b5b2f;}</style></defs><g class="cls-1"><g id="Layer_2" data-name="Layer 2"><g id="Layer_5" data-name="Layer 5"><path class="cls-2" d="M44.42,254q4.19,2.21,8.88,4.13,2.23.92,4.57,1.76a201.45,201.45,0,0,0,20.86,6.21l.76.18h0l.15,0q4,.95,8,1.79a313.13,313.13,0,0,0,95.48,4.16c1.91-.22,3.8-.46,5.69-.72a199.71,199.71,0,0,0,35.78-8.14c26.1-8.76,60.13-39.79,73.7-63.74s15.3-55.22,1-78.75c-7-11.43-16.73-20.1-27.74-27.58-4.67-3.17-9.57-6.13-14.56-9L254,82.63l-1.95-1.09q-2.78-1.55-5.56-3.08h0c-2.87-1.58-5.74-3.15-8.59-4.74l-.4-.22,0,0h0L235,72.1l-2.44-1.4q-4.09-2.34-8.07-4.81l-.6-.37c-.6-.37-1.19-.75-1.78-1.13-1.5-1-3-1.93-4.43-2.93-1.77-1.21-3.52-2.47-5.25-3.75-2-1.49-4-3-6-4.59-1.06-.85-2.12-1.7-3.16-2.56l-.6-.49-2.32-1.93-1.47-1.23-1.2-1L195,43.58q-1.8-1.55-3.59-3.1l-2.08-1.8-3.88-3.35-4.28-3.65-.53-.45c-1.3-1.09-2.6-2.18-3.91-3.25h0c-.79-.65-1.58-1.28-2.37-1.92l0,0-1.79-1.42-2.43-1.88q-2.34-1.8-4.74-3.52l-.87-.61C162.28,17,160,15.48,157.67,14l-1.5-.92c-.82-.5-1.66-1-2.5-1.46l-.87-.5-.4-.22-1-.56a93.63,93.63,0,0,0-13.64-6L136.66,4c-.71-.24-1.43-.46-2.14-.68-2-.61-4.09-1.13-6.16-1.57l-1-.2c-.88-.18-1.77-.34-2.66-.48C123.14.77,121.58.56,120,.41,117.46.15,114.9,0,112.33,0h-1.17l-1.64,0c-1.58.05-3.16.14-4.73.27h0c-1.4.12-2.8.27-4.19.46L100,.84c-1.57.22-3.13.48-4.69.79q-3.87.77-7.67,1.88c-1.44.42-2.86.88-4.27,1.37A82.28,82.28,0,0,0,44.45,33C33.21,48.14,27.53,66.58,21.51,84.46,11.77,113.39.52,142.54,0,173.06-.44,200.49,7.71,234.73,44.42,254Z"/><g class="cls-3"><path class="cls-4" d="M274.7,273.72c-5.15-5.49-12.93-7.52-20.35-8.83a179.18,179.18,0,0,0-80.86,4.32l-5.93.86c10.38,14.14,19.13,25.94,33.72,35.68s32.64,15.29,49.86,12c10-1.92,19.74-7.11,25.13-15.72S281.66,281.13,274.7,273.72Z"/></g><path class="cls-5" d="M219.85,177l-25.51,12.45-9.6-22.84s-2,.55-7-9S164.15,132,164.15,132h0A39.81,39.81,0,0,1,201,118.73l2,.35Z"/><path class="cls-5" d="M205.83,132.45c.13-.16,5.85-5.39,8.93,1.28s-4.48,8.52-4.58,8.33S205.83,132.45,205.83,132.45Z"/><path class="cls-5" d="M173.23,147.14c-.21,0-7.06,1.49-3.54,7.94s9.51,1.48,9.42,1.29S173.23,147.14,173.23,147.14Z"/><path class="cls-6" d="M207.66,130.61c1.76,6,3.41,8.79,4.32,12.94,1.44,6.56.69,12.52-3.27,18.15s-11.32,9.27-18,7.66c-4.61-1.11-8.46-3.06-11-7s-6.72-10.95-8.84-15.09c-3.83-7.46-7.95-14.36-7.95-14.36l20.21-15,16.26.89Z"/><path class="cls-7" d="M199.17,170.65c0,.17,2-.29,4.05-1.62s3.28-2.9,3.14-3-1.54,1.19-3.51,2.45S199.1,170.47,199.17,170.65Z"/><path class="cls-6" d="M211.3,140.49c-2.19-6-5-12.61-7.09-19-.78-2.4-1.57-6-2.91-8.17a20.32,20.32,0,0,0-4.78-5.87,10.84,10.84,0,0,0-9.26-1.62,11.22,11.22,0,0,0-7.16,6.25A8.41,8.41,0,0,0,171,113a8.08,8.08,0,0,0-2.57,8.61A5.94,5.94,0,0,0,162.1,124a5.47,5.47,0,0,0,.55,6.57,5.54,5.54,0,0,0-2.28,4.6,5.2,5.2,0,0,0,2.62,4.28c1.79,1,4.07.91,5.93,1.8a6,6,0,0,1,3.33,5.75"/><path class="cls-7" d="M157.29,249.43c1.25,1.75,10.34,27.11,24.45,37.76S209,304.68,229.23,304s30.91-6.14,38.46-9.1c20.38-8,13.2-23.75,13.2-23.75l-35.54-8.95-48.12-25.55S179.88,220.23,173.51,218s-14.69,7.73-16.46,16.66S157.29,249.43,157.29,249.43Z"/><path d="M188.29,278.6a3.3,3.3,0,0,1-.12-.84,20.5,20.5,0,0,1-.08-2.31,34.44,34.44,0,0,1,3.44-14.74,23,23,0,0,1,1.09-2,3.36,3.36,0,0,1,.48-.7c.07,0-.51,1.09-1.29,2.86a40.4,40.4,0,0,0-3.41,14.62C188.31,277.39,188.36,278.6,188.29,278.6Z"/><path d="M183.47,267.6a13.48,13.48,0,0,1,1.09-2.47,49,49,0,0,1,3.32-5.61,51.92,51.92,0,0,1,4-5.13,13.06,13.06,0,0,1,1.91-1.9,21.18,21.18,0,0,1-1.67,2.1c-1,1.29-2.46,3.1-3.89,5.18s-2.6,4.06-3.41,5.5A21.3,21.3,0,0,1,183.47,267.6Z"/><path class="cls-5" d="M229.83,64.52,228.6,55.8a45.57,45.57,0,0,1-4.76-5.07c-.91-1.47-5.52-1.07-5.52-1.07L217,35.79a1.68,1.68,0,0,0-2.83-1c-2.23,1.49-1.07,17.78-1.07,17.78l-.52,3.78s-4.41-5.5-6.91-4.73.87,3.67,1.39,5.28S217.4,67.7,217.4,67.7L226,84.85l1.81,0,6,4.27,5.87-8.81Z"/><path class="cls-8" d="M179.7,182.36s-8.89,5.7-11.76,14.83c-1.35,4.3-.45,23,.91,39.94.35,4.27.94,21.05,4.3,23.71.07.06,2.1,2.8,7.12,2.8,9.33,0,10.7-6.13,13.53-15l-.7-10.6s3.78-35.73,2.41-41.91S179.7,182.36,179.7,182.36Z"/><path class="cls-8" d="M225.51,151.68l-9.72,7.39s-1.38,10.85-14.09,17.72A16.55,16.55,0,0,1,189.55,178l-9.85,4.34-4.39,33.91,20.43,30.84,2.55,11.83.31,4.25a30.79,30.79,0,0,0,1.44,15c2.86,7.9,5.72,17.93,42.37,17.84,32-.08,40.46-20.91,40.81-23.31s-8.66-25.11-10.38-30.81-19.9-67.44-19.9-67.44l-7.29-16.35Z"/><path class="cls-8" d="M229.64,106.91l-13.85,52.16L234,165.55l9.3,4.5,3.06-15.78s7.32-40.51,7.37-47.19c.06-8.4-19.4-39-19.4-39s-11-1.66-14.3,9.31Z"/><path class="cls-7" d="M227.15,282.94a8.72,8.72,0,0,1-1.43-.23,13.76,13.76,0,0,1-1.65-.38c-.64-.19-1.38-.35-2.16-.65s-1.65-.58-2.55-1-1.84-.86-2.83-1.36a44.45,44.45,0,0,1-6-4,57.48,57.48,0,0,1-9.13-9.29c-1-1.31-1.82-2.4-2.34-3.17a8.7,8.7,0,0,1-.78-1.23,10.38,10.38,0,0,1,.92,1.12c.56.75,1.39,1.8,2.45,3.08a62.19,62.19,0,0,0,9.15,9.14,47.71,47.71,0,0,0,5.92,4c1,.5,1.88,1,2.78,1.38s1.73.74,2.5,1,1.5.5,2.12.7,1.18.35,1.63.46A8.5,8.5,0,0,1,227.15,282.94Z"/><path class="cls-7" d="M264.23,218.79a2.29,2.29,0,0,1,0,.52c0,.39-.06.88-.1,1.49-.09,1.3-.27,3.17-.54,5.48a173.48,173.48,0,0,1-3.07,17.87,175.23,175.23,0,0,1-4.93,17.46c-.75,2.2-1.39,4-1.87,5.17-.23.57-.41,1-.55,1.39a1.85,1.85,0,0,1-.23.47,4,4,0,0,1,.14-.5c.13-.37.28-.84.48-1.42.43-1.22,1-3,1.73-5.21,1.43-4.41,3.23-10.56,4.8-17.45s2.58-13.23,3.19-17.82c.31-2.3.54-4.16.68-5.45.07-.61.13-1.1.18-1.49A3.83,3.83,0,0,1,264.23,218.79Z"/><path class="cls-7" d="M257.27,203.21a9.23,9.23,0,0,1-.34,1.47c-.24.94-.63,2.28-1.16,3.93a46.15,46.15,0,0,1-5.88,12.17,72,72,0,0,1-4.62,5.85l-4,4.57-2.7,3.07a9.68,9.68,0,0,1-1,1.1,8.08,8.08,0,0,1,.9-1.21c.6-.76,1.49-1.84,2.6-3.16l3.92-4.63c1.47-1.75,3.08-3.68,4.57-5.84a49.2,49.2,0,0,0,5.94-12c.57-1.63,1-3,1.3-3.88A9.16,9.16,0,0,1,257.27,203.21Z"/><path class="cls-7" d="M244.57,156.48a3.08,3.08,0,0,1,.32.5l.84,1.5c.34.66.73,1.49,1.19,2.44s.91,2.07,1.44,3.29c2.06,4.91,4.57,11.83,7.13,19.54s4.69,14.74,6.19,19.85c.75,2.55,1.33,4.62,1.73,6.06l.44,1.66a2.87,2.87,0,0,1,.12.58,3,3,0,0,1-.21-.56c-.13-.41-.3-1-.52-1.63-.45-1.47-1.08-3.52-1.86-6-1.57-5.08-3.76-12.1-6.31-19.8s-5-14.63-7-19.56c-.52-1.23-1-2.34-1.39-3.31l-1.11-2.46c-.32-.64-.57-1.15-.77-1.53A4.28,4.28,0,0,1,244.57,156.48Z"/><path class="cls-7" d="M173.65,211.9s.1.11.24.33l.62,1,2.24,3.65c1.91,3.08,4.64,7.28,7.71,11.88s5.84,8.77,7.78,11.84c1,1.53,1.74,2.78,2.25,3.66l.59,1c.13.23.19.36.17.36a1.34,1.34,0,0,1-.25-.32l-.65-1L192,240.77,184.1,229c-3.07-4.6-5.77-8.83-7.61-11.95-.93-1.56-1.65-2.84-2.13-3.74-.22-.41-.4-.75-.54-1A1.82,1.82,0,0,1,173.65,211.9Z"/><path class="cls-9" d="M239.73,232.5v.17l-10.58,11.94a39.85,39.85,0,0,0,25.56-33.4A99.36,99.36,0,0,1,239.73,232.5Z"/><path class="cls-9" d="M227.15,282.94c-9.33-1.8-19.3-9.54-25.7-16.57,5.14,9.17,14,17.38,24.15,20.23A40.71,40.71,0,0,0,256.13,283C246.6,284.07,236.48,284.75,227.15,282.94Z"/><path class="cls-7" d="M246.11,102.29c0,.08-.77,0-2,.08a14.81,14.81,0,0,0-4.59,1.08,14.55,14.55,0,0,0-4,2.52c-.91.81-1.39,1.4-1.45,1.36a5.78,5.78,0,0,1,1.23-1.59,12.69,12.69,0,0,1,8.76-3.68A5.88,5.88,0,0,1,246.11,102.29Z"/><g class="cls-3"><path class="cls-4" d="M127.32,315.24c-1.54-2-3.85-3.34-5.35-5.38-4-5.51-.66-13.12,2.21-19.3s4.52-14.93-1.18-18.66c-3.58-2.34-8.28-1.34-12.43-.38a222.41,222.41,0,0,1-85.17,2.94l-3.28-1.38c2,9,4.06,18.1,8.77,26s12.62,14.42,21.78,15.08c6.21.44,12.25-1.81,18.36-3s13.17-.94,17.61,3.42c4.7,4.62,6,13.33,12.48,14.63,7,1.4,12.44-7.71,19.54-7.22,2.22.15,4.66,1.22,6.52,0C129.3,320.61,128.87,317.25,127.32,315.24Z"/></g><path class="cls-10" d="M100.52,309.72l-1.25,5.66s-6.44,9.88-6.12,11.39,1.5.75,1.5.75l4.3-5.59s-3.76,6.45-3.22,7.74a1.12,1.12,0,0,0,1.72.54,3.71,3.71,0,0,0,2.71,1.29,4.33,4.33,0,0,0,2.88-1.29,8.06,8.06,0,0,0,3.44-.22c1.29-.53,4-3.54,6.12-6.66a62.15,62.15,0,0,0,3.55-5.8,2.59,2.59,0,0,1,3.12.53c1.39,1.51,5.59,4.73,7.31,4.41s1.5-1.06,1.5-1.06-5.48-6.14-6.34-7.65-4.26-2.48-5.7-3.86a4.38,4.38,0,0,1-1.52-2.49Z"/><path class="cls-11" d="M110,319.13a7,7,0,0,1-.79,1.65c-.54,1-1.34,2.32-2.28,3.77s-1.84,2.71-2.52,3.61a7.43,7.43,0,0,1-1.19,1.39c-.1-.08,1.48-2.37,3.35-5.24S109.92,319.06,110,319.13Z"/><path class="cls-11" d="M105.19,317a9.86,9.86,0,0,1-.87,2.06c-.61,1.25-1.51,2.95-2.59,4.76s-2.16,3.41-3,4.54a10.29,10.29,0,0,1-1.41,1.75,12.9,12.9,0,0,1,1.16-1.93c.74-1.16,1.77-2.77,2.85-4.58s2-3.47,2.69-4.68A13.56,13.56,0,0,1,105.19,317Z"/><path class="cls-11" d="M102.23,316.89a10.43,10.43,0,0,1-1.3,2.67A10.26,10.26,0,0,1,99.26,322a19.67,19.67,0,0,1,3-5.12Z"/><path class="cls-12" d="M112.79,122c4.28,10.7,2.49,21.39,2.73,32.43.07,3.21,6.06,7.63,7.29,10.6,1.88,4.5-.74,6,2,10s3.79,9.4,1,13.22c-3.37,4.65-10.26,4.39-15.95,3.64a123.21,123.21,0,0,1,2.67-65.5"/><path class="cls-13" d="M48.66,229.46s-10.21-12.29-14.28-13.38c-11-3-24.64.17-24.64,12.76S16.42,260,16.42,260s7,27.28,15.26,34.12,11.87,8.63,30.58,9.71a104.57,104.57,0,0,0,36.34-4.54c2.88-.86,13-8.95,23.45-23s23.82-29.14,25.62-37-1.6-19.92-12.26-22.71-27.79,12.27-27.79,12.27l-45,7.74Z"/><path d="M39.17,239a19.55,19.55,0,0,1-1-2.66c-.56-1.66-1.34-3.94-2.29-6.43s-1.92-4.7-2.67-6.27A27.05,27.05,0,0,1,32,221.11a3.42,3.42,0,0,1,.45.62c.28.41.63,1,1,1.79a55.37,55.37,0,0,1,2.81,6.25c1,2.5,1.69,4.81,2.17,6.5A17.66,17.66,0,0,1,39.17,239Z"/><path d="M133.14,221.11a3.51,3.51,0,0,1-.81-.05,5.66,5.66,0,0,0-2.1.51,24.21,24.21,0,0,0-5.92,4.18c-2.14,1.9-4,3.76-5.28,5.08a22.18,22.18,0,0,1-2.2,2.11,2.91,2.91,0,0,1,.49-.65c.34-.41.85-1,1.48-1.67a73.12,73.12,0,0,1,5.22-5.19,21.46,21.46,0,0,1,6.09-4.15,5.26,5.26,0,0,1,2.23-.39A2.44,2.44,0,0,1,133.14,221.11Z"/><path class="cls-14" d="M61.62,72.43,46.51,125.94l2.94,56.18-3.08,41.15L29.56,260s-6.65,19.55,17.79,27.36,45.54,5.09,51,0,14.86-76.62,14.86-76.62l15.64-34s-3.92-5.9-15.25-9.8-39.49-5.85-39.49-5.85L70,126.86l9.48-51S68.84,71.44,61.62,72.43Z"/><path class="cls-14" d="M112.66,203.16s-17.2,33.23-17.59,40.26,3.78,67,3.78,67l17.32-1.36s-3.12-43-2-52.78,1.56-25.8,6.25-36.74,12.75-33.64,8.39-42.81Z"/><g class="cls-15"><path d="M113.71,195.19c-2.16-2.34-5.69-2.67-8.87-2.85l-37.57-2.1L60.2,196.9A32.11,32.11,0,0,0,59,211.85l4.31-3.22a17.3,17.3,0,0,0,1.8,6.29l6.83-6a29.78,29.78,0,0,0,37.72.85,15.42,15.42,0,0,0,5.25-6.57A7.94,7.94,0,0,0,113.71,195.19Z"/></g><path class="cls-7" d="M112.66,203.16a2.35,2.35,0,0,1-.11.21l-.33.59-1.32,2.26c-1.12,2-2.7,4.87-4.44,8.54A154.66,154.66,0,0,0,96,244.7c-.19.75-.35,1.5-.52,2.25-.08.37-.18.75-.24,1.12a10,10,0,0,0-.12,1.1c-.11,1.49-.08,3-.07,4.44,0,2.93.16,5.75.28,8.44.27,5.36.51,10.2.72,14.27s.37,7.32.49,9.62c0,1.12.08,2,.1,2.62,0,.28,0,.51,0,.68a.87.87,0,0,1,0,.24.72.72,0,0,1,0-.23c0-.18,0-.41-.06-.68,0-.63-.11-1.51-.19-2.62-.15-2.3-.37-5.58-.63-9.61s-.56-8.9-.82-14.28c-.12-2.68-.25-5.51-.3-8.44,0-1.47,0-3,.06-4.48,0-.38.08-.77.13-1.16s.16-.75.24-1.12c.17-.75.33-1.51.52-2.26a148.74,148.74,0,0,1,10.56-30c1.79-3.67,3.41-6.54,4.58-8.49.58-1,1.07-1.72,1.39-2.22l.38-.57A.71.71,0,0,1,112.66,203.16Z"/><path class="cls-7" d="M92.2,248.55a1.74,1.74,0,0,1-.34.26l-1,.68c-.89.58-2.21,1.38-3.87,2.32a103.46,103.46,0,0,1-13.46,6.37,105.68,105.68,0,0,1-14.24,4.35c-1.86.42-3.38.71-4.43.88l-1.21.19a2,2,0,0,1-.43,0,1.42,1.42,0,0,1,.41-.13l1.2-.27c1-.22,2.54-.56,4.38-1a116,116,0,0,0,27.63-10.69c1.68-.9,3-1.66,3.94-2.2l1.06-.6A1.62,1.62,0,0,1,92.2,248.55Z"/><g class="cls-15"><path d="M43.33,264.05c16.4,4.59,34.78-1.75,46.52-14.06C75.5,258.45,60,263.86,43.33,264.05Z"/></g><g class="cls-15"><path d="M94.86,249.16c-.92,10.24-1.83,27.24-1.71,37.52,0,5.09.49,9.59,4.26,13C96.54,285,95.27,264,94.86,249.16Z"/></g><path class="cls-10" d="M64.67,72.43,68.11,61.7s-4.45-10.93-3.44-11.94S74,42.27,74,42.27s2.14-14.86,3-15.38,2.43-.44,2.51,2.64.07,14,.07,14,4.91,4.85,4.91,7.89-2.63,12.54-2.63,12.54L78.16,75.19Z"/><path class="cls-11" d="M73.84,47s-.26-.18-.41-.62a4.08,4.08,0,0,1-.12-1.76A5.7,5.7,0,0,1,74,42.27a8.57,8.57,0,0,1-.24,2.41,6.42,6.42,0,0,0,0,1.64C73.79,46.73,73.9,47,73.84,47Z"/><path class="cls-11" d="M81,50.25a14.22,14.22,0,0,1-.82-3.36,22.72,22.72,0,0,1-.56-3.4,9.92,9.92,0,0,1,1,3.32A13,13,0,0,1,81,50.25Z"/><path class="cls-11" d="M70.79,51a7.68,7.68,0,0,1-1.05-2.74,5.43,5.43,0,0,1,0-2.11c.12-.54.29-.83.34-.81a12.85,12.85,0,0,0,.14,2.83A13.85,13.85,0,0,1,70.79,51Z"/><path class="cls-11" d="M67.65,52.18a3.89,3.89,0,0,1-.87-2.11,4.84,4.84,0,0,1,0-1.64c.07-.41.21-.65.26-.63s0,1,.21,2.19A14.18,14.18,0,0,1,67.65,52.18Z"/><path class="cls-12" d="M87.41,106c10.76-1.3,22.08,4.87,25.38,13.83,3.73,10.11-2.12,21-1.17,31.59.57,6.48,3.7,12.67,3.92,19.17.23,6.76-2.67,13.66-.49,20.15.8,2.39,2.28,4.8,1.61,7.22-.78,2.81-4.11,4.41-7.12,5.66-6.47,2.71-13.21,5.45-20.39,5.57s-15-3.12-17.21-9l-7.42,5c-.42-1.7-.85-3.39-1.27-5.09a15.33,15.33,0,0,1-4.93,3.6c-.53-7.74-1.06-15.54.29-23.2,1-5.68,5.42-12,6.34-17.68,1.64-10.23.12-19.78,2.36-29.95s6.29-22.44,17.47-26.27Z"/><path class="cls-16" d="M85.2,120.78a7.74,7.74,0,0,1,.15-2.08,40.09,40.09,0,0,1,1-4.93A39,39,0,0,1,88,109a8.46,8.46,0,0,1,.93-1.87,11.06,11.06,0,0,1-.64,2c-.42,1.21-1,2.88-1.49,4.76s-.89,3.61-1.14,4.87A13.46,13.46,0,0,1,85.2,120.78Z"/><path class="cls-16" d="M106.29,131.11a30.86,30.86,0,0,0,.15-4.49,18.34,18.34,0,0,0-12.32-16.27,32,32,0,0,0-4.37-1.07,1.5,1.5,0,0,1,.31,0c.21,0,.52,0,.9.07a16.53,16.53,0,0,1,3.26.72,18,18,0,0,1,12.53,16.54,16.91,16.91,0,0,1-.19,3.33c0,.38-.14.68-.18.88A1.11,1.11,0,0,1,106.29,131.11Z"/><path class="cls-16" d="M98.75,142.4a6.56,6.56,0,0,1-.34-1.17,31.79,31.79,0,0,1-.6-3.27c-.42-2.77-.55-6.65-1.18-10.85a23.23,23.23,0,0,0-3.8-10,18.27,18.27,0,0,0-3.13-3.21A.88.88,0,0,1,90,114a6.28,6.28,0,0,1,.75.51,12,12,0,0,1,2.35,2.36,22.32,22.32,0,0,1,4,10.16c.64,4.24.71,8.11,1.06,10.88.15,1.39.32,2.5.45,3.27A5.84,5.84,0,0,1,98.75,142.4Z"/><path class="cls-12" d="M109.55,142.93c.61,0,1.16.83,1.69,2.08s1.22,3,2.14,5.07,2.11,4.58,3.44,7.55a50.56,50.56,0,0,1,3.61,10.6,28,28,0,0,1,.47,3.16,30.67,30.67,0,0,1,.09,3.17,40.07,40.07,0,0,1-.66,5.45c-.27,1.57-.52,2.93-.66,4.13-.06.62-.12,1.14-.13,1.65a14.51,14.51,0,0,0,0,1.49,12.66,12.66,0,0,0,1.12,4.41c.48,1.05,1,1.8.77,2.39s-1.22.92-2.91.27a9.77,9.77,0,0,1-4.94-5.31,13.77,13.77,0,0,1-.79-2.27,16.83,16.83,0,0,1-.44-2.52,34.3,34.3,0,0,1-.11-5.06c.06-1.66.15-3.25.1-4.71,0-.73-.1-1.45-.17-2.2s-.21-1.53-.39-2.33c-.62-3.18-1.72-6.42-2.61-9.55a47.75,47.75,0,0,1-1.87-8.86,17.38,17.38,0,0,1,.48-6.42C108.34,143.62,109,142.89,109.55,142.93Z"/><path class="cls-16" d="M85.2,120.78a22.32,22.32,0,0,0-2,2.56,16,16,0,0,0-.84,1.52,19,19,0,0,0-.82,1.9,30,30,0,0,0-1.33,4.87,74.58,74.58,0,0,0-1.06,13.11c-.07,5,.12,10.43.11,16.18S79,172.17,77.79,177a54.77,54.77,0,0,1-2.34,6.68c-.83,2.05-1.62,3.95-2.24,5.72a33.13,33.13,0,0,0-1.33,4.87,18.59,18.59,0,0,0-.29,3.79,14.79,14.79,0,0,0,.28,2.39l.12.61a.61.61,0,0,1,0,.22.8.8,0,0,1-.07-.2c0-.17-.1-.37-.16-.61a12.28,12.28,0,0,1-.37-2.4,17.2,17.2,0,0,1,.22-3.84,30.28,30.28,0,0,1,1.28-4.93c.6-1.79,1.37-3.7,2.19-5.76a54.84,54.84,0,0,0,2.29-6.64c1.21-4.8,1.39-10.3,1.42-16s-.16-11.19-.08-16.17a73.58,73.58,0,0,1,1.16-13.17,28.83,28.83,0,0,1,1.41-4.9,17.9,17.9,0,0,1,.86-1.9,15.72,15.72,0,0,1,.89-1.52,10.71,10.71,0,0,1,.84-1.13,6.13,6.13,0,0,1,.68-.76l.45-.44C85.14,120.82,85.19,120.77,85.2,120.78Z"/><path class="cls-16" d="M65,192.87a.92.92,0,0,1,.1-.2l.34-.56.57-.91c.21-.36.43-.79.7-1.27A38.81,38.81,0,0,0,70,181.3a71.36,71.36,0,0,0,1.94-13.59c.14-2.59.25-5.31.27-8.12s-.14-5.74-.19-8.74A120.6,120.6,0,0,1,72.61,134a42.42,42.42,0,0,1,3.53-13.32,20.28,20.28,0,0,1,2.94-4.43l.77-.84.79-.69a12.74,12.74,0,0,1,1.47-1.1,12.46,12.46,0,0,1,2.26-1.16l.61-.23.22-.07a.74.74,0,0,1-.2.11l-.6.28a13.71,13.71,0,0,0-2.19,1.21,12.84,12.84,0,0,0-1.43,1.12l-.77.69-.75.84a20.6,20.6,0,0,0-2.84,4.41A42.41,42.41,0,0,0,73,134a124.6,124.6,0,0,0-.58,16.83c0,3,.17,5.91.18,8.75s-.14,5.55-.3,8.14a69,69,0,0,1-2,13.65A37.18,37.18,0,0,1,66.81,190c-.28.48-.52.9-.74,1.26l-.6.89-.38.54A.88.88,0,0,1,65,192.87Z"/><path class="cls-16" d="M118.05,167.63a4.61,4.61,0,0,1-.86-.57c-.54-.4-1.3-1-2.23-1.71a51.43,51.43,0,0,1-6.8-6.29,25.26,25.26,0,0,1-4.84-7.9,16.8,16.8,0,0,1-.76-2.72,5.09,5.09,0,0,1-.12-1c.09,0,.29,1.44,1.17,3.63a27.51,27.51,0,0,0,4.88,7.72,62.43,62.43,0,0,0,6.66,6.34l2.15,1.81A4.13,4.13,0,0,1,118.05,167.63Z"/><path class="cls-16" d="M89.34,121a11.76,11.76,0,0,1,1.86,2.74,23.59,23.59,0,0,1,2.42,8.71c.43,3.82.07,8.39-.05,13.42a42.32,42.32,0,0,0,.48,7.85,48.82,48.82,0,0,0,2.17,8.18c1.92,5.48,4.26,10.54,5.75,15.38a34.26,34.26,0,0,1,1.83,13.28,20.94,20.94,0,0,1-2.54,8.66,13.12,13.12,0,0,1-2,2.68s0-.07.12-.18l.38-.52a18.93,18.93,0,0,0,1.3-2.07,21.38,21.38,0,0,0,2.38-8.6,34.63,34.63,0,0,0-1.9-13.12c-1.5-4.81-3.85-9.86-5.79-15.37a49.11,49.11,0,0,1-2.18-8.25,42.31,42.31,0,0,1-.45-7.93c.14-5,.53-9.59.14-13.38a24,24,0,0,0-2.26-8.66,17.9,17.9,0,0,0-1.23-2.11c-.15-.21-.27-.39-.37-.52S89.33,121,89.34,121Z"/></g></g></g></svg>