<svg xmlns="http://www.w3.org/2000/svg" viewBox="0 0 324.72 306.59"><defs><style>.cls-1{isolation:isolate;}.cls-10,.cls-16,.cls-18,.cls-2,.cls-33,.cls-34,.cls-35,.cls-36,.cls-37,.cls-39,.cls-44,.cls-6,.cls-9{fill:none;}.cls-2{stroke:#5b974f;}.cls-10,.cls-18,.cls-2,.cls-33,.cls-34,.cls-35,.cls-36,.cls-39,.cls-44,.cls-6,.cls-9{stroke-linecap:round;stroke-linejoin:round;}.cls-10,.cls-16,.cls-18,.cls-2{stroke-width:1.41px;}.cls-2,.cls-4,.cls-43{opacity:0.1;}.cls-2,.cls-23,.cls-26,.cls-28,.cls-4{mix-blend-mode:multiply;}.cls-3{fill:#fef1f3;}.cls-19,.cls-28,.cls-4{fill:#26292d;}.cls-13,.cls-20,.cls-5{fill:#e2d59e;}.cls-6{stroke:#8e8355;}.cls-34,.cls-35,.cls-36,.cls-37,.cls-39,.cls-44,.cls-6,.cls-9{stroke-width:0.7px;}.cls-7{fill:#d8c369;}.cls-8{fill:#da8482;}.cls-10,.cls-9{stroke:#ddc1c8;}.cls-10,.cls-43,.cls-45,.cls-9{mix-blend-mode:overlay;}.cls-11,.cls-23{fill:#4c7547;}.cls-12{opacity:0.66;}.cls-13{font-size:16.03px;}.cls-13,.cls-20{font-family:Jellee-Roman, Jellee Roman;}.cls-14{fill:#9aab9d;}.cls-15{fill:#fae575;}.cls-16{stroke:#ba524e;}.cls-16,.cls-37{stroke-miterlimit:10;}.cls-17,.cls-26{fill:#ba524e;}.cls-18,.cls-36{stroke:#26292d;}.cls-20{font-size:14.42px;}.cls-21{fill:#b48b6b;}.cls-22{fill:#9a745e;}.cls-23,.cls-28,.cls-32,.cls-45{opacity:0.15;}.cls-24{fill:#cb9b6b;}.cls-25{fill:#383c39;}.cls-26{opacity:0.1;}.cls-27{fill:#bd9e9d;}.cls-29{fill:#f5c49a;}.cls-30{fill:#c68d6c;opacity:0.5;}.cls-31{fill:#7a3f3f;}.cls-32{fill:#b35269;}.cls-33,.cls-35{stroke:#c68d6c;}.cls-33{stroke-width:0.53px;}.cls-34{stroke:#3c3633;}.cls-37{stroke:#c6bb84;}.cls-38,.cls-42{fill:#e68caa;}.cls-39{stroke:#cd6d97;}.cls-40{fill:#fff;}.cls-41{fill:#cd6d97;}.cls-42{opacity:0.55;}.cls-43{fill:#c3cadf;}.cls-44{stroke:#47524e;}.cls-45{fill:#ddc1c8;}</style></defs><g class="cls-1"><g id="Layer_2" data-name="Layer 2"><g id="Layer_5" data-name="Layer 5"><path class="cls-2" d="M147.12,239.58c-30.18-1.51-71.8-53.83-89.28-84.29-10.31-18-16.67-40.45-13.59-62.15C47,73.72,56.87,57,67.71,42.56c13.72-18.28,30.29-34.74,50-40C146.28-5,175,11.94,200.94,28.42l49.94,31.66c15.49,9.82,32.36,21.56,37.8,42,3.48,13.08,1.42,27.77-3.79,40s-11.16,28.66-19.91,37.2C229.11,214.21,191.5,241.8,147.12,239.58Z"/><path class="cls-3" d="M165.32,83.09C122.37,63.77,55.94,37.54,19.41,81.45-22.32,131.61,24.65,196.81,70.66,200c30.85,2.16,61.91-1.62,92.52,4.22,46.8,8.93,134.64,82,158.07,3.08C348,117.27,212.33,104.23,165.32,83.09Z"/><path class="cls-3" d="M168.24,268.33c-38.54,3.47-82.67-12.76-112-40.85-15.4-14.73-27.31-37.4-22.12-59.15,4.19-17.56,18.1-29.74,29.22-43.12,24.84-29.88,38.09-97.92,99.56-92.16,49.85,4.67,75.45,55.9,89.48,66.13s47.37,50.9,42.4,90.94C288.77,238.13,210.06,264.55,168.24,268.33Z"/><path class="cls-2" d="M100.11,66.66a11.34,11.34,0,0,0-12.78,1.46C80.81,73.64,75.06,80.14,72,88c-4.28,11-2.29,25.1,8.29,31.5a8,8,0,0,0,8.3.11c4.23-2.61,3.59-7.91,3.43-12.43a41.43,41.43,0,0,1,7-24.46c2.07-3.06,4.64-6.06,5-9.74C104.26,70.79,103.14,68.34,100.11,66.66Z"/><path class="cls-2" d="M217.69,135.13c.45,5.43,2.51,10.67,3.36,16.07s.24,11.46-3.75,15.17c-3.75,3.48-9.75,4-14.78,2.33-4.1-1.37-8-4.49-8.61-8.62-.49-3.39,1.32-6.62,3.38-9.33s4.48-5.27,5.51-8.5c.85-2.67.68-5.56.82-8.37s.69-5.77,2.66-7.8S216.62,122.44,217.69,135.13Z"/><path class="cls-4" d="M73.75,268.94c0,14,40,18.28,90.89,18.28s89.41-5,89.41-18.28c0-15-38.47-18.28-89.41-18.28S73.75,254.61,73.75,268.94Z"/><path class="cls-5" d="M0,171.09c.2-8.8,6.81-21.45,14.56-26.72a207.44,207.44,0,0,0,46.58,45.88c.06,0-19.27,6.45-19.27,6.45S-.09,175.25,0,171.09Z"/><path class="cls-6" d="M14.18,153.88a28.71,28.71,0,0,0-8,19.52"/><path class="cls-6" d="M19,157.44a27.15,27.15,0,0,0-8.14,16.75"/><path class="cls-6" d="M23.09,161.51a19.38,19.38,0,0,0-5.34,8.3"/><path class="cls-6" d="M27,164.59a23.84,23.84,0,0,0-4.33,6.46"/><path class="cls-6" d="M30.52,169.52a32.77,32.77,0,0,0-4.94,6.14"/><path class="cls-6" d="M35.44,173a23.85,23.85,0,0,0-6.17,5.55"/><path class="cls-6" d="M39.07,177.47A12.48,12.48,0,0,0,33.92,182"/><path class="cls-6" d="M44.16,180.55A18.58,18.58,0,0,0,38.45,185"/><path class="cls-6" d="M48.05,184.71a63.26,63.26,0,0,0-6.17,4.51"/><path class="cls-6" d="M51.92,188.53a18.29,18.29,0,0,0-5.06,2.71"/><path class="cls-7" d="M0,171.55a17.39,17.39,0,0,0,20.59-6.93,131.73,131.73,0,0,0,37.53,34.5c-7.48,1.46-15.14-1-22.1-4.12A137.36,137.36,0,0,1,0,171.55Z"/><path class="cls-8" d="M70.23,39.05,69.09,33.6C67.56,26.35,71.93,19,78.83,17.27l32.6-8.36c6.9-1.77,13.74,2.67,15.26,9.92l1.15,5.45c1.52,7.25-2.84,14.56-9.75,16.33L85.5,49C78.59,50.74,71.76,46.3,70.23,39.05Z"/><polygon class="cls-8" points="85.2 46.84 85.34 55.37 95.76 44.16 85.2 46.84"/><line class="cls-9" x1="77.81" y1="29.14" x2="118.45" y2="18.42"/><line class="cls-10" x1="76.71" y1="24.97" x2="105.32" y2="17.42"/><line class="cls-9" x1="78.91" y1="33.31" x2="119.55" y2="22.59"/><line class="cls-9" x1="80.01" y1="37.49" x2="120.65" y2="26.76"/><line class="cls-9" x1="81.11" y1="41.66" x2="121.76" y2="30.93"/><path class="cls-11" d="M37.93,100.45l2.45-12a3.76,3.76,0,0,1,4.89-3l13.85,4.92a4.07,4.07,0,0,1,2.22,5.49l-2.2,5,3.09,7.84-5.61-2.14h0a3.71,3.71,0,0,1-4.49,2.14l-11.58-3.62A4,4,0,0,1,37.93,100.45Z"/><path class="cls-12" d="M49.94,104.45a1.44,1.44,0,0,1-.16.26Z"/><polygon class="cls-12" points="49.94 104.45 49.94 104.45 49.95 104.44 49.94 104.45"/><text class="cls-13" transform="translate(44.78 102.33) rotate(15.78) scale(0.92 1)">!</text><path class="cls-14" d="M297.76,33.87l-7.93,21.41a4.13,4.13,0,0,1-5.31,2.44l-30-11.11a4.13,4.13,0,0,1-2.45-5.32L260,19.88a4.09,4.09,0,0,1,2.33-2.4,4.13,4.13,0,0,1,3-.05l30,11.11a4.14,4.14,0,0,1,2.43,5.33Z"/><path class="cls-11" d="M297.59,30.58l-20.5,6.5a3,3,0,0,1-3.39-1.26L262.33,17.48a4.13,4.13,0,0,1,3-.05l30,11.11A4.1,4.1,0,0,1,297.59,30.58Z"/><path class="cls-11" d="M276.35,32.78,251.87,43.41a4.12,4.12,0,0,0,.18.69l24.26-10.54,10.81,24.25a3.77,3.77,0,0,0,.66-.26L276.81,33A.35.35,0,0,0,276.35,32.78Z"/><path class="cls-7" d="M238.08,118.71c19.39-2.2,20.7-22.56,20.7-22.56l-11.84,5.44S238,118.72,238.08,118.71Z"/><path class="cls-15" d="M224.74,93.31,252.86,79s7.35,14.07,5.77,18.2c-2.62,6.82-12,6.18-12,6.18s-8.46,15.37-8.46,15.35C236.7,106,224.74,93.31,224.74,93.31Z"/><line class="cls-6" x1="236.78" y1="100.27" x2="251.84" y2="92.5"/><line class="cls-6" x1="239.06" y1="105.7" x2="254.12" y2="97.92"/><line class="cls-6" x1="233.55" y1="95.31" x2="248.61" y2="87.54"/><path class="cls-16" d="M246,178.54c7.26-1.76,13-7.08,19.35-11a13.68,13.68,0,0,1,5.64-2.33,5.51,5.51,0,0,1,5.35,2.3c1.11,1.86.6,4.22.26,6.37s-.31,4.71,1.41,6a4.48,4.48,0,0,0,3.81.61,13.27,13.27,0,0,0,3.6-1.68l7.68-4.59c1.67-1,4.18-1.51,5.44-.94,2.46,1.11,2.71,3.68,2.92,8.16"/><path class="cls-17" d="M299.84,182.38a1.75,1.75,0,1,1,2,1.39A1.75,1.75,0,0,1,299.84,182.38Z"/><polyline class="cls-18" points="260.95 142.26 245.36 178.77 299.58 200.23"/><polygon class="cls-19" points="258.52 142.88 262.26 144.44 261.74 140.43 258.52 142.88"/><polygon class="cls-19" points="302.19 201.25 299.61 198.14 298.21 201.93 302.19 201.25"/><path class="cls-17" d="M304.59,113.83l-3.51-12.09a4.11,4.11,0,0,0-5.52-2.65l-14.68,6.09a4.1,4.1,0,0,0-2,5.79l2.75,4.94-2.81,8.27,5.95-2.62h0a4.12,4.12,0,0,0,5,1.85l12.29-4.59A4.1,4.1,0,0,0,304.59,113.83Z"/><path class="cls-12" d="M291.85,118.83a1.93,1.93,0,0,0,.19.26Z"/><polygon class="cls-12" points="291.85 118.83 291.85 118.83 291.84 118.83 291.85 118.83"/><text class="cls-20" transform="matrix(0.87, -0.3, 0.33, 0.94, 290.17, 117.79)">?</text><path class="cls-21" d="M265.15,267.63h23.37a.54.54,0,0,1,.54.54V293a7,7,0,0,1-7,7H271.65a7,7,0,0,1-7-7V268.17a.54.54,0,0,1,.54-.54Z" transform="translate(117.66 -79.29) rotate(20.61)"/><path class="cls-22" d="M295.17,287.21a6.12,6.12,0,0,1-7.88,3.57l-.9,2.38a8.66,8.66,0,0,0,6.1-16.2l-.9,2.37A6.12,6.12,0,0,1,295.17,287.21Z"/><path class="cls-23" d="M270.91,264.9l-8.59,22.83a7.49,7.49,0,0,0,4.37,9.65l3.58,1.34c-3.37-7.47,1.54-28.91,2.69-33.66l-1.32-.49A.57.57,0,0,0,270.91,264.9Z"/><path class="cls-24" d="M267.93,273.89l22.46,8.45a1.43,1.43,0,0,1,.84,1.84h0a1.43,1.43,0,0,1-1.84.84l-22.47-8.45a1.43,1.43,0,0,1-.83-1.84h0A1.43,1.43,0,0,1,267.93,273.89Z"/><rect class="cls-24" x="274.12" y="277.73" width="0.85" height="24.44" transform="translate(-93.5 444.83) rotate(-69.39)"/><rect class="cls-24" x="273.56" y="279.22" width="0.85" height="24.44" transform="translate(-95.27 445.27) rotate(-69.39)"/><path class="cls-25" d="M216.76,75c-4.92,3.81-8.28,8.42-8.45,14.26-.23,7.18,4.61,13.58,5.86,20.66,1.9,10.71-5.15,21.77-15.15,26.57s-27-.28-37.14,2.2l-.28.06c-.85.22-1.75.42-2.68.58-13.46,2.41-34-1-41.47-7.25-12.63-10-20.18-28.91-10.92-43.24a28.48,28.48,0,0,1,1.75-2.39c5.28-6.62,14.25-13,20.66-17.79,10.57-7.93,16.42-16.65,27.17-24.37,17.62-12.67,55.9-24.47,70.89,6C231.57,59.65,223.89,69.49,216.76,75Z"/><path class="cls-26" d="M208.31,89.29c.17-5.84,3.53-10.45,8.45-14.26a40.35,40.35,0,0,0,3.56-3.12c-7,2.48-12.5,9.11-14.31,13.67-2.15,5.4-2.84,11.24-4,16.94s-2.79,11.51-6.49,16c-4.46,5.4-11.33,8.21-18.12,9.93-3.56.9-7.21,1.57-10.56,3.07a16.07,16.07,0,0,0-6.26,4.7,10.29,10.29,0,0,0-1.53,2.7,3.43,3.43,0,0,0-.16.45c.93-.16,1.83-.36,2.68-.58l.28-.06c10.14-2.48,27.23,2.54,37.14-2.2s17-15.86,15.15-26.57C212.92,102.87,208.08,96.47,208.31,89.29Z"/><path class="cls-26" d="M161.88,138.72l-.28.06c-.85.22-1.75.42-2.68.58-13.46,2.41-34-1-41.47-7.25-12.63-10-20.18-28.91-10.92-43.24a28.48,28.48,0,0,1,1.75-2.39,33.82,33.82,0,0,0,5,29.34c7.26,10,19.58,15.74,31.93,16.23a62.07,62.07,0,0,1,8.29.44,11.41,11.41,0,0,1,7.07,3.72l.09.1A7,7,0,0,1,161.88,138.72Z"/><path class="cls-27" d="M116.62,296.35c6.06-7,15.58-3.59,21.06-10.24a7.57,7.57,0,0,1,5.49-2.95c3.68-.18,6.79,2.29,6.94,5.5s-3.81,5.32-6.39,6.13c-9.41,2.91-26.29,4.77-26.29,4.77C116,299.82,114.18,299.15,116.62,296.35Z"/><path class="cls-28" d="M128.78,290.79c3.2,1.62,8.08,3.69,11.19,5,1.33-.33,2.59-.67,3.75-1a15,15,0,0,0,2.63-1.12l-11.71-5A20.52,20.52,0,0,1,128.78,290.79Z"/><path class="cls-29" d="M167.12,145.32V134.09H155v11.06l-2.4,0c-.32.67,8.83,16.47,8.83,16.47s8.69-15.75,8.53-16.24Z"/><path class="cls-30" d="M167.12,139.51v-5.42H155v11.06S162.72,144.79,167.12,139.51Z"/><path class="cls-29" d="M147.25,113.26c.47-10.82,4.83-16.72,14.28-16.31s13.9,8.72,13.43,19.55-2.43,22-15.22,21.7S146.78,124.09,147.25,113.26Z"/><path class="cls-29" d="M173.29,115.92a8,8,0,0,1,1.5-2.66,2.74,2.74,0,0,1,2.78-.83c1.67.6,1.79,2.9,1.48,4.66a20.55,20.55,0,0,1-1.7,5.59c-.6,1.24-1.56,2.49-2.93,2.66a3.27,3.27,0,0,1-3.22-2.41C170.75,121.54,171.5,120.27,173.29,115.92Z"/><path class="cls-29" d="M149.53,116a8.16,8.16,0,0,0-1.33-2.73,2.73,2.73,0,0,0-2.72-1c-1.71.5-2,2.79-1.77,4.56a20.61,20.61,0,0,0,1.34,5.69c.53,1.27,1.41,2.58,2.77,2.83a3.26,3.26,0,0,0,3.36-2.21C151.71,121.8,151,120.5,149.53,116Z"/><polygon class="cls-31" points="192.56 249.27 188.61 252.01 165.42 268.1 159.84 271.97 134.88 255.86 124.05 248.86 127.9 239.71 134.44 224.17 136.77 218.63 180.4 218.61 192.13 248.18 192.56 249.27"/><path class="cls-31" d="M188.57,240.14l57.51,3.15c11.89.74,14.92,15.09,4.15,19.63l-91,38.4-16.32-22.08Z"/><path class="cls-28" d="M168.76,272.47l12.87,7.39s1.07,10.34.72,12.47c0,0-15.76-5.46-15.67-5.82S168.76,272.47,168.76,272.47Z"/><polygon class="cls-29" points="183.07 290.33 175.47 286.51 167.96 295.11 181.97 301.82 183.07 290.33"/><path class="cls-27" d="M209,302.84c-6-7.65-14.78-3.28-20.22-10.61a6.71,6.71,0,0,0-5.28-3.09,5.75,5.75,0,0,0-1.95.34l-3.27-1.84-3.45,11,6.4,2.88a12.34,12.34,0,0,0,2.27,1c9,2.84,24.88,4.07,24.88,4.07C209.76,306.77,211.42,305.91,209,302.84Z"/><path class="cls-31" d="M179.63,279.47l-11.78,25.9-98-42.45C59.05,258.38,62.08,244,74,243.29l15.39-1,38.55-2.55,1.92-.13,30.9,24.74,4.7,3.78Z"/><path class="cls-28" d="M215,247.3A197.59,197.59,0,0,0,188.61,252c-8.72,2.37-21.81,9.07-27.89,12.31-2.07,1.11-3.32,1.82-3.32,1.82L144,259.62c-1.93-.82-5.23-2.22-9.07-3.76-7.34-3-16.61-6.48-21.84-7.55,0,0-16.6-3-23.69-6.05l38.55-2.55,6.54-15.54c4,4.92,5.06,15,18,19.53,10.43,3.63,26.46,4.51,39.72,4.48C204,248.16,213.59,247.42,215,247.3Z"/><path class="cls-32" d="M148.4,121.06a3.88,3.88,0,1,1,3.87,3.87A3.88,3.88,0,0,1,148.4,121.06Z"/><path class="cls-29" d="M275.84,235.26c-1.11-.45-3.32.58-4.54,1-2.85,1.08-5.26,3-7.92,3.11-.63-3,3.13-4.47,6.39-5.1a.91.91,0,0,0,.59-.4c.28-.48-.3-.85-.78-1-7.66-2.73-12.72,4.67-12.72,4.67-16.67-4.7-33.75-41.92-33.75-41.92L204,208.12c16.24,27.63,37.72,41.39,53.35,44.46,3.68.72,9.89-.18,12.1-1.52,3.48-2.1,6.73-5.44,7.56-9.5C277.33,239.76,277.35,235.86,275.84,235.26Z"/><path class="cls-33" d="M275.09,235.75s-3.88,6.77-10.86,7.13"/><path class="cls-33" d="M276.56,239s-5.18,6.2-12,7"/><path class="cls-33" d="M275.45,243.76s-4.47,4.88-10.88,5.31"/><path class="cls-33" d="M260.53,240.79s4,3.75,2.38,8.29"/><path class="cls-33" d="M263.38,239.41a3.21,3.21,0,0,1,2.09-3.66"/><path class="cls-29" d="M41,233c1.13-.37,3.28.79,4.46,1.33,2.78,1.26,5.06,3.3,7.71,3.6.83-3-2.84-4.66-6.06-5.49a.9.9,0,0,1-.55-.44c-.25-.49.35-.83.84-1,7.82-2.23,12.39,5.47,12.39,5.47,16.94-3.63,36.35-39.69,36.35-39.69l18.33,13.66c-18,26.55-40.27,38.92-56.07,41-3.71.48-9.85-.82-12-2.29-3.34-2.31-6.38-5.86-7-10C39.18,237.4,39.4,233.5,41,233Z"/><path class="cls-33" d="M41.67,233.54s3.44,7,10.38,7.81"/><path class="cls-33" d="M40,236.68s4.77,6.52,11.52,7.72"/><path class="cls-33" d="M40.81,241.51s4.14,5.15,10.51,6"/><path class="cls-33" d="M55.88,239.5S51.61,243,53,247.61"/><path class="cls-33" d="M53.12,237.93a3.19,3.19,0,0,0-1.85-3.78"/><path class="cls-32" d="M165.77,121.06a3.88,3.88,0,1,1,3.88,3.87A3.88,3.88,0,0,1,165.77,121.06Z"/><path class="cls-34" d="M152.27,116.06c.83,2.08,3.95,2.87,5.42-.15"/><path class="cls-34" d="M169.65,116.06c-.83,2.08-4,2.87-5.42-.15"/><path class="cls-35" d="M161.35,112.94a15.87,15.87,0,0,0,.29,10,5.86,5.86,0,0,1,.45,1.57,1.58,1.58,0,0,1-.61,1.45,1.54,1.54,0,0,1-1.74-.22,4.52,4.52,0,0,1-1.08-1.53"/><path class="cls-35" d="M158.41,129.55a6.57,6.57,0,0,0,7.73-2.82"/><path class="cls-35" d="M177.07,115.07a13.39,13.39,0,0,0-2.76,6.7"/><path class="cls-36" d="M159.68,231.59s2.27,14.49-2.28,34.47a137.57,137.57,0,0,1,60.91-19"/><path class="cls-35" d="M145.9,113.94a21.15,21.15,0,0,1,1.34,7.12"/><path class="cls-25" d="M162.38,95.65c-2.52.15-4.71,1.79-6.35,3.7s-2.89,4.13-4.53,6a8.32,8.32,0,0,1-4.11,2.87c-1.17.29-2.64,0-3.16-1.06a3.12,3.12,0,0,1-.11-1.89,13,13,0,0,1,5.82-8.65C153,94.75,156.83,94.2,162.38,95.65Z"/><path class="cls-25" d="M158.83,92.12a11.63,11.63,0,0,0-1,5.85,5.71,5.71,0,0,0,3.33,4.66c1.8.69,3.88.17,5.68.84,1.64.62,2.76,2.11,3.79,3.52l3.83,5.26c.17.24.41.51.71.47s.46-.34.58-.62c.94-2.2,1.89-4.53,1.56-6.89a8.54,8.54,0,0,0-2.3-4.5,20.19,20.19,0,0,0-4-3.15A46.87,46.87,0,0,0,158.83,92.12Z"/><path class="cls-36" d="M111.94,248a235.51,235.51,0,0,1,67.63,31.35l.06.13L169,303"/><path class="cls-25" d="M164.32,106.06a1.87,1.87,0,0,0-1,1.11,1.47,1.47,0,0,0,.33,1.41,3.51,3.51,0,0,0,1.87.78,18.55,18.55,0,0,1,5.14,1.94,1.69,1.69,0,0,0,.16-1.9,4.06,4.06,0,0,0-1.48-1.46A12.28,12.28,0,0,0,164.32,106.06Z"/><path class="cls-25" d="M157.3,106.23a1.87,1.87,0,0,1,.95,1.17,1.48,1.48,0,0,1-.42,1.39,3.52,3.52,0,0,1-1.91.67,19.16,19.16,0,0,0-5.25,1.62,1.67,1.67,0,0,1,0-1.9,4.07,4.07,0,0,1,1.56-1.37A12.31,12.31,0,0,1,157.3,106.23Z"/><path class="cls-19" d="M136.59,219.07l-3.43,8.14c15.56,6.47,34.69,6.07,50.65,0L181,220A113.47,113.47,0,0,1,136.59,219.07Z"/><path class="cls-37" d="M154.87,228.15a4,4,0,1,1,3.95,3.52A3.75,3.75,0,0,1,154.87,228.15Z"/><path class="cls-38" d="M224.6,199l-19.55,13.54a2.56,2.56,0,0,1-3.61-.72L191.91,197l-6.76,18.19c-2,5.34-9.48,9.4-25.35,9.43-16.8,0-25.47-4.87-28.05-11.16-1.52-3.7-6.07-14.83-6.07-14.83L118,210.89a1.93,1.93,0,0,1-2.76.54L91.85,194.67a1.94,1.94,0,0,1-.47-2.69l21.32-30.89A35,35,0,0,1,142.14,146l9,0,10.3,15.59,8.53-15,11.55.12a34.91,34.91,0,0,1,30.54,19l14,27.37A4.65,4.65,0,0,1,224.6,199Z"/><path class="cls-39" d="M139.23,212.13c-.06,4.83,1.7,6.9,5.35,10.06"/><path class="cls-39" d="M144.58,216.35c.4,3.15,1.88,4.93,4.14,7.17"/><path class="cls-39" d="M166.68,224c3.6-2.59,5-5.37,6.27-9.63"/><path class="cls-39" d="M172.06,222.7c4.53-2.91,6.78-4.52,7.52-9.85"/><path class="cls-40" d="M158.1,163.12l2.36,3a.75.75,0,0,0,1.11.06l2.72-2.72L161.86,159Z"/><path class="cls-41" d="M147.78,146.06a73.54,73.54,0,0,0,7.22-4.31,74.69,74.69,0,0,0,6.56,17.5,40.41,40.41,0,0,0,5.56-17.5,70.91,70.91,0,0,0,7.59,4.79c-3,6.37-10.42,17.59-10.42,17.59s-2.15-3.53-2.7-4.89c-1.16,1.58-3.49,4.69-3.49,4.69S150.9,152,147.78,146.06Z"/><path class="cls-40" d="M161.29,162l-9.69,39.51a3,3,0,0,0,.68,2.71l6.26,6.94a1.51,1.51,0,0,0,2.26,0l6.54-7.61a2.12,2.12,0,0,0,.48-1.71Z"/><path class="cls-41" d="M225.37,188.89c-9.24,6.09-19.22,12.36-28.46,18.45l4.41,5a2.64,2.64,0,0,0,3.47.41l21.58-14.94a2.56,2.56,0,0,0,1-2.91Z"/><path class="cls-41" d="M93.54,186.2c9.16,7.15,19,14.17,28.56,20.72l-4,4.43a1.94,1.94,0,0,1-2.56.28l-24-17.16a2,2,0,0,1-.64-2.36Z"/><path class="cls-39" d="M134.41,182.48q-5.5,9.61-11,19.22"/><path class="cls-39" d="M183.47,184l5.08,5.16"/><path class="cls-39" d="M185.69,182.09c2.1,7,7.25,15.93,7.25,15.93"/><path class="cls-41" d="M136.52,184.38a71.87,71.87,0,0,0,12.56-.51c.2,2.67.35,5.45-.64,7.93S145,196.39,142.3,196c-2.28-.29-4-2.3-4.75-4.48S137,187,136.52,184.38Z"/><path class="cls-38" d="M136.9,187.76l12.31-.32c0-.23,0-.47,0-.7l-12.38.32Z"/><path class="cls-42" d="M163,172.4l-.35-2.12c-1.13,0-2.26,0-3.38,0l-.52,2.12C160.16,172.37,161.58,172.38,163,172.4Z"/><path class="cls-42" d="M163.64,176.32l-.35-2.12c-1.66,0-3.32,0-5,0l-.52,2.12C159.74,176.27,161.69,176.28,163.64,176.32Z"/><path class="cls-42" d="M164.12,179.23l-.27-1.62c-2.13,0-4.25-.05-6.38,0l-.4,1.61Q160.59,179.15,164.12,179.23Z"/><path class="cls-28" d="M138.6,213.65c-3.07-1.21-6.55-2.5-8.87-5l2,4.93c2.58,6.28,11.25,11.18,28.05,11.15,12.56,0,19.87-2.57,23.36-6.28l-.13,0C168.16,221.88,152.61,219.17,138.6,213.65Z"/><path class="cls-4" d="M148.35,145.76a40.55,40.55,0,0,0,7.53-.64c-.32-1.12-.62-2.24-.88-3.37A66.25,66.25,0,0,1,148.35,145.76Z"/><path class="cls-43" d="M212.05,165.7a35,35,0,0,0-26.93-18.78,6.38,6.38,0,0,0-1.06,4.24c.46,4.28,4,7,6.91,9.65a37.93,37.93,0,0,1,7.33,9.47c1.73,3,3.37,6.2,5.83,8.71a13.65,13.65,0,0,0,4.1,2.92,22.12,22.12,0,0,0,6.31,1.56c1.92.26,3.89.2,5.25-1.37a4.81,4.81,0,0,0,.4-.52Z"/><path class="cls-44" d="M164,88.34a7.76,7.76,0,0,0-.8,12.16"/><path class="cls-44" d="M164.78,94.11a7.67,7.67,0,0,0,1.67,6.77"/><path class="cls-44" d="M171.72,98a13,13,0,0,0,5.19,10.32"/><path class="cls-44" d="M154.22,93.25a10.89,10.89,0,0,1-5.87,8.91"/><path class="cls-44" d="M148.06,98.11a6.72,6.72,0,0,1-4.65,4.17"/><path class="cls-44" d="M118.88,87a28,28,0,0,0,16.53,37.57"/><path class="cls-44" d="M109.54,92.21a37.07,37.07,0,0,0,26.17,41.47"/><path class="cls-44" d="M131,74.3A21.77,21.77,0,0,0,127,100.78"/><path class="cls-44" d="M223.08,54.2a24.71,24.71,0,0,1-15.23,18.08"/><path class="cls-44" d="M215.52,62.38a28.21,28.21,0,0,1-13.88,9"/><path class="cls-44" d="M201.32,45.58c1.43,4.41-.16,9.37-3.09,13s-7,6-11.16,8.11-8.44,3.9-12.22,6.59"/><path class="cls-44" d="M193.05,68.25a27.47,27.47,0,0,0-17.66,13.56"/><path class="cls-44" d="M201.41,88.66c-2.83,5-2.15,11.11-1.09,16.71s2.39,11.48.65,16.92a15.93,15.93,0,0,1-10.74,10.32"/><path class="cls-44" d="M193.57,111.22a16.71,16.71,0,0,1-9.28,17.95"/><path class="cls-45" d="M170.42,44.23c-5.61,4.33-9.29,13.89-19.47,20.6-5.31,3.5-12.43,5.4-14.45,11.43a11.72,11.72,0,0,0,5.44,13.62c9.72,5.14,19.26-4,24.24-9.42,17.11-18.73,25.35-14.62,37.5-21.81,8.89-5.27,6.58-13.77,1.3-18.34S182.11,35.19,170.42,44.23Z"/><path class="cls-45" d="M132.44,101.06c-1.45-3.54-2.44-6.91-6-9.12-3-1.85-7.35-1.64-9.7.47-4.84,4.35-2.74,10.67,0,14.39C126.26,119.59,135.23,107.86,132.44,101.06Z"/></g></g></g></svg>