<svg xmlns="http://www.w3.org/2000/svg" viewBox="0 0 336.91 316.32"><defs><style>.cls-1{isolation:isolate;}.cls-2{fill:#c93f3f;opacity:0.13;}.cls-3{fill:#6f808a;}.cls-10,.cls-11,.cls-4{fill:#ebeffe;}.cls-5{fill:#fff;}.cls-6{fill:#f7d0bc;}.cls-7{fill:#e49794;}.cls-8{fill:#c86d2e;}.cls-9{fill:#994f1d;}.cls-10{opacity:0.4;}.cls-11,.cls-16,.cls-19{mix-blend-mode:multiply;}.cls-12{fill:#8393e8;}.cls-13{fill:#21234d;}.cls-14{fill:#333;}.cls-15{fill:#8c4d3f;}.cls-16{fill:#cc6981;}.cls-17{fill:#87a3a6;}.cls-18{fill:#6c8a8c;}.cls-19,.cls-20{fill:none;stroke-linecap:round;stroke-miterlimit:10;stroke-width:1.21px;}.cls-19{stroke:#6179b9;opacity:0.41;}.cls-20{stroke:#e49794;}</style></defs><g class="cls-1"><g id="Layer_2" data-name="Layer 2"><g id="Layer_5" data-name="Layer 5"><path class="cls-2" d="M193.29,28.54c52.94-10,107.83-3.7,118.78,57.65,7.21,40.44,10.59,82.49-.54,121.63s-31.24,57.07-70.59,69.3a108.29,108.29,0,0,1-12.09,3c-22,4.14-45.14,2.07-67.71-.06C71,271.55,48.35,271.63,25.7,257.74-16.21,232.06.92,183.32,22.34,151.9c29.72-43.58,23.42-61.23,69.75-87.28,15.28-8.59,57.58-27.85,101.2-36.08"/><path class="cls-3" d="M83.05,46.71c-1.12,2.35-3.67,3.48-5.69,2.52L63.62,42.7c-2-1-2.76-3.65-1.64-6L78.05,2.87C79.17.51,81.72-.62,83.74.34L97.48,6.87c2,1,2.76,3.65,1.64,6Z"/><path class="cls-4" d="M84,40.22c-1.12,2.36-3.67,3.49-5.69,2.53l-10.45-5c-2-1-2.76-3.65-1.64-6L78.64,5.64c1.12-2.36,3.67-3.49,5.7-2.53l10.44,5c2,1,2.76,3.65,1.64,6Z"/><path class="cls-4" d="M73,43.91a1.54,1.54,0,1,1-.61-2.25A1.67,1.67,0,0,1,73,43.91Z"/><path class="cls-5" d="M96.85,11c-2.2.39-4.41.78-6.61,1.24-3.33.64-7.54,1-10.64,2.79-1.67.91-1.7,1.68-.82,3.14.48.89,1.66,1.71.87,2.9-1,1.62-4.87,1.74-6.24,2l-3.31.59-2.39,5c4.26-1,8.54-1.77,12.86-2.48,1.74-.35,9.68-.76,7.72-4.44-1.13-2.11-4.79-3.85-.59-5.12a41.51,41.51,0,0,1,8.24-1.52l.48-1A5.18,5.18,0,0,0,96.85,11Z"/><path class="cls-6" d="M82.32,48.69S80.76,38.18,90,32.05c0,0-7.94-4.55-6.43-7.22.29-.53,10.69,4.36,13.81,5.92.53.27-1.75,11.28-7.94,16.68,0,0,1.63,57.45,1.63,63.56,0,.82,15.16,15.28,28.57,18.43s20.87,8.74,23.55,12.71-2.68,17.72-20.4,13.05S75,125.1,71.85,118.11,82.32,48.69,82.32,48.69Z"/><path class="cls-7" d="M143.21,142.13c-2.68-4-10.14-9.57-23.55-12.71S91.09,111.81,91.09,111c0-4.07-.72-30.91-1.2-48.39-3.31-.94-6.58-2-9.83-3.17-3.72,18.16-10.53,53.51-8.21,58.68,3.15,7,33.23,32.41,51,37.07S145.89,146.09,143.21,142.13Z"/><path class="cls-8" d="M78.11,62.7c-1.22.3-6.35,16-8.09,31.63-1.78,15.78-2.59,24.73,1.74,29.29s42.88,35.12,57.31,34.36,22.18-8.73,14.79-18.8-49.23-27.34-50-28.29-1.1-43.09-2-44.8S80.27,62.17,78.11,62.7Z"/><path class="cls-9" d="M143.86,139.18c-1.72-2.34-5.31-5.08-9.81-7.9a48.5,48.5,0,0,0-9.3,5.29c-4.85,3.63-9.52,7.09-15.23,9a44,44,0,0,1-6.2,1.58c10,6.23,19.86,11.14,25.75,10.83C143.5,157.22,151.25,149.25,143.86,139.18Z"/><path class="cls-6" d="M295.73,79.7s-7.1,3.62-13.2,3.26c-2.89-.17-7.56,8.76-12.26,15.57l-9.41-7.4s14-18.64,19-21.93,14.17-3,14.17-3l4.47,7.33Z"/><path class="cls-7" d="M267.89,82.13c-3.86,4.78-7,9-7,9l9.41,7.4c2.05-3,4.1-6.34,6-9.19A36.17,36.17,0,0,1,267.89,82.13Z"/><path class="cls-7" d="M284.3,78.06c-.7,1.11-1,4.93-.63,4.92,5.81-.09,12.06-3.28,12.06-3.28l2.79-6.21-2.08-3.41C291.79,72.68,286.24,74.91,284.3,78.06Z"/><path class="cls-3" d="M278.33,101.57a1.71,1.71,0,0,0,1.09,2.15l37.66,12.2a1.7,1.7,0,0,0,2.15-1.1l17.6-54.34a1.69,1.69,0,0,0-1.09-2.14l-37.66-12.2a1.71,1.71,0,0,0-2.15,1.09Z"/><rect class="cls-5" x="283.25" y="63.78" width="48.07" height="36.31" transform="translate(134.64 349.01) rotate(-72.05)"/><path class="cls-10" d="M298.12,53.7l-.7-.23L282.61,99.2,307,107.11c-5.79-6.88-8.94-15.25-9.79-26A138.15,138.15,0,0,1,298.12,53.7Z"/><path class="cls-4" d="M304.61,54.79l-.68,2.1a1.91,1.91,0,0,0,1.23,2.41l17.12,5.55a1.92,1.92,0,0,0,2.41-1.24l.68-2.1a1.91,1.91,0,0,0-1.23-2.41l-5.82-1.88a2.9,2.9,0,0,0-5.48-1.78L307,53.56A1.91,1.91,0,0,0,304.61,54.79Zm9.61,1.37a1.35,1.35,0,1,1,.87,1.7A1.35,1.35,0,0,1,314.22,56.16Z"/><path class="cls-11" d="M324.14,59.1l-5.82-1.88A2.9,2.9,0,0,0,313.13,55a2.88,2.88,0,0,1,2.6-.43,2.91,2.91,0,0,1,1.95,3.34l5.82,1.88a1.93,1.93,0,0,1,1.23,2.42l-.68,2.1a2.32,2.32,0,0,1-.18.39,1.91,1.91,0,0,0,.82-1l.68-2.1A1.91,1.91,0,0,0,324.14,59.1Z"/><path class="cls-6" d="M293.55,62c3.28-1.28,7.54,14.6,5.71,14.6S293.53,68,293.53,68s-6.81,11.73-16,9.54C275.28,77,272.34,70.21,293.55,62Z"/><path class="cls-8" d="M182.46,139.25c6.75-6.62,45.12-21,50.17-24.54S262.26,80.93,265,83s10.48,8,10.58,11.33-22.25,36.09-29.12,44.05-41.8,21.23-48,23.65S167.24,154.17,182.46,139.25Z"/><path class="cls-9" d="M234,140.06c-12.07-1.08-24-5.3-35.35-9.93-7.43,3.46-13.79,6.78-16.18,9.12-15.22,14.92,9.65,25.18,15.9,22.77,5.85-2.27,36.88-14.06,46.43-22.09A58.22,58.22,0,0,1,234,140.06Z"/><path class="cls-6" d="M309.93,210.54c-1.65.62,4.05,6.24,7.13,8.31s1.34,4.09-1.84,3.16-11-4.61-12.67-10.61c-.54-1.88-14.74-8.18-24-11l6.14-11.28s16.66,8.82,19.19,9.52,24.7,2,25.6,3.27-8.82,2.56-8.82,2.56,13.93,4.2,14.23,6.14-11-1.1-11-1.1,13.45,7.19,12.13,9.73-10.15-3.53-15.15-5.81S310.73,210.24,309.93,210.54Z"/><path class="cls-7" d="M324.29,209.89a27.39,27.39,0,0,0-8-2.88c-.37-.07-.18-.62.18-.55a27.81,27.81,0,0,1,8.1,2.94c.33.18,0,.67-.31.49Z"/><path class="cls-7" d="M321.24,204.94c-1.34-.34-2.67-.71-4-1.13a.29.29,0,0,1,.18-.55c1.32.42,2.65.79,4,1.13.37.09.19.64-.18.55Z"/><path class="cls-12" d="M296.54,208.11s1.14-6.85,4.94-11.09a20.07,20.07,0,0,0-4.81-2.63s-4,3.23-5.27,11.34A13.08,13.08,0,0,0,296.54,208.11Z"/><path class="cls-5" d="M292.22,198a.63.63,0,0,0,.24.86h0a.63.63,0,0,0,.85-.24l0-.05a.62.62,0,0,0-.24-.85h0a.62.62,0,0,0-.85.24Z"/><path class="cls-5" d="M293.16,198a3.71,3.71,0,1,0,5-1.41A3.71,3.71,0,0,0,293.16,198Z"/><path class="cls-4" d="M294.1,198.5a2.63,2.63,0,1,0,3.58-1A2.63,2.63,0,0,0,294.1,198.5Z"/><path class="cls-12" d="M296.38,199.82a.11.11,0,0,0,.1,0,.16.16,0,0,0,.15-.09l.75-1.34a.19.19,0,0,0-.07-.26.18.18,0,0,0-.25.08l-.61,1.08-.64-.94a.19.19,0,0,0-.26-.05.18.18,0,0,0-.05.26l.81,1.18A.13.13,0,0,0,296.38,199.82Z"/><path class="cls-8" d="M286.12,188c1.37,1.32-.82,5.93-1.75,7.9s-4.59,6.69-8.73,5.75-58.35-21-71.06-24.35c-13.24-3.52-38.19-7.71-34.27-15.23S190,134.17,206.7,141.2C235.05,153.09,282,184,286.12,188Z"/><path class="cls-9" d="M206.7,141.2c-16.75-7-32.46,13.34-36.39,20.86s21,11.71,34.27,15.23c6.61,1.75,24.44,8,40.62,13.75-10.85-15.59-20.9-31.82-32.38-47.11C210.71,142.94,208.66,142,206.7,141.2Z"/><polygon class="cls-10" points="96.93 316.32 24.02 316.32 36.75 283.56 84.21 283.56 96.93 316.32"/><path class="cls-10" d="M92.3,304.38l-8.09-20.82H36.75l-.06.14c8.67,2.42,17.46,4.6,26,7.7A236.61,236.61,0,0,1,92.3,304.38Z"/><path class="cls-6" d="M51.81,268s-4.89-22.08-.55-32.46l19.81,5.29s-10,16.53-7.41,28.82Z"/><path class="cls-7" d="M64.24,257.41a66.41,66.41,0,0,1,6.83-16.58l-19.81-5.29a21.57,21.57,0,0,0-1.34,5.14,88.75,88.75,0,0,0,10.82,12.84A46.38,46.38,0,0,1,64.24,257.41Z"/><path class="cls-8" d="M49.46,243.16c1.41,1.35,13.93,5.16,17,4.59S74,242.1,75.74,241s23.06-20.78,35.14-31.59,10.17-41.06,5.72-43.18S80.69,197.4,67.19,210.74,44.59,238.5,49.46,243.16Z"/><path class="cls-13" d="M73.72,291.09l-31-30.65c-.5-.5,1.28-2.31,1.78-1.81l31.05,30.65A32.57,32.57,0,0,1,77,292.46S73.85,291.21,73.72,291.09Z"/><path class="cls-6" d="M54.26,263.87s-9.95,6.15-7.91,10.41c0,0-2.37,1.64-1,5.49,0,0-.57,4.83,1,7s8.2,5.49,10.82,1.48c0,0,2-.25,2-3.36,0,0,1.88-.41,2.21-3.2,0,0,5.24-2.21,5.73-6.71S62,264.86,62,264.86Z"/><path class="cls-13" d="M61,275,44.46,258.63c-.5-.5-2.28,1.31-1.78,1.81l17.23,17c.07-.16.13-.32.21-.47A15.83,15.83,0,0,0,61,275Z"/><path class="cls-7" d="M61.43,281.59c-2.82-1.2-1.36-3.87-.56-5.78a5.86,5.86,0,0,0,.3-4.44c-.06-.2-.37-.11-.3.08.91,2.9-1.08,4.64-1.41,7.31a2.88,2.88,0,0,0,1.81,3.11c.18.08.34-.19.16-.28Z"/><path class="cls-7" d="M46.22,274.36c2.86,5,7.7,8.38,12.91,10.62.19.08.35-.19.16-.27-5.16-2.22-10-5.52-12.8-10.51-.1-.18-.37,0-.27.16Z"/><path class="cls-7" d="M45.23,279.85a28.21,28.21,0,0,0,5.66,5.52c1.59,1.23,4.14,3,6.28,3.08a.16.16,0,0,0,0-.32c-1.87-.07-4-1.55-5.45-2.54a25.06,25.06,0,0,1-6.21-5.9c-.12-.17-.4,0-.28.16Z"/><path class="cls-9" d="M116.6,166.27c-2.31-1.1-11.87,7.3-22.42,17.51a63,63,0,0,0-2,9.59c-1.39,8.86.47,16.79-2.33,25.65-1.4,4.32-2.77,8.78-4.21,13.28,7.65-6.93,18.06-16.45,25.21-22.85C123,198.65,121.05,168.39,116.6,166.27Z"/><path class="cls-8" d="M136.69,133.7c-3,2.38-13.14,52.87-12.82,62.48s2.25,50.62,3.53,53.18,61.19,14.42,76.57,0-4.8-111.81-8-115.66S146.94,125.69,136.69,133.7Z"/><path class="cls-9" d="M196,133.7l-.05,0c1.46,9.2.64,16.26.32,25.89-.52,17.94-8.41,48.9-34.55,43.26-27.83-6-26.23-42.28-25.84-67.66-3.73,8.71-12.26,52.19-12,61,.32,9.61,2.25,50.62,3.53,53.18s61.19,14.42,76.57,0S199.17,137.55,196,133.7Z"/><path class="cls-6" d="M99,204.72s13.53,33.31,33.58,41.74h7.7S120.45,216.38,117,204.72Z"/><path class="cls-8" d="M116.48,237.14s6.07-4.2,12.36-14.46c0,0,7.56-82.5,8.58-88s-12.31,2.85-17.79,13.81S93.16,197,95.5,204.72,113.74,237.52,116.48,237.14Z"/><path class="cls-6" d="M232.38,204.72S218.85,238,198.8,246.46h-7.69s19.82-30.08,23.32-41.74Z"/><path class="cls-8" d="M214.89,237.14s-6.06-4.2-12.36-14.46c0,0-7.9-82.78-8.91-88.25s12.64,3.13,18.12,14.09,26.47,48.51,24.14,56.2S217.63,237.52,214.89,237.14Z"/><path class="cls-14" d="M213.62,253.93a9.33,9.33,0,0,1-9.33,9.32H128.05a9.33,9.33,0,0,1-9.33-9.32l-9.34-57.84a9.33,9.33,0,0,1,9.33-9.32h94.91a9.32,9.32,0,0,1,9.33,9.32Z"/><path class="cls-3" d="M213.62,257.19a9.33,9.33,0,0,1-9.33,9.33H128.05a9.33,9.33,0,0,1-9.33-9.33l-9.34-57.83a9.33,9.33,0,0,1,9.33-9.33h94.91a9.33,9.33,0,0,1,9.33,9.33Z"/><path class="cls-4" d="M174.55,227.41c0,3.1-3.75,5.61-8.38,5.61s-8.39-2.51-8.39-5.61,3.76-5.61,8.39-5.61S174.55,224.31,174.55,227.41Z"/><path class="cls-6" d="M157.47,111.92s-.4,16.11-1.56,19.22c-.56,1.5-3.2,6.73,0,9.61s12.34,4.74,17.2-.56C176,137,174.53,134,173,131.1c-1.67-3.19-1.16-19.18-1.16-19.18Z"/><path class="cls-7" d="M171.94,123.58c-.25-5.46-.06-11.66-.06-11.66H157.47s-.14,5.55-.49,10.77A41.28,41.28,0,0,0,171.94,123.58Z"/><path class="cls-15" d="M148.64,51.08c-3.4-3.58-6.8-7.7-5.72-13A14.22,14.22,0,0,1,154,27.45c11.37-2.06,15.22,13.43,9.76,21.12-2.24,3.14-5.55,3.67-9.22,3.49Z"/><path class="cls-15" d="M157.05,27.32a19.63,19.63,0,0,1,3.15,5c1.52,3.68,2.69,10.42,2.58,17.39a8.63,8.63,0,0,0,1-1.15C168.71,41.61,166,28.26,157.05,27.32Z"/><path class="cls-15" d="M175.21,41.79a23.16,23.16,0,0,0-7.6-1.77l.06-.23a10.3,10.3,0,0,0,0-4.52,18.27,18.27,0,0,0-1-6.67c0-.08-.15-.05-.13,0a18,18,0,0,1,.86,5.59,12.11,12.11,0,0,0-4-5.64,12.5,12.5,0,0,0-13.67-1.37c-3.29-.28-6.36.95-8.69,4.73-1.88,3.06-1.12,6.53.55,9.72A8,8,0,0,0,144.51,46c.85,1.11,1.72,2.12,2.48,3,0,.05.14,0,.1-.08l-1.37-2a24.51,24.51,0,0,0,6.36,2.68.2.2,0,0,0,.11-.38,21.55,21.55,0,0,1-6.74-3.46c-3.23-2.67-3.34-7.66-1.68-11.16a6.77,6.77,0,0,1,2-2.48,9.88,9.88,0,0,0-.46,1.8s0,0,.06,0c.6-.92,1.14-1.81,1.71-2.65,3-1.45,7-1.19,10.09-.76a.29.29,0,0,0,.22-.52,20.37,20.37,0,0,0-6.13-2.54,9,9,0,0,1,1.1-.43c3.75-1.18,8.22.66,11.05,3,3,2.54,3.47,6.31,2.79,9.91-6.87-.08-13.8,2.43-20.07,5.1,0,0,0,.07,0,0,6.48-2.37,13.12-4.5,19.89-4.39a.64.64,0,0,0,0,.07c-1,4.19-4.75,5.67-7.7,8.24-.31.28.1.79.44.57,1.13-.72,2.16-1.33,3.09-1.93-.46.51-.93,1-1.44,1.48-.19.18.09.44.28.28a21.72,21.72,0,0,0,2.7-2.82,10.41,10.41,0,0,0,4-5.84,28,28,0,0,1,6.3,1.1C184,45,187,54,189.36,63.31c.06.25.42.14.38-.11C188.21,53.64,184.46,45.74,175.21,41.79ZM146.47,30.52c-3.13,1.54-4.75,4.93-5,8.37-1.27-5.1,1.39-10.15,7.24-10.95A9.17,9.17,0,0,0,146.47,30.52Zm8.61-1.22c1.33.58,1.74.51.31.35a19.79,19.79,0,0,0-7.32.29,9.28,9.28,0,0,1,2.31-2A15.77,15.77,0,0,1,155.08,29.3Z"/><path class="cls-15" d="M135.65,94.13a.17.17,0,0,0-.33,0,20.52,20.52,0,0,0,.75,6.34,37.39,37.39,0,0,0,2.85,5.87c0,.07.15,0,.11-.07C137.18,102.2,135.8,98.67,135.65,94.13Z"/><path class="cls-15" d="M149.15,43.14c-4.6-1-4-9.7-1.1-12.06.47-.38-.2-1-.66-.66C144,33.2,143.57,42.91,148.9,44,149.49,44.17,149.74,43.27,149.15,43.14Z"/><path class="cls-15" d="M149.2,29.69a.47.47,0,0,0,0,.94c3.81-.07,6.87,6.46,6.18,9.7-.12.59.77.84.9.25C157.08,36.77,153.68,29.62,149.2,29.69Z"/><path class="cls-15" d="M156.49,31h-.12a11.49,11.49,0,0,0-4.86-1.68c-.6-.06-.59.87,0,.93,4.25.42,9.12,4.11,8.25,8.82-.11.59.79.84.9.25a7.51,7.51,0,0,0-2.31-6.77c2.76,1.29,5.37,4.2,5,7.17-.08.59.82.84.9.25C164.79,35.71,160.43,31.49,156.49,31Z"/><path class="cls-15" d="M143.55,44.06a24.52,24.52,0,0,0,5.09,7l5.91,1c3.67.18,7-.35,9.22-3.49,2.4-3.38,3-8.28,1.95-12.52-2.54.43-5.06,1-7.51,1.55A54.37,54.37,0,0,0,143.55,44.06Z"/><path class="cls-15" d="M192.59,91s2.87-4.49,3-13-4.48-30.61-23.1-35.53S139.15,46.42,139,52.78A14.65,14.65,0,0,0,129.14,64c-1.71,9,.44,14.68.44,14.68s-.44,9.83,8.51,12.52S180,99.35,192.59,91Z"/><path class="cls-15" d="M172.45,42.49a40.43,40.43,0,0,0-16.41-1c9.85,1.62,18.79,5.12,25.64,13.54a51.8,51.8,0,0,1,11,31.17q0,2.36-.06,4.68c.45-.77,2.8-5.16,2.88-12.85C195.64,69.52,191.07,47.41,172.45,42.49Z"/><path class="cls-15" d="M189.17,63.87c-6.67.17-13-.44-19.12-3.31-5.36-2.53-10-6.44-14.3-10.41-.44-.4-1.1.25-.66.66,4.62,4.24,9.49,8.2,15.19,10.88,6,2.81,12.4,3.27,18.89,3.11C189.77,64.78,189.77,63.85,189.17,63.87Z"/><path class="cls-15" d="M147.88,49c14.51-2.73,33.5-4.14,40.89,11.73.25.54,1,.07.8-.47-7.57-16.28-27-15-41.93-12.15C147,48.23,147.3,49.13,147.88,49Z"/><path class="cls-15" d="M165.88,51.78c-.6,0-.59.9,0,.94,7.09.39,14.76,3.32,19.05,9.2.36.48,1.17,0,.81-.47C181.23,55.28,173.33,52.2,165.88,51.78Z"/><path class="cls-15" d="M160.87,56.94c-6.8.37-13.08-.93-18.77-4.8-.5-.34-1,.47-.47.81,5.82,4,12.28,5.3,19.24,4.92C161.47,57.84,161.48,56.91,160.87,56.94Z"/><path class="cls-15" d="M140.58,60.71c-5.22,9-7.17,19.25-4.32,29.39a.47.47,0,0,0,.9-.25c-2.79-9.91-.87-19.86,4.22-28.67A.46.46,0,0,0,140.58,60.71Z"/><path class="cls-15" d="M138.29,59c.33-.51-.48-1-.81-.47-6.28,9.62-7.08,23.25-2.21,33.63.26.54,1.06.07.81-.47C131.35,81.58,132.19,68.3,138.29,59Z"/><path class="cls-15" d="M188.74,66.86c-.22-.55-1.12-.31-.9.25a48.74,48.74,0,0,1,3.22,23.31c-.07.59.86.59.93,0A49.28,49.28,0,0,0,188.74,66.86Z"/><path class="cls-6" d="M189.16,89.77s5-5.43,8.91-3.67,2.49,18.56-11.61,17.63Z"/><path class="cls-7" d="M197.58,91.71c-4.73-.87-8.75,3.23-8.66,7.87a.66.66,0,0,0,1.31,0,7.73,7.73,0,0,1,.56-2.64c.72-.57,1.64-1.06,2.26-.47,1.15,1.1,0,3-1.4,2.9-.81,0-.81,1.27,0,1.25A2.84,2.84,0,0,0,194,96.26a1.77,1.77,0,0,0-2.21-.7,2,2,0,0,0-.41.22,8.17,8.17,0,0,1,6.19-3.87C197.66,91.89,197.7,91.73,197.58,91.71Z"/><path class="cls-6" d="M140,89.77s-5-5.43-8.92-3.67-2.49,18.56,11.61,17.63Z"/><path class="cls-7" d="M131.52,91.71c4.73-.87,8.76,3.23,8.67,7.87a.66.66,0,0,1-1.32,0,8,8,0,0,0-.55-2.64c-.73-.57-1.65-1.06-2.27-.47-1.15,1.1,0,3,1.41,2.9.8,0,.8,1.27,0,1.25a2.85,2.85,0,0,1-2.35-4.36,1.77,1.77,0,0,1,2.21-.7,2,2,0,0,1,.41.22,8.16,8.16,0,0,0-6.18-3.87C131.45,91.89,131.4,91.73,131.52,91.71Z"/><path class="cls-6" d="M142.93,64.75s-7,12.77-5.24,23.92,5,30.09,26.86,31.21C186.44,118.76,190,100,190.82,88.7c.12-1.84-4.57-12-6-21.15,0,0-12.44.31-26.64-7.88C158.16,59.67,150.06,63.58,142.93,64.75Z"/><path class="cls-15" d="M180.58,90.87c-.18,0-.7.08-.82-.1a.2.2,0,0,0-.07-.06,4.18,4.18,0,0,0,0-.79c-.06-.6-1-.6-.94,0a3,3,0,0,1-1.08,2.83c-1.47,1-3.05-.73-3.12-2.13,0-.59-1-.6-.94,0,.1,1.79,1.56,3.54,3.48,3.28a2.77,2.77,0,0,0,1.32-.56,1.36,1.36,0,0,0,.69.37c.58.14.83-.76.24-.9-.13,0-.25,0-.3-.17a3.84,3.84,0,0,0,.45-1,3,3,0,0,0,1.08.12A.47.47,0,0,0,180.58,90.87Z"/><path class="cls-15" d="M174.84,83.74a4.18,4.18,0,0,1,5.41.44c.42.43,1.08-.23.66-.66a5.09,5.09,0,0,0-6.54-.58C173.89,83.29,174.36,84.1,174.84,83.74Z"/><path class="cls-15" d="M151.21,90.62a2.31,2.31,0,0,1-2.8,2.28c-1.2-.31-1.51-2-1.41-3,.05-.6-.88-.6-.94,0a5.23,5.23,0,0,0,0,.79l-.07.06c-.11.18-.64.1-.82.1a.47.47,0,0,0,0,.93,2.89,2.89,0,0,0,1.07-.12,3.87,3.87,0,0,0,.46,1c-.05.13-.17.14-.3.17-.59.14-.34,1,.24.9a1.43,1.43,0,0,0,.7-.37,3,3,0,0,0,1.05.53c2,.52,3.64-1.42,3.74-3.25C152.17,90,151.24,90,151.21,90.62Z"/><path class="cls-15" d="M145.51,84.18a4.12,4.12,0,0,1,5.41-.44c.49.36,1-.45.47-.8a5,5,0,0,0-6.54.58C144.43,84,145.09,84.62,145.51,84.18Z"/><path class="cls-16" d="M170.34,107.76a8.92,8.92,0,0,1-8.54,3.29c-.58-.13-.83.77-.25.9a9.84,9.84,0,0,0,9.45-3.53C171.38,108,170.73,107.3,170.34,107.76Z"/><path class="cls-15" d="M191,93.84c0-.27,0-.54,0-.81.21-1,.39-1.93.54-2.89a40.12,40.12,0,0,0,1.17-4.59.39.39,0,0,0-.76-.21l-.06.17a20.11,20.11,0,0,0-1.16-6.44.1.1,0,0,0-.2,0c-.66,7.31-2.26,14.19-3.47,21.38a22.68,22.68,0,0,0-.33,6.92c.63,4.36,2.69,7.55,1.48,12.13,0,.11.13.18.18.08a11.05,11.05,0,0,0,1.11-6.27c-.8-5-1.44-8.9-.13-13.91l.57-2.13c.52,4.62,2.49,8.5.3,13.38,0,0,0,.07.06,0a12.22,12.22,0,0,0,1.62-8A69.55,69.55,0,0,1,191,93.84Z"/><path class="cls-15" d="M138.31,91.07c-1.5-5.61-.75-10.54-.37-16.18.06-.9-1.21-1-1.48-.2-2.16,6.08-1,12.38.84,18.38,2,6.4,7,16.79,1,22.41-.05,0,0,.14.08.1,4.17-2.69,3.74-7.7,3.11-12.09C140.88,99.26,139.42,95.18,138.31,91.07Z"/><path class="cls-15" d="M189.08,66.46c-10.87,4.81-24-1.65-32-9,0,0-.08,0-.05.05,8.06,7.9,21.06,14.36,32.28,9.39C189.58,66.73,189.34,66.34,189.08,66.46Z"/><polygon class="cls-7" points="140.98 295.36 164.43 291.95 150.2 274.61 132.29 281.75 140.98 295.36"/><path class="cls-17" d="M118.73,281.51c-5.1-.47-21.57-4.83-28.74-5.08s-4.58,18.29,0,20.32,13.55,3.65,34,.51c3.3-.51,19.29-.86,20.58-1,.27,0,0-3.27,0-3.27s3.51-.41,3.62-4.76-.94-10.66-5.7-9.65c0,0-.71-3.77-1.42-3.59S123.83,282,118.73,281.51Z"/><path class="cls-17" d="M136.85,279.18c9.91-3.55,73.06-32.07,90.34-40.46,17-8.27,38.6-2.38,32.27,14.23-6.1,16-42.56,41.3-106.36,40.91C138.47,287.23,136.85,279.18,136.85,279.18Z"/><path class="cls-18" d="M214.5,275.24c-14-2.3-27-7-40.07-12.31-17.34,7.76-33,14.62-37.58,16.25,0,0,1.62,8.05,16.25,14.68,41.38.25,71.24-10.3,88.79-22.11C232.88,274.42,223.73,276.62,214.5,275.24Z"/><polygon class="cls-6" points="196.98 278.33 175.99 272.77 177.9 293.65 200.43 294.14 196.98 278.33"/><path class="cls-5" d="M218.81,298.23s14.26,2.68,20.57,1.85c10-1.3,17.54-7.62,16.39-18.54s-21.25-4.15-21.25-4.15Z"/><path class="cls-17" d="M213.38,281.15c5.1-.47,21.57-4.82,28.74-5.08s4.57,18.3,0,20.33-13.55,3.65-34,.51c-3.3-.51-19.29-.86-20.58-1-.27,0,0-3.27,0-3.27s-3.51-.41-3.62-4.77.94-10.65,5.7-9.65c0,0,.71-3.76,1.42-3.59S208.28,281.63,213.38,281.15Z"/><path class="cls-17" d="M181.71,272.77a59.25,59.25,0,0,1-2.93,22.41s-57.25-12.7-80.46-20.48c-27.06-9.07-21.67-38.26-12-39.69C110.35,231.46,141,259.05,181.71,272.77Z"/><path class="cls-18" d="M119.21,268.66c-9.85-4.28-19.55-9.84-26.68-18a31.36,31.36,0,0,1-7.47-15.3C76.24,239.06,72.49,266,98.32,274.7c23.21,7.78,80.46,20.48,80.46,20.48.12-.34.24-.67.35-1-1.24-.93-2.52-1.84-3.86-2.69C158,280.65,137.75,276.8,119.21,268.66Z"/><path class="cls-19" d="M121.47,285.63s2.67,5.61,2,8.37"/><path class="cls-19" d="M209.85,283.23s-2.84,5.79-2,7.57"/><path class="cls-20" d="M162.15,89.19s-.27,11.13-2,14.07,6.32,1.15,6.32,1.15"/></g></g></g></svg>