<svg xmlns="http://www.w3.org/2000/svg" viewBox="0 0 350.9 317.58"><defs><style>.cls-1{fill:#c93f3f;opacity:0.13;}.cls-2{opacity:0.35;}.cls-3{fill:#87a3a6;}.cls-4{fill:#875733;}.cls-5{fill:#18253d;}.cls-6{fill:#481e1c;}.cls-7{fill:#2a2f38;}.cls-8{fill:#27364f;}.cls-9{fill:#6f808a;}.cls-10{fill:#fae9ce;}</style></defs><g id="Layer_2" data-name="Layer 2"><g id="Layer_5" data-name="Layer 5"><path class="cls-1" d="M219,45.18h.62l1.57,0c1.51,0,3,.12,4.54.25h0c1.34.11,2.68.26,4,.44l.55.08c1.51.21,3,.46,4.5.76,2.48.49,4.94,1.09,7.36,1.8,1.38.41,2.74.85,4.1,1.32a78.88,78.88,0,0,1,37.36,27c10.79,14.54,16.25,32.23,22,49.4,9.34,27.75,20.14,55.73,20.62,85,.44,26.33-7.38,59.19-42.6,77.7-2.68,1.4-5.52,2.73-8.53,4q-2.14.88-4.39,1.69a194.62,194.62,0,0,1-20,6l-.73.18h0l-.14,0q-3.79.92-7.73,1.72a300.47,300.47,0,0,1-59.2,5.81,281.27,281.27,0,0,1-32.42-1.82q-2.74-.32-5.46-.7a191.08,191.08,0,0,1-34.34-7.8c-25-8.41-57.7-38.19-70.72-61.17s-14.68-53-1-75.56c6.68-11,16-19.3,26.61-26.47,4.49-3.05,9.19-5.89,14-8.64,1-.56,2-1.11,2.93-1.66l1.87-1q2.65-1.49,5.33-3h0c2.75-1.52,5.51-3,8.24-4.56l.39-.21h0l2.37-1.33,2.34-1.34c2.62-1.5,5.21-3,7.75-4.62l.57-.35,1.71-1.09q2.15-1.36,4.25-2.81,2.55-1.74,5-3.59,2.89-2.16,5.73-4.41c1-.82,2-1.63,3-2.46l.58-.47L134,91.38l1.41-1.18,1.15-1L139.1,87l3.45-3,2-1.72,3.73-3.22c1.36-1.18,2.73-2.34,4.1-3.5l.51-.43c1.25-1,2.5-2.1,3.76-3.13h0c.75-.62,1.51-1.23,2.27-1.84l0,0,1.72-1.37c.77-.61,1.55-1.21,2.33-1.81q2.25-1.72,4.55-3.37l.83-.59q3.24-2.3,6.59-4.38c.47-.3.95-.59,1.43-.88l2.4-1.41.84-.48.38-.2,1-.55a91.38,91.38,0,0,1,13.09-5.81l1-.35,2-.65c2-.58,3.93-1.09,5.91-1.5l1-.2c.85-.17,1.7-.32,2.55-.46,1.49-.24,3-.44,4.49-.59q3.67-.36,7.38-.38h.5"/><g class="cls-2"><path class="cls-3" d="M219.14,23.18C205.32,17,191,11.84,177.43,10.65c-2.09-.19-4.15-.28-6.16-.28-24,0-42.11,12.63-56.36,26.9l-1,1q-.24-.39-.51-.75c.29-.28.57-.58.85-.86C128.6,22.3,147,9.49,171.27,9.49q3.06,0,6.24.28c13.75,1.21,28.13,6.44,42,12.6,6.54,2.92,13.13,6.15,19.61,9.7-1.38-.44-2.78-.86-4.19-1.25C229.68,28.07,224.4,25.52,219.14,23.18Z"/><path class="cls-3" d="M272.46,241.38l1.28-.3-1.51,2.12-1.23.2C271.49,242.73,272,242.06,272.46,241.38Z"/><path class="cls-3" d="M311.72,130a98.26,98.26,0,0,0-12.6-43.24c-12.93-22.43-35.95-40.48-60.61-54q2.38.75,4.69,1.61c23.11,13.24,44.38,30.58,56.68,51.91a99.07,99.07,0,0,1,12.72,43.62c.13,1.87.19,3.73.23,5.57-.27,1.14-.55,2.29-.85,3.45,0-.29,0-.59,0-.88Q312,134,311.72,130Z"/><path class="cls-3" d="M62.29,151c0,22.35,6.27,46.81,20.49,69.66.89,1.43,1.82,2.84,2.77,4.26H84.49c-.84-1.26-1.67-2.52-2.46-3.8C67.72,198.11,61.4,173.5,61.4,151q0-1.28,0-2.55c.06-2.57.2-5.1.41-7.62.35-.65.7-1.3,1.06-1.95-.31,3.16-.52,6.35-.59,9.59C62.3,149.29,62.29,150.14,62.29,151Z"/><path class="cls-3" d="M311.9,142.28c.34-1.17.66-2.32,1-3.48-.2,31.28-12.09,58.44-26.79,83l-1.05,0C299.26,198.13,310.88,172.08,311.9,142.28Z"/><path class="cls-3" d="M103.85,248.05l-.38-.37,1.49.21c.17.15.33.31.49.47Z"/><path class="cls-3" d="M79.43,85.84c-8.06,15.56-14.16,32.49-16.3,50.93l-1.1,2c1.93-19.37,8.22-37.09,16.61-53.3a197.38,197.38,0,0,1,24-36,8.67,8.67,0,0,0,.79.43A196.88,196.88,0,0,0,79.43,85.84Z"/><path class="cls-3" d="M70,125.72a1.27,1.27,0,0,0,.81.28c-2.82,4.28-5.47,8.58-7.86,12.86-.36.65-.71,1.3-1.06,1.95a110.27,110.27,0,0,0-6.3,13.73A68,68,0,0,0,51,178.31c0,14.42,5.31,26.3,12,36.25A121.91,121.91,0,0,0,70.8,225H69.71a124.33,124.33,0,0,1-7.43-10c-6.71-10-12.11-22.08-12.11-36.71a68.79,68.79,0,0,1,4.59-24.05A116.07,116.07,0,0,1,62,138.73l1.1-2C65.24,133.08,67.53,129.39,70,125.72Z"/><path class="cls-3" d="M93.87,246.34l-1.79-.25L92,246l1.82.28Z"/><path class="cls-3" d="M234.83,240.84l.43.65-1.35.85C234.22,241.85,234.52,241.35,234.83,240.84Z"/><path class="cls-3" d="M268.44,214.71c-2.73,2.8-5.56,5.51-8.46,8.11l-1.3.05c3.15-2.79,6.22-5.7,9.16-8.74,22.61-23.26,37.73-50.78,44.14-75.22.3-1.16.58-2.31.85-3.45a95.29,95.29,0,0,0,2.62-21.27,61.75,61.75,0,0,0-1.12-12.08c-3.9-19.64-17.51-32.56-31.22-43.73-11.8-9.63-24.74-18.4-39.91-24q-2.31-.86-4.69-1.61A102.11,102.11,0,0,0,207.4,28c-1.86,0-3.75,0-5.67.14a108,108,0,0,0-43.17,11.38c-27.4,13.63-53.17,39.77-73.63,66.59a4.06,4.06,0,0,0-.74-.4c20.53-26.91,46.38-53.18,74-66.93a109,109,0,0,1,43.5-11.47c1.93-.09,3.84-.14,5.71-.14a103.24,103.24,0,0,1,27.52,3.65c1.41.39,2.81.81,4.19,1.25,17.2,5.52,31.58,15.11,44.53,25.67C297.36,68.93,311.18,82,315.15,102a62.7,62.7,0,0,1,1.13,12.24,99.16,99.16,0,0,1-3.42,24.61c-.3,1.16-.62,2.31-1,3.48C305,166.07,290.17,192.33,268.44,214.71Z"/><path class="cls-3" d="M71.41,123.52c2-3,4.16-6.08,6.32-9.09l.94-1.29a4.78,4.78,0,0,0,.6.59l-.86,1.18C76.2,118,74,121.08,72,124.19A1.25,1.25,0,0,0,71.41,123.52Z"/><path class="cls-3" d="M247.45,22.7a4.77,4.77,0,1,1,4.76-4.76A4.76,4.76,0,0,1,247.45,22.7Z"/><path class="cls-3" d="M36.85,199.26a4.77,4.77,0,1,1,4.77-4.76A4.76,4.76,0,0,1,36.85,199.26Z"/><path class="cls-3" d="M128.84,143.41a4.77,4.77,0,1,1,4.77-4.77A4.77,4.77,0,0,1,128.84,143.41Z"/><path class="cls-3" d="M327.66,190.72a9.56,9.56,0,1,1,9.56-9.56A9.56,9.56,0,0,1,327.66,190.72Z"/><circle class="cls-3" cx="276.72" cy="114.84" r="8.22"/><path class="cls-3" d="M115.08,42.43a8.23,8.23,0,0,1-11.7,7.45,8.67,8.67,0,0,1-.79-.43,8.21,8.21,0,1,1,10.84-11.94q.27.36.51.75A8.22,8.22,0,0,1,115.08,42.43Z"/><path class="cls-3" d="M87.07,110.08a4.77,4.77,0,1,1-4.77-4.77,4.61,4.61,0,0,1,1.89.4,4.06,4.06,0,0,1,.74.4A4.74,4.74,0,0,1,87.07,110.08Z"/><path class="cls-3" d="M313,70.9c-3.39,0-3.4-5.27,0-5.27S316.36,70.9,313,70.9Z"/><path class="cls-3" d="M272.35,177c3.39,0,3.4,5.27,0,5.27S269,177,272.35,177Z"/><path class="cls-3" d="M211.42,128.82c-3.39,0-3.4-5.28,0-5.28S214.82,128.82,211.42,128.82Z"/><path class="cls-3" d="M167,21.25c3.4,0,3.4,5.27,0,5.27S163.64,21.25,167,21.25Z"/><path class="cls-3" d="M89.57,189c-3.4,0-3.4-5.27,0-5.27S93,189,89.57,189Z"/><path class="cls-3" d="M50.45,136.34c-3.39,0-3.4-5.28,0-5.28S53.85,136.34,50.45,136.34Z"/><path class="cls-3" d="M241.51,151.57a1.32,1.32,0,0,1,0-2.64A1.32,1.32,0,0,1,241.51,151.57Z"/><path class="cls-3" d="M237,82.37a1.32,1.32,0,0,1,0-2.64A1.32,1.32,0,0,1,237,82.37Z"/><path class="cls-3" d="M124.92,34.6a1.32,1.32,0,0,1,0,2.64A1.32,1.32,0,0,1,124.92,34.6Z"/><path class="cls-3" d="M185.09,2.64a1.32,1.32,0,0,1,0-2.64A1.32,1.32,0,0,1,185.09,2.64Z"/><path class="cls-3" d="M297.17,19.94a1.32,1.32,0,0,1,0-2.64A1.32,1.32,0,0,1,297.17,19.94Z"/><path class="cls-3" d="M328,137.28a1.32,1.32,0,0,1,0-2.64A1.32,1.32,0,0,1,328,137.28Z"/><path class="cls-3" d="M278.36,215.88a1.32,1.32,0,0,1,0,2.63A1.32,1.32,0,0,1,278.36,215.88Z"/><path class="cls-3" d="M84.3,213.25a1.32,1.32,0,0,1,0-2.64A1.32,1.32,0,0,1,84.3,213.25Z"/><path class="cls-3" d="M70.76,123.36a1.3,1.3,0,0,1,.65.16,1.25,1.25,0,0,1,.55.67,1.31,1.31,0,0,1-1.2,1.81h0a1.27,1.27,0,0,1-.81-.28A1.34,1.34,0,0,1,70.76,123.36Z"/><path class="cls-3" d="M113.64,115.46a1.32,1.32,0,0,1,0-2.63A1.32,1.32,0,0,1,113.64,115.46Z"/><path class="cls-3" d="M73,162.85a1.32,1.32,0,0,1,0-2.64A1.32,1.32,0,0,1,73,162.85Z"/><path class="cls-3" d="M124.17,87.63a1.32,1.32,0,0,1,0-2.63A1.32,1.32,0,0,1,124.17,87.63Z"/><path class="cls-3" d="M91.07,69.2a1.32,1.32,0,0,1,0,2.64A1.32,1.32,0,0,1,91.07,69.2Z"/><path class="cls-3" d="M62.49,66.57a1.32,1.32,0,0,1,0-2.63A1.32,1.32,0,0,1,62.49,66.57Z"/><path class="cls-3" d="M52.71,214a1.32,1.32,0,0,1,0-2.64A1.32,1.32,0,0,1,52.71,214Z"/></g><path class="cls-4" d="M146.8,143.94l-1,.61q-3.09,1.86-6.1,3.84a57.24,57.24,0,0,1,9.38-6l.24.07C148.46,143,147.62,143.45,146.8,143.94Z"/><path class="cls-4" d="M127.33,157.37c.16-.17.32-.34.49-.5a72.74,72.74,0,0,1,10.49-7.76,2.06,2.06,0,0,1,.8-.36c-1,.65-2,1.31-2.93,2C133.16,152.81,130.32,155.24,127.33,157.37Z"/><path class="cls-5" d="M84.49,224.9h1.06c5.21,0,10.42,0,15.57,0a25.48,25.48,0,0,1,3.17,3c4.27,4.72,7.52,10.92,12.38,15.1-.59.93-1.15,1.79-1.61,2.53a6.78,6.78,0,0,1-1.94,2.27c-1.41.92-3.25.73-4.92.51l-3.24-.44-1.49-.21c-3.23-.45-6.47-.92-9.7-1.41L92,246c-9.21-1.43-18.39-3.1-27.46-5.18A45.61,45.61,0,0,0,68.2,225h2.6Q77.63,225,84.49,224.9Z"/><path class="cls-4" d="M40.06,233.9c1.16-.47,8.5-7,7.41-8.45l-.53-.72c6.91.26,14,.31,21.26.29a45.61,45.61,0,0,1-3.71,15.79A240.08,240.08,0,0,1,40.06,233.9Z"/><path class="cls-4" d="M47.47,225.45l-.53-.72c-1.82-2.43-3.78-4.85-6.45-6.25a22.36,22.36,0,0,0-4.24-1.54c-2.17-.62-4.43-1.14-6.52-2-.5-.2-1.21-.71-1.64-.69a1,1,0,0,0,.43-.79,1.08,1.08,0,0,0-.92-.83,3,3,0,0,0-1.31.17c-2.25.65-4.87,2.56-7.09,2.87-1.9.27-1.66-.6-2.21-2.3a24.41,24.41,0,0,0-4.92-8.61c-.92-1-2.21-2.07-3.53-1.68a1,1,0,0,0-.68.57c-.11.39.18.76.44,1.07,2.86,3.32,7.83,10.84,6.62,15.48-3.79-2.52-7-5.65-11.13-7.74a4.87,4.87,0,0,0-2-.66,1.84,1.84,0,0,0-1.78.95,21.08,21.08,0,0,0,2.7,1.89c4.14,2.63,8.65,5.66,12.11,9.36a28.62,28.62,0,0,1,2.12,2.57A8.18,8.18,0,0,0,19.05,229a7.06,7.06,0,0,0,2.3.75c3.44.68,7,2.06,10.49,2.75,2.84.56,8.22,1.42,8.22,1.42h0C41.22,233.43,48.56,226.92,47.47,225.45Zm-12.92-2a14.64,14.64,0,0,1-7-.11C26,223,21.84,222,21,220.5c-1.48-2.66,2.21-3.75,4.11-4.6a15.21,15.21,0,0,0,2.66-1.34,1.89,1.89,0,0,0,0,.82C28.25,219.16,34.27,219.57,34.55,223.44Z"/><path class="cls-4" d="M311.76,229.65a255.64,255.64,0,0,1-30.27,9.57,73.14,73.14,0,0,1-1.87-17.11l5.4-.22,1.05,0c6.27-.26,12.44-.6,18.45-1.08l-.51.75C303,223,310.56,229.2,311.76,229.65Z"/><path class="cls-5" d="M244.31,247c-1.66.3-3.49.56-4.94-.3a6.73,6.73,0,0,1-2-2.18c-.59-.86-1.33-1.88-2.08-3l-.43-.65.17-.26c1.64-2.67,3.39-5.45,5.29-8.1a47.38,47.38,0,0,1,6.78-7.74l.19-.06h.19a.92.92,0,0,0,.89-.9s0-.06,0-.09l.39-.3c3.3-.2,6.62-.36,10-.5l1.3-.05c6.54-.27,13.11-.48,19.64-.71a73.14,73.14,0,0,0,1.87,17.11q-3.87,1-7.75,1.86l-1.28.3C263.13,243.5,253.71,245.29,244.31,247Z"/><path class="cls-6" d="M248.33,223.67s0,.06,0,.09a.92.92,0,0,1-.89.9h-.19l-.19.06C247.48,224.37,247.9,224,248.33,223.67Z"/><path class="cls-4" d="M348.28,208.86a22.19,22.19,0,0,0,2.62-2,1.85,1.85,0,0,0-1.82-.87,4.92,4.92,0,0,0-2,.74c-4.07,2.27-7.1,5.53-10.78,8.21-1.41-4.58,3.23-12.31,5.95-15.75.25-.31.52-.7.4-1.08a.93.93,0,0,0-.7-.54c-1.34-.34-2.59.75-3.46,1.82A24.32,24.32,0,0,0,334,208.2c-.48,1.71-.21,2.57-2.11,2.39-2.23-.22-4.93-2-7.21-2.57a2.93,2.93,0,0,0-1.31-.11,1.07,1.07,0,0,0-.89.87,1,1,0,0,0,.46.77c-.43,0-1.11.54-1.6.76-2.05.91-4.29,1.52-6.43,2.23a22,22,0,0,0-4.17,1.72c-2.61,1.51-4.46,4-6.17,6.51l-.51.75c-1,1.51,6.55,7.68,7.75,8.13h0s5.34-1.09,8.15-1.78c3.41-.82,7-2.36,10.36-3.19a6.7,6.7,0,0,0,2.27-.85,8,8,0,0,0,2-2.45,28.11,28.11,0,0,1,2-2.66C339.87,214.88,344.26,211.66,348.28,208.86Zm-18,6.59c-.78,1.57-4.89,2.7-6.44,3.1a14.53,14.53,0,0,1-7,.41c.12-3.87,6.11-4.54,6.46-8.34a1.75,1.75,0,0,0-.06-.82A15.72,15.72,0,0,0,326,211C327.89,211.8,331.61,212.73,330.25,215.45Z"/><path class="cls-7" d="M188.73,49.13a10,10,0,0,0-1.9-1c-6.85-2.73-16.08-.48-19.6,6.25-3.38,6.46-5.58,13.58-9.93,19.42-2.31,3.1-5.09,5.84-6.14,9.68a16.39,16.39,0,0,0-.5,4.13,21.29,21.29,0,0,0,2.28,10.12,15.8,15.8,0,0,0,3.05,4.12c.27.25,2.75,2.65,2.7,2.71a21,21,0,0,1,2.17-2.35,25.86,25.86,0,0,0,2.47,2.91c1,1,2,1.66,2.75,1.5-2,8.77-5.05,19.45-5.19,29.13a23.91,23.91,0,0,0-6.32,3.83l-.06,0h0c-1.75.93-3.49,1.9-5.21,2.89l-.24-.07a17.82,17.82,0,0,1-5.56-2.65,14.39,14.39,0,0,1-3.88-4.21,15.57,15.57,0,0,1-.93-14.07c1.37-3.16,3.83-6,4.08-9.39.21-2.83-1.14-5.52-1.67-8.3C139.57,95.7,145,88,147.61,80.63c3.61-10.32,4.32-22.19,11.59-30.36a24.11,24.11,0,0,1,24.09-7c2.92.84,5.25,2.16,6.64,4.1a5.08,5.08,0,0,0-.38.43A7.17,7.17,0,0,0,188.73,49.13Z"/><path class="cls-8" d="M321.3,262.13a7.36,7.36,0,0,1-2.39.51,7.53,7.53,0,0,1-2.53-.67c-10.2-3.89-22.78-6.18-33.52-3.67s-20.34,8.6-28.91,15.43c-7.07,5.64-13.73,11.8-21.1,17.06-2.87,2-7.19,6-10.92,5.78-3.53-.18-7.77-4.3-10.6-6.15-2.1-1.37-4.46-2.81-6.93-2.4a5.45,5.45,0,0,0-1.26.39c1.58-4.42,2.87-9,4.41-13.45a49.13,49.13,0,0,1,4.21-3.11c1.69-1.1,3.47-2.08,5.15-3.18a24.54,24.54,0,0,0,3.38-2.61,17.56,17.56,0,0,0,1.83-2,31.5,31.5,0,0,0,4.19-8.21A218.58,218.58,0,0,1,271,243.4l1.23-.2a216.76,216.76,0,0,1,28.65-2.68q1.89,0,3.78-.06c3.08,0,6.3,0,9,1.52a16.34,16.34,0,0,1,5,4.81,57.82,57.82,0,0,1,6.06,10.15,19.63,19.63,0,0,1,1.71,5.08C325.41,260.8,323.83,261.29,321.3,262.13Z"/><path class="cls-8" d="M182.56,292a5.62,5.62,0,0,0,2.9,1.15,5.71,5.71,0,0,0,3.08-1.25c7-4.79,12.46-11.54,19-16.9h0c-1.54,4.46-2.83,9-4.41,13.45-4.51,2-4.53,10-9,12.74a17.33,17.33,0,0,1-4.09,1.58q-2.07.63-4.11,1.35a.84.84,0,0,0-1-.39l-.11,0c-1-.35-2.07-.68-3.11-1-.47-.14-1-.28-1.42-.44a92,92,0,0,0-6.13-17c1,.88,1.94,1.75,2.93,2.59A54,54,0,0,0,182.56,292Z"/><path class="cls-8" d="M44.64,271.31a18.73,18.73,0,0,1-.34-2.59,16.69,16.69,0,0,0,.7,3.54A3.76,3.76,0,0,1,44.64,271.31Z"/><path class="cls-8" d="M103.85,248.05l1.6.31a216.76,216.76,0,0,1,24.07,6.33,22.79,22.79,0,0,0,2.92,3.88,26.52,26.52,0,0,0,3.07,2.79,22.93,22.93,0,0,0,2.94,1.89c4.63,2.5,10,3.62,14.92,5.73l1.08.49c5.91,2.8,10.72,7.25,15.49,11.79,1.43,1.36,2.86,2.72,4.31,4.06a92,92,0,0,1,6.13,17,12.63,12.63,0,0,1-2.67-1.14c-4.81-2.93-4.4-12.17-10.22-13.13-2.47-.41-4.83,1-6.93,2.4-2.83,1.85-7.07,6-10.6,6.15-3.73.2-8.06-3.74-10.92-5.78-7.37-5.26-14-11.42-21.1-17.06C109.37,266.9,99.81,260.82,89,258.3s-23.32-.22-33.52,3.67a7.6,7.6,0,0,1-2.53.67,7.3,7.3,0,0,1-2.39-.51c-3.67-1.22-5.34-1.7-6.17,2.73,0,.14-.05.3-.07.45a29.24,29.24,0,0,1,5.85-14.95,16.34,16.34,0,0,1,5-4.81c2.7-1.47,5.93-1.55,9-1.52q1.89,0,3.78.06a216.1,216.1,0,0,1,24.11,2l1.79.25Q98.88,247.08,103.85,248.05Z"/><path class="cls-4" d="M50.59,262.13a7.3,7.3,0,0,0,2.39.51,7.6,7.6,0,0,0,2.53-.67c10.2-3.89,22.78-6.18,33.52-3.67s20.34,8.6,28.91,15.43c7.07,5.64,13.73,11.8,21.1,17.06,2.86,2,7.19,6,10.92,5.78,3.53-.18,7.77-4.3,10.6-6.15,2.1-1.37,4.46-2.81,6.93-2.4,5.82,1,5.41,10.2,10.22,13.13a12.63,12.63,0,0,0,2.67,1.14c.47.16,1,.3,1.42.44,1,.32,2.08.65,3.11,1a53.82,53.82,0,0,0-12,5.33,16.45,16.45,0,0,1-3.1,1.51,12.68,12.68,0,0,1-3.25.32,16.51,16.51,0,0,0-6.25,1.53.76.76,0,0,0-.29,1.18l-.7-.09a272.3,272.3,0,0,1-41-7.59c-24.45-6.56-48-15.05-66.13-25.66-3-1.78-5.83-4.37-7-7.69,0-.1-.06-.21-.1-.31a16.69,16.69,0,0,1-.7-3.54,16,16,0,0,1,.05-3.41c0-.15,0-.31.07-.45C45.25,260.43,46.92,260.91,50.59,262.13Z"/><path class="cls-4" d="M161.17,314a17,17,0,0,1,6.68-1.32,12.3,12.3,0,0,0,5.53-1.83c3.89-2.14,7.8-4.27,12.12-5.4a.86.86,0,0,0,.48-1.34q2-.72,4.11-1.35a17.33,17.33,0,0,0,4.09-1.58c4.43-2.7,4.45-10.73,9-12.74a5.45,5.45,0,0,1,1.26-.39c2.47-.41,4.83,1,6.93,2.4,2.83,1.85,7.07,6,10.6,6.15,3.73.2,8-3.74,10.92-5.78,7.37-5.26,14-11.42,21.1-17.06,8.57-6.83,18.12-12.91,28.91-15.43s23.32-.22,33.52,3.67a7.53,7.53,0,0,0,2.53.67,7.36,7.36,0,0,0,2.39-.51c2.53-.84,4.11-1.33,5.12-.11a6.5,6.5,0,0,1,1.05,2.84,16.63,16.63,0,0,1-.68,7.71c-1.22,3.32-4,5.91-7.05,7.69-18.15,10.61-41.68,19.1-66.13,25.66a272.3,272.3,0,0,1-41,7.59c-18.3,2-36.57,3.18-54.92,4.07a4.57,4.57,0,0,1,2.38-3.84A.93.93,0,0,0,161.17,314Z"/><path class="cls-6" d="M160.26,312.42a16.51,16.51,0,0,1,6.25-1.53,12.68,12.68,0,0,0,3.25-.32,16.45,16.45,0,0,0,3.1-1.51,53.82,53.82,0,0,1,12-5.33l.11,0a.84.84,0,0,1,1,.39.86.86,0,0,1-.48,1.34c-4.32,1.13-8.23,3.26-12.12,5.4a12.3,12.3,0,0,1-5.53,1.83,17,17,0,0,0-6.68,1.32.93.93,0,0,1-1.09-.23,1.34,1.34,0,0,1-.11-.14A.76.76,0,0,1,160.26,312.42Z"/><path class="cls-9" d="M104.29,227.92c4.27,4.72,7.52,10.92,12.38,15.1a21,21,0,0,0,2.57,1.92c1.92,1.19,4.05,2,5.9,3.32,2.33,1.63,2.84,3.66,4.11,6,.08.16.18.31.27.46a22.79,22.79,0,0,0,2.92,3.88c.35-.77.68-1.42.94-1.89a37,37,0,0,1,15.86-15.23c-.81.4-2.63,9.57-3.37,11.11-.31.66-.64,1.31-1,1.94a39.33,39.33,0,0,1-3.14,4.81q-1.23,1.63-2.61,3.15c-.2.21-.43.48-.68.79,4.63,2.5,10,3.62,14.92,5.73l1.08.49c5.91,2.8,10.72,7.25,15.49,11.79a21.8,21.8,0,0,1,.82-2.78c2.59-5.81,7.43-12,13-15.15-.31.17-.85,14.05-1.46,15.95a26.35,26.35,0,0,1-5.16,8.63,54,54,0,0,0,5.38,4,5.62,5.62,0,0,0,2.9,1.15,5.71,5.71,0,0,0,3.08-1.25c7-4.79,12.46-11.54,19-16.9h0a49.13,49.13,0,0,1,4.21-3.11c1.69-1.1,3.47-2.08,5.15-3.18l-.19-.17a34.06,34.06,0,0,1-4.3-4.36A35.61,35.61,0,0,1,204.55,246a42.4,42.4,0,0,1,17.15,17.35c.1.18.24.42.42.71a31.5,31.5,0,0,0,4.19-8.21l.15-.39c1.45-3.91,3.5-6.81,5.76-10.37.55-.87,1.12-1.78,1.69-2.71.31-.49.61-1,.92-1.5l.17-.26a38.19,38.19,0,0,1-7.76-1.8c-4.34-1.55-8.4-4.31-10.66-8.33-.14-.24,16-.16,17.76.23a27,27,0,0,1,5.95,1.8,47.38,47.38,0,0,1,6.78-7.74c.41-.37.83-.73,1.26-1.07l.39-.3a22.64,22.64,0,0,1,5.68-3.25c.77-.29,1.7-.72,1.76-1.54a2.11,2.11,0,0,0-.43-1.23,191.56,191.56,0,0,1-10.15-19.25c-.71,1-1.35,1.79-1.74,2.29-.57.74-1.17,1.45-1.79,2.13,1.91,5.45,3.8,10.9,5.62,16.37.18.55-.68.79-.86.24q-2.66-8-5.46-15.89a36.58,36.58,0,0,1-5.83,5c-.91.62-10,4.61-10,4.75.59-4.92,3.67-9.15,6.77-13a54.6,54.6,0,0,1,5.66-6.3Q233.63,181.81,229,170c-.21-.54.66-.77.87-.24q4.51,11.58,8.76,23.26c.3-.26.59-.54.91-.79a28.62,28.62,0,0,1,2.62-1.85h0c-3.18-7.55-6-15.25-8.83-23.08-2.24-6.28-5.77-10.29-11.32-14l-.87-.56c-6.4,4-17.57,7.16-18,8.34.94-2.52,5.33-8.8,10.1-13.05q-7.52-4.69-15.45-8.65c-1.36-.69-2.82-1.48-4.31-2.27h0a20.32,20.32,0,0,1,5.64,7.58c2.07,5,1.17,10.77-.17,16A155.2,155.2,0,0,1,192.46,180a31.58,31.58,0,0,1,5,6.54c.55.93,5.07,12.65,4,12.68a5.86,5.86,0,0,1-3.53-1.48,26.63,26.63,0,0,1-8.53-11.22c-3.31,6.2-7.12,10.63-10.86,9.23-3.2-1.19-5.3-4.2-7.2-7-.36-.55-.72-1.09-1.09-1.63a39.38,39.38,0,0,1-6,6.27,31.76,31.76,0,0,1-14.6,7.07c.41-.08,2.83-6,3.31-6.7a34.1,34.1,0,0,1,5.22-6.27,40.7,40.7,0,0,1,8.25-6.12c-6-9.2-11.47-18.72-14.55-29.2-.73-2.49-1.32-5.15-.62-7.65a10.4,10.4,0,0,1,3.29-4.89l-.06,0h0c-1.75.93-3.49,1.9-5.21,2.89-.83.47-1.67.95-2.49,1.44l-1,.61c.26,1.07.45,2.1.6,3,.17,1.06.06,13.62-.94,13.26a5.83,5.83,0,0,1-2.74-2.68,26.36,26.36,0,0,1-3.47-9.44l-.11.07c-1,.65-2,1.31-2.93,2-3,2.08-5.86,4.51-8.85,6.64-.58.41-1.15.83-1.74,1.21l-.17.11a40.52,40.52,0,0,1,6,6.78,38,38,0,0,1,4.13,7.29c.43,1,1.59,7,2.27,7.34a67.37,67.37,0,0,1-9.45-5.67,36.58,36.58,0,0,1-8.89-10,32.73,32.73,0,0,0-4.31,10.12c-3.37,12.32-8.08,23.94-13.2,35.49.17.28.34.59.51.94C104.86,216,105.21,222.35,104.29,227.92Zm60.14,11.47a5.84,5.84,0,0,1-3-2.35,26.66,26.66,0,0,1-5.35-19.42,4.49,4.49,0,0,1,1.14-2.79c3.47,1.79,5.63,7.63,6.66,11.28C164.15,227.14,165.47,239.63,164.43,239.39ZM178,211.91A363.12,363.12,0,0,0,163,265.8c-.11.56-1,.32-.87-.24a364.34,364.34,0,0,1,14.94-53.89C177.31,211.13,178.17,211.36,178,211.91Zm46.12-11c-.53,1.67-1.5,6.05-3.76,5.08s-2.91-10.32-2.91-12.44a35.8,35.8,0,0,1,.92-7.12,41.3,41.3,0,0,1,4.43-12.63A40.6,40.6,0,0,1,224.1,200.89Zm-15,12.16c3.45,12.2,8.66,23.76,13.88,35.28.24.52-.54,1-.77.45-5.26-11.58-10.51-23.22-14-35.49A.45.45,0,0,1,209.1,213.05Zm-24.16,24.09a22.86,22.86,0,0,1-6.36-1,48.39,48.39,0,0,1,5.74-5.15c-.06-.62-.12-1.24-.19-1.86q-.91-8.55-2-17.1c-.08-.57.82-.56.89,0q1.16,9.16,2.11,18.34a36.77,36.77,0,0,1,8.2-4.56c2.84-1.11,13.54-4.55,14.7-.21s-9.76,8.55-12.54,9.59a29.48,29.48,0,0,1-9.68,1.9q1.71,17.56,2.72,35.18.49,8.59.82,17.19c0,.58-.87.58-.89,0Q187.48,263.26,184.94,237.14Zm-52.31,16.77c.11.57-.75.81-.86.24a110.07,110.07,0,0,1-1.86-27.53c0-.58.93-.58.9,0A109.08,109.08,0,0,0,132.63,253.91Zm-10.26-13.58a237.25,237.25,0,0,0,6-28.4c-.79-.42-1.57-.86-2.33-1.35-2.08-1.34-12.62-9.7-10.77-12.82s11,1.73,14.43,3.75c.47-4.58.82-9.18,1-13.79,0-.57.93-.57.9,0-.21,4.78-.58,9.54-1.08,14.29l.13.08a33.74,33.74,0,0,1,12,13.33c-.08-.16-7.56-.85-8.34-1.08a30.28,30.28,0,0,1-5.12-2,238.5,238.5,0,0,1-6,28.21A.45.45,0,0,1,122.37,240.33Z"/><path class="cls-10" d="M235.52,208.24c-.91.62-10,4.61-10,4.75.59-4.92,3.67-9.15,6.77-13a54.6,54.6,0,0,1,5.66-6.3q1.73,4.79,3.4,9.57A36.58,36.58,0,0,1,235.52,208.24Z"/><path class="cls-10" d="M242.05,202.52q-1.68-4.74-3.38-9.47c.3-.26.59-.54.91-.79a28.62,28.62,0,0,1,2.62-1.85c1.09,2.58,2.21,5.15,3.38,7.69-.71,1-1.35,1.79-1.74,2.29C243.27,201.13,242.67,201.84,242.05,202.52Z"/><path class="cls-10" d="M220.34,206c-2.28-1-2.91-10.32-2.91-12.44a35.8,35.8,0,0,1,.92-7.12,41.3,41.3,0,0,1,4.43-12.63,40.6,40.6,0,0,1,1.32,27.11C223.57,202.56,222.6,206.94,220.34,206Z"/><path class="cls-10" d="M203.17,161.15c.94-2.52,5.33-8.8,10.1-13.05l.83.52c2,1.25,4.6,2.62,7.08,4.19C214.78,156.79,203.61,160,203.17,161.15Z"/><path class="cls-10" d="M227.24,238.78c-4.34-1.55-8.4-4.31-10.66-8.33-.14-.24,16-.16,17.76.23a27,27,0,0,1,5.95,1.8c-1.9,2.65-3.65,5.43-5.29,8.1A38.19,38.19,0,0,1,227.24,238.78Z"/><path class="cls-10" d="M212.42,264.14A35.61,35.61,0,0,1,204.55,246a42.4,42.4,0,0,1,17.15,17.35c.1.18.24.42.42.71a17.56,17.56,0,0,1-1.83,2,24.54,24.54,0,0,1-3.38,2.61l-.19-.17A34.06,34.06,0,0,1,212.42,264.14Z"/><path class="cls-10" d="M193.35,225.83c2.84-1.11,13.54-4.55,14.7-.21s-9.76,8.55-12.54,9.59a29.48,29.48,0,0,1-9.68,1.9q-.33-3.36-.68-6.72A36.77,36.77,0,0,1,193.35,225.83Z"/><path class="cls-10" d="M178.58,236.16a48.39,48.39,0,0,1,5.74-5.15q.31,3.06.62,6.13A22.86,22.86,0,0,1,178.58,236.16Z"/><path class="cls-10" d="M131.41,165.47a38,38,0,0,1,4.13,7.29c.43,1,1.59,7,2.27,7.34a67.37,67.37,0,0,1-9.45-5.67,36.58,36.58,0,0,1-8.89-10,21.11,21.11,0,0,1,6-5.79A40.52,40.52,0,0,1,131.41,165.47Z"/><path class="cls-10" d="M170.24,187.07a39.38,39.38,0,0,1-6,6.27,31.76,31.76,0,0,1-14.6,7.07c.41-.08,2.83-6,3.31-6.7a34.1,34.1,0,0,1,5.22-6.27,40.7,40.7,0,0,1,8.25-6.12C167.7,183.25,169,185.16,170.24,187.07Z"/><path class="cls-10" d="M126,210.58c-2.08-1.34-12.62-9.7-10.77-12.82s11,1.73,14.43,3.75c-.36,3.48-.82,7-1.33,10.42C127.56,211.51,126.78,211.07,126,210.58Z"/><path class="cls-10" d="M130.65,202.09a33.74,33.74,0,0,1,12,13.33c-.08-.16-7.56-.85-8.34-1.08a30.28,30.28,0,0,1-5.12-2q.78-5.16,1.33-10.35Z"/><path class="cls-10" d="M149.24,241.45c-.81.4-2.63,9.57-3.37,11.11-.31.66-.64,1.31-1,1.94a39.33,39.33,0,0,1-3.14,4.81q-1.23,1.63-2.61,3.15c-.2.21-.43.48-.68.79a22.93,22.93,0,0,1-2.94-1.89,26.52,26.52,0,0,1-3.07-2.79c.35-.77.68-1.42.94-1.89A37,37,0,0,1,149.24,241.45Z"/><path class="cls-10" d="M170.76,278.48c2.59-5.81,7.43-12,13-15.15-.31.17-.85,14.05-1.46,15.95a26.35,26.35,0,0,1-5.16,8.63c-1-.84-2-1.71-2.93-2.59-1.45-1.34-2.88-2.7-4.31-4.06A21.8,21.8,0,0,1,170.76,278.48Z"/><path class="cls-10" d="M102,210.09c.17.28.34.59.51.94,2.39,4.93,2.74,11.32,1.82,16.89a25.48,25.48,0,0,0-3.17-3,16.92,16.92,0,0,0-4.66-2.67C98.31,218.2,100.16,214.14,102,210.09Z"/><path class="cls-10" d="M192.46,180a31.58,31.58,0,0,1,5,6.54c.55.93,5.07,12.65,4,12.68a5.86,5.86,0,0,1-3.53-1.48,26.63,26.63,0,0,1-8.53-11.22C190.47,184.47,191.5,182.25,192.46,180Z"/><path class="cls-10" d="M164.43,239.39a5.84,5.84,0,0,1-3-2.35,26.66,26.66,0,0,1-5.35-19.42,4.49,4.49,0,0,1,1.14-2.79c3.47,1.79,5.63,7.63,6.66,11.28C164.15,227.14,165.47,239.63,164.43,239.39Z"/><path class="cls-10" d="M146.37,147.54c.17,1.06.06,13.62-.94,13.26a5.83,5.83,0,0,1-2.74-2.68,26.36,26.36,0,0,1-3.47-9.44l.45-.29q3-2,6.1-3.84C146,145.62,146.22,146.65,146.37,147.54Z"/><path class="cls-5" d="M199.15,144.76c2.07,5,1.17,10.77-.17,16A155.2,155.2,0,0,1,192.46,180c-1,2.27-2,4.49-3.07,6.52-3.31,6.2-7.12,10.63-10.86,9.23-3.2-1.19-5.3-4.2-7.2-7-.36-.55-.72-1.09-1.09-1.63-1.27-1.91-2.54-3.82-3.79-5.75-6-9.2-11.47-18.72-14.55-29.2-.73-2.49-1.32-5.15-.62-7.65a10.4,10.4,0,0,1,3.29-4.89,23.91,23.91,0,0,1,6.32-3.83c-.13,8.94,2.21,17,10.14,21.95a12.91,12.91,0,0,0,8.36,2.24c3.86-.52,7-3.54,8.75-7a22,22,0,0,0,1.61-15.5l-.76-3.28a25.28,25.28,0,0,1,4.52,3.06A20.32,20.32,0,0,1,199.15,144.76Z"/><path class="cls-4" d="M189.75,137.4a22,22,0,0,1-1.61,15.5c-1.73,3.5-4.89,6.52-8.75,7A12.91,12.91,0,0,1,171,157.7c-7.93-4.93-10.27-13-10.14-21.95.14-9.68,3.18-20.36,5.19-29.13a1,1,0,0,0,.28-.11,70,70,0,0,0,3.3,7.21,12.42,12.42,0,0,0,3.44,4.46c1.74,1.25,4.93,1.55,8.17,1.44a11.79,11.79,0,0,0,4.23.06c.05,0,.08,0,.12,0L189,134.12Z"/><path class="cls-4" d="M166.36,106.51a71,71,0,0,0,3.3,7.2,12.37,12.37,0,0,0,3.44,4.47c1.73,1.25,4.93,1.55,8.17,1.44a16.92,16.92,0,0,1-6.77-3.09,21.45,21.45,0,0,1-7.25-10c-.38-1.09,1.34-1.56,1.73-.48a19.49,19.49,0,0,0,6.43,8.9c2.65,2,6.23,3.58,9.62,3a1,1,0,0,1,1.07,1.23c1.26-.17,2.41-.37,3.29-.55a18,18,0,0,0,10.33-7,33.31,33.31,0,0,0,5.13-10.58c.38-1.25.72-2.56,1-3.89a55.76,55.76,0,0,0,.75-18.24c-1.32-10.2-5.69-19.38-13.72-23.06a24,24,0,0,1,.44,6,35.56,35.56,0,0,1-1.64,11.17,14.83,14.83,0,0,1-5.51,7.43c-3,2-6.16,2.08-9.68,2.56h0A6.93,6.93,0,0,0,173,84.17c-1.57,1.24-1.76,3.5-2.09,5.46a14.57,14.57,0,0,1-2.59,6.29A9.4,9.4,0,0,1,167,97.43a14.89,14.89,0,0,1,.11,7.89A1.86,1.86,0,0,1,166.36,106.51Zm37.22-25c-.5-.3-1-.6-1.52-.86l-.45-.21-.3-.13-.38-.13c-.27-.08-.56-.16-.85-.22l-.48-.08-.13,0c-.92-.1-1.85-.15-2.77-.16a1.79,1.79,0,1,1,0-3.58,18.41,18.41,0,0,1,5.18.6,16.94,16.94,0,0,1,3.51,1.69,1.79,1.79,0,0,1-1.81,3.1Zm-6.89,7c-.8-.83.45-2.1,1.27-1.27a3.29,3.29,0,0,0,2.58,1,8.18,8.18,0,0,0,1.57-.3,1.56,1.56,0,0,0,1-.73.89.89,0,0,1,1.54.91c-.74,1.41-2.58,1.79-4.05,1.9A5.11,5.11,0,0,1,196.69,88.47ZM194,96.64A3.88,3.88,0,0,0,195.64,95a1.66,1.66,0,0,0,.15-.41l0-.06-.15-.14c-.34-.32-.69-.64-1-1a10.86,10.86,0,0,1-2.66-4.9c-.25-1.13,1.48-1.61,1.73-.48a9.78,9.78,0,0,0,3.15,5,2.26,2.26,0,0,1,.77,1.37,3,3,0,0,1-.46,1.58,5.44,5.44,0,0,1-2.2,2.16C193.9,98.73,193,97.18,194,96.64Zm-8.21,6.75a.9.9,0,0,1,1.1-.63l.59.15a1.8,1.8,0,0,1,.32.06l.23,0a11.78,11.78,0,0,0,1.45.1,9.81,9.81,0,0,0,3-.35.9.9,0,0,1,.48,1.74,12.73,12.73,0,0,1-6.57,0A.9.9,0,0,1,185.8,103.39Zm-9.07-15.21a.92.92,0,0,1,1.27,0,6,6,0,0,0,8-.75c.77-.85,2,.42,1.27,1.27a7.69,7.69,0,0,1-10.57.75A.92.92,0,0,1,176.73,88.18Z"/><path class="cls-7" d="M188.73,49.13a10.44,10.44,0,0,1,4.16,6.75c8,3.68,12.4,12.86,13.72,23.06a55.76,55.76,0,0,1-.75,18.24c-.29,1.33-.63,2.64-1,3.89a3.67,3.67,0,0,0,2.75-.14,22.65,22.65,0,0,0,8.7-5c2.36-2.41,3.84-5.92,3.07-9.22s-3.44-5.7-4.67-8.81c-1.39-3.53-.77-7.51-1.44-11.23a16.5,16.5,0,0,0-2.68-6.46,33.18,33.18,0,0,0-5.43-5.62l-7.74-6.8a7.7,7.7,0,0,0-2.9-1.87,4.83,4.83,0,0,0-4.58,1.49c-.13.15-.26.29-.38.44A6.85,6.85,0,0,0,188.73,49.13Z"/><path class="cls-4" d="M195.81,94.63s0,0,0,0Z"/><path class="cls-4" d="M201.35,80.32l.2.1Z"/><path class="cls-4" d="M199.52,79.87Z"/><path class="cls-4" d="M163.33,105.12a25.86,25.86,0,0,1-2.47-2.91,22.57,22.57,0,0,1,3-2.45l.49-.32c0,.14.08.27.11.42a1.65,1.65,0,0,1,.06.32l0,.09v0c0,.21,0,.41,0,.62a.93.93,0,0,0,.9.9.9.9,0,0,0,.89-.9,7.69,7.69,0,0,0-.52-2.56,12.27,12.27,0,0,0,1.11-.94,14.89,14.89,0,0,1,.1,7.89,1.9,1.9,0,0,1-.76,1.19,1,1,0,0,1-.28.11C165.34,106.78,164.37,106.15,163.33,105.12Z"/><path class="cls-7" d="M206,80.87a1.82,1.82,0,0,0-.65-2.45,17.38,17.38,0,0,0-3.5-1.69,18.45,18.45,0,0,0-5.18-.6,1.79,1.79,0,0,0,0,3.58c.92,0,1.84.06,2.76.15h0l.15,0,.47.08a8.15,8.15,0,0,1,.85.22l.38.13.3.13.45.21c.51.27,1,.56,1.51.86A1.84,1.84,0,0,0,206,80.87Zm-6.51-1Zm1.83.45.2.1Z"/><path class="cls-6" d="M166.43,100.93a.9.9,0,0,1-.89.9.93.93,0,0,1-.9-.9c0-.21,0-.41,0-.62v0l0-.09a1.65,1.65,0,0,0-.06-.32c0-.15-.07-.28-.11-.42.54-.37,1-.71,1.51-1.07A7.69,7.69,0,0,1,166.43,100.93Z"/><path class="cls-6" d="M181.27,119.62a16.85,16.85,0,0,1-6.77-3.09,21.57,21.57,0,0,1-7.25-10c-.39-1.09,1.35-1.56,1.73-.48a19.4,19.4,0,0,0,6.42,8.9c2.66,2,6.24,3.57,9.63,3a1,1,0,0,1,1.07,1.23.7.7,0,0,1-.48.45s-.07,0-.12,0A11.79,11.79,0,0,1,181.27,119.62Z"/><path class="cls-6" d="M185.79,103.39a.92.92,0,0,1,1.11-.63,5.63,5.63,0,0,0,.59.14l.33.06.22,0a11.78,11.78,0,0,0,1.45.1,9.81,9.81,0,0,0,3-.35.9.9,0,1,1,.48,1.73,12.73,12.73,0,0,1-6.57,0A.91.91,0,0,1,185.79,103.39Z"/><path class="cls-6" d="M198,87.2a3.37,3.37,0,0,0,2.57,1,7.45,7.45,0,0,0,1.58-.3,1.56,1.56,0,0,0,1-.73.9.9,0,0,1,1.23-.32.92.92,0,0,1,.32,1.23c-.75,1.41-2.6,1.79-4.06,1.9a5.08,5.08,0,0,1-3.95-1.54C195.88,87.64,197.15,86.37,198,87.2Z"/><path class="cls-6" d="M182.23,91.17a7.79,7.79,0,0,1-5.5-1.72.91.91,0,0,1,0-1.27.92.92,0,0,1,1.27,0,6,6,0,0,0,8-.75c.79-.85,2,.42,1.27,1.27A7.81,7.81,0,0,1,182.23,91.17Z"/><path class="cls-6" d="M194.91,98.19A5.47,5.47,0,0,0,197.12,96a2.88,2.88,0,0,0,.46-1.58,2.16,2.16,0,0,0-.78-1.37,9.83,9.83,0,0,1-3.14-5c-.25-1.12-2-.64-1.73.48a10.72,10.72,0,0,0,2.66,4.89c.32.35.66.65,1,1l.16.16a.13.13,0,0,1,0,.06,1.4,1.4,0,0,1-.16.4A3.7,3.7,0,0,1,194,96.64C193,97.18,193.89,98.73,194.91,98.19Zm.9-3.56s0,0,0,0Z"/><path class="cls-7" d="M164.4,99.44l-.49.32a22.57,22.57,0,0,0-3,2.45,21,21,0,0,0-2.17,2.35c.05-.06-2.43-2.46-2.7-2.71a15.8,15.8,0,0,1-3.05-4.12,21.29,21.29,0,0,1-2.28-10.12,16.39,16.39,0,0,1,.5-4.13c1.05-3.84,3.83-6.58,6.14-9.68,4.35-5.84,6.55-13,9.93-19.42,3.52-6.73,12.75-9,19.6-6.25a10,10,0,0,1,1.9,1,10.44,10.44,0,0,1,4.16,6.75,25,25,0,0,1,.45,6,36.18,36.18,0,0,1-1.65,11.16,14.83,14.83,0,0,1-5.5,7.43c-3.05,2-6.17,2.09-9.69,2.56h0A6.89,6.89,0,0,0,173,84.17c-1.57,1.24-1.77,3.49-2.1,5.47a14.77,14.77,0,0,1-2.59,6.29,10.91,10.91,0,0,1-1.31,1.5,12.27,12.27,0,0,1-1.11.94C165.44,98.73,164.94,99.07,164.4,99.44Z"/><path class="cls-7" d="M128.35,211.93c.51-3.46,1-6.94,1.33-10.42.47-4.58.82-9.18,1-13.79,0-.57.93-.57.9,0-.21,4.78-.58,9.54-1.08,14.29q-.56,5.19-1.33,10.35a238.5,238.5,0,0,1-6,28.21.45.45,0,0,1-.86-.24A237.25,237.25,0,0,0,128.35,211.93Z"/><path class="cls-7" d="M131.77,254.15a110.07,110.07,0,0,1-1.86-27.53c0-.58.93-.58.9,0a109.08,109.08,0,0,0,1.82,27.29C132.74,254.48,131.88,254.72,131.77,254.15Z"/><path class="cls-7" d="M163,265.8c-.11.56-1,.32-.87-.24a364.34,364.34,0,0,1,14.94-53.89c.2-.54,1.06-.31.87.24A363.12,363.12,0,0,0,163,265.8Z"/><path class="cls-7" d="M184.94,237.14q-.3-3.07-.62-6.13c-.06-.62-.12-1.24-.19-1.86q-.91-8.55-2-17.1c-.08-.57.82-.56.89,0q1.16,9.16,2.11,18.34.34,3.36.68,6.72,1.71,17.56,2.72,35.18.49,8.59.82,17.19c0,.58-.87.58-.89,0Q187.48,263.26,184.94,237.14Z"/><path class="cls-7" d="M209.1,213.05c3.45,12.2,8.66,23.76,13.88,35.28.24.52-.54,1-.77.45-5.26-11.58-10.51-23.22-14-35.49A.45.45,0,0,1,209.1,213.05Z"/><path class="cls-7" d="M247.67,218.89c.18.55-.68.79-.86.24q-2.66-8-5.46-15.89-1.68-4.78-3.4-9.57Q233.63,181.81,229,170c-.21-.54.66-.77.87-.24q4.51,11.58,8.76,23.26,1.71,4.72,3.38,9.47C244,208,245.85,213.42,247.67,218.89Z"/></g></g></svg>