<svg xmlns="http://www.w3.org/2000/svg" viewBox="0 0 879.06 32.82"><defs><style>.cls-1{fill:#3b8aac;}</style></defs><g id="Layer_2" data-name="Layer 2"><g id="Layer_5" data-name="Layer 5"><rect class="cls-1" x="2.09" y="2.09" width="28.63" height="28.63" rx="9.26" transform="translate(-6.8 16.41) rotate(-45)"/><rect class="cls-1" x="30.3" y="2.09" width="28.63" height="28.63" rx="9.26" transform="translate(1.46 36.36) rotate(-45)"/><rect class="cls-1" x="58.51" y="2.09" width="28.63" height="28.63" rx="9.26" transform="translate(9.73 56.3) rotate(-45)"/><rect class="cls-1" x="86.72" y="2.09" width="28.63" height="28.63" rx="9.26" transform="translate(17.99 76.25) rotate(-45)"/><rect class="cls-1" x="114.93" y="2.09" width="28.63" height="28.63" rx="9.26" transform="translate(26.25 96.19) rotate(-45)"/><rect class="cls-1" x="143.13" y="2.09" width="28.63" height="28.63" rx="9.26" transform="translate(34.51 116.14) rotate(-45)"/><rect class="cls-1" x="171.34" y="2.09" width="28.63" height="28.63" rx="9.26" transform="translate(42.77 136.09) rotate(-45)"/><rect class="cls-1" x="199.55" y="2.09" width="28.63" height="28.63" rx="9.26" transform="translate(51.04 156.03) rotate(-45)"/><rect class="cls-1" x="227.76" y="2.09" width="28.63" height="28.63" rx="9.26" transform="translate(59.3 175.98) rotate(-45)"/><rect class="cls-1" x="255.97" y="2.09" width="28.63" height="28.63" rx="9.26" transform="translate(67.56 195.92) rotate(-45)"/><rect class="cls-1" x="284.17" y="2.09" width="28.63" height="28.63" rx="9.26" transform="translate(75.82 215.87) rotate(-45)"/><rect class="cls-1" x="312.38" y="2.09" width="28.63" height="28.63" rx="9.26" transform="translate(84.08 235.82) rotate(-45)"/><rect class="cls-1" x="340.59" y="2.09" width="28.63" height="28.63" rx="9.26" transform="translate(92.34 255.76) rotate(-45)"/><rect class="cls-1" x="368.8" y="2.09" width="28.63" height="28.63" rx="9.26" transform="translate(100.61 275.71) rotate(-45)"/><rect class="cls-1" x="397" y="2.09" width="28.63" height="28.63" rx="9.26" transform="translate(108.87 295.65) rotate(-45)"/><rect class="cls-1" x="425.21" y="2.09" width="28.63" height="28.63" rx="9.26" transform="translate(117.13 315.6) rotate(-45)"/><rect class="cls-1" x="453.42" y="2.09" width="28.63" height="28.63" rx="9.26" transform="translate(125.39 335.55) rotate(-45)"/><rect class="cls-1" x="481.63" y="2.09" width="28.63" height="28.63" rx="9.26" transform="translate(133.65 355.49) rotate(-45)"/><rect class="cls-1" x="509.84" y="2.09" width="28.63" height="28.63" rx="9.26" transform="translate(141.92 375.44) rotate(-45)"/><rect class="cls-1" x="538.04" y="2.09" width="28.63" height="28.63" rx="9.26" transform="translate(150.18 395.38) rotate(-45)"/><rect class="cls-1" x="566.25" y="2.09" width="28.63" height="28.63" rx="9.26" transform="translate(158.44 415.33) rotate(-45)"/><rect class="cls-1" x="594.46" y="2.09" width="28.63" height="28.63" rx="9.26" transform="translate(166.7 435.28) rotate(-45)"/><rect class="cls-1" x="622.67" y="2.09" width="28.63" height="28.63" rx="9.26" transform="translate(174.96 455.22) rotate(-45)"/><rect class="cls-1" x="650.87" y="2.09" width="28.63" height="28.63" rx="9.26" transform="translate(183.23 475.17) rotate(-45)"/><rect class="cls-1" x="679.08" y="2.09" width="28.63" height="28.63" rx="9.26" transform="translate(191.49 495.11) rotate(-45)"/><rect class="cls-1" x="707.29" y="2.09" width="28.63" height="28.63" rx="9.26" transform="translate(199.75 515.06) rotate(-45)"/><rect class="cls-1" x="735.5" y="2.09" width="28.63" height="28.63" rx="9.26" transform="translate(208.01 535.01) rotate(-45)"/><rect class="cls-1" x="763.71" y="2.09" width="28.63" height="28.63" rx="9.26" transform="translate(216.27 554.95) rotate(-45)"/><rect class="cls-1" x="791.91" y="2.09" width="28.63" height="28.63" rx="9.26" transform="translate(224.53 574.9) rotate(-45)"/><rect class="cls-1" x="820.12" y="2.09" width="28.63" height="28.63" rx="9.26" transform="translate(232.8 594.84) rotate(-45)"/><rect class="cls-1" x="848.33" y="2.09" width="28.63" height="28.63" rx="9.26" transform="translate(241.06 614.79) rotate(-45)"/></g></g></svg>