<svg xmlns="http://www.w3.org/2000/svg" viewBox="0 0 73.78 167.69"><defs><style>.cls-1{fill:#30728f;}</style></defs><g id="Layer_2" data-name="Layer 2"><g id="Layer_5" data-name="Layer 5"><path class="cls-1" d="M73.21,139.48c-.65-2.19-2.29-4.44-4.57-4.46a4.63,4.63,0,0,0-4,3.06,21,21,0,0,0-1.29,8.21,44,44,0,0,0,2.26,11.78q-4.56-5.28-8.88-10.77a16.33,16.33,0,0,0,2.37-4.11,9,9,0,0,0,.32-5.32c-.31-1.06-1.1-2.14-2.2-2.15a2.21,2.21,0,0,0-1.92,1.47,10.09,10.09,0,0,0-.62,4,19.63,19.63,0,0,0,.72,4.44c-.63-.81-1.27-1.61-1.89-2.43q-2.37-3.15-4.65-6.37l.29-.12.07-.27,0,0A34.81,34.81,0,0,0,55,128a18.59,18.59,0,0,0,1.5-11c-.48-2.23-1.94-4.6-4.21-4.79A4.62,4.62,0,0,0,48,115a20.83,20.83,0,0,0-1.91,8.09,43.43,43.43,0,0,0,1.28,11.6q-4.34-6.28-8.2-12.88a16.32,16.32,0,0,0,3-3.84,9,9,0,0,0,1-5.23,2.68,2.68,0,0,0-1.9-2.42,2.21,2.21,0,0,0-2.1,1.21,9.9,9.9,0,0,0-1.14,3.83,19.72,19.72,0,0,0,.15,4.74c-.49-.87-1-1.74-1.47-2.62q-1.86-3.37-3.56-6.84l.13-.11.21-.09,0-.13c2.2-2,5.2-4.82,6.84-7.67a18.66,18.66,0,0,0,2.86-10.7c-.2-2.27-1.36-4.8-3.59-5.28a4.62,4.62,0,0,0-4.53,2.2,20.91,20.91,0,0,0-2.9,7.79A43.61,43.61,0,0,0,32,108.24a149.33,149.33,0,0,1-5.83-14.1,16.76,16.76,0,0,0,3.28-3.61,9,9,0,0,0,1.43-5.13,2.67,2.67,0,0,0-1.7-2.56,2.21,2.21,0,0,0-2.19,1,9.83,9.83,0,0,0-1.44,3.73,18.59,18.59,0,0,0-.25,4c-.32-1-.64-1.94-.95-2.91-.8-2.6-1.52-5.23-2.16-7.87,2.57-1.44,6.68-3.8,9.14-6.52a18.71,18.71,0,0,0,5.06-9.85c.28-2.26-.31-5-2.39-5.92a4.61,4.61,0,0,0-4.89,1.19,21,21,0,0,0-4.49,7A45.73,45.73,0,0,0,21.89,79.4a125.92,125.92,0,0,1-2.46-14.14,16.62,16.62,0,0,0,4.06-2.64A8.91,8.91,0,0,0,26.19,58c.2-1.08,0-2.41-1-2.91a2.21,2.21,0,0,0-2.38.44,10,10,0,0,0-2.34,3.24,18.63,18.63,0,0,0-1.3,3.93c-.16-1.7-.3-3.4-.38-5.11-.1-2.09-.13-4.2-.11-6.3,2.87-.76,7-2,9.89-3.84A18.65,18.65,0,0,0,36,39.22c.85-2.12,1-4.9-.82-6.33a4.63,4.63,0,0,0-5-.08A21,21,0,0,0,24,38.45a43.39,43.39,0,0,0-5.25,9.88,101.29,101.29,0,0,1,1.63-14.94,16.69,16.69,0,0,0,4.68-1,9,9,0,0,0,4.16-3.33A2.65,2.65,0,0,0,29.34,26,2.22,2.22,0,0,0,27,25.55a9.93,9.93,0,0,0-3.35,2.19,19.78,19.78,0,0,0-2.81,3.5c.34-1.6.7-3.2,1.12-4.79.29-1.09.62-2.18.95-3.26,2.39-1.74,5.74-4.33,7.69-7.06a18.68,18.68,0,0,0,3.9-10.37c0-2.28-.88-4.91-3.05-5.6A4.61,4.61,0,0,0,26.69,1.9,20.92,20.92,0,0,0,23,9.37a47,47,0,0,0-1.24,14c-.79,2.62-1.46,5.28-2,8a19.77,19.77,0,0,0-.9-5,10.1,10.1,0,0,0-1.95-3.49,2.23,2.23,0,0,0-2.31-.72,2.66,2.66,0,0,0-1.32,2.77,9,9,0,0,0,2.13,4.89,17.78,17.78,0,0,0,4,3.28,102.18,102.18,0,0,0-1.69,16.18,44.86,44.86,0,0,0-3.61-11.92,20.94,20.94,0,0,0-5-6.64,4.61,4.61,0,0,0-5-.83C2.17,31,1.78,33.71,2.23,36A18.7,18.7,0,0,0,8,45.4C10.69,48,15,50,17.71,51.28l0,.08,0,0c0,.74,0,1.49,0,2.23.05,3.12.23,6.24.52,9.35a18.68,18.68,0,0,0-2-3.86,10,10,0,0,0-2.84-2.82,2.22,2.22,0,0,0-2.42,0,2.67,2.67,0,0,0-.5,3,8.89,8.89,0,0,0,3.41,4.1,16.68,16.68,0,0,0,4.58,2,127,127,0,0,0,2.39,13.81,44.52,44.52,0,0,0-8-9.36,20.86,20.86,0,0,0-7.23-4.1A4.61,4.61,0,0,0,.76,66.93c-1.41,1.79-.67,4.48.64,6.35a18.62,18.62,0,0,0,9.06,6.36c3.34,1.23,7.88,1.43,10.84,1.51.32,1.32.66,2.64,1,3.94.59,2.16,1.25,4.3,2,6.43a18.93,18.93,0,0,0-2.59-3,10,10,0,0,0-3.39-2.12,2.22,2.22,0,0,0-2.38.48,2.68,2.68,0,0,0,.18,3.07,9,9,0,0,0,4.22,3.25,16.74,16.74,0,0,0,4.83.92A150.85,150.85,0,0,0,31,108.39a43.11,43.11,0,0,0-10.16-5,20.88,20.88,0,0,0-8.25-1,4.61,4.61,0,0,0-4,3c-.6,2.2,1.13,4.38,3.06,5.6a18.54,18.54,0,0,0,10.81,2.35,34.31,34.31,0,0,0,9.76-2.49c.56,1.12,1.12,2.24,1.7,3.36,1,1.88,2,3.75,3,5.6a18.56,18.56,0,0,0-3.32-2.31,10.14,10.14,0,0,0-3.82-1.19,2.2,2.2,0,0,0-2.17,1.08,2.66,2.66,0,0,0,.95,2.92,9,9,0,0,0,4.92,2.06,16.15,16.15,0,0,0,4.73-.31q3.63,6.22,7.69,12.17A42,42,0,0,0,36.36,130a21,21,0,0,0-8.27-.79,4.62,4.62,0,0,0-3.95,3.12c-.55,2.21,1.22,4.36,3.18,5.53a18.67,18.67,0,0,0,10.87,2.1,34.89,34.89,0,0,0,9.75-2.75c.81,1.15,1.63,2.29,2.46,3.43q2,2.78,4.16,5.51A20.38,20.38,0,0,0,50,144a10,10,0,0,0-4-.38,2.21,2.21,0,0,0-1.91,1.49c-.27,1.07.59,2.1,1.53,2.67a9,9,0,0,0,5.23,1,17,17,0,0,0,4.77-1.35q4.47,5.73,9.22,11.23a44.32,44.32,0,0,0-10.92-5.17,20.88,20.88,0,0,0-8.27-.8,4.6,4.6,0,0,0-4,3.1c-.55,2.22,1.22,4.37,3.18,5.54,3.21,1.93,7.13,2.37,10.87,2.12,3.58-.25,7.86-1.95,10.6-3.09,1.26,1.44,2.51,2.89,3.79,4.31.85.94,1.7,1.88,2.56,2.81.42.46,1.11-.23.68-.69-2.13-2.33-4.22-4.68-6.3-7.06,1.78-2.37,4.36-6,5.45-9.26C73.72,147,74.27,143.07,73.21,139.48Z"/></g></g></svg>