<svg xmlns="http://www.w3.org/2000/svg" viewBox="0 0 145.77 145.77"><defs><style>.cls-1{fill:#c93f3f;}.cls-2{fill:#e5aab1;}.cls-3{fill:#fff;}</style></defs><g id="Layer_2" data-name="Layer 2"><g id="Layer_5" data-name="Layer 5"><circle class="cls-1" cx="72.88" cy="72.88" r="72.88"/><polyline class="cls-2" points="23.19 45.47 23.19 102.44 23.87 102.44 23.87 45.47"/><polyline class="cls-2" points="23.7 45.76 73.04 17.28 72.7 16.69 23.36 45.18"/><polyline class="cls-2" points="72.7 17.28 122.04 45.77 122.38 45.18 73.04 16.69"/><polyline class="cls-2" points="121.87 45.47 121.87 102.44 122.55 102.44 122.55 45.47"/><path class="cls-2" d="M23.92,101.1l-.34.59.58.33.34-.58Zm.67-1.17-.34.59.59.33.34-.58Zm.68-1.17-.34.58.58.34.34-.58Zm.67-1.17-.34.58.59.34.34-.58Zm.68-1.17-.34.58.59.34.33-.58Zm.67-1.17-.33.58.58.34.34-.58ZM28,94.08l-.34.58.59.34.34-.58Zm.68-1.17-.34.58.58.34.34-.59Zm.67-1.17-.34.58.59.34.34-.59ZM30,90.57l-.34.58.59.34.33-.59Zm.67-1.18-.33.59.58.34.34-.59Zm.68-1.17-.34.59.59.34.33-.59ZM32,87.05l-.34.59.58.34.34-.59Zm.67-1.17-.34.59.59.34.34-.59Zm.68-1.17L33,85.3l.58.34.34-.59Zm.67-1.17-.33.59.58.33.34-.58Zm.68-1.17-.34.59.59.33.33-.58Zm.67-1.17-.33.59.58.33.34-.58ZM36.08,80l-.34.58.59.34.34-.58Zm.68-1.17-.34.58.58.34.34-.58Zm.67-1.17-.34.58.59.34L38,78Zm.68-1.17-.34.58.59.34.33-.58Zm.67-1.17-.33.58.58.34.34-.58Zm.68-1.17-.34.58.59.34.33-.59ZM40.14,73l-.34.58.58.34.34-.59Zm.67-1.17-.34.58.59.34.34-.59Zm.68-1.18-.34.59.58.34.34-.59Zm.67-1.17-.33.59.58.34.34-.59Zm.68-1.17-.34.59.59.34.33-.59Zm.67-1.17-.33.59.58.34.34-.59ZM44.19,66l-.34.59.59.34.34-.59Zm.68-1.17-.34.59.58.34.34-.59Zm.67-1.17-.34.59.59.33.34-.58Zm.68-1.17-.34.59.59.33.33-.58Zm.67-1.17-.33.58.58.34.34-.58Zm.68-1.17-.34.58.59.34.33-.58ZM48.25,59l-.34.58.58.34.34-.58Zm.67-1.17-.34.58.59.34.34-.58Zm.68-1.17-.34.58.58.34.34-.58Zm.67-1.17-.33.58.58.34.34-.59ZM51,54.28l-.34.58.59.34.33-.59Zm.67-1.17-.33.58.58.34.34-.59Zm.68-1.18-.34.59.59.34.34-.59ZM53,50.76l-.34.59.58.34.34-.59Zm.67-1.17-.34.59.59.34.34-.59Zm.68-1.17L54,49l.59.34.33-.59ZM55,47.25l-.33.59.58.34.34-.59Zm.68-1.17-.34.59.59.34.34-.59Zm.68-1.17L56,45.5l.58.33.34-.58Z"/><path class="cls-2" d="M90.06,46.09l-.34-.59-.58.34.34.58Zm.68,1.17-.34-.59-.59.34.34.58Zm.67,1.17-.34-.59-.58.34.34.58Zm.68,1.17L91.75,49l-.58.34.33.59Zm.67,1.17-.33-.59-.59.34.34.59Zm.68,1.17-.34-.59-.58.34.33.59Zm.68,1.17-.34-.59-.59.34.34.59Zm.67,1.17-.34-.59-.58.34.34.59Zm.68,1.17-.34-.59-.59.34.34.59Zm.67,1.17L95.81,56l-.59.33.34.59Zm.68,1.17-.34-.58-.58.33.33.59ZM97.5,59l-.34-.58-.59.33.34.59Zm.67,1.17-.34-.58-.58.34.34.58Zm.68,1.17-.34-.58-.59.34.34.58Zm.67,1.17-.33-.58-.59.34.34.58Zm.68,1.17-.34-.58-.58.34.33.58Zm.67,1.18-.33-.59-.59.34.34.58Zm.68,1.17-.34-.59-.58.34.34.58Zm.68,1.17-.34-.59-.59.34.34.58Zm.67,1.17-.34-.59-.58.34.34.59Zm.68,1.17-.34-.59-.59.34.34.59Zm.67,1.17-.33-.59-.59.34.34.59Zm.68,1.17-.34-.59-.58.34.33.59Zm.68,1.17-.34-.59-.59.34.34.59Zm.67,1.17-.34-.59-.58.34.34.59Zm.68,1.17-.34-.58-.59.33.34.59Zm.67,1.17-.33-.58-.59.33.34.59Zm.68,1.17-.34-.58-.58.33.33.59Zm.68,1.17-.34-.58-.59.34.34.58Zm.67,1.17-.34-.58-.58.34.34.58Zm.68,1.17-.34-.58-.59.34.34.58Zm.67,1.17-.33-.58-.59.34.34.58Zm.68,1.17-.34-.58-.58.34.33.58Zm.67,1.18-.33-.59-.59.34.34.58Zm.68,1.17-.34-.59-.58.34.34.58Zm.68,1.17-.34-.59-.59.34.34.58Zm.67,1.17-.34-.59-.58.34.34.59Zm.68,1.17-.34-.59-.59.34.34.59Zm.67,1.17-.33-.59-.59.34.34.59Zm.68,1.17-.34-.59-.58.34.33.59Zm.68,1.17-.34-.59-.59.34.34.59Zm.67,1.17-.34-.59-.58.34.34.59Zm.68,1.17-.34-.58-.59.33.34.59Zm.67,1.17-.33-.58-.59.33.34.59Zm.68,1.17-.34-.58-.58.33.33.59Zm.68,1.17-.34-.58-.59.34.34.58Zm.67,1.17-.34-.58-.58.34.34.58Zm.68,1.17-.34-.58-.59.34.34.58Z"/><path class="cls-2" d="M123.54,45.52a1.38,1.38,0,1,1-1.38-1.37A1.38,1.38,0,0,1,123.54,45.52Z"/><path class="cls-2" d="M123.54,102.45a1.38,1.38,0,1,1-1.38-1.38A1.38,1.38,0,0,1,123.54,102.45Z"/><path class="cls-2" d="M25,45.46a1.38,1.38,0,1,1-1.38-1.38A1.37,1.37,0,0,1,25,45.46Z"/><path class="cls-2" d="M25,102.37A1.38,1.38,0,1,1,23.61,101,1.37,1.37,0,0,1,25,102.37Z"/><polygon class="cls-2" points="113.29 115.07 113.29 114.73 32.02 114.73 32.02 33.8 112.95 33.8 112.95 115.07 113.29 115.07 113.29 114.73 113.29 115.07 113.63 115.07 113.63 33.13 31.35 33.13 31.35 115.41 113.63 115.41 113.63 115.07 113.29 115.07"/><polygon class="cls-2" points="97.54 97.72 97.54 97.38 48.54 97.38 48.54 48.72 97.2 48.72 97.2 97.72 97.54 97.72 97.54 97.38 97.54 97.72 97.88 97.72 97.88 48.04 47.86 48.04 47.86 98.06 97.88 98.06 97.88 97.72 97.54 97.72"/><path class="cls-2" d="M55.7,101.63l.33.59.59-.34-.33-.58ZM55,100.46l.33.59.59-.34-.34-.59Zm-.67-1.17.33.58.59-.33L54.94,99Zm-.68-1.18.34.59.59-.34-.34-.58ZM53,96.94l.34.59.58-.34-.33-.59Zm-.67-1.17.34.58.58-.33-.33-.59Zm-.67-1.18.33.59.59-.33-.34-.59ZM51,93.42l.33.59.59-.34-.34-.58Zm-.68-1.17.34.58.59-.33-.34-.59Zm-.67-1.17.34.58.59-.33-.34-.59ZM49,89.9l.34.59.58-.34-.33-.58Zm-.67-1.17.34.59.58-.34-.33-.59Zm-.67-1.17.33.58.59-.33-.34-.59ZM47,86.38l.33.59.59-.34-.34-.58Zm-.68-1.17.34.59.59-.34-.34-.58ZM45.62,84l.34.58.58-.33-.33-.59ZM45,82.86l.34.59.58-.33-.33-.59Zm-.67-1.17.33.59.59-.34-.33-.58Zm-.67-1.17.33.59.59-.34-.34-.59Zm-.68-1.17.34.58.59-.33L43.52,79Zm-.67-1.18.34.59.59-.34-.34-.58ZM41.59,77l.34.59.58-.34-.33-.59Zm-.67-1.17.34.58.58-.33-.33-.59Zm-.67-1.18.33.59.59-.33-.34-.59Zm-.67-1.17.33.59.59-.34-.34-.58Zm-.68-1.17.34.58.59-.33L39.49,72Zm-.67-1.17.34.58.58-.33-.33-.59ZM37.56,70l.34.59.58-.34-.33-.58Zm-.67-1.17.33.59.59-.34-.33-.59Zm-.67-1.17.33.58.59-.33-.34-.59Zm-.67-1.18.33.59.59-.34-.34-.58Zm-.68-1.17.34.59.59-.34-.34-.58ZM34.2,64.1l.34.58.58-.33-.33-.59Zm-.67-1.18.34.59.58-.33-.33-.59Zm-.67-1.17.33.59.59-.34-.34-.58Zm-.67-1.17.33.59.59-.34-.34-.59Zm-.68-1.17.34.58.59-.33-.34-.59Zm-.67-1.18.34.59.59-.34-.34-.58Zm-.67-1.17.34.59.58-.34-.33-.59Zm-.67-1.17.33.58.59-.33-.33-.59Zm-.67-1.18.33.59.59-.34-.34-.58Zm-.67-1.17.33.59.59-.34-.34-.58Zm-.68-1.17.34.58.59-.33L28.07,52Zm-.67-1.18.34.59.58-.33-.33-.59ZM26.14,50l.34.59.58-.34-.33-.58Zm-.67-1.17.33.59.59-.34-.34-.59Zm-.67-1.17.33.58.59-.33-.34-.59Zm-.68-1.18.34.59.59-.34-.34-.58Zm-.67-1.17.34.59.59-.34L24,45Z"/><path class="cls-2" d="M24.24,45.06l-.32-.19-.34.59.32.18Zm1.16.68-.58-.34-.34.58.58.34Zm1.17.68L26,46.08l-.34.58.58.34Zm1.17.68-.58-.34-.34.58.58.34Zm1.17.68-.58-.34L28,48l.58.34Zm1.17.68-.59-.34-.34.58.59.34Zm1.17.67-.59-.33-.34.58.59.34Zm1.16.68-.58-.34-.34.59.58.34Zm1.17.68L33,50.15l-.34.59.58.34Zm1.17.68-.58-.34-.34.59.58.34Zm1.17.68-.58-.34L35,52.1l.58.34Zm1.17.68-.59-.34-.34.59.59.34Zm1.17.68-.59-.34-.34.59.59.34Zm1.16.68-.58-.34-.34.59.58.34Zm1.17.68L40,54.23l-.34.59.58.34Zm1.17.68-.58-.34-.34.59.58.34Zm1.17.68-.58-.34-.34.59.58.34Zm1.17.68-.59-.34-.34.59.59.34Zm1.17.68L44.68,57l-.34.59.59.34Zm1.17.68-.59-.34-.34.59.59.34Zm1.16.68L47,58.31l-.34.59.58.34Zm1.17.68L48.19,59l-.34.58.58.34Zm1.17.68-.58-.34-.34.58.58.34Zm1.17.68-.59-.34-.34.58.59.34Zm1.17.68L51.69,61l-.34.58.59.34Zm1.17.68-.59-.34-.34.58.59.34Zm1.16.68L54,62.39l-.34.58.58.34Zm1.17.68-.58-.34-.34.58.58.34Zm1.17.68-.58-.34-.34.58.58.34Zm1.17.68-.59-.34-.34.58.59.34Zm1.17.68-.59-.34-.34.58L59,66Zm1.17.68-.59-.34-.34.58.59.34Zm1.16.68L61,66.47l-.34.58.58.34Zm1.17.68-.58-.34-.34.58.58.34Zm1.17.68-.58-.34-.34.58.58.34Zm1.17.68-.58-.34-.34.58.58.34Zm1.17.68-.59-.34-.34.58.59.34Zm1.17.68-.59-.34-.34.58.59.34Zm1.16.67-.58-.33-.34.58.58.34Zm1.17.68-.58-.34-.34.59.58.34Zm1.17.68-.58-.34-.34.59.58.34Zm1.17.68-.58-.34-.34.59.58.34Zm1.17.68-.59-.34-.34.59.59.34Zm1.17.68-.59-.34-.34.59.59.34Zm1.16.68-.58-.34-.34.59.58.34Zm1.17.68-.58-.34-.34.59.58.34Zm1.17.68L77.4,76l-.34.59.58.34Zm1.17.68-.58-.34-.34.59.58.34Zm1.17.68-.59-.34-.34.59.59.34Zm1.17.68L80.9,78l-.34.59.59.34Zm1.16.68-.58-.34-.34.59.58.34Zm1.17.68-.58-.34L82.9,80l.58.34ZM85,80.4l-.58-.34-.34.59.58.34Zm1.17.68-.58-.34-.34.59.58.34Zm1.17.68-.59-.34L86.4,82l.59.33Zm1.17.68-.59-.34-.34.58.59.34Zm1.17.68-.59-.34-.34.58.59.34Zm1.16.68-.58-.34-.34.58.58.34Zm1.17.68-.58-.34-.34.58.58.34Zm1.17.68-.58-.34-.34.58.58.34Zm1.17.68-.59-.34-.34.58.59.34Zm1.17.68-.59-.34-.34.58.59.34Zm1.17.68-.59-.34-.34.58.59.34Zm1.16.68-.58-.34-.34.58.58.34Zm1.17.68-.58-.34-.34.58.58.34Zm1.17.68-.58-.34-.34.58.58.34Zm1.17.68-.58-.34-.34.58.58.34Zm1.17.68-.59-.34-.34.58.59.34Zm1.17.68-.59-.34-.34.58.59.34Zm1.16.68-.58-.34-.34.58.58.34Zm1.17.68-.58-.34-.34.58.58.34Zm1.17.68-.58-.34-.34.58.58.34Zm1.17.67-.58-.34-.34.59.58.34Zm1.17.68-.59-.34-.34.59.59.34Zm1.17.68-.59-.34-.34.59.59.34Zm1.16.68-.58-.34-.34.59.58.34Zm1.17.68-.58-.34-.34.59.58.34Zm1.17.68-.58-.34-.34.59.58.34Zm1.17.68-.58-.34-.34.59.58.34Zm1.17.68-.59-.34-.34.59.59.34Zm1.17.68-.59-.34-.34.59.59.34Zm1.17.68-.59-.34-.34.59.58.34Zm1.16.68-.58-.34-.34.59.58.34Zm1.17.68-.58-.34-.34.59.58.34Z"/><path class="cls-2" d="M24.88,101.27l-.59.34.34.59.59-.34Zm1.17-.67-.59.34.34.58.59-.34Zm1.17-.68-.58.34.33.59.59-.34Zm1.17-.67-.58.33.33.59.59-.34Zm1.17-.68-.58.34.33.58.59-.33Zm1.17-.68-.58.34.34.59.58-.34Zm1.17-.67-.58.34.34.58.58-.34Zm1.17-.68-.58.34.34.59.58-.34Zm1.17-.67-.58.34.34.58.58-.34Zm1.17-.68-.58.34.34.58.58-.33Zm1.18-.67-.59.33.34.59.58-.34Zm1.17-.68-.59.34.34.58.58-.33Zm1.17-.68-.59.34.34.59.58-.34Zm1.17-.67-.59.34.34.58.59-.34Zm1.17-.68-.59.34.34.59.59-.34Zm1.17-.67-.59.33.34.59.59-.34Zm1.17-.68L43,90.8l.34.58.59-.33Zm1.17-.68-.59.34.34.59.59-.34ZM46,89.11l-.58.34.33.58.59-.34Zm1.17-.68-.58.34.33.59.59-.34Zm1.17-.67-.58.34.33.58.59-.34Zm1.17-.68-.58.34.34.59.58-.34Zm1.17-.67-.58.33.34.59L51,87Zm1.17-.68-.58.34.34.58.58-.33ZM53,85.05l-.58.34.34.59.58-.34Zm1.17-.67-.58.34.34.58.58-.34Zm1.18-.68-.59.34.34.59.58-.34ZM56.49,83l-.59.33.34.59.58-.34Zm1.17-.68-.59.34.34.58.58-.33Zm1.17-.68-.59.34.34.59.59-.34ZM60,81l-.59.34.34.58.59-.34Zm1.17-.68-.59.34.34.59.59-.34Zm1.17-.67-.59.34.34.58.59-.34ZM63.51,79l-.59.34.34.59.59-.34Zm1.17-.67-.58.33.33.59.59-.34Zm1.17-.68-.58.34.33.58.59-.33ZM67,76.94l-.58.34.33.59.59-.34Zm1.17-.67-.58.34.33.58.59-.34Zm1.17-.68-.58.34.34.59.58-.34Zm1.17-.67-.58.33.34.59.58-.34Zm1.17-.68-.58.34.34.58.58-.33Zm1.17-.67-.58.33.34.59.58-.34Zm1.18-.68-.59.34.34.58.58-.34Zm1.17-.68-.59.34.34.59.58-.34Zm1.17-.67-.59.34.34.58.58-.34Zm1.17-.68L77,71.2l.34.59.59-.34Zm1.17-.67-.59.33.34.59.59-.34Zm1.17-.68-.59.34.34.58.59-.33Zm1.17-.68-.59.34.34.59.59-.34Zm1.17-.67-.59.34.34.58.59-.34Zm1.17-.68-.58.34.33.59.59-.34Zm1.17-.67-.58.33.33.59.59-.34Zm1.17-.68-.58.34.33.58.59-.33Zm1.17-.67-.58.33.34.59.58-.34Zm1.17-.68-.58.34.34.58.58-.34Zm1.17-.68-.58.34L89,65l.58-.34Zm1.17-.67-.58.34.34.58.58-.34Zm1.17-.68-.58.34.34.58.58-.33Zm1.18-.67-.59.33.34.59.58-.34ZM94,61.4l-.59.34.34.58.58-.33Zm1.17-.68-.59.34.34.59.58-.34Zm1.17-.67-.59.34L96,61l.59-.34Zm1.17-.68-.59.34.34.59L97.8,60Zm1.17-.67L98,59l.34.59.59-.34ZM99.8,58l-.59.34.34.58.59-.33Zm1.17-.68-.59.34.34.59.59-.34Zm1.17-.67-.58.34.33.58.59-.34Zm1.17-.68-.58.34.33.59.59-.34Zm1.17-.67-.58.34.33.58.59-.34Zm1.17-.68-.58.34.33.59.59-.34Zm1.17-.67-.58.33.34.59.58-.34Zm1.17-.68-.58.34.34.58.58-.33Zm1.17-.68-.58.34.34.59.58-.34Zm1.17-.67-.58.34.34.58.58-.34Zm1.18-.68-.59.34.34.59.58-.34Zm1.17-.67-.59.33.34.59.58-.34Zm1.17-.68-.59.34.34.58.58-.33Zm1.17-.67-.59.33.34.59.59-.34Zm1.17-.68-.59.34.34.58.59-.34Zm1.17-.68-.59.34.34.59.59-.34Zm1.17-.67-.59.34.34.58.59-.34Zm1.17-.68-.59.34.34.59.59-.34Zm1.17-.67-.58.33.33.59.59-.34Zm1.17-.68-.58.34.33.58.59-.33Z"/><path class="cls-2" d="M72.53,100.79v.68h.68v-.68Zm0-1.35v.68h.68v-.68Zm0-1.35v.67h.68v-.67Zm0-1.35v.67h.68v-.67Zm0-1.36v.68h.68v-.68Zm0-1.35v.68h.68V94Zm0-1.35v.68h.68v-.68Zm0-1.35V92h.68v-.68Zm0-1.35v.67h.68V90Zm0-1.35v.67h.68v-.67Zm0-1.36V88h.68v-.68Zm0-1.35v.68h.68v-.68Zm0-1.35v.68h.68v-.68Zm0-1.35v.67h.68v-.67Zm0-1.35v.67h.68v-.67Zm0-1.35v.67h.68v-.67Zm0-1.36v.68h.68v-.68Zm0-1.35v.68h.68v-.68Zm0-1.35v.68h.68v-.68Zm0-1.35v.67h.68v-.67Zm0-1.35v.67h.68v-.67Zm0-1.35v.67h.68v-.67Zm0-1.36v.68h.68v-.68Zm0-1.35v.68h.68V69.7Zm0-1.35V69h.68v-.68Zm0-1.35v.67h.68V67Zm0-1.35v.67h.68v-.67Zm0-1.35V65h.68V64.3Zm0-1.36v.68h.68v-.68Zm0-1.35v.68h.68v-.68Zm0-1.35v.68h.68v-.68Zm0-1.35v.67h.68v-.67Zm0-1.35v.67h.68v-.67Zm0-1.36v.68h.68v-.68Zm0-1.35v.68h.68v-.68Zm0-1.35v.68h.68v-.68Zm0-1.35v.68h.68v-.68Zm0-1.35v.67h.68v-.67Zm0-1.35v.67h.68v-.67Zm0-1.36v.68h.68v-.68Zm0-1.35v.68h.68v-.68Zm0-1.35v.68h.68v-.68Z"/><path class="cls-2" d="M90.43,100.51l-.33.59.58.34.34-.59Zm.66-1.17-.33.59.59.33.33-.59Zm.67-1.18-.33.59.59.33.33-.58ZM92.43,97l-.34.58.59.34.34-.59Zm.66-1.18-.33.59.59.33.33-.59Zm.67-1.18-.33.59.58.34.34-.59Zm.67-1.17-.34.59.59.33.33-.59Zm.66-1.18-.33.59.59.33.33-.58Zm.67-1.17-.33.58L96,92l.34-.59Zm.67-1.18-.34.59.59.33.33-.59Zm.66-1.18-.33.59.59.34.33-.59Zm.67-1.17-.34.59.59.33.34-.59Zm.66-1.18-.33.59.59.33.33-.58Zm.67-1.17-.33.58.59.34.33-.59Zm.67-1.18-.34.59L100,85l.33-.59Zm.66-1.18-.33.59.59.34.33-.59Zm.67-1.17-.33.59.58.33.34-.59Zm.67-1.18-.34.59.59.33.33-.58Zm.66-1.17-.33.58.59.34.33-.59Zm.67-1.18-.33.59.58.33.34-.59Zm.66-1.18-.33.59.59.34.33-.59Zm.67-1.17-.33.59.59.33.33-.59Zm.67-1.18-.34.59.59.33.34-.59Zm.66-1.17-.33.58.59.34.33-.59Zm.67-1.18-.33.59.58.33.34-.59Zm.67-1.18-.34.59.59.33.33-.58Zm.66-1.17-.33.59.59.33.33-.59Zm.67-1.18-.33.59.58.33.34-.59Zm.67-1.17-.34.58.59.34.33-.59Zm.66-1.18-.33.59.59.33.33-.59Zm.67-1.18-.34.59.59.33.34-.58Zm.66-1.17-.33.58.59.34.33-.59Zm.67-1.18-.33.59.59.33.33-.59Zm.67-1.18-.34.59.59.34L113,62Zm.66-1.17-.33.59.59.33.33-.59Zm.67-1.18-.33.59.58.33.34-.58Zm.67-1.17-.34.58.59.34.33-.59Zm.66-1.18-.33.59.59.33.33-.59Zm.67-1.18-.33.59.58.34.34-.59Zm.66-1.17-.33.59.59.33L117,55Zm.67-1.18-.33.59.59.33.33-.58Zm.67-1.17-.34.58.59.34.34-.59Zm.66-1.18-.33.59.59.33.33-.59Zm.67-1.18-.33.59.58.34.34-.59Zm.67-1.17-.34.59.59.33.33-.59Zm.66-1.18-.33.59.59.33.33-.58Zm.67-1.17-.33.58.58.34.34-.59Zm.67-1.18-.34.59.59.33.33-.59Z"/><g id="_4" data-name="4"><path class="cls-3" d="M75.47,124.39q-5.84-.37-8.86-2.21t-3-4.62c0-.51.06-1.42.19-2.72s.42-3.34.88-6.08,1.12-6.47,2-11.2q.63-2.66,1.26-6.27t1.27-7c-1.69-.17-3.42-.3-5.19-.38s-3-.13-3.67-.13c-.85,0-2.24,0-4.18.13s-4.14.19-6.58.31-4.88.3-7.28.51-4.47.42-6.2.63a13.22,13.22,0,0,0-3.36.7,8.45,8.45,0,0,1,1.9-5.57A55.32,55.32,0,0,1,39,75.79q4.56-4.19,11.08-10.45T64,51.74q7.33-7.35,14-15t11.64-14.5a10.09,10.09,0,0,1,2.09,1.46,3.76,3.76,0,0,1,1.08,3,13.39,13.39,0,0,1-2.53,7q-.65,2.91-1.9,9T85.47,57.24q-1.65,8.55-3.55,18.67h1.9a66.17,66.17,0,0,0,7.41-.31,37.67,37.67,0,0,0,5.38-1.08,28.11,28.11,0,0,1-7.09,6.9,16.33,16.33,0,0,1-8.23,3H80.4a19.35,19.35,0,0,0-.38,2q-.26,1.58-.63,4.11-.51,3.42-1.2,7.91t-1.33,9.31q-.63,4.8-1,9.24C75.59,119.88,75.47,122.37,75.47,124.39ZM47.37,75.66c1.68-.17,3.45-.27,5.31-.32s3.88-.06,6.08-.06,4.32,0,6.39.06,4,.11,5.89.19q1.63-7.71,3.22-14.68t3.48-13.16q-3.8,3.54-8,7.34t-8.42,7.59L53.19,70c-1,1-2,2-3,2.92S48.29,74.73,47.37,75.66Z"/></g></g></g></svg>