<svg xmlns="http://www.w3.org/2000/svg" viewBox="0 0 145.77 145.77"><defs><style>.cls-1{fill:#c93f3f;}.cls-2{fill:#e5aab1;}.cls-3{fill:#fff;}</style></defs><g id="Layer_2" data-name="Layer 2"><g id="Layer_5" data-name="Layer 5"><circle class="cls-1" cx="72.88" cy="72.88" r="72.88"/><path class="cls-2" d="M113.12,66.87h-.3a39.88,39.88,0,1,1-11.68-28.19,39.77,39.77,0,0,1,11.68,28.19h.6A40.47,40.47,0,1,0,73,107.34a40.47,40.47,0,0,0,40.47-40.47Z"/><path class="cls-2" d="M60.21,84.36l-.35.49.49.36.35-.49Zm.72-1-.36.49.49.36.36-.49Zm.71-1-.35.49.49.36.35-.49Zm.72-1-.36.49.49.36.36-.49Zm.72-1-.36.49.49.36.36-.49Zm.71-1-.36.49.49.36.36-.49Zm.72-1-.36.49.49.36.36-.49Zm.71-1-.35.49.49.36.35-.49Zm.72-1-.36.49.49.36.36-.49Zm.72-1L66.3,76l.49.36.36-.49Zm.71-1-.36.49.49.36.36-.49Zm.72-1-.36.49.49.35.36-.49Zm.71-1-.36.49.5.35.35-.49Zm.72-1-.36.49.49.35L70,72Zm.71-1-.35.49.49.36.35-.49Zm.72-1-.36.49.49.36.36-.49Zm.72-1-.36.49.49.36.36-.49Zm.71-1-.36.49.49.36.36-.49Zm.72-1-.36.49.49.36.36-.49Zm.71-1-.35.49.49.36.35-.49Zm.72-1-.36.49.49.36.36-.49Zm.71-1-.35.49.49.36.36-.49Zm.72-1-.36.49.49.36.36-.49Zm.72-1-.36.49.49.36.36-.49Zm.71-1-.36.49.49.36.36-.49Zm.72-1-.36.49.49.36.36-.5Zm.71-1-.35.49.49.35.35-.49Zm.72-1-.36.49.49.35.36-.49Zm.72-1-.36.49.49.35.36-.49Zm.71-1-.36.49.49.36.36-.49Zm.72-1-.36.49.49.36.36-.49Zm.71-1-.36.49.5.36.35-.49Zm.72-1-.36.49.49.36.36-.49Zm.71-1-.35.49.49.36.35-.49Zm.72-1-.36.49.49.36.36-.49Zm.72-1-.36.49.49.36.36-.49Zm.71-1-.36.49.49.36.36-.49Zm.72-1-.36.49.49.36.36-.49Zm.71-1-.35.49.49.36.35-.49Zm.72-1-.36.49.49.36.36-.49Zm.72-1-.36.49L89,46l.36-.5Zm.71-1-.36.49.49.35.36-.49Zm.72-1-.36.49.49.35.36-.49Zm.71-1-.36.49.5.35.35-.49Zm.72-1-.36.49.49.36.36-.49Zm.71-1-.35.49.49.36.35-.49Zm.72-1-.36.49.49.36.36-.49Zm.72-1-.36.49.49.36.36-.49Zm.71-1-.36.49.49.36.36-.49Zm.72-1-.36.49.49.36.36-.49Zm.71-1-.35.49.49.36.35-.49Zm.72-1-.36.49.49.36.36-.49Zm.71-1-.35.49.49.36.36-.49Zm.72-1-.36.49.49.36.36-.49Zm.72-1-.36.49.49.36.36-.49Zm.71-1-.36.49.49.36.36-.5Zm.72-1-.36.49.49.35.36-.49Zm.71-1-.35.49.49.35.35-.49Zm.72-1-.36.49.49.35.36-.49Zm.72-1-.36.49.49.36.36-.49Zm.71-1-.36.49.49.36.36-.49Zm.72-1-.36.49.49.36.36-.49Zm.71-1-.36.49.5.36.35-.49Zm.72-1-.36.49.49.36.36-.49Zm.71-1-.35.49.49.36.35-.49Z"/><path class="cls-2" d="M85.42,85l.15.21.49-.36-.15-.2Zm-.71-1,.35.49.49-.36-.35-.49Zm-.72-1,.36.49.49-.36-.36-.49Zm-.71-1,.35.49.5-.36-.36-.49Zm-.72-1,.36.49.49-.35-.35-.49Zm-.71-1,.36.49.49-.35-.36-.5Zm-.71-1,.35.49.49-.36-.35-.49Zm-.72-1,.36.49.49-.36-.36-.49Zm-.71-1,.36.5.49-.36-.36-.49Zm-.71-1,.35.49.49-.35-.35-.49Zm-.72-1,.36.49.49-.36-.36-.49Zm-.71-1,.36.49.49-.36-.36-.49Zm-.71-1,.35.49.49-.36-.35-.49Zm-.72-1,.36.49.49-.35-.36-.49Zm-.71-1,.35.49.5-.35-.36-.5Zm-.72-1,.36.49.49-.36-.35-.49Zm-.71-1,.36.49.49-.36L74.49,69Zm-.71-1,.35.5.49-.36L73.78,68Zm-.72-1,.36.49.49-.35L73.06,67Zm-.71-1,.36.49.49-.36L72.35,66Zm-.71-1,.35.49.49-.36L71.64,65Zm-.72-1,.36.49.49-.36L70.92,64Zm-.71-1,.36.49.49-.35-.36-.49Zm-.71-1,.35.49.49-.35-.35-.5Zm-.72-1,.36.49.49-.36-.36-.49Zm-.71-1,.35.49.5-.36-.36-.49Zm-.72-1,.36.5.49-.36-.35-.49Zm-.71-1,.36.49.49-.35-.36-.5Zm-.71-1,.35.49.49-.36-.35-.49Zm-.72-1,.36.49.49-.36-.36-.49Zm-.71-1,.36.49.49-.36-.36-.49Zm-.71-1,.35.49.49-.35-.35-.49Zm-.72-1,.36.49.49-.35-.36-.5Zm-.71-1,.36.49.49-.36-.36-.49Zm-.72-1,.36.49.49-.36-.35-.49Zm-.71-1,.36.5.49-.36-.36-.49Zm-.71-1,.35.49.5-.35-.36-.49Zm-.72-1,.36.49.49-.36-.35-.49Zm-.71-1,.36.49.49-.36-.36-.49Zm-.71-1,.35.49.49-.36-.35-.49Zm-.72-1,.36.49.49-.35-.36-.49Zm-.71-1,.36.49.49-.36-.36-.49Zm-.71-1,.35.49.49-.36-.35-.49Zm-.72-1,.36.49.49-.36-.36-.49Zm-.71-1,.36.5.49-.36-.36-.49Zm-.72-1,.36.49.49-.35-.35-.5Zm-.71-1,.36.49.49-.36-.36-.49Zm-.71-1,.35.49.5-.36-.36-.49Zm-.72-1,.36.5L52,38l-.35-.49Zm-.71-1,.36.49L51.3,37l-.36-.49Zm-.71-1,.35.49.49-.36-.35-.49Zm-.72-1,.36.49.49-.36-.36-.49Zm-.71-1,.36.49.49-.36-.36-.49Zm-.71-1,.35.49.49-.35-.35-.49Zm-.72-1,.36.49.49-.35-.36-.5Zm-.71-1,.36.49.49-.36-.36-.49Zm-.72-1,.36.49.49-.36L46,29.66Zm-.71-1,.36.5.49-.36-.36-.49Zm-.71-1,.35.49.5-.35-.36-.49Zm-.72-1,.36.49.49-.36-.36-.49Zm-.71-1,.36.49.49-.36-.36-.49Zm-.71-1,.35.49.49-.36-.35-.49Zm-.72-1,.36.49.49-.35-.36-.49Zm-.71-1,.36.49.49-.35-.36-.5Zm-.71-1,.35.49.49-.36-.35-.49Zm-.72-1,.36.49.49-.36-.36-.49Z"/><path class="cls-2" d="M93.62,61l.24-.08-.19-.57-.24.07Zm-1.16.38.58-.19-.19-.58-.58.19Zm-1.15.37.57-.19-.18-.57-.58.18Zm-1.16.38.58-.19-.19-.58L90,61.5ZM89,62.45l.57-.19-.18-.57-.58.18Zm-1.16.38.58-.19-.19-.58-.58.19Zm-1.15.37.57-.19-.18-.57-.58.18Zm-1.16.38.58-.19-.19-.58-.57.19ZM84.38,64l.58-.19-.19-.57-.58.18Zm-1.16.38.58-.19-.19-.58-.57.19Zm-1.15.37.58-.18-.19-.58-.58.18Zm-1.16.38.58-.19-.19-.58-.57.19Zm-1.15.37.58-.18-.19-.58-.58.19Zm-1.16.38.58-.19L79,65.06l-.57.19Zm-1.15.37L78,66l-.19-.58-.58.19Zm-1.15.38.57-.19-.19-.58-.57.19ZM75.14,67l.58-.18-.19-.58-.58.19ZM74,67.33l.57-.19-.18-.58-.58.19Zm-1.16.37.58-.18-.19-.58-.58.19Zm-1.15.38.57-.19-.18-.58-.58.19Zm-1.16.37.58-.18-.19-.58-.58.19Zm-1.15.38.57-.19-.18-.58-.58.19Zm-1.16.37.58-.18-.19-.58-.58.19Zm-1.15.38.57-.19-.18-.58-.58.19ZM65.9,70l.58-.18-.19-.58-.57.19Zm-1.15.38.58-.19-.19-.57-.58.18Zm-1.16.38.58-.19L64,69.94l-.57.19Zm-1.15.37.58-.19-.19-.57-.58.18Zm-1.16.38.58-.19-.19-.58-.57.19Zm-1.15.37.58-.19-.19-.57-.58.18ZM59,72.21l.58-.19-.19-.58-.57.19Zm-1.15.37.58-.19-.19-.57-.58.18ZM56.67,73l.57-.19-.19-.58-.57.19Zm-1.16.37.58-.19-.19-.57-.58.18Zm-1.15.38.57-.19-.18-.58-.58.19Zm-1.16.37.58-.19-.19-.57L53,73.5Zm-1.15.38.57-.19-.18-.58-.58.19Zm-1.16.37.58-.19-.19-.57-.58.18Zm-1.15.38.57-.19-.18-.58-.58.19Zm-1.16.37.58-.18L49,74.82l-.58.19ZM47.43,76l.58-.19-.19-.58-.58.19Zm-1.16.37.58-.18-.19-.58-.57.19Zm-1.15.38.58-.19-.19-.58-.58.19ZM44,77.08l.58-.18-.19-.58-.57.19Zm-1.15.38.58-.19-.19-.58-.58.19Zm-1.16.37.58-.18L42,77.07l-.57.19Zm-1.15.38.58-.19-.19-.58-.58.19Zm-1.16.37.58-.18-.19-.58-.57.19ZM38.19,79l.58-.19-.19-.58-.58.19ZM37,79.33l.57-.18-.18-.58-.58.19Zm-1.16.38.58-.19-.19-.58-.58.19Zm-1.15.37.57-.18-.18-.58-.58.19Zm-1.16.38.58-.19L34,79.7l-.58.18Zm-1.15.38.57-.19-.18-.58-.58.19Zm-1.16.37.58-.19-.19-.57-.58.18Zm-1.15.38.57-.19-.18-.58-.58.19ZM29,82l.58-.19-.19-.57-.58.18Zm-1.15.38.58-.19-.19-.58-.58.19Zm-1.16.37.58-.19L27,82l-.57.18Zm-1.15.38.58-.19-.19-.58-.58.19Zm-1.16.37.58-.19-.19-.57-.57.18Zm-1.15.38.58-.19-.19-.58-.58.19ZM22,84.21,22.6,84l-.19-.57-.57.18Zm-1.15.38.58-.19-.19-.58-.58.19ZM19.71,85l.58-.19-.19-.57-.57.18Zm-1.15.38.58-.19L19,84.57l-.58.19Z"/><path class="cls-2" d="M73.25,45.72v-.26h-.6v.26Zm0,1.21v-.61h-.6v.61Zm0,1.21v-.6h-.6v.6Zm0,1.22v-.61h-.6v.61Zm0,1.21V50h-.6v.6Zm0,1.22v-.61h-.6v.61Zm0,1.21v-.61h-.6V53Zm0,1.22v-.61h-.6v.61Zm0,1.21v-.61h-.6v.61Zm0,1.21V56h-.6v.6Zm0,1.22v-.61h-.6v.61Zm0,1.21v-.61h-.6v.61Zm0,1.22v-.61h-.6v.61Zm0,1.21v-.61h-.6v.61Zm0,1.21v-.6h-.6v.6Zm0,1.22v-.61h-.6v.61Zm0,1.21v-.6h-.6v.6Zm0,1.22v-.61h-.6v.61Zm0,1.21V67h-.6v.61Zm0,1.21v-.6h-.6v.6Zm0,1.22v-.61h-.6V70Zm0,1.21v-.6h-.6v.6Zm0,1.22v-.61h-.6v.61Zm0,1.21V73h-.6v.61Zm0,1.22v-.61h-.6v.61Zm0,1.21v-.61h-.6v.61Zm0,1.21v-.6h-.6v.6Zm0,1.22v-.61h-.6v.61Zm0,1.21V79.1h-.6v.61Zm0,1.22v-.61h-.6v.61Zm0,1.21v-.61h-.6v.61Zm0,1.21v-.6h-.6v.6Zm0,1.22V84h-.6v.61Zm0,1.21v-.6h-.6v.6Zm0,1.22v-.61h-.6V87Zm0,1.21V87.6h-.6v.61Zm0,1.22v-.61h-.6v.61Zm0,1.21V90h-.6v.61Zm0,1.21v-.6h-.6v.6Zm0,1.22v-.61h-.6v.61Zm0,1.21v-.61h-.6v.61Z"/><polygon class="cls-2" points="72.95 124.64 73.24 124.54 60.31 84.75 19.4 84.75 52.5 60.7 39.85 21.79 72.95 45.84 106.05 21.79 93.41 60.7 126.5 84.75 85.59 84.75 72.66 124.54 72.95 124.64 73.24 124.54 72.95 124.64 73.24 124.73 86.03 85.35 128.37 85.35 94.12 60.47 107.2 20.2 72.95 45.09 38.7 20.2 51.78 60.47 17.53 85.35 59.87 85.35 72.95 125.62 73.24 124.73 72.95 124.64"/><polyline class="cls-2" points="52.32 60.83 73.13 45.71 72.77 45.22 51.96 60.34"/><polyline class="cls-2" points="93.94 60.34 73.13 45.22 72.77 45.71 93.58 60.83"/><polyline class="cls-2" points="86.1 85.14 94.05 60.68 93.47 60.49 85.52 84.95"/><polyline class="cls-2" points="51.85 60.68 59.8 85.14 60.38 84.95 52.43 60.49"/><polyline class="cls-2" points="85.81 84.75 60.09 84.75 60.09 85.35 85.81 85.35"/><path class="cls-2" d="M102.79,66.56c0,.1,0,.2,0,.31s0,.4,0,.6h.61v-.93Zm0-1.21c0,.2,0,.4,0,.61l.61,0,0-.62-.6,0Zm-.09-1.19c0,.2,0,.4,0,.6l.61-.05c0-.2,0-.41,0-.61l-.61.06Zm-.13-1.2c0,.2,0,.4.07.6l.61-.07c0-.2,0-.41-.08-.61l-.6.08Zm-.18-1.19.09.6.6-.09-.09-.61-.6.11Zm-.23-1.17.12.58.59-.11-.12-.6-.59.13Zm-.28-1.17c.05.19.1.38.14.58l.59-.14c0-.2-.09-.4-.14-.6l-.59.16Zm-.33-1.16c.06.19.12.38.17.58l.59-.17-.18-.59Zm-.37-1.14c.07.19.13.38.19.57l.58-.19c-.06-.2-.13-.39-.2-.58l-.57.2ZM100.73,56c.07.19.15.38.22.56l.56-.21c-.07-.19-.14-.38-.22-.57l-.56.22Zm-.46-1.1c.08.18.16.37.23.55l.56-.24-.24-.56-.55.25Zm-.51-1.08c.09.17.17.35.26.54l.55-.26-.27-.55Zm-.55-1.07.28.53L100,53l-.29-.54-.53.29Zm-.6-1,.3.52.53-.3c-.1-.18-.2-.36-.31-.53l-.52.31Zm-.64-1,.33.5.51-.32-.33-.52L98,50.7Zm-.68-1,.35.49.5-.34-.35-.51-.5.36Zm-.71-1,.36.47.49-.36-.38-.49Zm-.76-.94c.13.16.26.31.38.47l.47-.39-.39-.47-.46.39Zm-.8-.9.41.45.45-.4-.41-.46-.45.41Zm-.83-.86.42.43.44-.42c-.14-.15-.28-.3-.43-.44Zm-.86-.84.44.42.42-.44-.45-.42-.41.44Zm-.9-.8.45.4.41-.45L92.82,44l-.39.46Zm-.93-.76L92,44l.38-.47c-.16-.13-.31-.26-.48-.38l-.37.47Zm-1-.72.48.36.37-.49-.5-.36-.35.49Zm-1-.68.5.33.34-.5-.51-.34-.33.51Zm-1-.65.51.32.33-.51-.52-.33Zm-1-.6.52.3.31-.53-.54-.3Zm-1.07-.56.54.28.28-.54-.55-.28-.27.54Zm-1.09-.51.55.25.26-.55-.56-.26-.25.56Zm-1.11-.47.56.23.24-.56-.57-.23-.23.56ZM83.1,39l.56.2.22-.57-.58-.21-.2.58ZM82,38.66l.57.18.19-.57-.58-.19-.18.58Zm-1.16-.33.58.16.17-.58L81,37.74l-.16.59Zm-1.16-.28.58.13.14-.58-.59-.14-.13.59Zm-1.18-.23.59.11.12-.6-.61-.11Zm-1.19-.19.59.09.1-.6L77.34,37l-.08.61Zm-1.19-.13.59.06.07-.6-.61-.07Zm-1.2-.09.6,0,0-.61-.61,0Zm-1.2,0,.6,0,0-.61h-.62v.6Zm-1.2,0h.6v-.61l-.61,0,0,.6Zm-1.2.06c.19,0,.39,0,.6,0l0-.61-.62,0,0,.61Zm-1.2.11.6-.06-.06-.61-.61.06.07.61Zm-1.19.15.59-.08-.08-.6-.6.08.09.6Zm-1.19.2.59-.1-.1-.6-.6.11.11.59Zm-1.17.25L67.1,38,67,37.43l-.6.13.14.6Zm-1.17.3.59-.15-.16-.59-.59.16.16.58Zm-1.15.35.58-.18L64.6,38l-.58.18.18.58Zm-1.13.39.57-.2-.2-.57-.58.2.21.57ZM62,39.63l.56-.22-.22-.57-.57.23Zm-1.09.49.54-.25-.24-.56-.56.26.26.55Zm-1.08.52.54-.27-.27-.54-.55.27.28.54Zm-1.05.58.52-.3L59,40.39l-.53.3Zm-1,.61.51-.31L57.9,41l-.52.31.32.52Zm-1,.66.49-.34-.33-.51-.51.34.35.5Zm-1,.69.48-.35-.35-.5-.49.36.36.49Zm-.95.74.47-.38-.37-.48-.48.38.38.48Zm-.92.77.46-.39-.39-.47-.47.4.4.46ZM53,45.5l.44-.41L53,44.64l-.45.42.42.44Zm-.86.85.43-.43-.43-.43-.43.43.43.43Zm-.82.88.41-.45-.45-.41-.41.45.45.41Zm-.78.91.39-.46-.46-.4-.4.47Zm-.74.94.36-.47-.47-.38-.38.49Zm-.71,1,.35-.49-.49-.36-.36.5Zm-.67,1,.33-.51-.5-.33-.34.51.51.33Zm-.62,1c.1-.18.2-.35.31-.52l-.52-.32-.32.53.53.31Zm-.58,1,.28-.53-.53-.29c-.1.17-.19.35-.29.54l.54.28Zm-.54,1.08c.08-.19.17-.37.26-.55l-.54-.27L46.1,54l.55.27Zm-.5,1.09.24-.55-.55-.25-.25.57.56.23Zm-.45,1.12c.07-.19.15-.37.22-.56l-.56-.23c-.08.19-.15.39-.22.58l.56.21Zm-.4,1.14c.06-.19.13-.38.2-.57l-.58-.21-.2.59Zm-.36,1.15.18-.58L44.54,58l-.18.59.58.17Zm-.3,1.16c0-.2.09-.39.14-.58l-.58-.16q-.09.3-.15.6l.59.14Zm-.26,1.17.12-.59-.59-.13c0,.2-.09.4-.13.6l.6.12Zm-.21,1.19.09-.6-.59-.1c0,.2-.07.4-.1.6l.59.1ZM44,63.43c0-.2,0-.4.08-.6l-.6-.08c0,.2-.06.4-.08.61Zm-.11,1.19c0-.2,0-.4,0-.6l-.61,0c0,.2,0,.4,0,.61l.61,0Zm-.07,1.2,0-.6-.61,0,0,.61.61,0Zm0,1.2v-.15c0-.15,0-.3,0-.45H43.2V67Zm0,1.2c0-.2,0-.4,0-.6l-.6,0c0,.2,0,.41,0,.61Zm.08,1.2c0-.2,0-.4,0-.6l-.61,0c0,.21,0,.41.05.62l.6-.06Zm.13,1.2c0-.2,0-.4-.07-.6l-.6.07c0,.2,0,.4.07.6l.6-.07Zm.17,1.19-.09-.6-.6.09c0,.2.06.41.1.61l.59-.1ZM44.44,73l-.12-.59-.6.11.12.6.6-.12Zm.27,1.17c-.05-.2-.1-.39-.14-.59l-.59.14c0,.2.09.4.14.6ZM45,75.31c-.06-.19-.11-.38-.17-.57l-.58.16c0,.2.11.39.17.59l.58-.18Zm.37,1.15c-.07-.19-.13-.38-.19-.57l-.58.18c.06.2.13.39.19.59l.58-.2Zm.41,1.13L45.6,77l-.57.21.21.58.57-.22Zm.46,1.1L46,78.14l-.56.24.24.56.56-.25Zm.5,1.09-.26-.54-.55.25.27.56.54-.27Zm.55,1.07L47,80.32l-.54.27c.09.19.19.37.28.55Zm.59,1-.3-.52-.53.3.31.53.52-.31Zm.63,1-.32-.51-.52.32.33.52.51-.33Zm.67,1c-.11-.16-.22-.33-.34-.49l-.5.34c.12.17.23.34.35.5Zm.72,1-.36-.48-.49.36c.12.16.24.33.37.49Zm.75.93-.38-.46-.47.38c.12.16.25.31.39.47l.46-.39Zm.79.91-.4-.45-.46.4.41.45.45-.4Zm.83.87-.42-.43-.44.41.42.44.44-.42Zm.86.84L52.72,88l-.42.44.44.42Zm.89.8-.45-.4-.41.45.46.41.4-.46ZM55,90l-.47-.38-.39.46.48.39L55,90Zm1,.72q-.24-.17-.48-.36l-.37.49.5.36.35-.49Zm1,.69-.5-.34-.34.5.5.35.34-.51Zm1,.65-.51-.32-.32.51.52.33.31-.52Zm1,.61-.52-.3-.31.52.54.31.29-.53Zm1.07.56-.54-.28-.28.54.54.28Zm1.08.52-.54-.25-.26.54.55.26Zm1.11.48L61.67,94l-.23.56.56.24Zm1.13.43-.57-.21-.21.56.57.22.21-.58Zm20-.05-.56.19.19.58.58-.2Zm1.12-.44-.55.22.21.57c.2-.07.39-.15.57-.23l-.23-.56Zm1.1-.48-.55.25.25.56.55-.25-.25-.56Zm1.08-.52-.54.27.27.55L87,93.7l-.28-.54Zm1.06-.56-.53.29.29.53.53-.29Zm1-.61-.51.31.3.52.53-.31L88.77,92Zm1-.65-.5.33.32.51.52-.34-.34-.5Zm1-.69-.49.35.35.49.5-.35Zm.95-.73-.47.37.37.48.48-.38-.38-.47Zm.92-.77-.46.39.39.46.47-.39Zm.89-.81-.44.41.41.45c.15-.14.3-.27.45-.42l-.42-.44Zm.86-.84-.42.43.42.43c.15-.14.29-.29.43-.43Zm.82-.87-.4.44.44.41c.14-.14.28-.3.41-.45l-.45-.4Zm.79-.91-.39.46.46.39.4-.46L96,85.72Zm.75-.94-.37.47.47.38.38-.48Zm.71-1-.35.49.49.36.36-.5-.5-.35Zm.67-1-.33.5.51.34.33-.51-.51-.33Zm.63-1c-.1.17-.2.34-.31.51l.52.32c.11-.17.21-.35.32-.53l-.53-.3Zm.59-1.05-.29.52.53.3.3-.54-.54-.28Zm.55-1.08-.27.54.54.28.27-.55Zm.5-1.09-.25.55.55.25c.09-.19.17-.38.25-.56l-.55-.24Zm.45-1.12c-.07.19-.14.37-.22.56l.56.23.23-.57Zm.41-1.13c-.06.19-.13.38-.2.57l.57.2.21-.58Zm.36-1.15c0,.19-.11.38-.17.57l.58.19.18-.59-.59-.17Zm.32-1.16-.15.58.58.16c0-.2.11-.4.16-.6Zm.26-1.17c0,.19-.08.39-.13.58l.6.14c0-.2.09-.4.13-.6l-.6-.12Zm.22-1.18c0,.19-.07.39-.1.59l.59.11c0-.2.08-.41.11-.61Zm.17-1.19c0,.19,0,.39-.08.59l.6.09c0-.21.06-.41.08-.61l-.6-.07Zm.12-1.2-.06.6.61.06c0-.2,0-.41,0-.61l-.6,0Zm.07-1.2,0,.6.61,0,0-.61-.61,0Z"/><path class="cls-2" d="M127,84.92l.15.27.53-.28-.15-.28Zm-.58-1.07.29.53.54-.29-.29-.53Zm-.57-1.07.29.53.53-.29-.29-.53Zm-.58-1.07.29.53.54-.28-.29-.54Zm-.57-1.07.29.53.53-.28-.29-.54Zm-.58-1.07.29.53.54-.28-.29-.54Zm-.57-1.07.29.54.53-.29-.29-.54ZM123,77.43l.29.54.54-.29-.29-.54Zm-.57-1.07.29.54.53-.29-.29-.54Zm-.58-1.07.29.54.54-.29-.29-.53Zm-.57-1.07.29.54.53-.29-.29-.53Zm-.58-1.07.29.54.53-.29-.28-.53Zm-.57-1.06.28.53.54-.29-.29-.53ZM119.54,71l.29.53.53-.29-.28-.53ZM119,70l.28.53.54-.29-.29-.53Zm-.58-1.07.29.53.53-.29-.28-.53Zm-.57-1.07.28.53.54-.28-.29-.54Zm-.58-1.07.29.53.53-.28-.28-.54Zm-.57-1.07.28.53.54-.28-.29-.54Zm-.58-1.07.29.54.53-.29-.28-.54Zm-.57-1.07.28.54.54-.29-.29-.54Zm-.58-1.07.29.54.53-.29-.28-.54Zm-.57-1.07.28.54.54-.29-.29-.53Zm-.58-1.07.29.54.53-.29-.29-.53Zm-.57-1.07.28.54.54-.29-.29-.53Zm-.58-1.06.29.53.53-.29-.29-.53Zm-.58-1.07.29.53.54-.29-.29-.53Zm-.57-1.07.29.53.53-.29-.29-.53Zm-.44-1.23.07.5v0l.07.14.54-.28,0,0-.06-.44-.6.08Zm-.17-1.2.08.6.61-.08-.09-.61Zm-.17-1.2.09.6.6-.09-.09-.6Zm-.17-1.21.09.61.6-.09-.08-.6Zm-.16-1.2.08.6.6-.08-.08-.6Zm-.17-1.2.08.6.6-.08-.08-.6Zm-.17-1.2.08.6.6-.09-.08-.6Zm-.17-1.21L110,47l.6-.09-.09-.6Zm-.17-1.2.09.6.6-.08-.09-.6Zm-.17-1.2.09.6.6-.08-.08-.6Zm-.16-1.2.08.6.6-.09-.08-.6Zm-.17-1.2.08.6.6-.09-.08-.6ZM109,40.39l.08.6.61-.08-.09-.6Zm-.17-1.2.09.6.6-.08-.09-.6Zm-.17-1.2.09.6.6-.09-.08-.6Zm-.16-1.21.08.61.6-.09-.08-.6Zm-.17-1.2.08.6.6-.08-.08-.6Zm-.17-1.2.08.6.6-.08-.08-.6Zm-.17-1.2.09.6.6-.09-.09-.6Zm-.17-1.2.09.6.6-.09-.09-.6Zm-.16-1.21.08.6.6-.08-.08-.6Zm-.17-1.2.08.6.6-.08-.08-.6Zm-.17-1.2.08.6.6-.08-.08-.61Zm-.17-1.2.08.6.61-.09-.09-.6ZM107,26l.09.6.6-.08-.09-.6Zm-.17-1.2.09.6.6-.08-.08-.6Zm-.16-1.2.08.6.6-.08-.08-.61Zm-.17-1.2.08.6.6-.09-.08-.6Zm-.17-1.21.08.61.6-.09-.08-.6Zm-.75.33.6-.1-.1-.6-.6.1Zm-1.2.2.6-.1-.1-.6-.6.11Zm-1.19.21.6-.11-.11-.59-.59.1Zm-1.2.2.6-.1-.1-.6-.6.1Zm-1.2.2.6-.1-.1-.6-.6.1Zm-1.19.2.59-.1-.1-.6-.6.11Zm-1.2.21.6-.1-.1-.6-.6.1Zm-1.2.2.6-.1-.1-.6-.6.1Zm-1.2.2.6-.1-.1-.6-.6.1Zm-1.19.21.6-.11-.11-.59-.59.1Zm-1.2.2.6-.1-.1-.6-.6.1Zm-1.2.2.6-.1-.1-.6-.6.1Zm-1.19.2.59-.1-.1-.6-.6.1Zm-1.2.21.6-.11-.1-.59-.6.1Zm-1.2.2.6-.1-.1-.6-.6.1Zm-1.2.2.6-.1-.1-.6-.6.1Zm-1.19.2.6-.1-.11-.6-.59.11Zm-1.2.21.6-.11-.1-.59-.6.1Zm-1.2.2.6-.1-.1-.6-.6.1Zm-1.19.2.59-.1-.1-.6-.6.1Zm-1.2.2.6-.1-.1-.6-.6.11Zm-1.2.21.6-.1L81,25l-.6.1Zm-1.2.2.6-.1-.1-.6-.6.1Zm-1.19.2.6-.1-.11-.6-.59.1Zm-1.2.2.6-.1-.1-.59-.6.1Zm-1.2.21.6-.1-.1-.6-.6.1Zm-1.19.2.59-.1-.1-.6-.6.1Zm-1.2.2.6-.1-.1-.6-.6.1ZM72,26.84l.6.1.1-.6-.6-.1Zm-1.2-.2.6.1.1-.6-.59-.1Zm-1.19-.2.6.1.1-.6-.6-.1Zm-1.2-.21.6.1.1-.59-.6-.1Zm-1.2-.2.6.1.1-.6-.6-.1ZM66,25.83l.59.1.11-.6-.6-.1Zm-1.2-.21.6.11.1-.6-.6-.1Zm-1.2-.2.6.1.1-.59-.6-.11Zm-1.2-.2.6.1.1-.6-.59-.1ZM61.2,25l.6.1.1-.6-.6-.1ZM60,24.81l.6.11.1-.6-.6-.1Zm-1.2-.2.6.1.1-.59L58.9,24Zm-1.19-.2.59.1.11-.6-.6-.1Zm-1.2-.2.6.1.1-.6-.6-.1ZM55.21,24l.6.1.1-.59-.6-.1ZM54,23.8l.6.1.1-.6-.59-.1Zm-1.19-.2.6.1.1-.6-.6-.1Zm-1.2-.2.6.1.1-.6-.6-.1Zm-1.2-.21.6.1.1-.59-.6-.1ZM49.23,23l.59.1.11-.6-.6-.1Zm-1.2-.2.6.1.1-.6-.6-.1Zm-1.2-.21.6.11.1-.6-.6-.1Zm-1.2-.2.6.1.1-.59-.59-.11Zm-1.19-.2.6.1.1-.6-.6-.1Zm-1.2-.2.6.1.1-.6-.6-.1ZM42,21.77l.6.11.1-.6-.59-.1Zm-1.19-.2.6.1.1-.59L41,21Zm-1.2-.2.6.1.1-.6-.6-.1Zm-.18.45.08-.6-.6-.08-.08.6ZM39.31,23l.08-.6-.6-.08-.08.6Zm-.16,1.2.08-.6-.6-.08-.08.6ZM39,25.43l.08-.6-.6-.08-.08.6Zm-.16,1.2.08-.6-.6-.08-.08.6Zm-.16,1.2.08-.6-.6-.08-.08.6ZM38.51,29l.08-.6-.6-.08-.08.6Zm-.16,1.2.08-.6-.6-.08-.08.6Zm-.16,1.2.08-.6-.6-.08-.08.6ZM38,32.65l.08-.6-.6-.08-.09.6Zm-.16,1.2.08-.6-.61-.08-.08.6Zm-.17,1.21.08-.61-.6-.08-.08.6Zm-.16,1.2.08-.6-.6-.08-.08.6Zm-.16,1.2.08-.6-.6-.08-.08.6Zm-.16,1.2.08-.6L36.7,38l-.08.6Zm-.16,1.21.08-.6-.6-.08-.08.6Zm-.16,1.2.08-.6-.6-.08-.08.6Zm-.16,1.21.08-.61-.6-.08-.08.6Zm-.16,1.2.08-.6-.6-.08-.08.6Zm-.16,1.2.08-.6L35.9,44l-.08.6Zm-.16,1.21.08-.61-.6-.08-.09.61Zm-.16,1.2.08-.6-.61-.08-.08.6Zm-.17,1.2.09-.6-.61-.08-.08.6Zm-.16,1.21.08-.61-.6-.08-.08.61Zm-.16,1.2.08-.6-.6-.08-.08.6Zm-.16,1.2.08-.6-.6-.08-.08.6Zm-.16,1.21.08-.61-.6-.08-.08.61Zm-.23,1.29,0-.11,0,0,.07-.53-.6-.08-.06.42,0,.06.54.29Zm-.57,1.07.28-.54-.54-.28-.28.54Zm-.57,1.07L34.2,56l-.53-.29-.29.54Zm-.57,1.08.28-.54-.53-.28-.29.53Zm-.57,1.07.29-.54-.54-.28-.29.53Zm-.57,1.07.29-.53L32,58.94l-.28.54Zm-.57,1.07.29-.53L31.39,60l-.28.54Zm-.56,1.08.28-.54-.54-.28-.28.53ZM30.51,63l.28-.54-.54-.28L30,62.7Zm-.57,1.07.28-.53-.53-.29-.29.54Zm-.57,1.08.28-.54-.53-.29-.29.54ZM28.8,66.2l.29-.54-.54-.28-.29.53Zm-.57,1.07.29-.54L28,66.45,27.7,67Zm-.57,1.07.29-.53-.54-.29-.28.54Zm-.56,1.08.28-.54-.54-.28-.28.53Zm-.57,1.07.28-.54-.54-.28L26,70.2ZM26,71.56l.28-.53-.53-.29-.29.54Zm-.57,1.07.28-.53-.53-.29-.29.54Zm-.57,1.08.29-.54-.54-.28-.29.53Zm-.57,1.07.29-.54L24,74l-.28.54Zm-.57,1.07.29-.53L23.43,75l-.28.54Zm-.56,1.08.28-.54-.54-.29-.28.54ZM22.55,78l.28-.54-.54-.28-.28.53ZM22,79.07l.28-.54-.53-.28-.29.54Zm-.57,1.07.28-.53-.53-.29-.29.54Zm-.57,1.08.29-.54-.54-.28-.29.53Zm-.57,1.07.29-.54L20,81.47l-.28.53Zm-.57,1.07.29-.53-.54-.29-.28.54Zm-.56,1.07.28-.53-.54-.29-.28.54Zm-.22.49-.33-.15-.12.28.26.14.12-.22-.54-.28-.11.22-.15.28.62.28.25-.55Zm1.1.51-.55-.26-.25.56.55.25Zm1.11.5-.56-.25-.25.55.55.25Zm1.1.51-.55-.26-.25.56L22,87Zm1.1.5-.55-.25-.25.55.55.25Zm1.11.51-.55-.25-.26.55.56.25Zm1.1.5L25,87.7l-.25.55.55.26Zm1.11.51-.56-.25-.25.55.55.25Zm1.1.5-.55-.25-.25.55.55.26Zm1.1.51-.55-.25-.25.55.55.25ZM30,90l-.55-.25-.26.55.56.26Zm1.1.51-.55-.25-.25.55.55.25Zm1.11.5-.56-.25-.25.55.55.26Zm1.1.51-.55-.25-.25.55L33,92Zm1.11.5-.56-.25-.25.55.55.26Zm1.1.51-.55-.25-.26.55.56.25Zm1.1.5L36,92.75l-.25.55.55.26Zm1.11.51-.55-.25-.26.55.55.25Zm1.1.51-.55-.26-.25.55.55.26Zm1.11.5-.56-.25-.25.55.55.25ZM41,95l-.55-.26-.26.56.56.25Zm64.46-.27-.56.26.26.55.55-.25Zm1.1-.5-.55.25.25.55.55-.25Zm1.1-.5-.55.25.25.55.56-.25Zm1.11-.51-.55.25.25.56.55-.26Zm1.1-.5-.55.25.25.55.56-.25Zm1.11-.51-.55.25.25.56.55-.26Zm1.1-.5-.55.25.25.55.55-.25Zm1.11-.51-.56.25.26.56.55-.26Zm1.1-.5-.55.25.25.55.55-.25Zm1.1-.51-.55.25.25.56.56-.26Zm1.11-.5L116,90l.25.55.55-.25Zm1.1-.51-.55.25.25.56.55-.26Zm1.11-.5-.56.25.26.55.55-.25Zm1.1-.51-.55.25.25.56.55-.26Zm1.1-.5-.55.25.25.55.56-.25Zm1.11-.51-.55.25.25.56.55-.26Zm1.1-.5-.55.25.25.55.56-.25Zm1.11-.51-.55.25.25.56.55-.26Zm1.1-.5-.55.25.25.55.55-.25Zm1.11-.51-.56.25.26.56.55-.26Zm.66.09.24.08.1-.29-.13-.28-.32.15.25.55.32-.14.71-.33-1-.32-.19.58ZM126,84.88l.57.19.19-.58-.58-.18Zm-1.16-.37.58.19.19-.58-.58-.19Zm-1.15-.38.57.19.19-.58-.58-.18Zm-1.16-.37.58.19.19-.58-.58-.19Zm-1.15-.38.57.19.19-.58-.57-.18ZM120.17,83l.58.19.19-.58-.58-.19ZM119,82.63l.58.19.18-.58-.57-.18Zm-1.16-.37.58.19.19-.58-.58-.19Zm-1.15-.38.58.19.18-.58-.57-.18Zm-1.16-.37.58.19.19-.58-.58-.19Zm-1.15-.38.58.19.18-.58-.57-.19Zm-1.16-.37.58.18.19-.57-.58-.19Zm-1.15-.38.58.19.19-.58-.58-.19ZM110.94,80l.57.18.19-.57-.58-.19Zm-1.16-.38.58.19.19-.58-.58-.19Zm-1.15-.37.57.18.19-.57-.58-.19Zm-1.16-.38.58.19.19-.58-.58-.19Zm-1.15-.37.57.18.19-.57-.58-.19Zm-1.16-.38.58.19.19-.58-.58-.19ZM104,77.76l.57.18.19-.57-.58-.19Zm-1.16-.38.58.19.19-.58L103,76.8ZM101.7,77l.58.18.18-.57-.57-.19Zm-1.16-.38.58.19.19-.58-.58-.19Zm-1.15-.37.58.18.18-.57-.57-.19Zm-1.16-.38.58.19.19-.58-.58-.19Zm-1.15-.38.58.19.18-.58-.57-.18Zm-1.16-.37.58.19.19-.58-.58-.19Zm-1.15-.38.58.19.18-.58L95,74.18Zm-1.15-.37.57.19.19-.58-.58-.19ZM92.46,74l.58.19.19-.58-.58-.18Zm-1.15-.37.57.19.19-.58-.58-.19Zm-1.16-.38.58.19.19-.58-.58-.18ZM89,72.88l.57.19.19-.58-.58-.19Zm-1.16-.38.58.19.19-.58L88,71.93Zm-1.15-.37.57.19.19-.58-.58-.19Zm-1.16-.38.58.19.19-.58-.58-.18Zm-1.15-.37.57.19.19-.58-.58-.19ZM83.22,71l.58.19.19-.58-.58-.19Zm-1.15-.37.58.18.18-.57-.57-.19Zm-1.16-.38.58.19.19-.58-.58-.19Zm-1.15-.37.58.18.18-.57L80,69.3ZM78.6,69.5l.58.19.19-.58-.58-.19Zm-1.15-.37.58.18.18-.57-.57-.19Zm-1.16-.38.58.19.19-.58-.58-.19Zm-1.15-.37.58.18L75.9,68l-.57-.19ZM74,68l.57.19.19-.58-.58-.19Zm-1.16-.37.58.18.19-.57L73,67.05Zm-1.15-.38.57.19.19-.58-.58-.19Zm-1.16-.37.58.18.19-.57-.58-.19Zm-1.15-.38.57.19.19-.58-.58-.19Zm-1.16-.37.58.18.19-.57-.58-.19Zm-1.15-.38.57.19.19-.58-.58-.19Zm-1.16-.38.58.19.19-.58-.58-.18ZM64.75,65l.57.19.19-.58-.57-.19Zm-1.16-.38.58.19.19-.58-.58-.18Zm-1.15-.37.58.19.18-.58-.57-.19Zm-1.16-.38.58.19.19-.58-.58-.18Zm-1.15-.37.58.19.18-.58-.57-.19ZM59,63.12l.58.19.19-.58-.58-.18Zm-1.15-.37.58.19.18-.58L58,62.17Zm-1.16-.38.58.19.19-.58-.58-.18ZM55.51,62l.58.19.18-.58-.57-.19Zm-1.15-.38.57.19.19-.58-.58-.18Zm-1.16-.37.58.19.19-.58-.58-.19Zm-1.15-.38.57.19.19-.58-.58-.18Z"/><path class="cls-2" d="M19.35,85.05a.88.88,0,1,1-.88-.88A.88.88,0,0,1,19.35,85.05Z"/><path class="cls-2" d="M128.18,85.25a.88.88,0,1,1-.88-.88A.87.87,0,0,1,128.18,85.25Z"/><path class="cls-2" d="M39.36,22a.88.88,0,1,1,.88-.88A.88.88,0,0,1,39.36,22Z"/><path class="cls-2" d="M106.62,21.88a.88.88,0,1,1,.88-.88A.88.88,0,0,1,106.62,21.88Z"/><path class="cls-2" d="M86.69,85a.88.88,0,1,1-.88-.88A.88.88,0,0,1,86.69,85Z"/><path class="cls-2" d="M73.83,45.56a.88.88,0,1,1-.88-.88A.87.87,0,0,1,73.83,45.56Z"/><path class="cls-2" d="M53,60.68a.88.88,0,1,1-.88-.88A.88.88,0,0,1,53,60.68Z"/><path class="cls-2" d="M61,85.25a.88.88,0,1,1-.88-.88A.88.88,0,0,1,61,85.25Z"/><path class="cls-2" d="M94.64,60.68a.88.88,0,1,1-.88-.88A.87.87,0,0,1,94.64,60.68Z"/><g id="_5" data-name="5"><path class="cls-3" d="M61.14,121.93q-8.87,0-14-3a18.09,18.09,0,0,1-7.34-7.28,18.38,18.38,0,0,1-2.22-8.48,19.09,19.09,0,0,1,1.2-6.58,13,13,0,0,1,3.68-5.44A9.15,9.15,0,0,1,48.73,89c.42,0,1,0,1.58.07a28.12,28.12,0,0,1,3,.44,13.08,13.08,0,0,0-3.86,5.38A18.7,18.7,0,0,0,48,102.18a16.75,16.75,0,0,0,1.33,6.58A12.2,12.2,0,0,0,53.54,114,12.45,12.45,0,0,0,61,116.1a16.34,16.34,0,0,0,8.8-2.4,22.5,22.5,0,0,0,6.58-6.33A30.09,30.09,0,0,0,80.5,98.7a33.36,33.36,0,0,0,1.4-9.43,24.85,24.85,0,0,0-1.78-9.43,16.09,16.09,0,0,0-5.5-7.09Q70.88,70,64.68,70a47.39,47.39,0,0,0-5.82.44q-3.42.45-7.47,1.2.63-4.17,1.9-9.81T56.2,50.15q1.65-6.07,3.35-11.83t3-10.44c.89-3.12,1.58-5.61,2.09-7.47a64.6,64.6,0,0,0,7.91,1.39,64.8,64.8,0,0,0,6.65.38,70.22,70.22,0,0,0,10.5-.76c3.38-.51,6.88-1.09,10.51-1.77.25,1,.46,1.88.63,2.59a9.63,9.63,0,0,1,.26,2.22,7.16,7.16,0,0,1-2.6,5.82,15.23,15.23,0,0,1-6.52,3,35.6,35.6,0,0,1-7.85.89,41,41,0,0,1-8.29-.76,30.27,30.27,0,0,0-6.14-.76,1.43,1.43,0,0,0-.95.38,4.09,4.09,0,0,0-.82,1A21.09,21.09,0,0,0,65.69,39c-.76,2.19-1.5,4.6-2.21,7.21s-1.39,5.23-2,7.85-1.2,5-1.71,7-.93,3.61-1.26,4.62c1.68-.33,3.39-.59,5.12-.76s3.49-.25,5.26-.25q9.11,0,15.19,3.23a21.52,21.52,0,0,1,9.11,8.8,26.19,26.19,0,0,1,3,12.78,31.49,31.49,0,0,1-16.65,28A37.49,37.49,0,0,1,61.14,121.93Z"/></g></g></g></svg>