<svg xmlns="http://www.w3.org/2000/svg" viewBox="0 0 145.77 145.77"><defs><style>.cls-1{fill:#c93f3f;}.cls-2{fill:#e5aab1;}.cls-3{fill:#fff;}</style></defs><g id="Layer_2" data-name="Layer 2"><g id="Layer_5" data-name="Layer 5"><circle class="cls-1" cx="72.88" cy="72.88" r="72.88"/><path class="cls-2" d="M72.91,132.9,21.46,103.2V43.79l.15-.08,51.3-29.62.15.09,51.29,29.61V103.2l-.15.09ZM22.07,102.85l50.84,29.34,50.83-29.34V44.15L72.91,14.8,22.07,44.15Z"/><polygon class="cls-2" points="72.91 118.01 21.63 88.65 21.94 88.12 72.91 117.31 123.89 87.87 124.2 88.4 72.91 118.01"/><polygon class="cls-2" points="72.91 103.32 21.61 73.71 21.92 73.18 72.91 102.62 123.89 73.18 124.2 73.71 72.91 103.32"/><polygon class="cls-2" points="72.91 88.64 21.61 59.02 21.92 58.49 72.91 87.93 123.89 58.49 124.2 59.02 72.91 88.64"/><polygon class="cls-2" points="72.91 73.95 72.75 73.86 21.7 44.27 22 43.74 72.91 73.25 123.87 43.73 124.18 44.26 72.91 73.95"/><path class="cls-2" d="M21.88,88.59l-.3-.53L73,58.62l.16.08L124.2,87.91l-.31.53L73,59.32Zm102-14.86-51-29.43-51,29.43-.31-.53,51.3-29.61.15.09L124.2,73.2Zm-102-14.68-.31-.53L72.91,28.9l.15.09L124.2,58.52l-.31.53-51-29.44Z"/><path class="cls-2" d="M34.94,110.81l-.31-.53L72.91,87.93l.15.09,38.24,22.21-.3.53L72.91,88.64Zm-13-7.47-.31-.53L72.91,73.22l.15.09,51.15,29.45-.31.53-51-29.37Z"/><path class="cls-2" d="M72.91,59.34l-.16-.09L34.25,37l.31-.53L72.91,58.63l38.42-22.14.31.53Z"/><polygon class="cls-2" points="72.91 44.29 47.1 29.63 47.41 29.09 72.91 43.59 98.61 29.1 98.91 29.64 72.91 44.29"/><polygon class="cls-2" points="72.91 29.66 59.7 22.26 60 21.73 72.9 28.95 85.7 21.67 86 22.2 72.91 29.66"/><path class="cls-2" d="M73.21,98.21H72.6v-.44h.61Zm38.3-.14h-.61v-.44h.62ZM34.39,98v-.44H35V98Zm25.34-.14v-.44h.61v.44Zm26.38-.11h-.62v-.44h.62Zm12.74-.51h-.61v-.44h.61Zm-51.74-.05v-.44h.61v.44Zm26.1-.32H72.6v-.44h.61Zm38.31-.14h-.61v-.44h.61Zm-77.14,0v-.44H35v.45Zm25.34-.14v-.44h.61v.45Zm26.39-.11h-.62V96h.62Zm12.74-.51h-.61V95.5h.62Zm-51.75,0v-.44h.61v.44Zm26.11-.33H72.6v-.44h.61Zm38.31-.13h-.61V95h.62Zm-77.15-.05v-.44H35v.44Zm25.35-.15v-.44h.61v.44Zm26.39-.1h-.62v-.44h.61Zm12.75-.51h-.61v-.44h.61ZM47.1,94.57v-.44h.61v.45Zm26.11-.33H72.6V93.8h.61Zm38.32-.14h-.61v-.44h.61Zm-77.16,0v-.44H35v.44Zm25.35-.14v-.44h.62v.44Zm26.39-.11H85.5v-.44h.61Zm12.75-.5h-.61v-.44h.61Zm-51.77,0V92.8h.62v.44Zm26.12-.33H72.6v-.44h.61Zm38.33-.14h-.62v-.44h.61Zm-77.18,0v-.44H35v.44Zm25.35-.14v-.44h.61v.44Zm26.4-.11H85.5V92h.61ZM98.87,92h-.61v-.44h.61Zm-51.78,0v-.44h.61v.44Zm26.12-.32H72.6v-.44h.61Zm38.33-.14h-.61V91h.61Zm-77.19,0V91H35v.44Zm25.36-.14v-.44h.61v.44Zm26.4-.11H85.5v-.44h.61Zm12.76-.51h-.61v-.44h.61ZM47.09,90.6v-.44h.62v.44Zm26.12-.33H72.6v-.44h.61Zm38.34-.13h-.61v-.45h.61Zm-77.21,0v-.44H35v.44ZM59.7,90V89.5h.62v.44Zm26.41-.11H85.5V89.4h.61Zm12.77-.51h-.62v-.44h.61Zm-51.8,0v-.44h.61v.44ZM73.21,89H72.6v-.44h.61Zm38.34-.13h-.61v-.44h.62Zm-77.21-.06v-.44H35v.44Zm25.36-.14v-.44h.61v.44Zm26.41-.11H85.5v-.44h.61ZM98.88,88h-.61v-.45h.61ZM47.08,88v-.44h.62V88Zm26.13-.33H72.6v-.44h.61Zm38.35-.14H111v-.44h.61Zm-77.23,0V87h.61v.44ZM59.7,87.3v-.44h.61v.44Zm26.41-.11H85.5v-.44h.61Zm12.77-.51h-.61v-.44h.62Zm-51.81-.05v-.44h.61v.44Zm26.14-.32H72.6v-.44h.61Zm38.36-.14H111v-.44h.61Zm-77.25,0v-.44h.61v.44ZM59.69,86v-.44h.61V86Zm26.42-.11H85.5v-.44h.61Zm12.78-.51h-.61v-.44h.61Zm-51.82,0v-.44h.61v.44ZM73.21,85H72.6v-.45h.61Zm38.36-.14H111v-.44h.61Zm-77.26,0v-.44h.61v.44Zm25.38-.14v-.44h.61v.44Zm26.42-.11H85.5v-.44h.61ZM98.89,84h-.61V83.6h.61ZM47.06,84v-.44h.61V84Zm26.15-.33H72.6v-.44h.61Zm38.37-.13H111v-.44h.61Zm-77.27,0V83h.62v.44Zm25.38-.15v-.44h.61v.44Zm26.42-.1H85.5v-.44h.61Zm12.79-.51h-.62v-.44h.61Zm-51.84,0v-.44h.61v.45Zm26.15-.33H72.6V81.9h.61Zm38.37-.14H111v-.44h.62Zm-77.28,0v-.44h.61v.44ZM59.68,82v-.44h.61V82Zm26.44-.11H85.5v-.44h.62Zm12.78-.5h-.61V81h.61Zm-51.85-.06V80.9h.61v.44ZM73.21,81H72.6v-.44h.61Zm38.38-.14H111v-.44h.61Zm-77.3,0v-.44h.61v.44Zm25.39-.14v-.44h.61v.44Zm26.44-.11H85.5v-.44h.62Zm12.79-.51h-.62v-.44h.62ZM47.05,80v-.44h.61V80Zm26.16-.32H72.6v-.44h.61Zm38.39-.14H111v-.44h.61Zm-77.32,0v-.44h.61v.44Zm25.4-.14v-.44h.62v.45Zm26.44-.11h-.61v-.44h.61Zm12.79-.51H98.3v-.44h.61ZM47,78.7v-.44h.61v.44Zm26.17-.33H72.6v-.44h.61Zm38.39-.13H111v-.44h.61Zm-77.32,0v-.44h.62v.44Zm25.39-.14V77.6h.61V78Zm26.45-.11h-.61v-.44h.61Zm12.79-.51H98.3V77h.61ZM47,77.38v-.44h.61v.44Zm26.17-.33H72.6v-.44h.61Zm38.4-.13H111v-.44h.61Zm-77.34-.06v-.44h.61v.44Zm25.4-.14v-.44h.61v.44Zm26.45-.11h-.61v-.44h.61Zm12.8-.5h-.61v-.45h.61ZM47,76.06v-.45h.62v.44Zm26.17-.33H72.6v-.44h.61Zm38.4-.14H111v-.44h.62Zm-77.35,0V75.1h.61v.44Zm25.4-.14V75h.62v.44Zm26.46-.11h-.61v-.44h.61Zm12.8-.51h-.61v-.44h.61ZM47,74.73v-.44h.61v.44Zm26.18-.32H72.6V74h.61Zm38.41-.14H111v-.44h.61Zm-77.36,0v-.44h.62v.44Zm25.4-.14v-.44h.61v.44ZM86.12,74h-.61v-.44h.61Zm12.81-.51h-.62V73h.61Zm-51.9,0V73h.62v.44Zm26.18-.33H72.6v-.44h.61ZM111.63,73H111V72.5h.61Zm-77.38,0v-.44h.61v.44Zm25.41-.14v-.45h.61v.44Zm26.46-.11h-.61v-.44h.61Zm12.81-.51h-.61V71.7h.61ZM47,72.09v-.44h.61v.44Zm26.19-.33H72.6v-.44h.61Zm38.42-.13H111v-.44h.61Zm-77.39,0v-.44h.61v.44Zm25.41-.15V71h.62v.44Zm26.47-.11h-.61v-.44h.61Zm12.81-.5h-.61v-.44h.62ZM47,70.77v-.44h.61v.44Zm26.19-.33H72.6V70h.61Zm38.43-.14H111v-.44h.61Zm-77.41,0v-.44h.61v.44Zm25.42-.14v-.44h.61v.44ZM86.12,70h-.61v-.44h.61Zm12.82-.5h-.61v-.44h.61ZM47,69.44V69h.61v.44Zm26.2-.32H72.6v-.44h.61ZM111.64,69H111v-.44h.62Zm-77.41,0v-.44h.62v.44Zm25.42-.14v-.44h.61v.44Zm26.47-.11h-.61v-.44h.61Zm12.82-.51h-.61v-.44h.61ZM47,68.12v-.44h.61v.44Zm26.2-.32H72.6v-.45h.61Zm38.44-.14H111v-.44h.61Zm-77.43,0v-.44h.61v.45Zm25.42-.14V67h.61v.45Zm26.48-.11h-.61v-.44h.61ZM99,66.85h-.61v-.44H99ZM47,66.8v-.44h.61v.44Zm26.21-.33H72.6V66h.61Zm38.45-.13H111v-.44h.61Zm-77.45,0v-.44h.61v.44Zm25.43-.15V65.7h.61v.44ZM86.13,66h-.62v-.44h.62ZM99,65.53h-.61v-.44H99ZM47,65.48V65h.61v.45Zm26.21-.33H72.6v-.44h.61ZM111.66,65h-.61v-.44h.61ZM34.2,65v-.44h.61V65Zm25.44-.14v-.44h.62v.44Zm26.49-.11h-.62v-.44h.62ZM99,64.21h-.62v-.44H99Zm-52,0v-.45h.61v.44Zm26.22-.33H72.6v-.44h.61Zm38.46-.14h-.61v-.44h.61Zm-77.47,0V63.2h.62v.44Zm25.43-.14v-.44h.61v.44Zm26.5-.11h-.61V63h.61ZM99,62.88h-.61v-.44H99Zm-52-.05v-.44h.61v.44Zm26.22-.32H72.6v-.44h.61Zm38.46-.14h-.61v-.44h.62Zm-77.48,0v-.44h.61v.44Zm25.44-.14v-.44h.61v.44Zm26.5-.11h-.61v-.44h.61ZM99,61.56h-.61v-.44H99Zm-52-.05v-.44h.62v.44Zm26.23-.33H72.6v-.44h.61Zm38.47-.13h-.61V60.6h.61Zm-77.5,0v-.44h.61V61Zm25.45-.14v-.45h.62v.44Zm26.5-.11h-.61V60.3h.61ZM99,60.24h-.61V59.8H99Zm-52-.05v-.44h.61v.44Zm26.23-.33H72.6v-.44h.61Zm38.48-.13h-.62v-.44h.61Zm-77.52,0v-.45h.61v.44Zm25.45-.15v-.44h.61v.44Zm26.51-.11h-.61V59h.61ZM99,58.92h-.61v-.45H99Zm-52-.05v-.44h.62v.44Zm26.23-.33H72.6V58.1h.61Zm38.48-.14h-.61V58h.61Zm-77.52,0v-.44h.61v.44Zm25.45-.14v-.44h.61v.44Zm26.51-.11h-.61v-.44h.61ZM99,57.59h-.62v-.44H99Zm-52-.05V57.1h.61v.44Zm26.24-.32H72.6v-.44h.61Zm38.49-.14h-.61v-.44h.61ZM34.16,57v-.44h.61V57Zm25.45-.14v-.44h.62v.44Zm26.52-.11h-.61v-.44h.61ZM99,56.27h-.61v-.44H99Zm-52-.05v-.44h.61v.44Zm26.24-.32H72.6v-.45h.61Zm38.49-.14h-.61v-.44h.62Zm-77.55,0v-.44h.61v.44Zm25.46-.14v-.44h.61v.44Zm26.52-.11h-.61V55h.61ZM99,55h-.61v-.44H99ZM47,54.9v-.44h.61v.44Zm26.25-.33H72.6v-.44h.61Zm38.5-.13h-.61V54h.61Zm-77.56,0V54h.62v.44Zm25.46-.15V53.8h.61v.44Zm26.52-.11h-.61v-.44h.61ZM99,53.63h-.61v-.44H99Zm-52-.05v-.44h.61v.44Zm26.25-.33H72.6v-.44h.61Zm38.51-.14h-.62v-.44h.61Zm-77.58,0v-.44h.61v.44Zm25.46-.14v-.44h.61v.44Zm26.53-.11h-.61v-.44h.61ZM99,52.31h-.61v-.44H99Zm-52-.06v-.44h.61v.44Zm26.26-.32H72.6v-.44h.61Zm38.51-.14h-.61v-.44h.61Zm-77.59,0V51.3h.61v.44ZM59.6,51.6v-.44h.61v.44Zm26.53-.11h-.61v-.44h.61ZM99,51h-.61v-.44H99Zm-52,0v-.44h.61v.44Zm26.26-.32H72.6v-.45h.61Zm38.52-.14h-.61V50h.61Zm-77.61,0V50h.61v.44Zm25.48-.14v-.44h.61v.45Zm26.53-.11h-.61v-.44h.62ZM99,49.66h-.61v-.44H99Zm-52.06,0v-.44h.61v.44Zm26.27-.33H72.6v-.44h.61Zm38.52-.13h-.61V48.7h.62Zm-77.61,0v-.44h.62v.44ZM59.59,49v-.44h.61V49Zm26.55-.1h-.62V48.4h.62ZM99,48.34h-.62V47.9H99Zm-52.07-.05v-.44h.61v.45ZM73.21,48H72.6v-.44h.61Zm38.53-.13h-.61v-.44h.61Zm-77.63-.06v-.44h.61v.44Zm25.48-.14v-.44h.61v.44Zm26.55-.11h-.61v-.44h.61ZM99,47H98.4v-.44H99ZM46.93,47v-.45h.62V47Zm26.28-.33H72.6V46.2h.61Zm38.54-.14h-.62v-.44h.61Zm-77.65,0V46h.61v.44Zm25.49-.14v-.44h.62v.44Zm26.55-.11h-.61v-.44h.61ZM99,45.69H98.4v-.44H99Zm-52.08,0V45.2h.61v.44Zm26.28-.32H72.6v-.44h.61Zm38.54-.14h-.61v-.44h.61Zm-77.66,0v-.44h.61v.44ZM59.58,45v-.44h.61V45Zm26.56-.11h-.61v-.44h.61ZM99,44.37h-.61v-.44H99Zm-52.09,0v-.44h.62v.44ZM73.21,44H72.6v-.44h.61Zm38.55-.13h-.61v-.45h.61Zm-77.67,0v-.44h.62v.44Zm25.49-.14v-.45h.61v.44Zm26.56-.11h-.61v-.44h.61ZM99,43.05h-.61v-.44H99Zm-52.1,0v-.44h.61V43Zm26.29-.33H72.6v-.44h.61Zm38.55-.13h-.61v-.44h.61Zm-77.68,0v-.44h.61v.44Zm25.49-.15V41.9h.62v.44Zm26.57-.11h-.61v-.44h.61ZM99,41.73h-.62v-.45H99Zm-52.11,0v-.44h.62v.44Zm26.29-.33H72.6v-.44h.61Zm38.56-.14h-.61v-.44h.61Zm-77.7-.05v-.44h.61v.44ZM59.57,41v-.44h.61V41Zm26.57-.11h-.61v-.44h.61ZM99,40.41h-.61V40H99Zm-52.12-.06v-.44h.61v.44ZM73.21,40H72.6v-.44h.61Zm38.56-.14h-.61v-.44h.61Zm-77.7,0V39.4h.61v.44Zm25.5-.14v-.44h.61v.44Zm26.57-.11h-.61v-.44h.61ZM99,39.08h-.61v-.44H99ZM46.91,39v-.44h.61V39Zm26.3-.33H72.6v-.44h.61Zm38.57-.13h-.61v-.44h.61Zm-77.72,0v-.44h.61v.45Zm25.5-.14v-.44h.62v.44Zm26.58-.11h-.61v-.44h.61ZM99,37.76h-.61v-.44H99Zm-52.14,0v-.44h.61v.44Zm26.31-.33H72.6v-.44h.61Zm38.58-.13h-.61V36.8h.61Zm-77.74,0v-.44h.61v.44Zm25.51-.15v-.44h.61v.44Zm26.58-.11h-.61V36.5h.61Zm12.9-.5h-.61V36H99Zm-52.14,0V36h.61v.45Zm26.31-.33H72.6v-.44h.61Zm-13.65-.33v-.44h.61v.44Zm26.58-.11h-.61v-.44h.61Zm12.91-.5h-.61v-.44h.61Zm-52.16,0v-.45h.61v.44Zm26.32-.33H72.6V34.3h.61Zm-13.66-.33V34h.61v.44Zm26.6-.11h-.62v-.44h.62Zm12.9-.51h-.61v-.44h.61Zm-52.16,0V33.3h.61v.44Zm26.32-.32H72.6V33h.61Zm-13.66-.33v-.44h.61v.44ZM86.15,33h-.62v-.44h.62Zm12.91-.51h-.62V32h.61Zm-52.18,0V32h.61v.44Zm26.33-.33H72.6v-.44h.61Zm-13.66-.33v-.44h.62v.44Zm26.6-.1h-.62v-.45h.61Zm12.91-.51h-.61v-.44h.61Zm-52.18,0v-.44h.61v.44Zm26.33-.33H72.6v-.44h.61Zm-13.67-.33V30h.61v.44Zm26.61-.11h-.61v-.44h.61Zm12.91-.5h-.61v-.44h.62Zm-52.18,0v-.44h.62v.44Zm26.33-.33H72.6V29h.61Zm-13.67-.33v-.44h.61v.44ZM86.15,29h-.61v-.44h.61Zm-12.94-.88H72.6v-.44h.61ZM59.54,27.8v-.44h.62v.44Zm26.61-.11h-.61v-.44h.61ZM73.21,26.8H72.6v-.44h.61Zm-13.68-.32V26h.61v.44Zm26.62-.11h-.61v-.44h.61Zm-12.94-.89H72.6V25h.61Zm-13.68-.33v-.44h.61v.44ZM86.15,25h-.61V24.6h.61Zm-12.94-.88H72.6v-.44h.61Zm-13.69-.33v-.44h.62v.44Zm26.63-.11h-.61v-.44h.61Zm-12.94-.88H72.6V22.4h.61Zm-13.69-.33v-.44h.61v.44Zm26.63-.11h-.61V22h.61Zm-12.94-.88H72.6v-.45h.61Zm0-1.33H72.6v-.44h.61Z"/><path class="cls-2" d="M61.13,22a1.23,1.23,0,1,1-1.23-1.22A1.23,1.23,0,0,1,61.13,22Z"/><path class="cls-2" d="M48.43,29.39a1.23,1.23,0,1,1-1.22-1.23A1.22,1.22,0,0,1,48.43,29.39Z"/><path class="cls-2" d="M35.58,36.78a1.23,1.23,0,1,1-1.22-1.23A1.23,1.23,0,0,1,35.58,36.78Z"/><path class="cls-2" d="M48.54,44.17A1.23,1.23,0,1,1,47.31,43,1.23,1.23,0,0,1,48.54,44.17Z"/><path class="cls-2" d="M35.69,51.57a1.23,1.23,0,1,1-1.23-1.23A1.22,1.22,0,0,1,35.69,51.57Z"/><path class="cls-2" d="M48.64,58.76a1.23,1.23,0,1,1-1.23-1.23A1.23,1.23,0,0,1,48.64,58.76Z"/><path class="cls-2" d="M35.79,66.15a1.23,1.23,0,1,1-1.23-1.22A1.23,1.23,0,0,1,35.79,66.15Z"/><path class="cls-2" d="M48.74,73.55a1.23,1.23,0,1,1-1.23-1.23A1.23,1.23,0,0,1,48.74,73.55Z"/><path class="cls-2" d="M35.89,80.94a1.23,1.23,0,1,1-1.23-1.23A1.23,1.23,0,0,1,35.89,80.94Z"/><path class="cls-2" d="M48.74,88.28a1.23,1.23,0,1,1-1.23-1.22A1.23,1.23,0,0,1,48.74,88.28Z"/><path class="cls-2" d="M35.89,95.68a1.23,1.23,0,1,1-1.23-1.23A1.23,1.23,0,0,1,35.89,95.68Z"/><path class="cls-2" d="M23,43.92a1.23,1.23,0,1,1-1.23-1.23A1.23,1.23,0,0,1,23,43.92Z"/><path class="cls-2" d="M23,58.76a1.23,1.23,0,1,1-1.23-1.23A1.23,1.23,0,0,1,23,58.76Z"/><path class="cls-2" d="M23,73.39a1.23,1.23,0,1,1-1.23-1.22A1.23,1.23,0,0,1,23,73.39Z"/><path class="cls-2" d="M23,88.39a1.23,1.23,0,1,1-1.23-1.23A1.23,1.23,0,0,1,23,88.39Z"/><path class="cls-2" d="M74.16,29.27A1.23,1.23,0,1,1,72.93,28,1.23,1.23,0,0,1,74.16,29.27Z"/><path class="cls-2" d="M74.16,44a1.23,1.23,0,1,1-1.23-1.23A1.23,1.23,0,0,1,74.16,44Z"/><path class="cls-2" d="M74.16,59a1.23,1.23,0,1,1-1.23-1.22A1.23,1.23,0,0,1,74.16,59Z"/><path class="cls-2" d="M74.16,73.6a1.23,1.23,0,1,1-1.23-1.23A1.23,1.23,0,0,1,74.16,73.6Z"/><path class="cls-2" d="M74.16,88.3a1.23,1.23,0,1,1-1.23-1.23A1.23,1.23,0,0,1,74.16,88.3Z"/><path class="cls-2" d="M125.23,88.13A1.23,1.23,0,1,1,124,86.91,1.23,1.23,0,0,1,125.23,88.13Z"/><path class="cls-2" d="M125.23,73.5A1.23,1.23,0,1,1,124,72.27,1.23,1.23,0,0,1,125.23,73.5Z"/><path class="cls-2" d="M125.23,58.76A1.23,1.23,0,1,1,124,57.53,1.23,1.23,0,0,1,125.23,58.76Z"/><path class="cls-2" d="M125.23,44.07A1.23,1.23,0,1,1,124,42.85,1.23,1.23,0,0,1,125.23,44.07Z"/><path class="cls-2" d="M112.74,36.78a1.23,1.23,0,1,1-1.23-1.23A1.23,1.23,0,0,1,112.74,36.78Z"/><path class="cls-2" d="M100,29.39a1.23,1.23,0,1,1-1.23-1.23A1.23,1.23,0,0,1,100,29.39Z"/><path class="cls-2" d="M112.69,51.36a1.23,1.23,0,1,1-1.23-1.22A1.23,1.23,0,0,1,112.69,51.36Z"/><path class="cls-2" d="M100,44.17A1.23,1.23,0,1,1,98.76,43,1.23,1.23,0,0,1,100,44.17Z"/><path class="cls-2" d="M112.64,66.1a1.23,1.23,0,1,1-1.23-1.22A1.23,1.23,0,0,1,112.64,66.1Z"/><path class="cls-2" d="M99.73,58.81a1.23,1.23,0,1,1-1.22-1.23A1.23,1.23,0,0,1,99.73,58.81Z"/><path class="cls-2" d="M112.53,80.84a1.23,1.23,0,0,1-2.45,0,1.23,1.23,0,1,1,2.45,0Z"/><path class="cls-2" d="M99.79,73.65a1.23,1.23,0,1,1-1.23-1.23A1.22,1.22,0,0,1,99.79,73.65Z"/><path class="cls-2" d="M112.33,95.68a1.23,1.23,0,1,1-1.23-1.23A1.22,1.22,0,0,1,112.33,95.68Z"/><path class="cls-2" d="M99.84,88.23A1.23,1.23,0,1,1,98.61,87,1.23,1.23,0,0,1,99.84,88.23Z"/><path class="cls-2" d="M87.09,22a1.23,1.23,0,1,1-1.23-1.22A1.23,1.23,0,0,1,87.09,22Z"/><path class="cls-2" d="M61.13,36.73A1.23,1.23,0,1,1,59.9,35.5,1.22,1.22,0,0,1,61.13,36.73Z"/><path class="cls-2" d="M87.09,36.68a1.23,1.23,0,1,1-1.23-1.23A1.22,1.22,0,0,1,87.09,36.68Z"/><path class="cls-2" d="M61.13,51.47a1.23,1.23,0,1,1-1.23-1.23A1.23,1.23,0,0,1,61.13,51.47Z"/><path class="cls-2" d="M87.09,51.42a1.23,1.23,0,1,1-1.23-1.23A1.23,1.23,0,0,1,87.09,51.42Z"/><path class="cls-2" d="M61.13,66.31a1.23,1.23,0,1,1-1.23-1.23A1.23,1.23,0,0,1,61.13,66.31Z"/><path class="cls-2" d="M87.09,66.26A1.23,1.23,0,1,1,85.86,65,1.23,1.23,0,0,1,87.09,66.26Z"/><path class="cls-2" d="M61.13,81a1.23,1.23,0,1,1-1.23-1.22A1.23,1.23,0,0,1,61.13,81Z"/><path class="cls-2" d="M87.09,81a1.23,1.23,0,1,1-1.23-1.22A1.23,1.23,0,0,1,87.09,81Z"/><path class="cls-2" d="M61.13,95.73A1.23,1.23,0,1,1,59.9,94.5,1.23,1.23,0,0,1,61.13,95.73Z"/><path class="cls-2" d="M87.09,95.68a1.23,1.23,0,1,1-1.23-1.23A1.22,1.22,0,0,1,87.09,95.68Z"/><path class="cls-3" d="M67.38,121.66q-10,0-16.26-4.24a24.55,24.55,0,0,1-9.18-11.58A44.32,44.32,0,0,1,39,89.38a78.64,78.64,0,0,1,2.21-17.72,101.11,101.11,0,0,1,6.4-18.73A75.72,75.72,0,0,1,58,36.16a51.2,51.2,0,0,1,14-12.09,33.64,33.64,0,0,1,17.21-4.56,21.3,21.3,0,0,1,9.69,2,6.48,6.48,0,0,1,3.86,6.14,6.41,6.41,0,0,1-1.46,3.93c-1,1.26-3,2.32-6.14,3.16.09-.67.15-1.39.19-2.15s.07-1.44.07-2A7.74,7.74,0,0,0,94.09,26c-.84-1.22-2.62-1.84-5.32-1.84a18.12,18.12,0,0,0-11.14,3.93,40.42,40.42,0,0,0-9.43,10.5,87.58,87.58,0,0,0-7.46,14.56,120.2,120.2,0,0,0-5.26,16.08,32.52,32.52,0,0,1,9.75-5.07A36.2,36.2,0,0,1,76.5,62.42,29.39,29.39,0,0,1,89,65.08a21.59,21.59,0,0,1,9.31,8.23q3.54,5.56,3.54,14.43A34.7,34.7,0,0,1,97.51,105a31.87,31.87,0,0,1-12,12.22A35.4,35.4,0,0,1,67.38,121.66Zm.63-5.82a15.41,15.41,0,0,0,8.61-2.47,21.94,21.94,0,0,0,6.46-6.58,34.15,34.15,0,0,0,4.11-9.24,37.66,37.66,0,0,0,1.46-10.32,23.15,23.15,0,0,0-2.15-10.7,13.75,13.75,0,0,0-6-6.07,19.08,19.08,0,0,0-8.79-2q-7,0-11.21,3.41a19.35,19.35,0,0,0-6.14,8.8,34.72,34.72,0,0,0-1.89,11.58,44.71,44.71,0,0,0,.69,7.47,32.1,32.1,0,0,0,2.34,7.72,15.25,15.25,0,0,0,4.75,6A12.55,12.55,0,0,0,68,115.84Z"/></g></g></svg>