<svg xmlns="http://www.w3.org/2000/svg" viewBox="0 0 145.77 145.77"><defs><style>.cls-1{fill:#c93f3f;}.cls-2{fill:#e5aab1;}.cls-3{fill:#fff;}</style></defs><g id="Layer_2" data-name="Layer 2"><g id="Layer_5" data-name="Layer 5"><circle class="cls-1" cx="72.88" cy="72.88" r="72.88"/><path class="cls-2" d="M28.16,59.57l71.47-23.3-.2-.59L28,59Zm-.4,0L71.9,120.23l.49-.36L28.25,59.22Zm44.63,60.65,44.26-60.71-.49-.36L71.9,119.87Zm44.05-61.31L45.09,35.5l-.19.59,71.35,23.42Zm-71.75-23v75.31h.62V35.91Zm72,51.77L72.51,26.79l-.49.36L116.16,88ZM55.36,21.52l-.09.29,60.89,19.8,0,63.8L55.46,125.12,18,73.49,55.61,21.7l-.25-.18-.09.29.09-.29-.25-.18L17.21,73.49l38,52.35,61.53-20V41.16l-61.52-20-.14.18ZM99.22,36v75.19h.62V36ZM28.13,87.86l44.2-60.59-.49-.37L27.63,87.5Z"/><path class="cls-2" d="M72.13,86.55v.62h.62v-.62Zm0-1.23v.62h.62v-.62Zm0-1.22v.61h.62V84.1Zm0-1.23v.61h.62v-.61Zm0-1.23v.62h.62v-.62Zm0-1.23V81h.62v-.62Zm0-1.22v.61h.62v-.61Zm0-1.23v.61h.62V78Zm0-1.23v.62h.62v-.62Zm0-1.22v.61h.62v-.61Zm0-1.23v.61h.62v-.61Zm0-1.23v.61h.62v-.61Zm0-1.23v.62h.62v-.62Zm0-1.22v.61h.62V70.6Zm0-1.23V70h.62v-.61Zm0-1.23v.61h.62v-.61Zm0-1.23v.62h.62v-.62Zm0-1.22v.61h.62v-.61Zm0-1.23v.61h.62v-.61Zm0-1.23v.61h.62v-.61Zm0-1.23v.62h.62V62Zm0-1.22v.61h.62v-.61Zm0-1.23v.61h.62v-.61Zm0-1.23v.61h.62v-.61Zm0-1.23v.62h.62v-.62Zm0-1.22v.61h.62v-.61Zm0-1.23v.61h.62v-.61Zm0-1.23V54h.62v-.61Zm0-1.23v.62h.62v-.62Zm0-1.22v.61h.62V51Zm0-1.23v.61h.62v-.61Zm0-1.23v.62h.62V48.5Zm0-1.23v.62h.62v-.62Zm0-1.22v.61h.62v-.61Zm0-1.23v.61h.62v-.61ZM98.31,82.51l.58.2.2-.58-.58-.2Zm-1.16-.39.58.2.19-.58-.58-.2ZM96,81.73l.59.2.19-.58-.58-.2Zm-1.16-.39.58.2.2-.58-.59-.2ZM93.66,81l.58.2.19-.58-.58-.2Zm-1.17-.39.58.2.2-.58-.58-.2Zm-1.16-.39.58.2.2-.58-.59-.2Zm-1.17-.39.59.2.19-.58-.58-.2ZM89,79.39l.58.2.2-.58-.58-.2ZM87.84,79l.58.2.19-.58-.58-.2Zm-1.17-.39.58.2.2-.58-.58-.2Zm-1.16-.39.58.2.2-.58-.59-.2Zm-1.16-.39.58.2.19-.58-.58-.2Zm-1.17-.39.58.2.2-.58-.58-.2ZM82,77.05l.58.2.19-.58-.58-.2Zm-1.17-.39.59.2.19-.58-.58-.2Zm-1.16-.39.58.2.2-.58-.59-.2Zm-1.16-.39.58.2.19-.58-.58-.2Zm-1.17-.39.58.2.2-.58-.58-.2ZM76.2,75.1l.58.2.2-.58-.59-.2ZM75,74.71l.59.2.19-.58-.58-.2Zm-1.16-.39.58.2.2-.58-.58-.2Zm-1.16-.39.58.2.19-.58-.58-.2Zm-1.17-.39.58.2.2-.58-.58-.2Zm-1.16-.39.58.2.2-.58-.59-.2Zm-1.16-.39.58.2.19-.58-.58-.2Zm-1.17-.39.58.2.2-.58-.58-.2ZM66.89,72l.58.2.19-.58-.58-.2Zm-1.17-.39.59.2.19-.58-.58-.2Zm-1.16-.39.58.2.2-.58-.59-.2Zm-1.16-.39L64,71l.19-.58-.58-.2Zm-1.17-.39.58.2L63,70l-.58-.2ZM61.07,70l.58.2.2-.58-.59-.2Zm-1.17-.39.59.2.19-.58-.58-.2Zm-1.16-.39.58.2.2-.58-.58-.2Zm-1.16-.39.58.2.19-.58-.58-.2Zm-1.17-.39.58.2.2-.58-.58-.2Zm-1.16-.39.58.2.2-.58-.59-.2Zm-1.16-.39.58.2.19-.58-.58-.2Zm-1.17-.39.58.2.2-.58-.58-.2Zm-1.16-.39.58.2.19-.58-.58-.2Zm-1.17-.39.59.2.19-.58-.58-.2Zm-1.16-.39.58.2.2-.58-.58-.2Zm-1.16-.39.58.2.19-.58-.58-.2Zm-1.17-.39.58.2.2-.58-.58-.2ZM45.94,65l.58.2.2-.58-.59-.2Zm-1.17-.39.59.2.19-.58L45,64Zm54,.59.58-.2-.19-.58-.58.19Zm-1.16.38.58-.19-.2-.58-.58.19Zm-1.17.39.58-.19-.19-.58-.58.19Zm-1.16.39.58-.19-.19-.58-.59.19Zm-1.17.39.59-.19-.2-.58-.58.19Zm-1.16.39.58-.19-.19-.58-.58.19Zm-1.16.39.58-.19-.2-.59-.58.2Zm-1.17.39.58-.19L91,67.1l-.58.2Zm-1.16.39.58-.19-.19-.59-.59.2Zm-1.17.39.59-.2-.2-.58-.58.2Zm-1.16.39.58-.2-.19-.58-.58.2Zm-1.16.39.58-.2-.2-.58-.58.2Zm-1.17.39.58-.2-.19-.58-.58.19Zm-1.16.39.58-.2L84,69.44l-.59.19Zm-1.17.39.59-.2-.2-.58-.58.19ZM81.27,71l.58-.19-.19-.58-.59.19Zm-1.16.39.58-.19-.2-.58-.58.19Zm-1.17.39.58-.19L79.33,71l-.58.19Zm-1.16.39.58-.19-.2-.58-.58.19Zm-1.17.39.59-.19-.2-.59-.58.2Zm-1.16.39.58-.19-.19-.59-.59.2Zm-1.16.39.58-.19-.2-.59-.58.2Zm-1.17.39.58-.19-.19-.59-.58.2ZM72,74.11l.58-.2-.2-.58-.58.2Zm-1.17.39.59-.2-.2-.58-.58.2Zm-1.16.39.58-.2L70,74.11l-.59.2Zm-1.17.39.59-.2-.2-.58-.58.19Zm-1.16.39.58-.2-.19-.58-.58.19Zm-1.16.39.58-.2-.2-.58-.58.19ZM65,76.44l.58-.19-.19-.58-.58.19Zm-1.16.39.58-.19-.19-.58-.59.19Zm-1.17.39.59-.19-.2-.58-.58.19Zm-1.16.39.58-.19-.19-.58-.58.19ZM60.32,78l.58-.19-.2-.59-.58.2Zm-1.17.39.58-.19-.19-.59-.58.2ZM58,78.78l.58-.19L58.38,78l-.59.2Zm-1.17.39.59-.19-.2-.59-.58.2Zm-1.16.39.58-.2-.19-.58-.58.2ZM54.5,80l.58-.2-.2-.58-.58.2Zm-1.17.39.58-.2-.19-.58-.58.2Zm-1.16.39.58-.2L52.56,80l-.59.19ZM51,81.12l.59-.2-.2-.58-.58.19Zm-1.16.39.58-.2-.19-.58-.58.19Zm-1.16.38.58-.19-.2-.58-.58.19Zm-1.17.39.58-.19-.19-.58-.58.19Zm-1.16.39.58-.19-.19-.58-.59.19Zm-1.17.39.59-.19-.2-.58-.58.19ZM88.89,51.28l.37-.5-.5-.36-.36.49Zm-.73,1,.37-.49-.5-.36-.36.49Zm-.72,1,.36-.49-.5-.37-.36.5Zm-.73,1,.36-.49-.49-.37-.37.5Zm-.73,1,.36-.5-.49-.36-.37.49Zm-.73,1,.36-.5-.49-.36-.36.49Zm-.73,1,.37-.49-.5-.36-.36.49Zm-.73,1,.37-.49-.5-.37-.36.5Zm-.72,1,.36-.49-.49-.37-.37.5Zm-.73,1,.36-.49-.49-.37-.37.5Zm-.73,1,.36-.5-.49-.36-.36.49Zm-.73,1,.37-.5-.5-.36-.36.49Zm-.73,1,.37-.49-.5-.36-.36.49Zm-.72,1,.36-.49-.49-.37-.37.5Zm-.73,1,.36-.49-.49-.37-.37.5Zm-.73,1,.36-.5-.49-.36-.36.49Zm-.73,1,.37-.5-.5-.36-.36.49Zm-.73,1,.37-.49-.5-.36-.36.49Zm-.72,1,.36-.49-.49-.37-.37.5Zm-.73,1,.36-.49-.49-.37-.37.5Zm-.73,1,.36-.49-.49-.37-.37.49Zm-.73,1,.36-.5-.49-.36-.36.49Zm-.73,1,.37-.5-.5-.36-.36.49Zm-.73,1,.37-.49-.5-.36-.36.49Zm-.72,1,.36-.49-.49-.37-.37.5Zm-.73,1,.36-.49-.49-.37-.37.5ZM70,77l.36-.5-.49-.36-.36.49Zm-.73,1,.37-.5-.5-.36-.36.49Zm-.73,1,.37-.49-.5-.36-.36.49Zm-.72,1,.36-.49-.49-.37-.37.5Zm-.73,1,.36-.49-.49-.37-.37.5Zm-.73,1,.36-.5-.49-.36-.36.49Zm-.73,1,.37-.5-.5-.36-.36.49Zm-.73,1,.37-.49-.5-.36-.36.49Zm-.72,1,.36-.49L64,84l-.37.5Zm-.73,1,.36-.49L63.28,85l-.37.5Zm-.73,1,.36-.49L62.55,86l-.36.5ZM81,86.23l.37.49.49-.36-.36-.49Zm-.72-1,.36.49.49-.36-.36-.49Zm-.73-1,.36.5.5-.37L80,83.89Zm-.73-1,.37.5.49-.37-.36-.49Zm-.72-1,.36.5.49-.37-.36-.49Zm-.73-1,.36.5.5-.37-.37-.49Zm-.73-1,.37.5.49-.37-.36-.49Zm-.72-1,.36.5.49-.36-.36-.5Zm-.73-1,.36.49.5-.36-.37-.5Zm-.73-1,.37.49.49-.36L75,77Zm-.72-1,.36.49.49-.36-.36-.5Zm-.73-1,.36.49.5-.36-.37-.5Zm-.73-1,.37.49.49-.36-.36-.5Zm-.72-1,.36.49.49-.36L72,73Zm-.73-1,.36.49.5-.36L71.31,72Zm-.73-1,.37.5.49-.37L70.59,71Zm-.72-1,.36.5.49-.37L69.86,70Zm-.73-1,.36.5.5-.37-.37-.49Zm-.73-1,.37.5.49-.37-.36-.49Zm-.72-1,.36.5.49-.37-.36-.49Zm-.73-1,.36.5.5-.36-.37-.5Zm-.73-1,.37.49.49-.36-.36-.5Zm-.72-1,.36.49.49-.36-.36-.5Zm-.73-1,.36.49.5-.36-.37-.5Zm-.73-1,.37.49.49-.36-.36-.5Zm-.72-1,.36.49.49-.36-.36-.5Zm-.73-1,.36.49.5-.36-.37-.49Zm-.73-1,.37.49.49-.36-.36-.49Zm-.72-1L61,59l.49-.37-.36-.49Zm-.73-1,.36.5.5-.37-.37-.49Zm-.73-1,.37.5.49-.37-.36-.49Zm-.72-1,.36.5.49-.37L59,55.2Zm-.73-1,.36.5.5-.37-.37-.49Zm-.73-1,.37.5.49-.36-.36-.5Zm-.72-1,.36.49.49-.36-.36-.5Zm-.73-1,.36.49.5-.36-.37-.5Zm-.73-1,.37.49.49-.36-.36-.5Z"/><path class="cls-2" d="M28.06,41.64l.58-.19-.19-.59-.58.19Zm.21.59v-.62h-.62v.62Zm0,1.23v-.62h-.62v.61Zm0,1.22v-.61h-.62v.61Zm0,1.23V45.3h-.61v.61Zm0,1.23v-.62h-.61v.62Zm0,1.23v-.62h-.61v.61Zm0,1.22V49h-.61v.61Zm0,1.23v-.61h-.61v.61Zm0,1.23v-.62h-.61v.62Zm0,1.22v-.61h-.62v.61Zm0,1.23v-.61h-.62v.61Zm0,1.23v-.61h-.62v.61Zm0,1.23v-.62h-.61V57Zm0,1.22v-.61h-.61v.61Zm0,1.23V58.8h-.61v.61Zm0,1.23V60h-.61v.62Zm0,1.23v-.62h-.61v.62Zm0,1.22v-.61h-.61v.61Zm0,1.23v-.61h-.62v.61Zm0,1.23v-.61h-.62v.62Zm0,1.23v-.62h-.62v.62Zm0,1.22v-.61h-.61V68Zm0,1.23v-.61h-.61v.61Zm0,1.23v-.61h-.61v.62Zm0,1.23v-.62h-.61v.62Zm0,1.22V72.3h-.61v.61Zm0,1.23v-.61h-.61v.61Zm0,1.23v-.62h-.62v.62Zm0,1.23V76h-.62v.62Zm0,1.22v-.61h-.62v.61Zm0,1.23v-.61h-.61v.61Zm0,1.23v-.62h-.61v.62Zm0,1.23v-.62h-.61v.62Zm0,1.22v-.61h-.61v.61Zm0,1.23v-.61h-.61V84Zm0,1.23v-.62h-.61v.62Zm0,1.23V85.8h-.62v.61Zm88.71.16-.36.5.49.36.36-.49Zm.72-1-.36.5.5.36.36-.5Zm.72-1-.36.5.5.36.36-.5Zm.73-1-.37.49.5.36.36-.49Zm.72-1-.36.49.49.36.36-.49Zm.72-1-.36.5.49.36.37-.5Zm.72-1-.36.5.5.36.36-.5Zm.72-1-.36.49.5.37.36-.5Zm.73-1-.36.49.49.36.36-.49Zm.72-1-.36.5.49.36.37-.5Zm.72-1-.36.5.5.36.36-.5Zm.72-1-.36.5.5.36.36-.5Zm.73-1-.36.49.49.36.36-.49Zm.72-1-.36.5.49.36.36-.49Zm-.27-.63.36.5.49-.36-.36-.5Zm-.72-1,.36.49.49-.36-.36-.49Zm-.72-1,.36.5.49-.36-.36-.5Zm-.73-1,.37.5.49-.36-.36-.5Zm-.72-1,.36.49.5-.36-.36-.49Zm-.72-1,.36.5.5-.36-.36-.5Zm-.72-1,.36.5.5-.36-.36-.5Zm-.72-1,.36.49.5-.36-.36-.49Zm-.72-1,.36.5.5-.36-.36-.5Zm-.72-1,.36.5.5-.36-.36-.5Zm-.72-1,.36.5.5-.36-.36-.5Zm-.72-1,.36.5.5-.36-.36-.5Zm-.72-1,.36.49.5-.36-.36-.49Zm-.72-1,.36.5.5-.36-.36-.5Zm-.72-1,.36.5.5-.36-.36-.5Zm-.72-1,.36.49.5-.36-.36-.49Zm-.72-1,.36.5.49-.36-.36-.5Zm-.72-1,.36.5.49-.36-.36-.5Zm-.72-1,.36.49.49-.36-.36-.49Zm-.72-1,.36.5.49-.36-.36-.5Zm-.72-1,.36.49.49-.36-.36-.49Zm-.73-1,.36.5.5-.36-.36-.5Zm-.72-1,.36.5.5-.36-.36-.5Zm-.72-1,.36.49.5-.36-.36-.49Zm-.72-1,.36.5.5-.36-.36-.5Zm-.72-1,.36.5.5-.36-.36-.5Zm-.72-1,.36.49.5-.36-.36-.49Zm-.72-1,.36.5.5-.36-.36-.5Zm-.72-1,.36.5.5-.36-.36-.5Zm-.72-1,.36.5.5-.36-.36-.5Zm-.72-1,.36.5.5-.36-.36-.5Zm-.72-1,.36.49.5-.36-.36-.49Zm-.72-1,.36.5.5-.36-.36-.5Zm-.72-1,.36.5.5-.36-.37-.5Zm-.72-1,.36.49.49-.36-.36-.49Zm-.72-1,.36.5.49-.36-.36-.5Zm-.72-1,.36.5.49-.36-.36-.5Zm-.72-1,.36.49.49-.36-.36-.49Zm-.72-1,.36.5.49-.36-.36-.5Zm-.73-1,.36.5.5-.36-.36-.5Zm-.72-1,.36.5.5-.36-.36-.5Zm-.72-1,.36.5.5-.36L97,32Zm-.72-1,.36.49.5-.36L96.29,31Zm-.72-1,.36.5.5-.36-.36-.5Zm-.72-1,.36.5.5-.36-.36-.5Zm-.72-1,.36.49.5-.36L94.13,28Zm-.72-1,.36.5.5-.36-.36-.5Zm-.72-1,.36.5.5-.36-.36-.5Zm-.72-1,.36.49.5-.36L92,25Zm-.72-1,.36.5.5-.36-.36-.5Zm-.72-1,.36.49.5-.36L90.53,23Zm-.72-1,.36.5.49-.36L89.8,22Zm-.53-.4.4-.13-.1-.3-.24.18.11.16.49-.36-.11-.16-.13-.18-.61.2.19.59Zm-1.17.37.58-.18L88,21.57l-.58.19Zm-1.17.38.58-.19L86.84,22l-.59.19Zm-1.17.38.59-.19-.19-.58-.59.19Zm-1.16.38.58-.19-.19-.58-.58.19Zm-1.17.38.58-.19-.19-.59-.58.19Zm-1.17.38.58-.19-.19-.59-.58.19Zm-1.17.37.59-.19L81,23.84l-.59.19ZM79.43,25,80,24.8l-.19-.58-.58.19Zm-1.16.38.58-.19-.19-.58-.58.19Zm-1.17.38.58-.19L77.49,25l-.58.19Zm-1.17.38.59-.19-.19-.59-.59.19Zm-1.17.38.59-.19-.19-.59-.59.19Zm-1.16.37.58-.19L74,26.11l-.58.19Zm-1.17.38.58-.19-.19-.58-.58.19Zm-1.17.38.58-.19-.18-.58-.59.19ZM70.09,28l.59-.19-.19-.58-.59.18Zm-1.16.38.58-.19-.19-.59-.58.19Zm-1.17.37.58-.18L68.15,28l-.58.19Zm-1.17.38.58-.19L67,28.38l-.58.19Zm-1.17.38.59-.19-.19-.58-.59.19Zm-1.17.38.59-.19-.19-.58-.58.19Zm-1.16.38.58-.19-.19-.58-.58.18Zm-1.17.38.58-.19-.19-.59-.58.19ZM60.75,31l.59-.18-.19-.59-.59.19Zm-1.17.38.59-.19L60,30.65l-.59.19Zm-1.16.38.58-.19L58.81,31l-.58.19Zm-1.17.38.58-.19-.19-.58-.58.19Zm-1.17.38.58-.19-.18-.59-.59.19Zm-1.17.38.59-.19-.19-.59-.59.19Zm-1.16.37.58-.18-.19-.59-.58.19Zm-1.17.38.58-.19L53,32.92l-.58.19Zm-1.17.38.58-.19-.19-.58-.58.19Zm-1.17.38.59-.19-.19-.58-.59.19Zm-1.17.38.59-.19-.19-.59-.58.19Zm-1.16.38.58-.19-.19-.59-.58.19Zm-1.17.37.58-.19-.19-.58-.58.19ZM45.57,36l.59-.19L46,35.19l-.59.19Zm-1.17.38.59-.19-.19-.58-.59.19Zm-1.16.38.58-.19L43.63,36l-.58.19Zm-1.17.38.58-.19-.19-.59-.58.19Zm-1.17.38.58-.19-.18-.59-.59.19Zm-1.17.37.59-.19-.19-.58-.59.19Zm-1.16.38.58-.19L39,37.46l-.58.19Zm-1.17.38.58-.19-.19-.58-.58.19ZM36.23,39l.58-.19-.19-.58L36,38.4Zm-1.17.38.59-.19-.19-.59-.59.19Zm-1.17.37.59-.18L34.29,39l-.58.19Zm-1.16.38.58-.19-.19-.58-.58.19Zm-1.17.38.58-.19L32,39.73l-.58.19Zm-1.17.38.59-.19-.19-.58-.59.19Zm-1.17.38.59-.19-.19-.58-.59.18Z"/><path class="cls-2" d="M73.57,44.81a1.15,1.15,0,1,1-1.14-1.15A1.14,1.14,0,0,1,73.57,44.81Z"/><path class="cls-2" d="M56.22,50.47a1.14,1.14,0,1,1-1.14-1.14A1.14,1.14,0,0,1,56.22,50.47Z"/><path class="cls-2" d="M46.12,64.32A1.14,1.14,0,1,1,45,63.17,1.14,1.14,0,0,1,46.12,64.32Z"/><path class="cls-2" d="M46.23,82.74a1.15,1.15,0,1,1-1.14-1.15A1.14,1.14,0,0,1,46.23,82.74Z"/><path class="cls-2" d="M100.63,82.59a1.15,1.15,0,1,1-1.15-1.14A1.15,1.15,0,0,1,100.63,82.59Z"/><path class="cls-2" d="M100.66,64.64a1.15,1.15,0,1,1-1.14-1.14A1.14,1.14,0,0,1,100.66,64.64Z"/><path class="cls-2" d="M100.63,36a1.15,1.15,0,1,1-1.15-1.14A1.15,1.15,0,0,1,100.63,36Z"/><path class="cls-2" d="M73.36,27a1.15,1.15,0,1,1-1.15-1.15A1.15,1.15,0,0,1,73.36,27Z"/><path class="cls-2" d="M46.16,35.87A1.15,1.15,0,1,1,45,34.73,1.15,1.15,0,0,1,46.16,35.87Z"/><path class="cls-2" d="M29.06,59.32a1.15,1.15,0,1,1-1.14-1.14A1.15,1.15,0,0,1,29.06,59.32Z"/><path class="cls-2" d="M29.06,87.66a1.15,1.15,0,1,1-1.14-1.14A1.15,1.15,0,0,1,29.06,87.66Z"/><path class="cls-2" d="M128.18,73.49A1.15,1.15,0,1,1,127,72.35,1.15,1.15,0,0,1,128.18,73.49Z"/><path class="cls-2" d="M117.61,41.33a1.14,1.14,0,1,1-1.14-1.14A1.14,1.14,0,0,1,117.61,41.33Z"/><path class="cls-2" d="M90.35,21.52a1.15,1.15,0,1,1-1.15-1.14A1.15,1.15,0,0,1,90.35,21.52Z"/><path class="cls-2" d="M56.53,21.45a1.15,1.15,0,1,1-1.15-1.14A1.14,1.14,0,0,1,56.53,21.45Z"/><path class="cls-2" d="M29.12,41.3a1.15,1.15,0,0,1-2.29,0,1.15,1.15,0,1,1,2.29,0Z"/><path class="cls-2" d="M117.54,59.36a1.15,1.15,0,0,1-2.29,0,1.15,1.15,0,1,1,2.29,0Z"/><path class="cls-2" d="M90.31,50.4a1.15,1.15,0,1,1-1.14-1.15A1.14,1.14,0,0,1,90.31,50.4Z"/><path class="cls-2" d="M73.86,73.52a1.58,1.58,0,1,1-1.58-1.58A1.57,1.57,0,0,1,73.86,73.52Z"/><g id="_7" data-name="7"><path class="cls-3" d="M54.28,123.49a5.31,5.31,0,0,1-3.74-1.64,6.57,6.57,0,0,1-1.71-4.94,31.88,31.88,0,0,1,2-9.43q2-6,5.69-14.11T65,75.52c-1.6,0-3.46.06-5.57.19s-4.24.27-6.39.44-4.15.38-6,.63a7.59,7.59,0,0,1,2.72-6,16.05,16.05,0,0,1,7-3,55.49,55.49,0,0,1,9.56-1h3.42Q73,61.61,78,53.05t11.71-19.3q-3,0-6.33.19l-6.52.38c-2.15.12-4.24.19-6.27.19q-8.61,0-11.83-2c-2.15-1.3-3.23-2.93-3.23-4.87a12.45,12.45,0,0,1,2.15-6.2l7.91,1.26c2.66.43,5.38.74,8.17.95s5.61.32,8.48.32A101.36,101.36,0,0,0,95,23.18a69.5,69.5,0,0,0,11.84-2.47l-4,5.25c-1.31,1.73-2.55,3.44-3.74,5.13q-5.82,8.23-10.69,16.77T78.33,67.29c1.68.17,3.33.3,4.93.38s3.25.13,4.94.13c1.35,0,2.72-.07,4.11-.19a27.07,27.07,0,0,0,4.12-.7,32.4,32.4,0,0,1-6,6.33A10.29,10.29,0,0,1,84,75.52H74.53q-2.28,5.19-4.81,11.39T65.41,99.06a37.18,37.18,0,0,0-1.77,10.38,11.66,11.66,0,0,0,.38,3,4,4,0,0,0,1.65,2.28q-2.41,4.93-6,6.83T54.28,123.49Z"/></g></g></g></svg>