<svg xmlns="http://www.w3.org/2000/svg" viewBox="0 0 145.77 145.77"><defs><style>.cls-1{fill:#c93f3f;}.cls-2{fill:#e5aab1;}.cls-3{fill:#fff;}</style></defs><g id="Layer_2" data-name="Layer 2"><g id="Layer_5" data-name="Layer 5"><circle class="cls-1" cx="72.88" cy="72.88" r="72.88"/><path class="cls-2" d="M58.44,35.07a1.24,1.24,0,0,1-2.48,0,1.24,1.24,0,1,1,2.48,0Z"/><path class="cls-2" d="M89.77,35.07a1.24,1.24,0,0,1-2.48,0,1.24,1.24,0,1,1,2.48,0Z"/><path class="cls-2" d="M111.92,57.22A1.24,1.24,0,1,1,110.68,56,1.23,1.23,0,0,1,111.92,57.22Z"/><path class="cls-2" d="M111.92,88.55a1.24,1.24,0,1,1-1.24-1.24A1.23,1.23,0,0,1,111.92,88.55Z"/><path class="cls-2" d="M36.28,88.55a1.24,1.24,0,0,1-2.48,0,1.24,1.24,0,0,1,2.48,0Z"/><path class="cls-2" d="M36.28,57.22a1.24,1.24,0,1,1-2.48,0,1.24,1.24,0,1,1,2.48,0Z"/><path class="cls-2" d="M127.59,95a1.25,1.25,0,1,1-1.24-1.25A1.25,1.25,0,0,1,127.59,95Z"/><path class="cls-2" d="M127.59,50.73a1.25,1.25,0,1,1-1.24-1.24A1.24,1.24,0,0,1,127.59,50.73Z"/><path class="cls-2" d="M20.66,95a1.24,1.24,0,1,1-1.24-1.24A1.24,1.24,0,0,1,20.66,95Z"/><path class="cls-2" d="M20.66,50.77a1.24,1.24,0,1,1-1.24-1.24A1.24,1.24,0,0,1,20.66,50.77Z"/><path class="cls-2" d="M34.68,34.88l-.24.58.58.24.25-.58Zm1.1-.56-.59.25.24.58.59-.24Zm1.16-.48-.58.24.24.59.58-.25Zm1.17-.48-.58.24.24.58.58-.24Zm1.17-.49-.59.25.24.58.59-.24Zm1.16-.48-.58.24.24.59.58-.25Zm1.17-.48-.58.24.24.58.58-.24Zm1.17-.49-.59.25.24.58L43,32Zm1.16-.48-.58.24.24.59.58-.25Zm1.17-.48-.58.24.24.58.58-.24ZM46.28,30l-.59.25.24.58.59-.24Zm1.16-.48-.58.24.24.59.58-.25ZM48.61,29l-.58.24.24.58.58-.24Zm1.17-.49-.59.25.24.58.59-.24ZM50.94,28l-.58.24.24.59.59-.25Zm1.17-.48-.58.24.24.58.58-.24Zm1.17-.49-.59.25.25.58.58-.24Zm1.16-.48-.58.24.24.59.59-.25Zm1.17-.48-.58.24.24.58.58-.24Zm1.17-.49-.59.25.25.58.58-.24Zm1.16-.48-.58.24.24.59.59-.25Zm1.17-.48-.58.24.24.58.58-.24Zm1.17-.49-.59.25.25.58.58-.24Zm1.16-.48-.58.24.24.59.59-.25Zm1.17-.48-.58.24.24.58.58-.24Zm1.17-.49-.59.25.25.58.58-.24Zm1.16-.48-.58.24.24.59.59-.25Zm1.17-.48-.58.24.24.58.58-.24Zm1.17-.49-.59.25.25.58.58-.24Zm11.91.31-.59-.24-.24.58.59.25Zm1.16.49-.58-.25-.24.59.58.24Zm1.17.48-.58-.24-.24.58.58.24Zm1.17.48-.59-.24-.24.58.59.24Zm1.16.49-.58-.25-.24.59.58.24ZM85,24l-.58-.24-.24.58.58.24Zm1.17.48-.59-.24-.24.58.59.24Zm1.16.48-.58-.24-.24.59.58.24Zm1.17.49-.58-.24-.24.58.58.24Zm1.17.48-.59-.24-.24.58.59.24Zm1.16.48-.58-.24-.24.59.58.24ZM92,26.9l-.58-.24-.24.58.58.24Zm1.17.48-.59-.24-.24.58L93,28Zm1.16.48-.58-.24-.24.59.58.24Zm1.17.49-.58-.24-.24.58.58.24Zm1.17.48-.59-.24-.24.58.59.24Zm1.16.48-.58-.24-.24.59.58.24ZM99,29.8l-.58-.24-.24.58.58.24Zm1.17.48L99.6,30l-.24.58.59.24Zm1.16.48-.58-.24-.24.59.58.24Zm1.17.49-.58-.24-.24.58.58.24Zm1.17.48-.58-.24-.25.58.59.24Zm1.17.48-.59-.24-.24.59.58.24Zm1.16.49-.58-.24-.24.58.58.24Zm1.17.48-.58-.24-.25.58.59.24Zm1.17.48-.59-.24-.24.59.58.24Zm1.16.49-.58-.24-.24.58.58.24Zm1.17.48-.58-.24-.25.58.59.24Zm.76,1.23-.24-.58-.58.24.24.58Zm.48,1.17-.24-.59-.58.25.24.58Zm.49,1.16-.24-.58-.59.24.24.59Zm.48,1.17-.24-.58-.59.24.25.58Zm.48,1.17-.24-.59-.58.25.24.58Zm.49,1.16-.25-.58-.58.24.24.59Zm.48,1.17-.24-.58-.59.24.25.58Zm.48,1.17-.24-.59-.58.25.24.58Zm.49,1.16-.25-.58-.58.24.24.59Zm.48,1.17-.24-.58L115,46l.25.58Zm.48,1.17L116,47l-.58.24.24.58Zm.49,1.17-.25-.59-.58.24.24.59Zm.48,1.16-.24-.58-.59.24.25.58Zm.48,1.17-.24-.58-.58.24.24.58Zm.49,1.17-.25-.59-.58.24.24.59Zm.48,1.16-.24-.58-.59.24.25.58Zm.48,1.17-.24-.58-.58.24.24.58Zm.49,1.17-.25-.59-.58.24.24.59Zm.48,1.16-.24-.58-.59.24.25.58Zm.48,1.17-.24-.58-.58.24.24.58Zm.49,1.17-.25-.59-.58.24.24.59Zm.48,1.16-.24-.58-.59.24.25.58Zm.48,1.17-.24-.58-.58.24.24.58Zm.49,1.17-.25-.59-.58.24.24.59Zm.48,1.16-.24-.58-.59.24.25.58Zm.48,1.17-.24-.58-.58.24.24.58ZM124,66.2l-.25-.59-.58.24.24.59Zm.48,1.16-.24-.58-.59.24.25.58Zm.48,1.17-.24-.58-.58.24.24.58Zm.49,1.17-.25-.59-.58.24.24.59Zm.48,1.16-.24-.58-.59.24.25.58Zm.48,1.17-.24-.58-.58.24.24.58Zm.13,1.41.18-.43.05-.12-.12-.28-.58.25v0l-.13.31.59.24Zm-.49,1.17.25-.59-.59-.24-.24.58Zm-.48,1.16.24-.58-.58-.24-.24.58Zm-.48,1.17.24-.58-.58-.25-.25.59Zm-.49,1.17.25-.59-.59-.24-.24.58Zm-.48,1.16.24-.58-.58-.24-.24.58Zm-.48,1.17.24-.58-.58-.25-.25.59Zm-.49,1.17.25-.59-.59-.24-.24.58Zm-.48,1.16.24-.58-.58-.24-.24.58Zm-.48,1.17.24-.58-.58-.25-.24.59Zm-.48,1.17.24-.59-.59-.24-.24.58Zm-.49,1.16.24-.58-.58-.24-.24.58Zm-.48,1.17.24-.58-.58-.25-.24.59Zm-.48,1.17.24-.59-.59-.24-.24.58Zm-.49,1.16.24-.58-.58-.24-.24.58Zm-.48,1.17.24-.58-.58-.25-.24.59Zm-.48,1.17.24-.59-.59-.24-.24.58Zm-.49,1.16.24-.58-.58-.24-.24.58Zm-.48,1.17.24-.58-.58-.25-.24.59Zm-90.4-1,.24.58.58-.24L28,93.21ZM27,92.29l.25.58.58-.24-.24-.58Zm-.48-1.17.24.59.59-.25-.25-.58ZM26,90l.24.58.58-.24-.24-.59Zm-.49-1.17.25.58.58-.24-.24-.58ZM25,87.62l.24.59.59-.25-.25-.58Zm-.48-1.16.24.58.58-.24-.24-.59Zm-.49-1.17.25.58.58-.24-.24-.58Zm-.48-1.17.24.59.59-.25-.25-.58ZM23.11,83l.24.59.58-.24-.24-.59Zm-.49-1.16.25.58.58-.24-.24-.58Zm-.48-1.17.24.58L23,81l-.25-.58Zm-.48-1.17.24.59.58-.24-.24-.59Zm-.48-1.16.24.58.58-.24-.24-.58Zm-.49-1.17.24.58.59-.24-.24-.58ZM20.21,76l.24.59L21,76.3l-.24-.59Zm-.48-1.16.24.58.58-.24-.24-.58Zm-.49-1.17.24.58.59-.24-.24-.58Zm0-1.41-.23.56,0,.12L19,73l.58-.24v0l-.29.12.29.12.23-.56-.58-.24Zm.48-1.16-.24.58.58.24.24-.58Zm.48-1.17-.24.58.58.24.25-.58Zm.49-1.17-.25.59.59.24.24-.59Zm.48-1.16-.24.58.58.24.24-.58Zm.48-1.17-.24.58.58.24.25-.58Zm.49-1.17-.25.59.59.24.24-.59Zm.48-1.16-.24.58.58.24.24-.58Zm.48-1.17-.24.58.58.24.25-.58Zm.49-1.17-.25.59.59.24.24-.59Zm.48-1.16-.24.58.58.24.24-.58Zm.48-1.17-.24.58.58.24.25-.58ZM25,58.21l-.25.59.59.24.24-.59Zm.48-1.16-.24.58.58.24.24-.58ZM26,55.88l-.24.58.58.24.25-.58Zm.49-1.17-.25.59.59.24.24-.59ZM27,53.54l-.24.59.58.24.24-.58Zm.48-1.16-.24.58.58.24.25-.58Zm.49-1.17-.25.58.59.25.24-.59ZM28.4,50l-.24.59.58.24.24-.58Zm.48-1.16-.24.58.58.24.25-.58Zm.49-1.17-.25.58.59.25L30,48Zm.48-1.17-.24.59.58.24.24-.58Zm.48-1.16-.24.58.58.24.25-.58Zm.49-1.17-.25.58.59.25.24-.59ZM31.3,43l-.24.59.58.24.24-.58Zm.48-1.16-.24.58.58.24.25-.58Zm.49-1.17-.25.58.59.25.24-.59Zm.48-1.17-.24.59.58.24.24-.58Zm.48-1.16L33,39l.58.24.25-.58Zm.49-1.17-.25.58.59.25.24-.59ZM34.2,36l-.24.59.58.24.24-.58Z"/><polygon class="cls-2" points="19.38 50.73 19.06 50.73 19.06 95.17 50.58 126.69 95.15 126.69 126.66 95.17 126.66 50.6 95.15 19.09 50.58 19.09 19.06 50.6 19.06 50.73 19.38 50.73 19.6 50.96 50.84 19.72 94.89 19.72 126.03 50.86 126.03 94.91 94.89 126.05 50.84 126.05 19.7 94.91 19.7 50.73 19.38 50.73 19.6 50.96 19.38 50.73"/><polygon class="cls-2" points="35.04 57.22 34.73 57.22 34.73 88.68 57.07 111.02 88.66 111.02 111 88.68 111 57.09 88.66 34.75 57.07 34.75 34.73 57.09 34.73 57.22 35.04 57.22 35.27 57.45 57.33 35.38 88.4 35.38 110.36 57.35 110.36 88.42 88.4 110.39 57.33 110.39 35.36 88.42 35.36 57.22 35.04 57.22 35.27 57.45 35.04 57.22"/><polygon class="cls-2" points="27.43 53.4 27.12 53.4 27.12 91.19 53.93 118 91.85 118 118.67 91.19 118.67 53.27 91.85 26.45 53.93 26.45 27.12 53.27 27.12 53.4 27.43 53.4 27.66 53.62 54.19 27.09 91.59 27.09 118.03 53.53 118.03 90.93 91.59 117.37 54.19 117.37 27.75 90.93 27.75 53.4 27.43 53.4 27.66 53.62 27.43 53.4"/><path class="cls-2" d="M99.29,92.8v.63h.63V92.8Zm0-1.27v.64h.63v-.64Zm0-1.26v.63h.63v-.63Zm0-1.26v.63h.63V89Zm0-1.26v.63h.63v-.63Zm0-1.27v.63h.63v-.63Zm0-1.26v.63h.63v-.63Zm0-1.26v.63h.63V84Zm0-1.27v.64h.63v-.64Zm0-1.26v.63h.63v-.63Zm0-1.26v.63h.63v-.63Zm0-1.26v.63h.63v-.63Zm0-1.27v.63h.63v-.63Zm0-1.26V77h.63v-.63Zm0-1.26v.63h.63v-.63Zm0-1.27v.64h.63v-.64Zm0-1.26v.63h.63v-.63Zm0-1.26V72h.63v-.63Zm0-1.26v.63h.63v-.63Zm0-1.27v.63h.63V68.8Zm0-1.26v.63h.63v-.63Zm0-1.26v.63h.63v-.63Zm0-1.27v.64h.63V65Zm0-1.26v.63h.63v-.63Zm0-1.26v.63h.63v-.63Zm0-1.26v.63h.63v-.63Zm0-1.27v.63h.63V60Zm0-1.26v.63h.63V58.7Zm0-1.26v.63h.63v-.63Zm0-1.27v.64h.63v-.64Zm0-1.26v.63h.63v-.63Zm0-1.26v.63h.63v-.63Zm0-1.26V53h.63v-.63Zm0-1.27v.63h.63v-.63Zm0-1.26v.63h.63v-.63Zm0-1.26v.63h.63V48.6Zm0-1.27V48h.63v-.63Zm.24-.87h.07v-.32h-.31v.56h.63v-.87h-.39v.63Zm-1.26,0h.63v-.63h-.63Zm-1.26,0h.63v-.63H97Zm-1.27,0h.64v-.63h-.64Zm-1.26,0h.63v-.63h-.63Zm-1.26,0h.63v-.63h-.63Zm-1.26,0h.63v-.63H92Zm-1.27,0h.63v-.63h-.63Zm-1.26,0h.63v-.63h-.63Zm-1.26,0h.63v-.63h-.63Zm-1.27,0h.64v-.63H86.9Zm-1.26,0h.63v-.63h-.63Zm-1.26,0H85v-.63h-.63Zm-1.26,0h.63v-.63h-.63Zm-1.27,0h.63v-.63h-.63Zm-1.26,0h.63v-.63h-.63Zm-1.26,0H80v-.63h-.63Zm-1.27,0h.64v-.63h-.64Zm-1.26,0h.63v-.63H76.8Zm-1.26,0h.63v-.63h-.63Zm-1.26,0h.63v-.63h-.63Zm-1.27,0h.63v-.63H73Zm-1.26,0h.63v-.63h-.63Zm-1.26,0h.63v-.63h-.63Zm-1.27,0h.64v-.63h-.64Zm-1.26,0h.63v-.63H68Zm-1.26,0h.63v-.63H66.7Zm-1.26,0h.63v-.63h-.63Zm-1.27,0h.63v-.63h-.63Zm-1.26,0h.63v-.63h-.63Zm-1.26,0h.63v-.63h-.63Zm-1.27,0H61v-.63h-.64Zm-1.26,0h.63v-.63h-.63Zm-1.26,0h.63v-.63h-.63Zm-1.26,0h.63v-.63H56.6Zm-1.27,0H56v-.63h-.63Zm-1.26,0h.63v-.63h-.63Zm-1.26,0h.63v-.63h-.63Zm-1.27,0h.64v-.63h-.64Zm-1.26,0h.63v-.63h-.63Zm-1.26,0h.63v-.63H49Zm-1.26,0h.63v-.63h-.63Zm-1.27,0h.63v-.63h-.63Zm-.05.57V46.4H45.8V47Zm0,1.26v-.63H45.8v.63Zm0,1.27v-.63H45.8v.63Zm0,1.26v-.63H45.8v.63Zm0,1.26v-.63H45.8v.63Zm0,1.27v-.64H45.8v.64Zm0,1.26V54H45.8v.63Zm0,1.26v-.63H45.8v.63Zm0,1.26V56.5H45.8v.63Zm0,1.27v-.63H45.8v.63Zm0,1.26V59H45.8v.63Zm0,1.26v-.63H45.8v.63Zm0,1.27v-.64H45.8v.64Zm0,1.26v-.63H45.8v.63Zm0,1.26v-.63H45.8v.63Zm0,1.26v-.63H45.8V66Zm0,1.27v-.63H45.8v.63Zm0,1.26v-.63H45.8v.63Zm0,1.26v-.63H45.8v.63Zm0,1.27v-.64H45.8V71Zm0,1.26v-.63H45.8v.63Zm0,1.26v-.63H45.8v.63Zm0,1.26v-.63H45.8v.63Zm0,1.27v-.63H45.8v.63Zm0,1.26v-.63H45.8v.63Zm0,1.26V78H45.8v.63Zm0,1.27v-.64H45.8v.64Zm0,1.26V80.5H45.8v.63Zm0,1.26v-.63H45.8v.63Zm0,1.26V83H45.8v.63Zm0,1.27v-.63H45.8v.63Zm0,1.26v-.63H45.8v.63Zm0,1.26v-.63H45.8v.63Zm0,1.27v-.64H45.8v.64Zm0,1.26v-.63H45.8V90Zm0,1.26V90.6H45.8v.63Zm0,1.26v-.63H45.8v.63Zm0,1.27v-.63H45.8v.63Z"/><path class="cls-2" d="M99.38,72.66l-.44.45.44.44.45-.44Zm-.7-.26.44.45.45-.45L99.12,72Zm-.9-.89.45.45.45-.45-.45-.45Zm-.89-.89.45.44.44-.44-.44-.45Zm-.89-.9.44.45.45-.45-.45-.44Zm-.9-.89.45.45.45-.45-.45-.45Zm-.89-.89.45.44.44-.44-.44-.45Zm-.89-.9.44.45.45-.45-.45-.44Zm-.89-.89.44.45.45-.45-.45-.45Zm-.9-.89.45.44.45-.44L92,64.81Zm-.89-.89.45.44.44-.44-.44-.45Zm-.89-.9.44.45.45-.45L90.19,63Zm-.9-.89.45.45.45-.45-.45-.45ZM88,61.69l.45.44.44-.44-.44-.45Zm-.89-.9.44.45.45-.45-.45-.44Zm-.9-.89.45.45.45-.45-.45-.45ZM85.28,59l.45.44.44-.44-.44-.45Zm-.89-.9.44.45.45-.45-.45-.44Zm-.89-.89.44.45.45-.45-.45-.44Zm-.9-.89.45.44.45-.44-.45-.45Zm-.89-.89.45.44.44-.44L82.16,55Zm-.89-.9.44.45.45-.45-.45-.44Zm-.9-.89.45.45.45-.45-.45-.45ZM79,52.76l.45.44.44-.44-.44-.45Zm-.89-.9.44.45.45-.45-.45-.44Zm-.9-.89.45.45.45-.45-.45-.45Zm-.89-.89.45.44.44-.44-.44-.45Zm-.89-.9.45.45.44-.45-.45-.44Zm-.89-.89.44.45.45-.45L75,47.85Zm-.9-.89.45.45.45-.45L74.12,47Zm-.89-.89.45.44.44-.44-.44-.45Zm-.45.61.45-.45-.45-.45-.44.45Zm-.89.89.45-.45-.45-.44-.45.44Zm-.89.89.44-.44L70.55,48l-.45.45Zm-.9.9.45-.45-.45-.45-.44.45Zm-.89.89.45-.45-.45-.44-.45.44Zm-.89.89.44-.44-.44-.45-.45.45Zm-.89.9.44-.45L67,51.58l-.45.45Zm-.9.89.45-.45-.45-.44-.44.44Zm-.89.89.45-.45-.45-.44-.45.44Zm-.89.89.44-.44-.44-.45-.45.45Zm-.9.9.45-.45-.45-.45L63,55.6Zm-.89.89.45-.45-.45-.44-.45.44Zm-.89.89.44-.44-.44-.45-.45.45Zm-.9.9.45-.45-.45-.45-.44.45Zm-.89.89.45-.45-.45-.44-.45.44Zm-.89.89.44-.44-.44-.45-.45.45Zm-.89.89.44-.44-.44-.45L57.6,61Zm-.9.9.45-.45-.45-.44-.44.44Zm-.89.89.45-.45-.45-.44-.45.44Zm-.89.89.44-.44-.44-.45-.45.45Zm-.9.9.45-.45-.45-.45-.44.45Zm-.89.89.45-.45L53.58,65l-.45.44Zm-.89.89.44-.44-.44-.45-.45.45Zm-.9.9.45-.45-.45-.45-.44.45Zm-.89.89.45-.45-.45-.44-.45.44Zm-.89.89.44-.44L50,68.55l-.45.45Zm-.89.89.44-.44-.44-.45-.45.45Zm-.9.9.45-.45-.45-.45-.44.45Zm-.89.89.45-.45-.45-.44-.45.44Zm-.89.89.44-.44-.44-.45-.45.45Zm.7.45L46.7,73l-.45.45.45.45Zm.89.89-.44-.44-.45.44.45.45Zm.9.9-.45-.45-.45.45.45.44Zm.89.89-.45-.45-.44.45.44.45Zm.89.89-.44-.44-.45.44.45.45Zm.9.9-.45-.45-.45.45.45.44Zm.89.89-.45-.45-.44.45.44.44Zm.89.89L53,79.26l-.45.45.45.45Zm.9.89-.45-.44-.45.44.45.45Zm.89.9-.45-.45-.44.45.44.44Zm.89.89-.44-.45-.45.45.45.45Zm.89.89-.44-.44-.45.44.45.45Zm.9.9-.45-.45-.45.45.45.44Zm.89.89-.45-.45-.44.45.44.45Zm.89.89-.44-.44-.45.44.45.45Zm.9.9-.45-.45-.45.44.45.45Zm.89.89L61,87.3l-.44.45.44.44Zm.89.89-.44-.45-.45.45.45.45Zm.9.89-.45-.44-.45.44.45.45Zm.89.9L63.66,90l-.44.45.44.44Zm.89.89-.45-.45-.44.45.44.45Zm.89.89-.44-.44-.45.44.45.45Zm.9.9-.45-.45-.45.45.45.44Zm.89.89-.45-.45-.44.45.44.45Zm11.16-.8-.44.45.44.44.45-.44Zm.9-.89-.45.44.45.45.44-.45Zm.89-.9-.45.45.45.45.45-.45Zm.89-.89-.44.45.44.44L82,91Zm.89-.89-.44.44.44.45.45-.45Zm.9-.9-.45.45.45.45.44-.45Zm.89-.89-.45.45.45.44.45-.44Zm.89-.89-.44.45.44.44.45-.44Zm.9-.89-.45.44L86,87l.44-.45Zm.89-.9-.45.45.45.45.45-.45Zm.89-.89-.44.45.44.44.45-.44Zm.9-.89-.45.44.45.45.44-.45Zm.89-.9-.45.45.45.45.45-.45Zm.89-.89L90,82l.44.44L90.9,82Zm.89-.89-.44.44.44.45.45-.45Zm.9-.89-.45.44.45.45.44-.45Zm.89-.9-.45.45.45.45.45-.45ZM94,78l-.44.45.44.44.45-.44Zm.9-.89-.45.44.45.45.44-.45Zm.89-.9-.45.45.45.45.45-.45Zm.89-.89-.44.45.44.44.45-.44Zm.9-.89-.45.44.45.45.44-.45Zm.89-.9L98,74l.45.45.44-.45Z"/><g id="_8" data-name="8"><path class="cls-3" d="M65,123.16a29.36,29.36,0,0,1-11.64-2,19.86,19.86,0,0,1-7.47-5.31,21.37,21.37,0,0,1-4.05-7.09,22.68,22.68,0,0,1-1.27-7.22,19.4,19.4,0,0,1,2.53-9.93,34.84,34.84,0,0,1,6.59-8.11,90.85,90.85,0,0,1,8.86-7.15c3.2-2.27,6.33-4.55,9.36-6.83-2.44-2.53-4.81-5.17-7.08-7.91a39.41,39.41,0,0,1-5.57-8.8,24.78,24.78,0,0,1-2.16-10.51q0-7.59,3.67-12.21a21.28,21.28,0,0,1,9.43-6.77A33.14,33.14,0,0,1,77.9,21.13q9.24,0,15.19,4.75t6,14.24A24.57,24.57,0,0,1,96.64,51a36.07,36.07,0,0,1-6.4,9.11,72.48,72.48,0,0,1-9,8q4.44,4.31,8.3,8.6a40.4,40.4,0,0,1,6.2,9A23.6,23.6,0,0,1,98,96.32a22.34,22.34,0,0,1-4.75,14.18A31.08,31.08,0,0,1,81,119.87,39.62,39.62,0,0,1,65,123.16Zm1.14-6.71a18.61,18.61,0,0,0,9-2.41,20.79,20.79,0,0,0,7.4-6.83A17.9,17.9,0,0,0,85.5,97a20.19,20.19,0,0,0-3.8-12,91,91,0,0,0-9-10.63Q67.15,78.1,62,82.21A43.11,43.11,0,0,0,53.6,91a17.6,17.6,0,0,0-3.29,10.38,14,14,0,0,0,2.34,8.1,15.31,15.31,0,0,0,6,5.19A16.86,16.86,0,0,0,66.13,116.45ZM76.51,63.16a49.71,49.71,0,0,0,9.56-10.32A21.9,21.9,0,0,0,89.8,40.25q0-7-3.42-10.45a11.13,11.13,0,0,0-8.22-3.48,14,14,0,0,0-5.83,1.4,12.8,12.8,0,0,0-5.19,4.55A14.9,14.9,0,0,0,65,40.75a21.8,21.8,0,0,0,3.36,11.9A71.26,71.26,0,0,0,76.51,63.16Z"/></g></g></g></svg>