<svg xmlns="http://www.w3.org/2000/svg" viewBox="0 0 145.77 145.77"><defs><style>.cls-1{fill:#c93f3f;}.cls-2{fill:#e5aab1;}.cls-3{fill:#fff;}</style></defs><g id="Layer_2" data-name="Layer 2"><g id="Layer_5" data-name="Layer 5"><circle class="cls-1" cx="72.88" cy="72.88" r="72.88"/><path class="cls-2" d="M73.52,119.29a48,48,0,1,1,48.37-48A48.23,48.23,0,0,1,73.52,119.29Zm0-95.4a47.4,47.4,0,1,0,47.77,47.4A47.64,47.64,0,0,0,73.52,23.89Z"/><path class="cls-2" d="M73,108.4c-21.2,0-38.45-16.78-38.45-37.41S51.79,33.58,73,33.58,111.45,50.36,111.45,71,94.19,108.4,73,108.4Zm0-74.22C52.11,34.18,35.13,50.69,35.13,71S52.11,107.8,73,107.8,110.85,91.29,110.85,71,93.87,34.18,73,34.18Z"/><path class="cls-2" d="M72.53,33.13c-.11-.19-.21-.37-.33-.55l.29-.17.33.55Zm.94-.48-.29-.17c.11-.18.22-.37.34-.55l.28.18Zm-2-1.15L71.17,31l.28-.18c.12.17.23.35.35.53Zm3-.46-.27-.19.36-.53.27.19Zm-4-1.11-.38-.52.27-.19.38.51Zm5.15-.46-.26-.2.38-.51L76,29Zm-6.3-1.07-.4-.5.26-.21.4.51ZM76.76,28l-.26-.2c.14-.17.27-.34.41-.5l.25.21Zm-8.69-1-.42-.48.26-.22.42.49ZM78,26.49l-.25-.22.42-.48.25.22Zm-11.19-1L66.36,25l.25-.23.43.47Zm12.47-.42L79,24.84c.15-.16.3-.31.44-.47l.24.24Zm.3-.63c-.09-.19-.2-.38-.3-.57l.3-.16.3.57ZM66.51,24l-.29-.16.31-.56.29.16Zm12.14-1.2c-.1-.19-.21-.37-.32-.55l.29-.17.32.55Zm-11.2-.47-.29-.16.33-.56.29.18Zm10.22-1.18-.34-.54.28-.18c.12.18.23.36.34.55Zm-9.22-.45-.28-.18.34-.54.28.18Zm8.18-1.16L76.27,19l.28-.18.36.53Zm-7.13-.44-.27-.19.36-.53.28.19Zm6-1.13-.38-.52.27-.19.38.52Zm-4.93-.43-.27-.2.39-.52L71,17Zm3.78-1.1L74,15.9l.26-.21.39.5ZM71.78,16l-.26-.21.4-.5.26.21C72.05,15.63,71.92,15.8,71.78,16Zm1.4-1.07-.38-.43.08-.08-.12-.11.16-.17.12.13s.14.15.39.45Z"/><path class="cls-2" d="M83.51,34.61c-.05-.2-.1-.41-.16-.62l.33-.08.15.62Zm1.1-.41L84.39,34l.48-.43.22.26ZM86.06,33l-.21-.26.5-.4.2.26Zm-3-.18c-.06-.21-.12-.41-.19-.61l.32-.1.19.61Zm4.55-1-.2-.27.52-.38.2.27C87.9,31.51,87.73,31.64,87.56,31.77ZM82.42,31l-.21-.6.31-.12c.07.2.14.41.22.61Zm6.7-.3-.19-.28.53-.36.18.28Zm1.59-1.06-.18-.28.55-.34.17.28Zm-9-.43-.24-.6.31-.12.24.59Zm10.6-.56-.17-.29.41-.24c0-.17-.07-.33-.1-.5l.32-.07c0,.21.09.42.13.63l0,.12-.11.06ZM81,27.39c-.09-.19-.17-.39-.26-.58l.3-.14.27.59Zm11.2-1.07c0-.21-.1-.41-.16-.62l.33-.08c.05.21.1.41.15.63Zm-12-.66-.29-.57.3-.15.29.57Zm11.53-1.19c-.06-.21-.11-.42-.17-.62l.32-.09c.06.2.11.41.17.62Zm-11.51-.38L80,23.85l.46-.45.23.24Zm1.37-1.34-.23-.24.48-.44.22.25Zm9.6-.12c-.06-.21-.13-.41-.19-.61l.31-.1c.07.2.13.4.2.61ZM83,21.46l-.22-.25.49-.42.21.26Zm7.58-.65-.22-.6.32-.11q.11.28.21.6Zm-6.12-.58L84.26,20l.5-.41.21.26ZM86,19l-.21-.27.52-.38.2.27Zm3.94,0c-.08-.21-.16-.41-.24-.59L90,18.3c.07.18.16.38.24.6Zm-2.4-1.11-.19-.28.53-.36.19.27Zm1.66-.66c-.15-.33-.24-.51-.24-.51l.08,0-.08-.14.22-.13.08.16.24.53Z"/><path class="cls-2" d="M93.48,39.57v-.29l0-.61h.33c0,.11,0,.22,0,.33l.32-.16.15.3-.57.29Zm2-1-.14-.3.59-.26.13.3Zm1.76-.75-.13-.31.6-.24.12.31Zm-3.34-.45h-.33v-.63h.34v.65ZM99,37.17l-.11-.32.61-.21.11.32Zm1.82-.61-.1-.32.62-.19.09.32Zm1.84-.53-.09-.33.62-.16.09.32Zm-9.15-.55,0-.64h.33l0,.64Zm10.91-.26-.33,0c0-.21,0-.43,0-.64l.33,0C104.45,34.79,104.44,35,104.42,35.22Zm-11-1.65-.06-.63.33,0,.06.64Zm11.16-.27-.34,0,0-.64h.33C104.57,32.87,104.56,33.08,104.55,33.3ZM93.19,31.67,93.1,31l.33-.05.09.64Zm11.42-.3h-.34c0-.22,0-.43,0-.64h.33Zm-11.7-1.59c0-.21-.08-.42-.11-.63l.33-.06c0,.21.07.42.11.63Zm11.36-.33c0-.22,0-.43,0-.64h.34c0,.21,0,.43,0,.64ZM93.13,28.16,93,27.87l.57-.31.16.29C93.5,28,93.31,28.05,93.13,28.16Zm11.07-.62c0-.22,0-.44,0-.64l.33,0c0,.2,0,.42,0,.64Zm-9.39-.29L94.66,27l.58-.29.14.29Zm1.72-.84-.14-.3.58-.27.14.3Zm7.52-.78c0-.23,0-.44-.06-.64l.33,0c0,.19,0,.41.07.64Zm-5.77,0-.13-.3.59-.25.13.3Zm1.77-.72-.12-.31.6-.23.12.31Zm1.8-.67-.11-.31.61-.21.1.32Zm2-.5,0-.12-.14,0-.09-.32.32-.09.18,0,0,.18s0,.11,0,.31Z"/><path class="cls-2" d="M103,46.37l0-.33.63-.11,0,.33Zm-.79-.17-.32-.11.21-.6.31.1C102.3,45.79,102.23,46,102.16,46.2Zm2.69-.11,0-.33.63-.07,0,.33Zm1.9-.19,0-.33.64,0,0,.33Zm6.38-.07-.64,0v-.34l.53,0c.07-.16.13-.33.19-.49l.31.12c-.07.2-.15.4-.23.6l-.16-.06Zm-4.47,0v-.33l.64,0v.33Zm2.55,0h-.63v-.34h.64Zm-8.47-1.4-.32-.09.18-.62.32.09ZM114,43.92l-.32-.11c.08-.21.15-.41.21-.61l.32.11ZM103.24,42.5l-.32-.08.15-.62.32.08Zm11.35-.41-.32-.1c.07-.21.13-.41.19-.61l.32.1C114.72,41.68,114.66,41.88,114.59,42.09Zm-10.93-1.47-.33-.07.12-.62.33.06Zm11.48-.38-.32-.09c.06-.2.11-.41.17-.61l.32.08C115.26,39.83,115.2,40,115.14,40.24ZM104,38.72l-.33,0,.09-.63.33.05Zm11.63-.34-.33-.08.15-.62.32.07C115.73,38,115.68,38.16,115.63,38.38Zm-11.37-1.57-.33,0c0-.21,0-.42.07-.63l.33,0C104.31,36.38,104.28,36.6,104.26,36.81ZM116,36.5l-.32-.07q.06-.33.12-.63l.33.07C116.13,36.06,116.09,36.27,116,36.5Zm-11.21-1-.07-.32.62-.14.07.33Zm1.88-.38-.07-.33.64-.12,0,.33Zm1.88-.33,0-.33.64-.09,0,.33Zm7.79-.18-.33-.05c.06-.34.08-.53.08-.56h.09v-.16h.14l0,0C116.48,34,116.48,34,116.38,34.6Zm-5.89-.07,0-.33.64-.08,0,.34Zm1.91-.19,0-.34.64,0,0,.34Zm1.91-.13,0-.33.65,0v.33Z"/><path class="cls-2" d="M118.71,58.09l-.6-.21.11-.32.53.19.32-.42.26.21-.39.5-.17-.12Zm-1.82-.6-.61-.18.1-.32.61.18ZM115.05,57l-.61-.16.08-.32.62.16Zm-1.86-.45-.62-.13.07-.33.63.14Zm6.91,0-.27-.2.37-.52.27.19Zm-8.78-.37-.63-.11,0-.33.64.11Zm-1.89-.29-.64-.08,0-.33.64.07Zm-1.3-.49-.27-.19.36-.52.28.19Zm13.07-.43-.27-.19c.12-.18.23-.36.35-.53l.28.18Zm-12-1.16-.28-.18.34-.54.28.17C109.44,53.4,109.32,53.58,109.21,53.77Zm13-.46-.28-.18c.12-.18.23-.36.34-.54l.28.17C122.48,52.94,122.37,53.13,122.25,53.31Zm-12-1.19-.29-.17.32-.55.29.16C110.43,51.75,110.32,51.93,110.21,52.12Zm13-.46-.29-.17.31-.55.29.16Zm-12.11-1.23-.29-.15.29-.57.3.15Zm13-.46-.3-.15.3-.57.3.15ZM112,48.71l-.3-.14L112,48l.3.14C112.19,48.32,112.1,48.51,112,48.71Zm13-.46-.3-.14c.15-.32.23-.5.24-.53l.14-.07v0l.23.07-.07.17Zm-1.23-.81-.62-.15.08-.33.62.16ZM121.94,47l-.62-.13.06-.33.63.13Zm-9.15,0-.3-.13.24-.59.31.13C113,46.56,112.88,46.75,112.79,47Zm7.27-.32-.63-.11.06-.33.63.11Zm-1.89-.31-.63-.09,0-.33.64.09Zm-1.9-.24-.63-.07,0-.33.64.07Zm-1.9-.18-.64,0,0-.33.64,0Z"/><path class="cls-2" d="M121.06,71.29l-.19-.27.51-.38.2.27Zm-1.24-.43-.52-.35.18-.28.53.36Zm2.79-.73-.21-.26.5-.4.21.26Zm-4.38-.32-.55-.33.18-.29.54.34Zm5.87-.89-.21-.26c.17-.13.33-.27.49-.41l.21.26Zm-7.51-.1-.56-.31.16-.29.56.32Zm-1.68-.92-.57-.29.15-.29.57.29Zm10.65-.24-.22-.25.47-.43.23.25Zm-12.37-.6-.58-.27.14-.3.58.27ZM127,66.35l-.23-.24.46-.45.23.24C127.29,66.05,127.13,66.2,127,66.35Zm-15.53-.06-.59-.24.08-.22-.08-.1c.17-.13.34-.26.5-.4l.21.26-.32.26.33.13Zm16.9-1.3-.24-.23.44-.47.24.23C128.65,64.67,128.5,64.82,128.34,65Zm-15.79-.22-.22-.25.48-.42.22.25Zm17.1-1.2-.25-.22.1-.12-.09-.06.18-.28.25.17-.08.14.11.11ZM114,63.49l-.22-.25.46-.44.23.24Zm14.34-1-.55-.32.17-.29.55.32Zm-13-.37-.24-.23.44-.46.25.23Zm11.29-.57-.56-.3.15-.29.57.3Zm-10-.84-.25-.22.43-.48.25.22Zm8.27,0-.58-.28.15-.3.58.28Zm-1.73-.82-.59-.26.14-.3.58.26Zm-5.28-.6-.25-.22c.13-.16.27-.32.4-.49l.26.21C118.22,59,118.08,59.11,117.94,59.28Zm3.52-.16-.6-.23.13-.31.59.24Zm-1.79-.69-.6-.22.11-.31.61.22Z"/><path class="cls-2" d="M118.88,84.83l-.07-.21-.15.12-.39-.5.25-.21q.2.23.36.45l.49-.18.12.32Zm1.81-.67-.12-.31.59-.23.13.31Zm1.78-.73-.13-.3.58-.26.14.3Zm-5-.17-.41-.49.25-.22.42.49Zm6.78-.62-.14-.3.57-.28.15.3Zm-8-.82c-.14-.15-.28-.31-.43-.46l.24-.23c.15.15.3.31.44.47Zm9.78,0-.16-.3.57-.29.16.29Zm1.69-.92-.16-.29.55-.31.17.29Zm-12.79-.43-.45-.45.23-.24.46.45Zm14.45-.55-.17-.28.52-.34.1.14-.12.11.25-.22.05.06,0,.07C129.91,79.52,129.91,79.52,129.31,79.89Zm-15.83-.78-.47-.42.22-.25.48.43Zm15.3-.55c-.13-.15-.28-.3-.44-.47l.24-.23c.17.17.31.33.44.47ZM112,77.85l-.49-.4.21-.26.5.41Zm15.41-.67-.46-.45.24-.24.45.45Zm-16.15-.42-.13-.31.59-.24.13.31Zm1.77-.76-.14-.3.58-.28.14.31Zm13-.15-.47-.43.22-.24.47.43Zm-11.27-.7-.15-.29.56-.3.16.3Zm9.84-.57-.49-.42.22-.25.49.42Zm-8.15-.34-.16-.29.55-.32.17.29Zm6.68-.89-.5-.4.2-.26.51.4Zm-5-.1L118,73l.54-.34.18.28Zm1.61-1-.18-.28.52-.36.19.27C120.12,72,119.94,72.08,119.76,72.2Zm1.9,0c-.17-.13-.34-.26-.52-.38l.2-.27.52.38Z"/><path class="cls-2" d="M113.75,97.1l0-.33.64,0,0,.33Zm1.92-.16,0-.33.63-.07,0,.34Zm1.92-.22,0-.33.63-.09,0,.33Zm1.9-.29,0-.33.62-.11.06.33Zm-6.73-.07c-.08-.2-.17-.39-.25-.59l.31-.13c.08.2.17.4.25.59Zm8.62-.28-.06-.33.62-.13L122,96Zm1.89-.42-.08-.33.62-.15.08.32Zm1.86-.51,0-.15L125,95l-.23-.49.31-.14c.15.32.22.5.22.5l.08.17ZM112,94.61l-.27-.58.3-.15c.09.2.19.39.27.59Zm12.24-1.22-.29-.56.29-.16.3.57Zm-13.07-.51-.3-.56.3-.16c.1.19.2.38.29.57Zm12.16-1.17-.31-.56.29-.17.31.56Zm-13.07-.51c-.1-.19-.21-.37-.32-.56l.29-.16.32.55Zm12.1-1.15-.33-.54.28-.18.34.55Zm-13.08-.5c-.11-.18-.22-.36-.34-.54l.28-.18.35.54Zm12.06-1.11-.36-.53.28-.19.36.53ZM108.22,88l-.36-.52.27-.19.37.52Zm.68-.76,0-.33.63-.08.05.33Zm1.91-.27-.06-.33.63-.1.06.32Zm9.44-.06-.38-.52.27-.2.38.52Zm-7.55-.29-.07-.33.63-.13.07.32Zm1.88-.44-.08-.32.61-.16.09.32Zm1.86-.51-.1-.32.61-.18.1.32Zm2.67-.31-.34-.44-.5.17-.1-.31.6-.21.07.19.14-.11.4.51Z"/><path class="cls-2" d="M116,108.78v-.33h.14l0-.13.33,0c0,.2,0,.31,0,.31C116.52,108.78,116.46,108.78,116,108.78Zm-1.29,0-.64,0,0-.33.63,0Zm-1.92-.11-.64-.05,0-.33.63,0Zm-1.92-.17-.64-.08,0-.33.63.08Zm-1.91-.25-.64-.09.05-.33.63.1Zm-1.9-.3-.64-.12.07-.33.62.12Zm-1.9-.37-.62-.14.07-.33.62.14Zm10.75-.49q0-.3-.12-.63l.33-.07q.06.34.12.63ZM104,106.25c0-.21,0-.42-.07-.63l.33,0c0,.21,0,.42.08.63Zm11.54-1.06-.15-.62.33-.08c.05.22.1.42.14.63Zm-11.78-.84c0-.21-.07-.42-.1-.63l.33,0c0,.21.07.42.1.63Zm11.32-1c0-.2-.11-.41-.16-.62l.32-.09c.06.21.11.42.17.62Zm-11.65-.86-.12-.63.33-.07.12.63Zm11.13-1-.18-.62.31-.09c.07.2.13.41.19.61Zm-11.53-.9c0-.2-.09-.41-.15-.62l.33-.08.15.63Zm11-.93-.21-.6.32-.11.21.6Zm-11.43-.92c0-.2-.11-.41-.18-.61l.32-.1c.06.21.13.42.18.62Zm10.78-.88c-.07-.2-.15-.4-.23-.6l.31-.12c.08.2.16.4.23.6Zm-3.11-.65h-.64v-.33h.64Zm1.28,0v-.33l.63,0v.34Zm-3.21,0-.64,0,0-.33.64,0ZM106.39,97l-.64-.06,0-.33.64.06ZM102,96.92l-.21-.61.17-.06,0-.15.63.11-.06.33-.36-.07c0,.12.07.23.11.34Zm2.46-.09c-.21,0-.42,0-.63-.09l0-.33c.21,0,.42.06.63.09Z"/><path class="cls-2" d="M104.19,119.46l-.21-.06-.62-.18.1-.32.61.18,0,.16h.17Zm-2-.63-.61-.21.11-.31.6.21Zm-1.82-.65-.6-.23.12-.31.6.23Zm4-.19-.33,0c0-.19,0-.4.07-.63l.33,0C104.41,117.58,104.38,117.79,104.36,118Zm-5.83-.53-.59-.25.13-.3.59.25Zm-1.76-.77-.58-.27.14-.31.58.28Zm7.77-.62-.33,0c0-.2,0-.41,0-.63l.33,0C104.57,115.65,104.55,115.86,104.54,116.07ZM95,115.85l-.57-.29.15-.3.57.29Zm-1.7-.89-.56-.32-.11-.06,0-.11.12-.61.33.06c0,.16-.06.33-.1.49l.46.25Zm11.31-.82h-.33c0-.21,0-.42,0-.64h.33C104.66,113.72,104.65,113.93,104.64,114.14Zm-11.29-1.49L93,112.6l.09-.63.33,0Zm11.33-.43h-.33v-.06c0-.19,0-.39,0-.58h.34v.65Zm-11.07-1.48-.33,0c0-.21,0-.42.07-.63l.34,0C93.66,110.32,93.64,110.53,93.61,110.74Zm10.71-.44,0-.64h.33l0,.64ZM93.8,108.82l-.33,0c0-.21,0-.43,0-.64l.33,0C93.83,108.4,93.82,108.61,93.8,108.82Zm10.42-.43c0-.21,0-.42,0-.64l.33,0c0,.21,0,.43,0,.64Zm-.67-1.22-.63-.15.09-.33.62.16Zm-9.64-.27h-.33c0-.21,0-.43,0-.64h.34C93.92,106.47,93.92,106.69,93.91,106.9Zm7.78-.22-.62-.19.1-.32.61.19Zm-1.84-.58-.61-.2.11-.32.6.21ZM98,105.46l-.6-.23.12-.31.6.23ZM93.6,105c0-.21,0-.42,0-.63h.34c0,.21,0,.43,0,.64Zm2.64-.23-.59-.26.14-.3.58.25Zm-1.75-.8-.58-.29.15-.29.58.28Z"/><path class="cls-2" d="M89.26,126.21l-.17-.07-.53-.33.18-.28.52.32-.08.13.16.06Zm-1.77-1.12-.52-.37.19-.27.52.37Zm2.37-.22-.31-.13.25-.59.31.12C90,124.49,89.94,124.69,89.86,124.87ZM85.93,124l-.51-.4.21-.26q.25.21.51.39Zm4.65-.88-.32-.12c.08-.19.15-.39.22-.6l.32.11C90.72,122.68,90.65,122.88,90.58,123.08Zm-6.16-.31-.5-.41.22-.26.49.41Zm-1.48-1.24-.48-.43.22-.25q.24.23.48.42Zm8.28-.27-.32-.11c.07-.19.14-.4.2-.6l.32.1C91.35,120.86,91.29,121.06,91.22,121.26Zm-9.71-1-.46-.44.23-.24.46.44Zm10.29-.81-.32-.09.18-.62.32.09Zm-11.67-.53-.45-.45-.09-.09.06-.11.27-.52.3.15-.22.42.36.37Zm12.19-1.32-.33-.09c.06-.2.11-.41.16-.62l.32.08Zm-11.53-.85-.3-.15.27-.57.3.14Zm12-1-.33-.07c0-.21.09-.41.14-.62l.32.06C92.86,115.28,92.81,115.48,92.77,115.69ZM81.58,115l-.3-.14c.08-.19.16-.39.25-.58l.3.12C81.75,114.57,81.67,114.77,81.58,115Zm10.54-.7-.55-.32.17-.29.55.33Zm-1.64-1-.54-.34.18-.28.54.34Zm-8.17-.09-.31-.12c.08-.2.15-.4.22-.6l.32.12Zm6.56-1-.52-.37.19-.27.52.36ZM83,111.36l-.32-.1c.07-.2.14-.4.2-.61l.32.1C83.09,111,83,111.16,83,111.36Zm4.35-.28-.51-.39.2-.26.51.38Zm-1.51-1.19-.49-.42.21-.25.49.41Zm-2.27-.37-.32-.09c.06-.2.11-.41.17-.62l.32.09C83.64,109.11,83.59,109.32,83.53,109.52Zm.81-.9-.47-.43.23-.25.47.44Z"/><path class="cls-2" d="M73,128.57l-.12-.13-.4-.45.25-.22.39.44-.08.08.12.11Zm1-1.15-.25-.21.4-.5.26.21ZM71.67,127c-.13-.15-.26-.32-.4-.5l.26-.21c.14.18.27.35.4.5Zm3.52-1.1-.26-.2.38-.51.27.2Zm-4.7-.42-.38-.52.27-.2.38.52Zm5.84-1.14-.28-.19.36-.52.28.18C76.57,124,76.45,124.17,76.33,124.34Zm-7-.43-.36-.53.27-.19c.13.18.25.36.36.53Zm8-1.17-.28-.18c.12-.17.23-.35.35-.54l.28.18C77.63,122.39,77.52,122.57,77.4,122.74Zm-9.1-.44c-.11-.18-.22-.36-.34-.54l.28-.18c.12.19.23.37.35.54Zm10.12-1.19-.28-.17.32-.55.29.17Zm-11.13-.45-.32-.55.29-.17.32.55Zm12.09-1.22-.29-.16.31-.56.29.16Zm-13-.46-.3-.56-.06-.11.09-.09c.13-.13.27-.27.4-.42l.24.23c-.1.12-.21.23-.32.34.08.15.16.31.25.46Zm12.82-1.08-.44-.47.25-.23.43.47Zm-11.58-.81-.24-.22.42-.48.25.22Zm10.28-.61-.42-.49.26-.22c.13.17.27.33.41.49Zm-9-.85-.26-.21.4-.49.26.21Zm7.77-.63-.4-.5.26-.21.4.5Zm-6.57-.87-.27-.21.39-.51.26.2Zm5.39-.65-.38-.52.27-.19.38.51Zm-4.25-.91-.28-.19.36-.53.28.19Zm3.14-.66-.36-.54.28-.18c.12.18.24.35.35.53Zm-2.08-1-.28-.18.34-.54.28.18C72.48,110.6,72.37,110.78,72.25,111Zm1-.68-.33-.55.29-.17c.1.19.21.37.32.55Z"/><path class="cls-2" d="M56.77,126.28l-.08-.16-.25-.52.31-.14c.15.33.23.51.24.51l-.09,0,.09.14Zm1.3-.84-.19-.27.52-.37.19.27Zm-2.14-1q-.1-.28-.24-.6l.31-.12c.09.21.17.4.24.59Zm3.7-.1-.19-.27.51-.38.2.26Zm1.53-1.18-.21-.26.5-.4.21.26Zm-5.93-.52L55,122l.31-.11c.07.21.15.41.22.6Zm7.41-.71-.22-.25.49-.42.22.25Zm-8-1.11-.19-.61.31-.1c.07.2.13.41.2.6Zm9.48-.17-.23-.25c.16-.14.32-.28.47-.43l.23.24Zm1.39-1.33-.23-.24.45-.45.24.23C65.78,119,65.63,119.15,65.47,119.3ZM54,119c-.05-.21-.11-.41-.17-.62l.32-.09c.06.21.12.41.17.61Zm11.67-1.2-.29-.57.3-.15c.09.19.19.38.29.57Zm-12.17-.66-.15-.63.32-.07.15.62ZM64.85,116c-.08-.2-.17-.39-.26-.59l.3-.13.27.58Zm-11.76-.81c0-.21-.08-.42-.13-.63l0-.12.1-.06.51-.29.17.29-.41.23c0,.17.07.34.11.51Zm11-1-.24-.59.31-.13.24.59Zm-9.26-.51-.17-.29.54-.34.18.29Zm1.62-1-.18-.27.52-.36.19.27Zm6.94-.23c-.07-.2-.15-.4-.22-.61l.32-.11.21.6ZM58,111.6l-.2-.27.51-.38.2.26Zm4.74-1c-.07-.2-.13-.4-.19-.61l.32-.1.18.61Zm-3.21-.22-.21-.26.5-.4.21.26ZM61,109.18l-.22-.25.47-.42.23.24Zm1.19-.39c-.06-.2-.11-.41-.16-.62l.32-.08c0,.21.11.41.16.62Z"/><path class="cls-2" d="M41.83,119.54l0-.17s0-.11,0-.31l.33,0,0,.12.14,0,.09.32-.32.09Zm1.73-.52-.1-.32.6-.2.11.31Zm1.82-.65-.12-.31.6-.23.12.31Zm-3.79-.59c0-.2-.05-.41-.07-.64l.33,0c0,.23,0,.44.07.63Zm5.58-.12-.13-.3.59-.25.13.3Zm1.76-.77-.14-.3.58-.27.15.3Zm1.74-.83-.15-.3.57-.29.15.3Zm-9.25-.2c0-.21,0-.42,0-.64l.33,0c0,.22,0,.43,0,.64Zm11-.7-.16-.29.56-.31.16.29Zm-11.06-1.22c0-.21,0-.43,0-.65h.33c0,.21,0,.43,0,.63Zm11.46-.31c0-.21-.08-.42-.11-.63l.33-.06c0,.21.07.42.11.63ZM41.62,112h-.33v-.64h.33Zm10.85-.28-.09-.64.33,0,.09.63ZM41.66,110.1l-.34,0,0-.64.33,0C41.67,109.67,41.66,109.89,41.66,110.1Zm10.58-.28c0-.22-.05-.43-.06-.64l.33,0,.06.63Zm-10.48-1.64-.33,0c0-.21,0-.43,0-.64l.33,0C41.79,107.76,41.77,108,41.76,108.18Zm10.32-.28,0-.65h.33c0,.21,0,.43,0,.64Zm-9.38-.71-.08-.32.61-.16.09.32Zm1.86-.51-.1-.32.61-.19.1.32Zm1.83-.59-.11-.32.61-.21.11.32ZM52,106v-.64h.33v.09c0,.18,0,.36,0,.54Zm-3.81-.54-.12-.31.59-.24.13.31Zm1.78-.74-.13-.31.58-.26.14.3Zm2.39-.64H52c0-.11,0-.22,0-.33l-.32.16-.15-.3.57-.29.26-.13,0,.29C52.38,103.64,52.37,103.85,52.37,104.05Z"/><path class="cls-2" d="M29.67,108.91h-.08v-.17l-.17,0s0-.24.08-.56l.33,0c-.05.31-.07.5-.07.54l-.1.09Zm1.29,0v-.33l.64,0v.33Zm1.93-.1,0-.33.64,0,0,.33Zm1.92-.17,0-.33.63-.07,0,.33Zm1.91-.24,0-.33.63-.09.05.33Zm1.9-.3-.06-.33.63-.12.06.33Zm1.89-.37-.07-.33.62-.13.08.32ZM30.05,107l-.32-.06q0-.3.12-.63l.33.06C30.13,106.54,30.09,106.75,30.05,107Zm11.85-.35-.34,0c0-.21,0-.42.07-.64l.34,0C41.94,106.17,41.92,106.38,41.9,106.6Zm-11.46-1.53-.32-.07c0-.2.09-.41.14-.63l.33.08C30.54,104.67,30.49,104.87,30.44,105.07Zm11.69-.38-.33,0,.09-.64.33,0ZM30.9,103.21l-.32-.08c.05-.2.11-.41.17-.62l.32.09C31,102.81,31,103,30.9,103.21Zm11.53-.4-.32-.06.12-.64.32.07Zm-11-1.44-.32-.09c.06-.21.13-.41.19-.62l.32.1C31.54,101,31.48,101.17,31.42,101.37Zm11.4-.44-.33-.07.15-.63.32.08C42.91,100.52,42.87,100.73,42.82,100.93ZM32,99.55l-.32-.11.21-.61.32.11C32.14,99.15,32.07,99.35,32,99.55Zm11.27-.47L43,99l.18-.62.32.09ZM32.66,97.75l-.32-.12.24-.6.16.06v-.17l.64,0,0,.33-.53,0Zm2.64-.43h-.64V97h.64Zm1.29,0V97l.64,0v.34Zm7.24-.06-.32-.11.21-.61.31.11C44,96.84,43.9,97,43.83,97.25Zm-5.32,0,0-.33.64,0,0,.33Zm1.92-.17,0-.33.63-.07,0,.33Zm1.91-.25-.05-.33.63-.1.06.33Z"/><path class="cls-2" d="M32.13,97.22l-.64,0,0-.33.64,0Zm-1.92-.15L29.57,97l0-.33.64.07Zm-1.92-.22-.63-.09,0-.33.63.09Zm-1.9-.28-.64-.11.06-.33.63.11Zm6.75,0-.31-.13c.08-.2.17-.39.25-.59l.31.13C33.3,96.13,33.22,96.32,33.14,96.52Zm-8.65-.3-.63-.13.07-.33.63.13Zm-1.88-.42L22,95.65l.09-.32.62.15Zm-1.87-.5L19.67,95h1l.2-.44.3.14c-.14.3-.22.49-.23.52Zm13.16-.54-.3-.14.27-.58.3.14ZM21.69,93.52l-.29-.16c.09-.17.19-.36.29-.57L22,93Zm13-.48-.3-.15.3-.58.29.16ZM22.6,91.83l-.29-.17.31-.55.29.16Zm13-.48-.29-.17.31-.55.29.16ZM23.56,90.17,23.28,90l.33-.55.29.18C23.78,89.81,23.67,90,23.56,90.17Zm13-.47-.29-.18.35-.54.28.18C36.82,89.34,36.71,89.52,36.6,89.7Zm-12-1.15-.28-.18c.11-.18.23-.35.35-.53l.28.18Zm13.05-.45-.27-.19.36-.53.27.19ZM37,87.31l-.64-.08,0-.33.63.08ZM35.12,87l-.63-.1.06-.33.62.11ZM25.66,87l-.27-.19c.12-.18.25-.35.37-.52l.27.19C25.91,86.63,25.78,86.8,25.66,87Zm7.56-.27-.62-.14.07-.32.62.13Zm-1.88-.43-.62-.16.09-.32.62.16Zm-1.86-.5-.61-.19.1-.31.61.18Zm-2.69-.34-.26-.21.39-.51.17.13.06-.17.6.21-.11.31L27.11,85Z"/><path class="cls-2" d="M26.68,84.86l-.61-.22.12-.31.6.22Zm-1.81-.67L24.28,84l.12-.31.59.24Zm2.9,0L27.51,84c.13-.17.27-.33.41-.5l.25.21Zm-4.68-.74-.59-.26.14-.3.58.25ZM29,82.72l-.25-.22.43-.48.24.22Zm-7.66-.07-.58-.28.15-.3c.18.1.37.19.57.28Zm-1.73-.86L19,81.5l.16-.3.57.3Zm10.68-.48-.24-.23c.14-.16.29-.31.44-.47l.24.24Zm-12.37-.43-.56-.33.17-.28.55.32ZM31.63,80l-.23-.24.47-.45.23.25Zm-15.37-.07L16,79.72l-.15-.1.11-.14.23-.27.25.22-.1.12.09,0ZM33,78.65l-.22-.25L33.3,78l.22.26Zm-15.73-.17-.25-.23.45-.46.24.23ZM34.5,77.41l-.21-.26.32-.25-.33-.13.13-.31.59.23-.09.22L35,77Zm-15.86-.3-.23-.24.46-.45.23.24Zm14.46-.85L32.51,76l.14-.31.58.27ZM20,75.79l-.22-.25.47-.43.22.25Zm11.32-.35-.57-.3.15-.29.57.29Zm-1.7-.9-.56-.32.16-.29.56.31Zm-8.19,0-.21-.26.49-.41.21.25Zm6.52-1-.54-.34.17-.28.55.33Zm-5-.28L22.73,73l.5-.39.21.26Zm3.42-.76-.54-.36L26,71.9l.53.35Zm-1.91-.41-.2-.26.52-.38.2.27Z"/><path class="cls-2" d="M24.5,71.24,24,70.86l.2-.27.51.38Zm1.23,0-.19-.27.53-.37.19.28Zm1.59-1.07-.18-.28.54-.34.18.28Zm-4.36,0-.5-.4.21-.26.5.39Zm6-1-.17-.29.56-.32.16.29Zm-7.49-.27L21,68.45l.21-.26.49.42Zm9.16-.67-.16-.29.57-.3.15.3ZM20,67.6l-.47-.44.22-.24.47.43Zm12.32-.27-.15-.3.58-.28.14.31Zm1.74-.79-.13-.31.59-.24.13.31ZM18.6,66.28l-.46-.45.24-.24.45.45Zm15.47-.72-.5-.41.22-.25.49.4Zm-16.83-.65-.44-.46.25-.23c.13.14.27.3.43.46Zm15.36-.6-.48-.43.23-.24.47.43Zm-16.53-.77v-.16l-.13.1-.12-.14.15-.11.54-.34.18.28-.53.34ZM31.19,63l-.46-.45.23-.24.46.45Zm-13.41-.49-.17-.29.56-.32.16.29Zm12-.88-.44-.47.25-.22.43.46Zm-10.38-.05-.15-.3.56-.3.16.3Zm1.71-.87-.15-.3.58-.28.14.3Zm7.37-.5-.42-.49.26-.22.41.49Zm-5.64-.31-.13-.31.59-.26.13.31Zm1.77-.75-.13-.31.6-.24.12.31Zm2.63-.42-.36-.45-.49.18-.11-.32.6-.21.08.21.14-.12.4.5Z"/><path class="cls-2" d="M27.69,58l-.11-.32.61-.2.11.32Zm-1.2-.3-.39-.52.27-.2c.13.17.25.34.39.51Zm3-.28-.1-.32.62-.18.09.32Zm1.84-.51-.08-.32.62-.16.08.33Zm1.86-.43-.06-.33.63-.12.06.32Zm-7.88-.33L25,55.64l.28-.19.36.52Zm9.76,0-.05-.33.63-.1,0,.33Zm1.9-.27,0-.33.64-.07,0,.33Zm.29-.94a6.18,6.18,0,0,1-.36-.53l.27-.18.36.52Zm-13-.36c-.12-.18-.24-.36-.35-.54l.28-.18c.11.18.23.36.35.54Zm12-1.25c-.12-.18-.23-.36-.34-.55l.29-.17c.1.18.22.36.33.55Zm-13-.37-.33-.55.29-.17q.15.27.33.54Zm12-1.29-.31-.56.29-.16.31.56Zm-13-.37-.31-.56.29-.16.31.55ZM34.33,50,34,49.4l.3-.15c.09.19.19.38.29.57Zm-13-.38L21,49l.3-.15.29.57Zm12.18-1.36-.27-.58.31-.14c.08.2.17.39.26.58ZM20.69,48l-.1-.32.62-.18.09.32Zm1.84-.51-.08-.32.63-.15.07.32ZM24.4,47l-.07-.33.63-.12.06.32Zm1.88-.36-.06-.33.64-.1.05.33Zm6.43-.19L32.5,46,32,46l0-.33.64,0v.21l.17-.07.24.59Zm-4.54-.1,0-.33.64-.08,0,.33Zm1.91-.23,0-.33.64-.06,0,.33Z"/><path class="cls-2" d="M43.79,46.64l-.62-.12,0-.33.37.07-.12-.33.32-.11.21.6-.18.07Zm-1.88-.32-.63-.08,0-.33L42,46ZM40,46.09,39.37,46l0-.34.64.06ZM38.1,46c-.21,0-.42,0-.64,0l0-.34.64,0Zm-4.46,0v-.34l.64,0v.34Zm2.55,0h-.64v-.33h.64Zm-3.83-.27c-.08-.2-.16-.4-.23-.6l.31-.12.23.6Zm10.72-.91-.18-.62.32-.09.18.62Zm-11.39-.9q-.12-.3-.21-.6l.31-.11.21.6Zm10.88-1c-.06-.2-.11-.41-.16-.62l.33-.08.15.62ZM31.08,42c-.07-.21-.13-.42-.19-.62l.32-.09.18.61Zm11.05-1L42,40.33l.32-.06c0,.21.09.42.13.63Zm-11.6-.83c-.06-.21-.11-.42-.17-.62l.32-.09c.06.2.11.41.17.62Zm11.25-1.06c0-.21-.07-.42-.1-.64l.33,0c0,.2.06.41.1.62Zm-11.73-.81-.15-.62.33-.08c0,.2.09.41.14.62Zm11.45-1.1c0-.21,0-.42-.07-.64l.33,0c0,.21.05.42.07.63Zm-11.87-.78q-.06-.35-.12-.63l.33-.06c0,.19.08.4.12.62Zm11.51-.74-.62-.13.07-.33.63.14Zm-1.87-.38-.63-.12.06-.33.63.12Zm-1.89-.33-.63-.09,0-.33.64.09Zm-1.9-.26-.63-.07,0-.33.64.07Zm-1.9-.19-.64,0,0-.33.64,0Zm-4.28,0c0-.21,0-.32,0-.32,0-.18.06-.18.49-.19v.34h-.14l0,.12Zm2.37-.13-.64,0V34l.64,0Z"/><path class="cls-2" d="M51.72,39.36l-.57-.28.15-.3.57.29ZM50,38.55l-.59-.26.13-.31.59.26Zm1.87-.16c0-.21,0-.43,0-.64h.34c0,.22,0,.43,0,.64Zm-3.64-.58-.59-.23.11-.31.6.23Zm-1.79-.67-.61-.2.11-.32.61.21Zm-1.82-.58L44,36.38l.1-.32.61.18Zm7.57-.09h-.34c0-.21,0-.43,0-.64h.33C52.2,36,52.19,36.26,52.19,36.47ZM42.77,36l-.62-.16.08-.32.63.16Zm-1.49-1c0-.22,0-.43-.05-.64l.33,0c0,.21,0,.42,0,.63Zm11-.45-.33,0c0-.22,0-.43,0-.64l.33,0C52.29,34.13,52.28,34.34,52.26,34.56ZM41.15,33.09c0-.22,0-.43,0-.64l.33,0,0,.64Zm11.27-.44-.33,0c0-.22,0-.43.07-.64l.33,0C52.47,32.23,52.44,32.44,52.42,32.65ZM41.1,31.16c0-.22,0-.43,0-.64h.34v.64Zm11.56-.41-.33-.05.09-.63.33.05ZM41.44,29.24h-.33c0-.22,0-.44,0-.65h.33C41.45,28.81,41.45,29,41.44,29.24ZM53,28.86l-.33-.06.09-.49-.45-.25.16-.3.56.32.11.06,0,.11Zm-1.82-1.4-.56-.29.14-.3.58.29Zm-9.63-.13-.33,0c0-.22,0-.44,0-.64l.33,0C41.55,26.9,41.53,27.11,41.52,27.33Zm7.92-.72-.58-.27L49,26l.58.27Zm-1.75-.79-.59-.25.13-.31.59.25Zm-6-.4-.33,0c0-.23,0-.45.06-.64l.33,0Q41.7,25.08,41.67,25.42Zm4.25-.33-.59-.23.11-.31.6.23Zm-1.79-.67-.61-.2.11-.32.61.21Zm-1.82-.59-.61-.17,0-.15-.17,0,0-.06,0-.06c.08-.06.08-.05.76.15Z"/><path class="cls-2" d="M61.59,34.68l-.47-.43.22-.25.48.43Zm.84-.47-.33-.08c.06-.21.11-.42.17-.62l.32.08C62.53,33.8,62.48,34,62.43,34.21Zm-2.27-.8L59.67,33l.21-.26.49.41Zm2.79-1-.32-.1.19-.61.32.1Zm-4.28-.16-.51-.39.2-.27.51.39Zm-1.54-1.14-.52-.36.19-.28.52.37Zm6.42-.52-.31-.11.22-.6.31.11C63.7,30.15,63.63,30.35,63.55,30.55Zm-8-.55L55,29.66l.18-.29.54.35Zm-1.63-1-.55-.32.17-.29.55.32Zm10.32-.22-.31-.13c.08-.2.16-.4.25-.59l.3.13Zm-11-1.17-.33-.07c0-.21.09-.42.14-.63l.32.08C53.31,27.18,53.26,27.39,53.22,27.6ZM65,27l-.31-.14.27-.58.31.14C65.17,26.62,65.09,26.82,65,27ZM53.65,25.73l-.33-.08c0-.21.11-.41.16-.62l.32.08Zm12.17-.45-.29-.15c.09-.19.19-.38.29-.57l.29.16Zm.12-.7-.45-.45.23-.24.45.46Zm-11.8-.7-.32-.09.18-.62.32.1Zm10.44-.64-.47-.44.23-.25.47.44Zm-9.89-1.19-.31-.1c.06-.21.13-.41.2-.61l.31.1C54.83,21.64,54.76,21.84,54.69,22.05Zm8.48-.11-.48-.43.22-.25.48.43Zm-1.45-1.26-.49-.4.21-.26.49.41Zm-6.41-.44L55,20.12l.22-.6.32.12C55.46,19.83,55.39,20,55.31,20.24Zm4.92-.76-.51-.38.2-.27c.17.12.34.26.51.39Zm-4.23-1-.31-.13.25-.59.31.13Zm2.69-.11c-.18-.13-.35-.26-.52-.37l.19-.27.53.37Zm-1.58-1.09-.53-.34.17-.28.55.34Z"/><path class="cls-2" d="M54.26,28.26a1.34,1.34,0,1,1-1.34-1.33A1.34,1.34,0,0,1,54.26,28.26Z"/><path class="cls-2" d="M81.06,24.07a1.34,1.34,0,1,1-1.34-1.33A1.34,1.34,0,0,1,81.06,24.07Z"/><path class="cls-2" d="M105.78,35.22a1.34,1.34,0,0,1-2.67,0,1.34,1.34,0,1,1,2.67,0Z"/><path class="cls-2" d="M120.81,57.52a1.34,1.34,0,1,1-1.34-1.34A1.34,1.34,0,0,1,120.81,57.52Z"/><path class="cls-2" d="M120.81,85.11a1.34,1.34,0,1,1-1.34-1.33A1.34,1.34,0,0,1,120.81,85.11Z"/><path class="cls-2" d="M105.85,107.67a1.34,1.34,0,1,1-1.34-1.34A1.34,1.34,0,0,1,105.85,107.67Z"/><path class="cls-2" d="M81.13,118.66a1.34,1.34,0,1,1-1.33-1.33A1.34,1.34,0,0,1,81.13,118.66Z"/><path class="cls-2" d="M34.22,97.09a1.34,1.34,0,1,1-1.34-1.34A1.34,1.34,0,0,1,34.22,97.09Z"/><path class="cls-2" d="M26.83,71.54a1.34,1.34,0,1,1-1.34-1.33A1.34,1.34,0,0,1,26.83,71.54Z"/><path class="cls-2" d="M34.17,45.79a1.34,1.34,0,1,1-1.34-1.34A1.33,1.33,0,0,1,34.17,45.79Z"/><path class="cls-2" d="M54.46,114.58a1.34,1.34,0,1,1-1.33-1.34A1.34,1.34,0,0,1,54.46,114.58Z"/><path class="cls-2" d="M73,90.62c-11.12,0-20.17-8.81-20.17-19.63s9-19.63,20.17-19.63S93.16,60.17,93.16,71,84.11,90.62,73,90.62ZM73,52C62.2,52,53.41,60.5,53.41,71S62.2,90,73,90s19.58-8.53,19.58-19S83.78,52,73,52Z"/><path class="cls-2" d="M73,108.27v-.33l.63,0,0,.33Zm-1.29,0-.64,0,0-.34.63.05Zm3.22-.07,0-.33.63-.07,0,.33ZM69.83,108l-.64-.12.06-.32.63.11Zm7.06-.16-.07-.33.62-.13.08.32Zm-9-.24-.62-.18.1-.31.61.17Zm10.83-.24-.1-.32.61-.2.1.32Zm-12.67-.34-.61-.24.13-.31.59.23Zm14.49-.32-.13-.31.58-.26.14.3Zm-16.28-.45-.57-.3.15-.29.57.29Zm18-.4-.16-.29.55-.31.17.28Zm-19.71-.54-.55-.35.19-.28.53.35ZM84,104.87l-.19-.27.52-.37.19.27ZM61,104.23l-.51-.4.21-.26.5.4Zm24.49-.53-.22-.26.48-.41.22.24Zm-26-.73-.46-.45.24-.23.45.44Zm27.38-.59-.24-.24c.15-.15.29-.3.43-.46l.25.22Zm-28.71-.81-.42-.49.26-.21.41.48Zm30-.65-.26-.21c.13-.17.26-.33.38-.5l.27.19ZM57,100l-.36-.53.28-.19c.12.18.23.36.35.53Zm32.29-.7L89,99.16c.11-.18.22-.36.32-.55l.18.11v-.07l.63,0V99h-.64C89.46,99.1,89.38,99.22,89.31,99.34ZM56.55,99v-.33l.63,0,0,.34Zm-1.29,0-.64,0,0-.34.63.05Zm33,0-.64,0,0-.33.63,0Zm-29.76-.07,0-.33.63-.07,0,.33Zm33,0,0-.33.63-.08,0,.33Zm-38.12-.13-.64-.12.06-.32.63.11Zm33,0-.63-.11.06-.33.63.11ZM60.4,98.59l-.07-.32.62-.14.08.32Zm33,0-.07-.32.62-.14.08.32ZM56,98.4c-.1-.19-.21-.38-.3-.57l.29-.15.3.56Zm-4.56-.05-.62-.18.1-.31.61.17Zm33,0-.62-.17.09-.32.62.17Zm-22.15-.23-.1-.32.61-.2.1.32Zm33,0-.1-.31.6-.2.11.31ZM49.6,97.77,49,97.53l.13-.31.59.23Zm33,0-.6-.24.13-.31.59.24Zm7.68-.12L90,97.5l.27-.58.3.14C90.44,97.26,90.35,97.45,90.25,97.64Zm-26.16-.19L64,97.14l.58-.26.14.3Zm33,0-.13-.31.58-.26.14.31ZM47.81,97c-.19-.1-.38-.19-.57-.3l.16-.29.56.29Zm33,0-.57-.29.15-.3.57.29Zm-25.64-.33-.24-.6.32-.12c.07.2.15.39.23.59Zm10.68-.06-.16-.29.55-.31.17.28Zm33,0-.16-.3L99.2,96l.17.29Zm-52.69-.54-.54-.35.18-.28.54.35Zm33,0c-.19-.11-.37-.23-.55-.35l.19-.28.53.35ZM91,95.86l-.31-.11.21-.6.31.1Zm-23.54-.27-.19-.27.52-.37.19.27Zm33,0-.19-.27.51-.37.2.27ZM44.53,95l-.51-.4.21-.26.5.4Zm33,0L77,94.54l.21-.25.5.39Zm-23-.11-.18-.62.32-.09.18.61ZM69,94.42l-.22-.26.48-.41.22.24Zm33,0-.22-.25.48-.42.22.25ZM91.59,94l-.32-.08c0-.21.1-.41.14-.62l.33.07Zm-48.54-.32c-.15-.14-.31-.29-.46-.45l.24-.23.45.44Zm33,0-.46-.46.24-.23.45.44Zm-5.6-.59-.24-.24c.15-.15.29-.3.43-.46l.25.22Zm33,0-.24-.23c.15-.15.29-.31.43-.46l.25.22C103.7,92.78,103.56,92.94,103.41,93.09ZM54,93c0-.21-.08-.42-.11-.64l.33,0c0,.21.07.42.1.63Zm-12.32-.67-.42-.49.26-.21.41.49Zm33,0-.42-.49.26-.21.41.49ZM92,92.11l-.33,0c0-.21.06-.42.08-.63l.33,0C92,91.68,92,91.9,92,92.11ZM71.7,91.64l-.26-.21c.13-.16.26-.33.38-.5l.27.19Zm33,0-.26-.2.38-.51.27.2ZM53.78,91c0-.21,0-.43,0-.64l.33,0c0,.21,0,.42,0,.63Zm-13.25-.28-.36-.53.28-.18c.12.17.23.35.36.52Zm33,0-.36-.53.28-.18.35.52Zm18.62-.57H91.8c0-.21,0-.42,0-.63h.33C92.14,89.75,92.14,90,92.13,90.18Zm-19.31-.12-.28-.18c.11-.18.22-.36.32-.55l.29.17Zm33,0-.28-.18c.11-.18.22-.36.32-.54l.29.17Zm-66.29-.93-.3-.57.3-.15c.09.19.19.37.29.56Zm52.29,0c0-.21,0-.42,0-.63l.33,0,0,.65Zm-37.74,0h-.34l0-.64.33,0C54.07,88.69,54.06,88.9,54.06,89.11Zm18.43,0q-.17-.28-.3-.57l.29-.15.3.56Zm1.27-.75-.29-.14.27-.58.3.14C74,88,73.86,88.17,73.76,88.36Zm33,0-.3-.15c.1-.19.19-.38.28-.57l.3.13C106.93,88,106.84,88.16,106.74,88.36Zm-68.07-1q-.14-.3-.24-.6l.31-.12c.07.2.15.39.23.59Zm33,0-.24-.6.32-.12c.07.2.15.4.23.59Zm20-.15-.09-.63.33,0,.09.64Zm-37.46,0-.33,0,.09-.64.33.06Zm20.33-.64-.31-.11.21-.6.31.1Zm33,0-.31-.12c.07-.2.14-.4.2-.6l.32.11Zm-69.5-1-.18-.62.33-.09c.05.21.11.41.17.61Zm33,0-.18-.62.32-.09.18.62Zm20.33-.2c0-.21-.1-.41-.16-.62l.32-.08c.06.2.11.41.16.62Zm-36.78,0-.32-.08c.05-.21.1-.42.16-.63l.32.09C54.64,84.94,54.59,85.14,54.54,85.35Zm20.56-.62-.32-.08c0-.2.1-.41.14-.62l.33.07Zm33,0-.32-.08c0-.2.1-.41.14-.61l.33.06Q108.16,84.42,108.08,84.72Zm-70.53-1c0-.21-.08-.42-.11-.64l.33-.05c0,.21.07.42.11.63Zm33,0c0-.21-.08-.42-.11-.64l.33,0c0,.21.07.42.1.63Zm20.25-.15c-.07-.19-.15-.39-.22-.59l.31-.12c.08.2.15.4.22.6Zm-35.7,0-.31-.11c.07-.2.15-.41.23-.61l.31.13C55.23,83.12,55.15,83.32,55.08,83.52Zm20.39-.69-.33,0c0-.21.06-.42.08-.63l.33,0C75.53,82.4,75.5,82.62,75.47,82.83Zm33,0-.33,0c0-.21.06-.42.08-.63l.33,0C108.51,82.4,108.48,82.61,108.45,82.82Zm-18.4-1c-.09-.19-.18-.38-.28-.56l.29-.16c.1.19.2.38.29.58Zm-34.24,0-.3-.14L55.8,81l.3.15C56,81.38,55.9,81.57,55.81,81.76Zm-18.52,0c0-.21,0-.43,0-.64l.33,0c0,.21,0,.42,0,.63Zm33,0c0-.21,0-.43,0-.64l.33,0c0,.21,0,.42,0,.63Zm5.37-.85h-.33c0-.21,0-.42,0-.63h.33C75.65,80.47,75.65,80.69,75.64,80.9Zm33,0h-.33c0-.21,0-.42,0-.63h.33C108.63,80.47,108.63,80.68,108.62,80.89Zm-52.07-.47v-.33h.17l-.28-.17c.11-.19.23-.37.35-.55l.27.19-.33.53h.45l0,.33Zm33,0v-.33l.63,0,0,.34Zm-1.29,0-.64,0,0-.33.63,0Zm-33,0-.64,0,0-.33.63,0Zm3.22-.07,0-.33.63-.08,0,.33Zm33,0,0-.33.63-.08,0,.33Zm-5.14-.14-.64-.11.06-.33.63.11Zm-33,0-.64-.11.06-.33.63.11Zm35.8-.08c-.11-.18-.22-.36-.34-.53l.28-.19.35.55ZM93.38,80l-.07-.32.62-.14.08.33Zm-33,0-.07-.32.62-.14.08.33Zm14.91-.18c0-.22,0-.43,0-.64l.33,0,0,.65Zm-37.74,0h-.34l0-.64.33,0C37.58,79.41,37.57,79.62,37.57,79.83Zm70.72,0c0-.21,0-.42,0-.63l.33,0,0,.64Zm-37.74,0h-.34l0-.65.33,0C70.56,79.4,70.55,79.61,70.55,79.82Zm13.87,0-.62-.17.1-.32.61.17Zm-33,0-.62-.17.1-.32.61.17Zm43.81-.24-.1-.31.6-.2.11.31Zm-33,0-.1-.31.61-.2.11.31Zm20.31-.34c-.21-.08-.41-.15-.61-.24l.13-.3.59.23Zm-33,0c-.21-.08-.41-.15-.61-.24l.13-.3.59.23Zm14.49-.32L64,78.57l.58-.26.14.31Zm33,0-.13-.31.58-.26.14.31Zm-9-.34c-.13-.17-.26-.34-.4-.5l.26-.21c.14.16.27.33.4.5Zm-30.27,0-.26-.2c.13-.17.26-.34.4-.5l.26.21C58.06,78.19,57.93,78.36,57.8,78.52Zm-10-.09c-.2-.09-.39-.19-.58-.29l.16-.3.56.29Zm33,0-.57-.29.15-.3.57.29Zm-15-.39-.16-.3.55-.31.17.29Zm33,0-.16-.3.55-.31.17.29Zm-23.64-.1-.09-.63.33,0,.09.64Zm-37.46,0-.33,0,.09-.64.33.06Zm70.44,0-.09-.62.33-.06.09.64Zm-37.46,0-.33,0,.09-.64.33,0Zm-24.57-.44-.54-.35.18-.28.54.35Zm33,0-.55-.35.19-.28.53.35Zm7.73-.4c-.14-.16-.29-.31-.44-.46l.24-.23.45.46ZM59,77.08l-.25-.23.45-.46.24.23C59.33,76.77,59.18,76.92,59,77.08ZM100.46,77l-.19-.27c.17-.12.35-.24.51-.37l.2.27Zm-33,0-.19-.27.52-.37.19.27Zm-23-.63L44,76l.21-.25.5.39Zm33,0L77,76l.21-.25.5.39Zm-2.68-.32c0-.21-.1-.41-.16-.62l.32-.08c.06.2.11.41.16.62Zm-36.78,0L37.73,76c.05-.21.1-.42.16-.63l.32.09C38.15,75.66,38.1,75.86,38.05,76.07Zm69.76,0c0-.2-.1-.41-.16-.61l.32-.09c.06.21.11.42.16.63ZM71,76.06,70.71,76c.05-.21.1-.42.16-.63l.32.09C71.13,75.65,71.08,75.85,71,76.06Zm-2-.21-.22-.25.48-.42.22.25Zm33,0-.22-.25.48-.42.22.25Zm-16.54-.08L85,75.36l.21-.26.5.42Zm-25,0-.22-.25.5-.41.21.26Zm-17.35-.63c-.16-.15-.32-.3-.47-.46l.24-.23.45.45Zm33,0-.46-.46.24-.23.45.45ZM84,74.6l-.53-.36.18-.28c.19.12.36.24.54.37Zm-22,0-.19-.27.53-.36.18.28Zm8.52-.06-.24-.23c.15-.15.29-.31.43-.47l.25.23C70.73,74.22,70.58,74.37,70.43,74.53Zm33,0-.24-.23c.15-.15.29-.31.43-.47l.25.23C103.71,74.22,103.56,74.37,103.41,74.53Zm-29.12-.28c-.07-.2-.14-.4-.22-.6l.31-.12c.08.2.15.4.22.6Zm-35.7,0-.31-.11c.07-.2.15-.41.23-.61l.31.13C38.74,73.84,38.66,74,38.59,74.24Zm68.68,0c-.07-.2-.15-.4-.22-.59l.31-.12c.08.19.15.4.22.6Zm-35.7,0-.31-.11c.07-.2.15-.4.23-.61l.31.13C71.72,73.83,71.64,74,71.57,74.23Zm-29.85-.5c-.14-.17-.28-.33-.41-.5l.25-.21.41.49Zm33,0-.42-.5.26-.21.41.49Zm7.65-.15-.56-.3.15-.29.57.3Zm-18.83,0-.17-.29.57-.31.15.3Zm8.18-.51-.26-.21c.13-.16.26-.33.38-.5l.27.2Zm33,0-.26-.21c.13-.16.26-.33.38-.5l.27.2Zm-39.46-.34-.14-.3.6-.25.12.31Zm15.42,0-.59-.24.13-.31.59.25Zm-7.08-.24c-.09-.19-.18-.38-.28-.56l0,0-.16-.25.28-.18.35.52-.06,0,.14.3Zm33,0c-.09-.19-.18-.38-.28-.57l.29-.15c.1.19.2.38.29.57Zm-67.22,0-.3-.14c.1-.2.19-.39.29-.58l.3.16C39.51,72.1,39.41,72.29,39.32,72.48Zm33,0-.3-.14c.1-.19.19-.39.29-.58l.3.16C72.49,72.09,72.39,72.28,72.3,72.47ZM40.53,72.2l-.36-.54.28-.18c.12.18.23.35.36.53ZM67,72.06l-.11-.32.62-.18.09.32Zm11.86,0c-.2-.06-.4-.13-.61-.18l.09-.32c.21,0,.42.12.62.18Zm-10-.49-.07-.33.64-.12.06.32Zm8.19,0-.62-.13.06-.32.63.12Zm28.78-.08-.28-.18c.11-.18.22-.36.32-.54l.29.17Zm-33,0-.28-.18.1-.17h0V70.8h0c-.11-.17-.21-.34-.33-.51l0,0L72.19,70l.29-.15.3.56h0l.16.26-.25.15h.16v0l.06,0h.29l-.28-.17.35-.55.28.19c-.12.17-.23.35-.35.53h.46l0,.34H73Zm-2.11-.23,0-.33.45-.05,0-.16.63,0,0,.34-.42,0v.12Zm4.43,0-.63-.06,0-.33.42,0,0-.2.63-.07,0,.33-.44.05Zm-5.31-.36-.64-.11.06-.33.63.11Zm35.8-.08c-.11-.18-.22-.36-.34-.54l.28-.18c.12.18.24.36.35.54Zm-65.4,0L40,70.64c.11-.19.23-.37.35-.55l.28.19C40.46,70.45,40.34,70.63,40.23,70.81Zm36.66-.07-.07-.32.62-.14.08.32Zm-37.38-.19-.3-.57.3-.15c.09.19.19.38.29.56Zm28.42,0-.62-.17.1-.32.61.17Zm10.83-.24-.1-.32.61-.19.1.31Zm-12.67-.34-.61-.24.13-.31.59.23Zm40.65-.12-.3-.15c.1-.19.19-.38.28-.57l.3.13C106.93,69.41,106.84,69.6,106.74,69.8Zm-33,0-.3-.15.27-.57.3.13Zm6.81-.2-.13-.31L81,69l.14.3Zm-9-.34c-.13-.17-.26-.34-.4-.5l.26-.21.2.24-.24-.58.32-.12c.07.2.15.4.23.59l-.3.13.19.24Zm33,0-.4-.5.26-.21.4.51Zm-63.25,0-.26-.2c.13-.17.26-.34.4-.5l.26.21C41.57,68.91,41.44,69.08,41.31,69.24Zm33,0L74,69c.13-.17.26-.34.4-.5l.26.21C74.55,68.9,74.42,69.07,74.29,69.24Zm-10-.09-.57-.3.15-.29.57.29Zm-25.63-.34q-.14-.3-.24-.6l.31-.12c.07.2.15.4.23.59Zm43.65-.06-.16-.29.55-.31.17.29Zm-19.71-.54-.55-.35.19-.28.53.35Zm44.9-.19-.31-.12.21-.6.31.1Zm-33,0-.31-.12.21-.6.31.1C74.68,67.61,74.6,67.81,74.53,68Zm-4.19-.21c-.14-.16-.29-.31-.44-.46l.24-.23.45.46Zm33,0-.44-.45.24-.24.45.46Zm-60.77,0-.25-.23.45-.46.24.23C42.84,67.49,42.69,67.64,42.55,67.8Zm33,0-.25-.23.46-.46.23.24C75.82,67.48,75.67,67.64,75.53,67.79ZM84,67.74l-.19-.27.52-.37.19.27ZM61,67.1l-.51-.4.21-.26.5.4ZM38,67l-.18-.62.33-.08c.05.2.11.41.17.61Zm33,0-.18-.62.32-.08.18.61Zm14.52-.42-.22-.25.48-.42.22.25ZM69,66.49l-.49-.41.21-.26.5.42Zm33,0-.49-.4.21-.26.5.41Zm-58,0-.22-.25.5-.41.21.26Zm33,0-.22-.25.5-.41.21.26Zm31.18-.31-.32-.08c0-.2.1-.41.14-.62l.33.07Q108.16,65.86,108.08,66.16Zm-33,0-.32-.08c0-.2.1-.41.14-.62l.33.07Q75.18,65.86,75.1,66.16Zm-15.56-.32c-.15-.14-.31-.29-.46-.45l.24-.23.45.44Zm7.93-.52L66.94,65l.19-.28.53.37Zm-22,0L45.23,65l.53-.36.18.28Zm55,0L99.92,65l.19-.28.53.36Zm-22,0L78.21,65l.53-.36.18.28C78.75,65.07,78.57,65.18,78.4,65.31Zm8.52-.06L86.68,65l.43-.47.25.23Zm-49.37-.14c0-.21-.08-.42-.11-.63l.33,0c0,.21.07.41.11.62Zm33,0c0-.21-.08-.42-.11-.63l.33-.06c0,.21.07.42.1.63Zm-12.32-.67L57.79,64l.26-.21.41.49Zm7.65-.14L65.3,64l.15-.29L66,64ZM47,64.3,46.86,64l.57-.31.15.3Zm51.81,0c-.19-.11-.37-.21-.56-.3l.15-.3L99,64ZM80,64.29,79.84,64l.57-.3.15.29Zm28.44,0-.33,0c0-.21.06-.42.08-.63l.33,0C108.51,63.84,108.48,64.05,108.45,64.26Zm-33,0-.33,0c0-.21.06-.42.08-.63l.33,0C75.53,63.84,75.5,64.05,75.47,64.26Zm12.72-.47-.26-.21c.13-.16.26-.33.38-.5l.27.19Zm-39.46-.33-.14-.31.6-.25.12.31Zm15.42,0-.59-.24.13-.31.59.25Zm33,0-.59-.25.13-.31.6.25Zm-15.42,0-.14-.31.6-.25.12.31Zm-44.42-.26c0-.21,0-.43,0-.64l.33,0c0,.22,0,.43,0,.64Zm33,0c0-.21,0-.43,0-.64l.33,0c0,.21,0,.43,0,.64ZM57,62.91l-.36-.53.28-.18.35.52Zm-6.51-.13-.11-.32.62-.18.09.32Zm11.86,0c-.2-.06-.4-.13-.61-.18l.09-.32.62.18Zm21.12,0-.1-.31.61-.19.09.32Zm11.86,0-.61-.18.09-.32.62.19Zm13.27-.44h-.33c0-.21,0-.42,0-.63h.33C108.63,61.9,108.63,62.12,108.62,62.33Zm-33,0h-.33c0-.21,0-.42,0-.63h.33C75.65,61.9,75.65,62.12,75.64,62.33Zm-23.3,0L52.27,62l.64-.12.06.33Zm8.19,0-.62-.13.06-.32.63.12Zm24.8,0L85.25,62l.64-.13.06.33Zm8.18,0-.62-.12.06-.33.63.13Zm-4.2-.07L89,62l.11-.18h0v-.33h.24l0,0,0,0h.34v.33h-.21ZM54.22,62l0-.33c.22,0,.43,0,.65-.06l0,.33Zm4.43,0L58,61.92l0-.33c.22,0,.43,0,.64.06ZM87.2,62l0-.33.65-.06,0,.33Zm4.44,0L91,61.91l0-.33.64.06Zm-34.88-.11h-.64v-.34h.64ZM56,61.27c-.1-.19-.21-.38-.3-.57l.29-.15.3.56Zm52.29,0c0-.21,0-.43,0-.64l.33,0,0,.65Zm-33,0,0-.64.33,0,0,.65Zm-37.75,0h-.34l0-.65.33,0C37.58,60.84,37.57,61.05,37.57,61.27Zm33,0h-.34l0-.65.33,0C70.56,60.84,70.55,61.05,70.55,61.26Zm19.7-.74L90,60.37l.27-.58.3.14C90.44,60.13,90.35,60.32,90.25,60.52Zm-35.1-1-.24-.6.32-.12c.07.2.15.4.23.59Zm53-.16-.09-.63.33-.05.09.64Zm-33,0-.09-.63.33-.05.09.64Zm-37.46,0-.33,0,.09-.64.33.05Zm33,0-.33,0,.09-.64.33.05ZM91,58.73l-.31-.11.21-.6.31.1Zm-36.52-1-.18-.62.32-.09.18.61Zm53.31-.21c0-.21-.1-.41-.16-.61l.32-.09c.06.21.11.41.16.62Zm-33,0c0-.21-.1-.41-.16-.61L75,56.8c.06.2.11.41.16.62Zm-36.78,0-.32-.08c.05-.21.1-.42.16-.62l.32.09C38.15,57.09,38.1,57.29,38.05,57.5Zm33,0-.32-.08c.05-.21.1-.42.16-.62l.32.08C71.13,57.09,71.08,57.29,71,57.5Zm20.56-.62-.32-.08c0-.2.1-.41.14-.62l.33.07ZM54,55.83c0-.21-.08-.42-.11-.64l.33,0c0,.21.07.42.1.63Zm53.23-.15c-.07-.2-.15-.4-.22-.59l.31-.13c.08.2.15.4.22.61Zm-33,0c-.07-.2-.15-.4-.22-.59l.31-.13c.08.2.15.4.22.61Zm-35.7,0-.31-.11c.07-.2.15-.4.23-.6l.31.12C38.74,55.28,38.66,55.47,38.59,55.67Zm33,0-.31-.11.22-.6.32.12C71.72,55.28,71.64,55.47,71.57,55.67ZM92,55l-.33,0c0-.21.06-.42.08-.63l.33,0C92,54.56,92,54.77,92,55Zm14.58-1.06-.28-.56.29-.16c.1.19.2.39.29.58Zm-33,0c-.09-.19-.18-.38-.28-.56l.29-.16c.1.19.2.39.29.58Zm-34.24,0-.3-.15.29-.58.3.16C39.51,53.54,39.41,53.73,39.32,53.92Zm33,0-.3-.15c.1-.19.19-.39.29-.58l.3.16C72.49,53.54,72.39,53.72,72.3,53.92Zm-18.52,0c0-.21,0-.43,0-.64l.33,0c0,.21,0,.42,0,.63Zm38.35-.86H91.8c0-.21,0-.42,0-.63h.33C92.14,52.62,92.14,52.84,92.13,53.05Zm13.5-.79c-.11-.18-.22-.36-.34-.54l.28-.18.35.54Zm-33,0c-.11-.18-.22-.36-.34-.54l.28-.18c.12.17.23.35.34.53.11-.18.23-.37.35-.54l.27.18-.34.53-.28-.17h0Zm-32.42,0L40,52.07c.11-.18.23-.36.35-.54l.28.18C40.46,51.89,40.34,52.06,40.23,52.24ZM91.81,52l0-.64.33,0,0,.65ZM54.06,52h-.34l0-.64.33,0C54.07,51.56,54.06,51.77,54.06,52Zm50.5-1.29-.4-.5.26-.21.4.51Zm-33,0-.4-.5.26-.21.4.51Zm-30.27,0-.26-.21.4-.5.26.21C41.57,50.34,41.44,50.51,41.31,50.68Zm33,0L74,50.47l.4-.5.26.21C74.55,50.34,74.42,50.51,74.29,50.68Zm17.37-.59-.09-.63.33-.05.09.64Zm-37.46,0L53.87,50l.09-.63.33.05Zm49.12-.85c-.14-.15-.29-.31-.44-.45l.23-.24c.16.15.31.3.46.46Zm-33,0c-.14-.15-.29-.31-.44-.45l.23-.24c.16.15.31.3.46.46Zm-27.79,0L42.3,49l.45-.46.24.24Zm33,0L75.28,49l.45-.46.24.24C75.82,48.92,75.67,49.08,75.53,49.23Zm15.79-1c0-.21-.1-.41-.16-.61l.32-.09c.06.2.11.41.16.62Zm-36.78,0-.32-.08c.05-.21.1-.42.16-.63l.32.09C54.64,47.81,54.59,48,54.54,48.22Zm47.41-.3-.49-.4.21-.26.5.41Zm-33,0-.49-.4.21-.26.5.41Zm-25,0-.22-.26.5-.41.21.26C44.24,47.64,44.08,47.78,43.92,47.92Zm33,0-.22-.26.5-.41.21.26C77.22,47.64,77.06,47.78,76.9,47.92Zm23.55-1.17-.53-.35.18-.28q.27.16.54.36Zm-33,0-.53-.36.18-.27.54.36Zm-22,0-.19-.28.53-.36.18.28Zm33,0-.19-.28.53-.36.18.28Zm12.38-.35c-.07-.2-.14-.4-.22-.6l.31-.12c.08.2.15.4.22.61Zm-35.7,0-.31-.11c.07-.2.15-.41.23-.61l.31.13C55.23,46,55.15,46.19,55.08,46.39Zm43.76-.65-.56-.31.15-.29.57.31Zm-33,0-.56-.31.15-.29.57.31ZM47,45.73l-.17-.29.57-.3.15.29Zm33,0-.17-.29.57-.3.15.29Zm-31.28-.84-.14-.31.6-.25.12.31Zm33,0-.14-.31.6-.25.12.31Zm15.42,0-.59-.25.13-.31.59.25Zm-33,0-.59-.25.13-.31.59.25Zm25.9-.25c-.09-.19-.18-.38-.28-.56l.29-.16c.1.19.2.39.29.58Zm-34.24,0-.3-.14.29-.58.3.16C56,44.25,55.9,44.44,55.81,44.63Zm-5.3-.42-.11-.31.62-.19.09.32Zm33,0-.11-.31.62-.19.09.32Zm11.86,0L94.74,44l.09-.32.62.19Zm-33,0L61.76,44l.09-.32.62.19Zm-10-.49-.07-.32.64-.13.06.33Zm33,0-.07-.32.64-.13.06.33Zm8.19,0-.62-.12.06-.33.63.12Zm-33,0-.62-.12.06-.33.63.12Zm26.67-.31,0-.33.65-.06,0,.33Zm-33,0,0-.33.65-.06,0,.33Zm37.41,0L91,43.35,91,43l.64.06Zm-33,0L58,43.35l0-.33.64.06Zm30.45-.12V43h0a5.69,5.69,0,0,0-.33-.52l.28-.18c.12.18.24.36.35.54l-.25.16h.56v.33Zm-32.35,0h-.63V43h.6l-.27-.17c.11-.19.23-.37.35-.55l.28.19c-.12.17-.23.35-.34.53h0Zm31.32-1.88c-.13-.17-.26-.34-.4-.5l.26-.21c.14.17.27.33.4.51Zm-30.27,0-.26-.21c.13-.17.26-.34.4-.5l.26.21C58.06,41.06,57.93,41.23,57.8,41.4Zm29-1.44-.44-.46.24-.23.45.46ZM59,40l-.25-.23.45-.46.24.23C59.33,39.64,59.18,39.79,59,40Zm26.42-1.31L85,38.23l.21-.25.5.41Zm-25,0-.22-.25.5-.41.21.26ZM84,37.47l-.53-.36.19-.27c.18.11.35.23.53.36Zm-22,0-.19-.28.53-.36.18.28C62.26,37.23,62.08,37.34,61.91,37.47Zm20.44-1-.56-.31.15-.29.57.3Zm-18.83,0-.17-.29.57-.3.15.29Zm1.7-.84-.14-.31.6-.25.12.31Zm15.42,0-.59-.25.13-.31.59.25ZM67,34.93l-.11-.31.62-.19.09.32Zm11.86,0-.61-.18.09-.32.62.18Zm-10-.49-.07-.33L69.4,34l.06.33Zm8.19,0c-.2,0-.41-.09-.62-.12l.06-.33.63.12Zm-6.31-.31,0-.33.65-.06,0,.33Zm4.43,0-.63-.06,0-.33.64.06ZM72.61,34v-.33h.64V34Z"/><g id="_9" data-name="9"><path class="cls-3" d="M57.88,120.57a21.9,21.9,0,0,1-9.87-2,6.7,6.7,0,0,1-2.6-10.32c1-1.3,2.94-2.38,5.89-3.22,0,.59,0,1.24.06,2s.11,1.41.19,2.09a11.37,11.37,0,0,0,1.78,4.74c.92,1.4,2.53,2.09,4.81,2.09a17.41,17.41,0,0,0,11-3.92,38.61,38.61,0,0,0,9-10.51A82.65,82.65,0,0,0,85,86.89a111.86,111.86,0,0,0,4.56-16.07,32.4,32.4,0,0,1-9.62,4.94,35.8,35.8,0,0,1-11.14,1.77,29.14,29.14,0,0,1-13.1-2.91,22.11,22.11,0,0,1-9.37-8.8q-3.48-5.88-3.48-14.49a34.51,34.51,0,0,1,4.11-17A29.9,29.9,0,0,1,58.45,22.66a34.41,34.41,0,0,1,17.41-4.24q10.88,0,17.34,4.87a27.12,27.12,0,0,1,9.3,12.91,52.11,52.11,0,0,1,2.85,17.53,81.42,81.42,0,0,1-2.09,17.79,90.54,90.54,0,0,1-6.07,18,72.46,72.46,0,0,1-9.75,15.7,46.78,46.78,0,0,1-13.16,11.2A32.88,32.88,0,0,1,57.88,120.57ZM73.83,71.45q9.24,0,13.61-5.88t4.37-15.64a50.75,50.75,0,0,0-.76-8.29,33,33,0,0,0-2.6-8.42,17.48,17.48,0,0,0-5.06-6.45,12.61,12.61,0,0,0-8-2.53,15,15,0,0,0-8.23,2.34A19.59,19.59,0,0,0,61,32.91a33.42,33.42,0,0,0-3.79,8.86,37.44,37.44,0,0,0-1.33,9.94,23.91,23.91,0,0,0,2.28,11,14.87,14.87,0,0,0,6.32,6.58A19.63,19.63,0,0,0,73.83,71.45Z"/></g></g></g></svg>