<svg xmlns="http://www.w3.org/2000/svg" viewBox="0 0 305.22 282.99"><defs><style>.cls-1{fill:#c93f3f;opacity:0.13;}.cls-2{fill:#ffc5dc;}.cls-3{fill:#ec97b0;}.cls-4{fill:#ffd7ec;}.cls-5{fill:#d6859e;}.cls-6{fill:#fba6bf;}.cls-7{fill:#c97e94;}.cls-8{fill:#fff7ff;}.cls-9{fill:#8d4d3f;}.cls-10{fill:#ffc4a3;}.cls-11{fill:#432a37;}.cls-12{fill:#ffa275;}.cls-13{fill:#000102;}.cls-14{fill:#c04547;}.cls-15{opacity:0.3;}</style></defs><g id="Layer_2" data-name="Layer 2"><g id="Layer_5" data-name="Layer 5"><path class="cls-1" d="M123.23,6.94h-.59c-.5,0-1,0-1.51,0-1.45,0-2.91.12-4.36.24h0c-1.29.11-2.58.25-3.86.42l-.53.08c-1.44.2-2.88.45-4.32.73q-3.57.71-7.07,1.73c-1.32.39-2.63.81-3.93,1.27A75.71,75.71,0,0,0,61.18,37.33c-10.36,14-15.6,31-21.14,47.42-9,26.66-19.34,53.51-19.8,81.63-.42,25.28,7.08,56.83,40.9,74.59q3.87,2,8.19,3.81c1.37.56,2.77,1.11,4.21,1.62a187.21,187.21,0,0,0,19.22,5.73l.7.16h0l.15,0c2.42.58,4.9,1.13,7.41,1.64a287.75,287.75,0,0,0,56.84,5.59A270.24,270.24,0,0,0,189,257.81c1.76-.2,3.51-.43,5.24-.67a184.08,184.08,0,0,0,33-7.49c24-8.07,55.4-36.66,67.9-58.73s14.1-50.88.92-72.55c-6.41-10.54-15.41-18.53-25.55-25.41-4.3-2.93-8.82-5.66-13.42-8.3l-2.81-1.59-1.79-1-5.13-2.83h0q-4-2.18-7.91-4.36l-.37-.21h0l-2.27-1.28-2.25-1.28c-2.51-1.45-5-2.92-7.44-4.44l-.55-.34-1.64-1q-2.07-1.32-4.09-2.7c-1.63-1.12-3.23-2.27-4.82-3.45q-2.79-2.07-5.5-4.24c-1-.77-2-1.56-2.91-2.35l-.56-.46q-1.06-.87-2.13-1.77l-1.35-1.13-1.11-.94-2.49-2.13-3.31-2.86-1.91-1.65-3.58-3.09q-2-1.7-3.94-3.36l-.49-.42c-1.19-1-2.4-2-3.6-3h0c-.73-.6-1.45-1.19-2.18-1.77l0,0-1.65-1.31L177,27.88q-2.16-1.66-4.37-3.24l-.8-.57c-2.07-1.46-4.18-2.87-6.32-4.21L164.11,19c-.76-.46-1.53-.91-2.3-1.35l-.81-.46-.36-.2-1-.52a85.67,85.67,0,0,0-12.56-5.58l-1-.34-2-.62c-1.87-.56-3.77-1-5.68-1.45l-.92-.19c-.82-.16-1.64-.3-2.45-.44-1.44-.23-2.87-.41-4.31-.56q-3.54-.36-7.09-.37h-.48"/><polygon class="cls-2" points="99.46 269.5 99.52 269.06 94.39 282.57 99.52 269.06 99.46 269.5"/><polygon class="cls-3" points="99.46 269.5 99.52 269.06 94.39 282.57 206.37 282.44 203.65 269.5 99.46 269.5"/><path class="cls-2" d="M130.66,99.72l-.19,0Z"/><path class="cls-2" d="M139.74,6.74l.07,0Z"/><path class="cls-2" d="M128.94,99.5l-.38,0Z"/><path class="cls-2" d="M143.45,4.32l.27-.14Z"/><path class="cls-2" d="M127.41,99.31l-.54-.06Z"/><path class="cls-2" d="M145.42,3.32l.6-.25Z"/><path class="cls-2" d="M147.51,2.45c.26-.1.53-.18.79-.27C148,2.27,147.77,2.35,147.51,2.45Z"/><path class="cls-2" d="M125.5,31c.08-.29.16-.58.25-.87C125.66,30.39,125.58,30.68,125.5,31Z"/><path class="cls-2" d="M128.34,22.53c.1-.26.21-.52.32-.78C128.55,22,128.44,22.27,128.34,22.53Z"/><path class="cls-2" d="M126.8,26.67c.09-.28.19-.56.28-.83C127,26.11,126.89,26.39,126.8,26.67Z"/><path class="cls-2" d="M127.53,24.58l.31-.81Z"/><path class="cls-2" d="M126.12,28.8l.27-.85Z"/><path class="cls-2" d="M123.94,37.63c.06-.3.12-.59.19-.89C124.06,37,124,37.33,123.94,37.63Z"/><path class="cls-2" d="M207.52,184.87l-.06.2Z"/><path class="cls-2" d="M124.94,33.17c.07-.29.14-.59.22-.88C125.08,32.58,125,32.88,124.94,33.17Z"/><path class="cls-2" d="M134.83,11.48l.43-.51Z"/><path class="cls-2" d="M137.87,8.31l.32-.29Z"/><path class="cls-2" d="M129.21,20.54c.11-.26.23-.51.35-.76C129.44,20,129.32,20.28,129.21,20.54Z"/><path class="cls-2" d="M136.27,9.87l.4-.42Z"/><path class="cls-2" d="M133.52,13.16l.42-.58Z"/><path class="cls-2" d="M132.3,14.9l.42-.63Z"/><path class="cls-2" d="M130.16,18.59c.12-.23.24-.48.37-.71C130.4,18.11,130.28,18.36,130.16,18.59Z"/><path class="cls-2" d="M131.19,16.72l.39-.68Z"/><path class="cls-2" d="M124.42,35.39c.06-.3.13-.59.2-.89C124.55,34.8,124.48,35.09,124.42,35.39Z"/><path class="cls-2" d="M208.4,177.86v0Z"/><path class="cls-2" d="M208.41,177.54v0Z"/><path class="cls-2" d="M206.4,188.27l-.11.25Z"/><path class="cls-2" d="M206.88,187l-.08.23Z"/><polygon class="cls-2" points="227.38 154.81 227.33 154.8 227.31 154.8 227.31 154.8 227.38 154.81"/><path class="cls-2" d="M208.39,178.6v0Z"/><path class="cls-2" d="M208.44,177.23l0,.23Z"/><path class="cls-2" d="M207.24,185.84l-.09.31Z"/><path class="cls-2" d="M208.11,182l0,.15Z"/><path class="cls-2" d="M208.38,179.11v0Z"/><path class="cls-2" d="M207.79,183.74l0,.23Z"/><path class="cls-2" d="M208,182.83l0,.26Z"/><path class="cls-2" d="M208.23,181.12l0,.2Z"/><path class="cls-2" d="M208.35,179.81v0Z"/><path class="cls-2" d="M208.3,180.42l0,.2Z"/><path class="cls-2" d="M154.58.6l1.15-.16Z"/><path class="cls-2" d="M157.21.26c.41-.05.83-.08,1.25-.11C158,.19,157.62.21,157.21.26Z"/><path class="cls-2" d="M163.08,0l.78,0Z"/><path class="cls-2" d="M133.93,100.16l-.57-.08Z"/><path class="cls-2" d="M160,.06l1.36,0Z"/><path class="cls-2" d="M152.09,1.08c.34-.08.69-.14,1-.21C152.78.94,152.43,1,152.09,1.08Z"/><path class="cls-2" d="M149.73,1.7l.93-.25Z"/><polygon class="cls-2" points="211.73 113.27 211.68 112.96 211.73 113.27 211.73 113.27"/><path class="cls-2" d="M132.45,100l-.52-.07Z"/><path class="cls-2" d="M137.73,100.68l-.39-.05Z"/><path class="cls-2" d="M189.05,108.72l-.21,0Z"/><path class="cls-2" d="M136.57,100.52l-.57-.08Z"/><path class="cls-2" d="M211.11,109.08c0,.11,0,.22,0,.33C211.14,109.3,211.13,109.19,211.11,109.08Z"/><path class="cls-2" d="M123.5,39.88c.06-.29.12-.58.17-.88C123.62,39.3,123.56,39.59,123.5,39.88Z"/><path class="cls-2" d="M135.31,100.35l-.6-.09Z"/><path class="cls-2" d="M236,176.21a3.09,3.09,0,0,0-.33.74A3.09,3.09,0,0,1,236,176.21Z"/><path class="cls-2" d="M242.93,180.22l.26.3Z"/><path class="cls-2" d="M237.21,160.82l.86.75Z"/><path class="cls-2" d="M242,179.29l.36.32Z"/><path class="cls-2" d="M244.31,182.6c0,.12.07.25.11.37C244.38,182.85,244.35,182.72,244.31,182.6Z"/><path class="cls-2" d="M240,177.91l.48.24Z"/><path class="cls-2" d="M238.89,177.44a5.34,5.34,0,0,1,.52.18A5.34,5.34,0,0,0,238.89,177.44Z"/><path class="cls-2" d="M238.75,162.16l.92.74Z"/><path class="cls-2" d="M241.06,178.53a3.23,3.23,0,0,1,.43.29A3.23,3.23,0,0,0,241.06,178.53Z"/><path class="cls-2" d="M235.7,159.41l.82.77Z"/><path class="cls-2" d="M244.69,187.28q-.08.39-.18.78Q244.62,187.67,244.69,187.28Z"/><path class="cls-2" d="M243.86,189.77a8.57,8.57,0,0,1-.68,1.12A8.57,8.57,0,0,0,243.86,189.77Z"/><path class="cls-2" d="M244.63,183.72c0,.15.05.29.08.44C244.68,184,244.66,183.87,244.63,183.72Z"/><path class="cls-2" d="M125.85,99.12l-.57-.07Z"/><path class="cls-2" d="M244.8,184.87c0,.16,0,.31,0,.47C244.82,185.18,244.82,185,244.8,184.87Z"/><path class="cls-2" d="M244.83,186c0,.26,0,.51-.06.77C244.8,186.48,244.82,186.23,244.83,186Z"/><path class="cls-2" d="M232.78,156.4c.25.28.51.55.76.82C233.29,157,233,156.68,232.78,156.4Z"/><path class="cls-2" d="M244.37,188.55a8.26,8.26,0,0,1-.33.82A8.26,8.26,0,0,0,244.37,188.55Z"/><path class="cls-2" d="M242.32,172.78l-.34.14Z"/><path class="cls-2" d="M245.5,169.59a2.33,2.33,0,0,1,0,.38A2.33,2.33,0,0,0,245.5,169.59Z"/><path class="cls-2" d="M241.91,164.63c.54.38,1.08.76,1.62,1.12C243,165.39,242.45,165,241.91,164.63Z"/><path class="cls-2" d="M237.72,177.12c.18,0,.37.07.55.12C238.09,177.19,237.91,177.16,237.72,177.12Z"/><path class="cls-2" d="M243.13,172.42l-.33.17Z"/><path class="cls-2" d="M244.47,171.55l-.25.23Z"/><path class="cls-2" d="M243.85,172l-.3.19Z"/><path class="cls-2" d="M245.32,170.35a2.26,2.26,0,0,1-.13.33A2.26,2.26,0,0,0,245.32,170.35Z"/><path class="cls-2" d="M241.44,173.12l-.33.12Z"/><path class="cls-2" d="M237.08,175.05c-.13.1-.25.22-.37.32C236.83,175.27,237,175.15,237.08,175.05Z"/><path class="cls-2" d="M245,171l-.2.27Z"/><path class="cls-2" d="M240.27,173.54l-.41.15Z"/><path class="cls-2" d="M237.78,174.6c-.14.08-.27.17-.4.26C237.51,174.77,237.64,174.68,237.78,174.6Z"/><path class="cls-2" d="M239.4,173.86,239,174Z"/><path class="cls-2" d="M238.56,174.21l-.42.21Z"/><path class="cls-2" d="M240.32,163.43l1,.77Z"/><path class="cls-2" d="M115.8,90c0-.21.07-.42.1-.62C115.87,89.54,115.83,89.75,115.8,90Z"/><path class="cls-2" d="M120.66,58.2l.06-.43Z"/><path class="cls-2" d="M121.07,55.49l0-.21Z"/><path class="cls-2" d="M120.87,56.81l0-.24Z"/><path class="cls-2" d="M120.25,60.93l.06-.42Z"/><path class="cls-2" d="M231.11,195.7h0Z"/><path class="cls-2" d="M119.25,67.5l.15-1Z"/><path class="cls-2" d="M119.73,64.31c0-.18.06-.35.08-.52C119.79,64,119.76,64.13,119.73,64.31Z"/><path class="cls-2" d="M119.51,65.8c0-.18,0-.36.08-.55C119.56,65.44,119.53,65.62,119.51,65.8Z"/><path class="cls-2" d="M121.89,49.94l0-.18Z"/><path class="cls-2" d="M118.72,71l.09-.58Z"/><path class="cls-2" d="M122.37,46.66c0-.23.07-.47.11-.7C122.44,46.19,122.4,46.43,122.37,46.66Z"/><path class="cls-2" d="M122.72,44.41c0-.28.09-.55.14-.83C122.81,43.86,122.76,44.13,122.72,44.41Z"/><path class="cls-2" d="M121.21,54.53c0-.23.07-.47.1-.69C121.28,54.07,121.24,54.29,121.21,54.53Z"/><path class="cls-2" d="M121.45,52.93v0Z"/><path class="cls-2" d="M121.72,51.05c0-.15,0-.3.07-.44C121.77,50.75,121.75,50.9,121.72,51.05Z"/><path class="cls-2" d="M121.57,52.07l.09-.57Z"/><path class="cls-2" d="M120.45,59.56l.06-.41Z"/><path class="cls-2" d="M220.34,194.52l-.72-.17Z"/><path class="cls-2" d="M222.38,195l-.71-.15Z"/><path class="cls-2" d="M213.13,192.45l-.9-.32Z"/><path class="cls-2" d="M218.23,194l-.6-.16Z"/><path class="cls-2" d="M229.13,195.7l-.65,0Z"/><path class="cls-2" d="M224.41,195.29l-.57-.09Z"/><path class="cls-2" d="M226.65,195.55h0Z"/><path class="cls-2" d="M117.13,81.36c0-.23.07-.46.1-.69C117.2,80.9,117.16,81.13,117.13,81.36Z"/><path class="cls-2" d="M118.44,72.77l.12-.77Z"/><path class="cls-2" d="M118.23,74.18c0-.29.08-.57.13-.85C118.31,73.61,118.27,73.89,118.23,74.18Z"/><path class="cls-2" d="M116.9,82.84c0-.11,0-.21,0-.32C116.93,82.63,116.91,82.73,116.9,82.84Z"/><path class="cls-2" d="M123.1,42.14l.15-.86Z"/><path class="cls-2" d="M116.63,84.59c0-.18.06-.37.08-.56C116.69,84.22,116.66,84.41,116.63,84.59Z"/><path class="cls-2" d="M208.14,190.58l-1.08-.46Z"/><path class="cls-2" d="M210.62,191.56l-1.05-.42Z"/><path class="cls-2" d="M236.53,177l.55,0Z"/><path class="cls-2" d="M196.43,28.77l.07.24Z"/><path class="cls-2" d="M196.83,30.16l0,.13Z"/><path class="cls-2" d="M195.45,26.13l.08.19Z"/><path class="cls-2" d="M194.26,23.66l.07.14Z"/><path class="cls-2" d="M193.6,22.5l.08.14Z"/><path class="cls-2" d="M197.18,31.59l.09.42Z"/><path class="cls-2" d="M197.7,34.59l0,.29Z"/><path class="cls-2" d="M178.41,95.41v0Z"/><path class="cls-2" d="M178.47,94.38v0Z"/><path class="cls-2" d="M124.23,98.93l-.52-.06Z"/><path class="cls-2" d="M178.52,93.61v0Z"/><path class="cls-2" d="M197.47,33.07l0,.26Z"/><path class="cls-2" d="M191.32,19.3l.11.14Z"/><path class="cls-2" d="M192.12,20.32l.06.08Z"/><path class="cls-2" d="M185.68,14.24l.35.24Z"/><path class="cls-2" d="M184.62,13.58l.4.25Z"/><path class="cls-2" d="M182.41,12.43c.17.07.34.16.5.24C182.75,12.59,182.58,12.5,182.41,12.43Z"/><path class="cls-2" d="M183.53,13l.47.26Z"/><path class="cls-2" d="M186.71,15l.29.22Z"/><path class="cls-2" d="M178.28,97.73l0,.42Z"/><path class="cls-2" d="M190.48,18.33l.14.16Z"/><path class="cls-2" d="M188.67,16.54l.22.21Z"/><path class="cls-2" d="M187.71,15.72l.22.19Z"/><path class="cls-2" d="M189.59,17.41l.21.22Z"/><polygon class="cls-2" points="205.84 189.6 205.85 189.6 205.92 189.42 205.84 189.6"/><polygon class="cls-2" points="139.54 100.71 139.54 100.94 139.55 100.94 139.54 100.71"/><path class="cls-2" d="M171.33,10l0,0Z"/><polygon class="cls-2" points="139.36 69.71 139.4 69.71 139.46 69.71 139.54 100.71 139.46 69.71 139.36 69.71"/><polygon class="cls-2" points="138.98 50.17 138.94 50.17 138.98 50.18 138.98 50.17"/><path class="cls-2" d="M171.73,9.55l0,0Z"/><path class="cls-2" d="M178.08,107l10.76,1.7Z"/><path class="cls-2" d="M139.29,100.91h0Z"/><path class="cls-2" d="M235,158.73c-.27-.26-.53-.53-.79-.8C234.49,158.2,234.75,158.47,235,158.73Z"/><path class="cls-2" d="M231.69,155.19l.42.46-.41-.46h0Z"/><path class="cls-2" d="M181.26,11.93l.53.23Z"/><path class="cls-2" d="M178.2,99v0Z"/><path class="cls-2" d="M114.56,98h0l.32,0Z"/><path class="cls-2" d="M236.16,176a3.11,3.11,0,0,1,.32-.42A3.11,3.11,0,0,0,236.16,176Z"/><path class="cls-2" d="M178,103.13v0Z"/><path class="cls-2" d="M178,102.18v0Z"/><path class="cls-2" d="M178,102.56v0Z"/><path class="cls-2" d="M178.13,100.14c0,.13,0,.26,0,.4C178.12,100.4,178.12,100.27,178.13,100.14Z"/><path class="cls-2" d="M178,101.94v0Z"/><polygon class="cls-2" points="178.05 106.99 177.85 106.96 178.05 106.99 178.05 106.99"/><polygon class="cls-2" points="177.83 106.95 177.85 106.73 177.83 106.95 177.83 106.95"/><polygon class="cls-2" points="178.31 97.17 178.33 96.88 178.33 96.88 178.31 97.17"/><path class="cls-2" d="M177.94,104.74v0Z"/><path class="cls-2" d="M177.9,105.66c0,.11,0,.21,0,.32C177.89,105.87,177.9,105.77,177.9,105.66Z"/><path class="cls-2" d="M178,104v0Z"/><path class="cls-2" d="M192.88,21.39l.07.1Z"/><path class="cls-2" d="M129.52,60.76c0-.12,0-.24,0-.37C129.5,60.52,129.51,60.64,129.52,60.76Z"/><path class="cls-2" d="M130,63.52l-.08-.28Z"/><path class="cls-2" d="M129.64,62.08v0Z"/><path class="cls-2" d="M130.91,65.65l-.12-.19Z"/><path class="cls-2" d="M130.34,64.57l-.07-.19Z"/><path class="cls-2" d="M129.74,57c.06-.33.12-.64.19-.93C129.86,56.37,129.8,56.68,129.74,57Z"/><path class="cls-2" d="M129.52,58.92c0-.53.08-1,.15-1.49C129.6,57.9,129.55,58.39,129.52,58.92Z"/><path class="cls-2" d="M130.42,54.56a7.79,7.79,0,0,1,.47-1A7.79,7.79,0,0,0,130.42,54.56Z"/><path class="cls-2" d="M131.64,52.53a5.11,5.11,0,0,1,.45-.48A5.11,5.11,0,0,0,131.64,52.53Z"/><path class="cls-2" d="M130,55.68c.09-.31.19-.6.29-.88C130.23,55.08,130.13,55.37,130,55.68Z"/><path class="cls-2" d="M131.48,66.46l-.12-.17Z"/><path class="cls-2" d="M131,53.39a6.74,6.74,0,0,1,.42-.62A6.74,6.74,0,0,0,131,53.39Z"/><path class="cls-2" d="M132.22,67.24l-.13-.12Z"/><path class="cls-2" d="M136.33,69.35l-.2,0Z"/><path class="cls-2" d="M116.24,98.14l-.52,0Z"/><path class="cls-2" d="M180.09,11.49l.58.22Z"/><path class="cls-2" d="M137.09,69.51l-.09,0Z"/><path class="cls-2" d="M138.77,100.83h0Z"/><path class="cls-2" d="M117.64,98.25l-.49,0Z"/><path class="cls-2" d="M133,67.84l-.18-.13Z"/><path class="cls-2" d="M134.6,68.78l-.19-.09Z"/><path class="cls-2" d="M138.71,69.69h0Z"/><path class="cls-2" d="M138,69.63h0Z"/><path class="cls-2" d="M133.75,68.35l-.1,0Z"/><path class="cls-2" d="M172.64,10.06l.69,0Z"/><path class="cls-2" d="M173.93,10.15l.67.08Z"/><path class="cls-2" d="M173,8.32l-.09.08Z"/><path class="cls-2" d="M172.47,8.82l-.1.1Z"/><path class="cls-2" d="M171.37,10h0l.69,0Z"/><path class="cls-2" d="M122.57,98.75l-.42,0Z"/><path class="cls-2" d="M177.68,10.78l.66.17Z"/><path class="cls-2" d="M178.9,11.11l.63.2Z"/><path class="cls-2" d="M175.2,10.3c.23,0,.45.08.68.12C175.65,10.38,175.43,10.33,175.2,10.3Z"/><path class="cls-2" d="M176.45,10.51l.69.15Z"/><path class="cls-2" d="M133.91,50.81c.18-.08.36-.16.54-.22C134.27,50.65,134.09,50.73,133.91,50.81Z"/><path class="cls-2" d="M134.7,50.5l.62-.17Z"/><path class="cls-2" d="M135.47,50.29c.27,0,.53-.1.79-.13C136,50.19,135.74,50.24,135.47,50.29Z"/><path class="cls-2" d="M120.68,98.54h0Z"/><path class="cls-2" d="M119.1,98.39l-.4,0Z"/><path class="cls-2" d="M136.46,50.14l.6,0Z"/><path class="cls-2" d="M132.27,51.87a8.32,8.32,0,0,1,.68-.53A8.32,8.32,0,0,0,132.27,51.87Z"/><path class="cls-2" d="M133,51.31a4.7,4.7,0,0,1,.69-.39A4.7,4.7,0,0,0,133,51.31Z"/><path class="cls-2" d="M137.52,50.09h0Z"/><path class="cls-2" d="M173.32,8l0,.05Z"/><polyline class="cls-4" points="210.66 101.54 210.66 101.54 210.66 101.54"/><path class="cls-3" d="M115.72,98.1l.52,0,.91.07.49,0,1.06.1.4,0,1.51.15h.07l1.47.16.42,0,1.14.12.52.06,1,.12.57.07,1,.13.54.06,1.15.14.38,0,1.53.2.19,0,1.27.17.52.07.91.12.57.08.78.1.6.09.69.09.57.08.77.11.39.05,1,.15h.07c-.06-.32-.06-.5,0-.52h0c.07,0,.21.21.43.58h0l.25,0v-.23l-.09-31h-.1l-.65,0h-.12l-.59-.05h-.18l-.73-.11-.09,0-.67-.14-.2,0a10.23,10.23,0,0,1-1.53-.52l-.19-.09a6.82,6.82,0,0,1-.66-.34l-.1,0a7.66,7.66,0,0,1-.7-.46l-.18-.13c-.19-.15-.37-.3-.55-.47l-.13-.12a7.81,7.81,0,0,1-.61-.66l-.12-.17a6.07,6.07,0,0,1-.45-.64l-.12-.19c-.16-.28-.31-.58-.45-.89l-.07-.19c-.11-.28-.21-.56-.3-.86l-.08-.28c-.1-.37-.18-.75-.25-1.16v-.16a10.62,10.62,0,0,1-.11-1.16c0-.12,0-.24,0-.37,0-.47,0-1,0-1.47s.08-1,.15-1.49c0-.15.05-.28.07-.42.06-.33.12-.64.19-.93s.07-.27.11-.4c.09-.31.19-.6.29-.88l.09-.24a7.79,7.79,0,0,1,.47-1l.13-.21a6.74,6.74,0,0,1,.42-.62l.2-.24a5.11,5.11,0,0,1,.45-.48l.18-.18a8.32,8.32,0,0,1,.68-.53l0,0a4.7,4.7,0,0,1,.69-.39l.23-.11c.18-.08.36-.16.54-.22l.25-.09.62-.17.15,0c.27,0,.53-.1.79-.13l.2,0,.6,0h.6c.44,0,.87,0,1.28.07h0l-2.85-22.33s6.14-13.15,6.58-13.48,26.5-7.67,26.5-7.67L173.4,8l-.08.07,0,.05-.27.25-.09.08-.44.42-.1.1-.62.61,0,0-.43.45,0,0h0l.65,0h.62l.69,0,.6,0,.67.08.6.07c.23,0,.45.08.68.12l.57.09.69.15.54.12.66.17.56.16.63.2c.19.06.38.11.56.18l.58.22.59.22.53.23c.21.09.42.17.62.27s.34.16.5.24.42.2.62.31l.47.26c.21.11.42.22.62.34l.4.25.66.41.35.24c.23.16.46.31.68.48l.29.22.71.54.22.19.74.63.22.21c.24.22.47.43.7.66l.21.22c.23.23.46.46.68.7l.14.16c.23.26.47.53.7.81l.11.14c.24.29.47.58.69.88l.06.08c.24.32.48.65.7,1l.07.1c.22.33.44.67.65,1l.08.14c.2.34.4.68.58,1l.07.14c.4.75.78,1.52,1.12,2.33l.08.19c.33.79.63,1.61.9,2.45l.07.24c.12.38.23.76.33,1.15l0,.13c.11.43.22.86.31,1.3l.09.42c.07.35.14.7.2,1.06l0,.26c.07.42.14.83.19,1.26l0,.29c.11.93.19,1.89.24,2.86.54,12.5.91,25.19-1,34.41C193,90.7,178.59,92.36,178.59,92.36l0,.67c0,.17,0,.35,0,.58v.12c0,.2,0,.41,0,.65v.1c0,.27,0,.59-.06.93v.15c0,.36,0,.75-.07,1.18v.14h0l0,.29,0,.56,0,.42c0,.26,0,.54-.05.83v.23q0,.45-.06.93c0,.13,0,.26,0,.4,0,.43-.06.87-.08,1.34v.86c0,.12,0,.25,0,.39v.17c0,.2,0,.42,0,.65v.25q0,.26,0,.54v.31l0,.61c0,.11,0,.21,0,.32s0,.5,0,.75l0,.22h0l.2,0h0l10.76,1.7.21,0c1.62.26,12.5,2,12.38,1.88l10.3,2.67,0-.31c-.21-1.19-.39-2.37-.53-3.55,0-.11,0-.22,0-.33-.14-1.23-.26-2.46-.33-3.68s-.08-2.55-.12-3.84v0c-1-31.78-5.72-70.34-9.92-80.61C193,2,166.69.16,166.69.16c-1-.07-1.91-.11-2.83-.13l-.78,0h-.8l-.94,0L160,.06c-.51,0-1,.06-1.52.09s-.84.06-1.25.11-1,.11-1.48.18L154.58.6c-.5.08-1,.17-1.45.27s-.7.13-1,.21c-.49.11-1,.24-1.43.37l-.93.25c-.48.15-1,.31-1.43.48-.26.09-.53.17-.79.27-.51.19-1,.4-1.49.62l-.6.25c-.58.27-1.14.56-1.7.86l-.27.14a29.16,29.16,0,0,0-3.64,2.37l-.07,0c-.53.41-1.05.84-1.55,1.28l-.32.29q-.62.55-1.2,1.14l-.4.42c-.34.36-.68.72-1,1.1l-.43.51c-.3.36-.6.72-.89,1.1l-.42.58c-.28.36-.54.73-.8,1.11l-.42.63c-.24.38-.48.75-.72,1.14l-.39.68c-.23.38-.45.77-.66,1.16-.13.23-.25.48-.37.71-.21.4-.41.79-.6,1.19-.12.25-.24.5-.35.76s-.37.8-.55,1.21-.22.52-.32.78-.34.82-.5,1.24l-.31.81q-.23.62-.45,1.26c-.09.27-.19.55-.28.83s-.28.85-.41,1.28l-.27.85c-.13.43-.25.87-.37,1.3s-.17.58-.25.87c-.11.44-.23.88-.34,1.32s-.15.59-.22.88-.21.89-.32,1.33-.14.59-.2.89c-.1.45-.2.9-.29,1.35-.07.3-.13.59-.19.89L123.67,39c0,.3-.11.59-.17.88-.08.47-.17.94-.25,1.4l-.15.86c-.09.48-.16,1-.24,1.44,0,.28-.1.55-.14.83L122.48,46c0,.23-.08.47-.11.7-.11.75-.23,1.5-.33,2.24,0,.28-.08.56-.13.86l0,.18c0,.21-.07.44-.1.67s0,.29-.07.44l-.06.45-.09.57c0,.25-.07.5-.11.75v.11c0,.3-.09.6-.14.91s-.07.46-.1.69-.08.49-.11.75l0,.21c-.06.35-.11.71-.17,1.08l0,.24c-.05.32-.1.63-.15,1l-.06.43-.15.95-.06.41c0,.32-.09.63-.14.95l-.06.42-.44,2.86c0,.17,0,.34-.08.52s-.09.62-.14.94-.06.37-.08.55-.07.46-.11.69l-.15,1c-.15,1-.29,1.91-.44,2.89l-.09.58c0,.34-.11.68-.16,1l-.12.77c0,.18,0,.37-.08.56s-.09.56-.13.85c-.33,2.14-.66,4.31-1,6.49,0,.23-.07.46-.1.69L117,82.52c0,.11,0,.21,0,.32-.06.4-.12.8-.19,1.19,0,.19,0,.38-.08.56-.25,1.6-.49,3.18-.73,4.75,0,.2-.07.41-.1.62-.43,2.77-.84,5.48-1.24,8.05l.32,0Z"/><path class="cls-3" d="M231.65,155.19c-1.43-.1-2.85-.23-4.26-.38h-.08l0,.26-19-.74.12,22.91,0,.23v.77c0,.12,0,.24,0,.37v.15c0,.12,0,.24,0,.36v.16c0,.17,0,.35,0,.54v.09c0,.17,0,.34,0,.52l0,.2c0,.16,0,.33-.05.5l0,.2c0,.23-.06.47-.1.72l0,.15c0,.21-.07.42-.11.64l0,.26c0,.21-.09.43-.14.65l0,.23c-.06.29-.14.59-.22.9l-.06.2c-.06.25-.14.51-.22.77l-.09.31c-.09.26-.17.53-.27.81l-.08.23c-.12.35-.26.71-.4,1.08l-.11.25c-.11.3-.24.59-.37.9l-.07.18h0l1.22.52,1.08.46,1.43.56,1.05.42c.53.2,1.07.38,1.61.57l.9.32c.84.29,1.69.56,2.54.82.65.2,1.3.39,2,.57l.6.16,1.39.35.72.17,1.33.28.71.15,1.46.25.57.09c.68.1,1.36.18,2.05.25h.19c.61.06,1.22.1,1.83.13l.65,0,.92,0h1.06c.65,0,1.31-.06,2-.12,3.81-.36,7.82-1.61,10.1-4.69a8.57,8.57,0,0,0,.68-1.12c.07-.13.12-.27.18-.4a8.26,8.26,0,0,0,.33-.82c0-.16.09-.32.14-.49s.13-.52.18-.78.05-.36.08-.54,0-.51.06-.77l0-.28c0-.12,0-.23,0-.35s0-.31,0-.47-.05-.47-.09-.71-.05-.29-.08-.44a7,7,0,0,0-.21-.75c0-.12-.07-.25-.11-.37a8.34,8.34,0,0,0-.47-1.06,9.23,9.23,0,0,0-.65-1l-.26-.3a7.72,7.72,0,0,0-.53-.61l-.36-.32c-.18-.16-.36-.32-.55-.47a3.23,3.23,0,0,0-.43-.29c-.19-.13-.37-.27-.57-.38l-.48-.24c-.2-.1-.4-.21-.6-.29a5.34,5.34,0,0,0-.52-.18,5,5,0,0,0-.62-.2c-.18-.05-.37-.08-.55-.12l-.64-.11-.55,0-.43,0h-.43a3.09,3.09,0,0,1,.33-.74l.16-.21a3.11,3.11,0,0,1,.32-.42l.23-.21c.12-.1.24-.22.37-.32l.3-.19c.13-.09.26-.18.4-.26l.36-.18.42-.21.4-.17.44-.18.46-.17.41-.15.84-.3.33-.12.54-.2.34-.14.48-.19.33-.17.42-.21.3-.19.37-.24.25-.23.3-.28.2-.27a3.05,3.05,0,0,0,.22-.32,2.26,2.26,0,0,0,.13-.33,2.13,2.13,0,0,0,.14-.38,2.33,2.33,0,0,0,0-.38,2.47,2.47,0,0,0,.05-.38v-.12a4.26,4.26,0,0,0-2-3.34c-.54-.36-1.08-.74-1.62-1.12l-.56-.43-1-.77-.65-.53-.92-.74-.68-.59-.86-.75-.69-.64-.82-.77-.68-.68c-.27-.26-.53-.53-.79-.8l-.69-.71c-.25-.27-.51-.54-.76-.82l-.67-.75-.42-.46Z"/><path class="cls-2" d="M142.91,101.44,177.83,107l0-.22c0-.25,0-.51,0-.75s0-.21,0-.32l0-.61v-.31q0-.28,0-.54V104c0-.23,0-.45,0-.65v-.17c0-.14,0-.27,0-.39v-.86c0-.47.05-.91.08-1.34,0-.14,0-.27,0-.4q0-.48.06-.93V99c0-.29,0-.57.05-.83l0-.42,0-.56,0-.29-1.64,0c-17.49,0-22.81-12.48-22.81-12.48a47.71,47.71,0,0,0,24.64,7.93h.07S193,90.7,196.94,72.15c1.95-9.22,1.58-21.91,1-34.41,0-1-.13-1.93-.24-2.86l0-.29c0-.43-.12-.84-.19-1.26l0-.26c-.06-.36-.13-.71-.2-1.06l-.09-.42c-.09-.44-.2-.87-.31-1.3l0-.13c-.1-.39-.21-.77-.33-1.15l-.07-.24c-.27-.84-.57-1.66-.9-2.45l-.08-.19c-.34-.81-.72-1.58-1.12-2.33l-.07-.14c-.18-.34-.38-.68-.58-1l-.08-.14c-.21-.34-.43-.68-.65-1l-.07-.1c-.22-.34-.46-.67-.7-1l-.06-.08c-.22-.3-.45-.59-.69-.88l-.11-.14c-.23-.28-.47-.55-.7-.81l-.14-.16c-.22-.24-.45-.47-.68-.7l-.21-.22c-.23-.23-.46-.44-.7-.66l-.22-.21-.74-.63-.22-.19-.71-.54-.29-.22c-.22-.17-.45-.32-.68-.48l-.35-.24-.66-.41-.4-.25c-.2-.12-.41-.23-.62-.34l-.47-.26c-.2-.11-.41-.21-.62-.31s-.33-.17-.5-.24-.41-.18-.62-.27l-.53-.23-.59-.22-.58-.22c-.18-.07-.37-.12-.56-.18l-.63-.2-.56-.16-.66-.17-.54-.12-.69-.15-.57-.09c-.23,0-.45-.09-.68-.12l-.6-.07-.67-.08-.6,0-.69,0H172l-.69,0,0,0c-3.16,3.27-9,10.15-10.8,18.14-.2.91-.42,1.78-.64,2.63-.05.23-.11.45-.17.68-.19.72-.38,1.43-.58,2.11a3.57,3.57,0,0,1-.1.35c-.22.78-.45,1.53-.68,2.26l-.18.53c-.19.59-.38,1.17-.58,1.73l-.15.43c-.24.66-.48,1.3-.73,1.92l-.15.37c-.2.51-.41,1-.62,1.47l-.18.42q-.37.84-.75,1.62l-.09.18q-.35.69-.69,1.32a3.9,3.9,0,0,1-.19.35c-.51.94-1,1.79-1.55,2.57l-.19.27c-.23.34-.45.66-.68,1l-.1.12c-.26.35-.51.67-.77,1l-.17.19c-.21.26-.43.5-.65.73l-.14.15c-.25.27-.5.52-.76.75l-.12.12c-.21.2-.43.38-.64.56l-.16.13c-.24.2-.49.39-.73.57l0,0-.67.45-.16.09a10.53,10.53,0,0,1-1.35.72L145,56q-.28.14-.57.24l-.06,0c-.21.08-.41.14-.61.2l-.11,0-.49.13-.09,0-.07,0h0c-.32,4.94-1.19,12.5-1.22,12.77a5.86,5.86,0,0,1-2.32.31l.09,31v.23Zm21.15-51h0a2.3,2.3,0,0,1-2.35-2.29,2.41,2.41,0,0,1,2.43-2.31h0a2.31,2.31,0,0,1,2.36,2.29A2.41,2.41,0,0,1,164.06,50.41Zm24.39.65h0a2.29,2.29,0,0,1-2.35-2.28,2.41,2.41,0,0,1,2.43-2.31h0a2.31,2.31,0,0,1,2.36,2.29A2.4,2.4,0,0,1,188.45,51.06Zm7.06-8.37-.13,0c-.52,0-2.18-1.19-4.52-1.3l-.46,0a10,10,0,0,0-2.66.41,10.64,10.64,0,0,1-1.51.41l-.17-.06c-.13-.15.2-.7,1.06-1.26a6.61,6.61,0,0,1,3.5-1H191a6.31,6.31,0,0,1,3.68,1.4C195.42,42,195.66,42.55,195.51,42.69Zm-9.65-7.24a6,6,0,0,1,3.46-1.24h.32a6,6,0,0,1,3.26.91c.8.54,1.09,1.12.92,1.42s-.61.33-1.23.33l-1,0c-.37,0-.78,0-1.21,0l-.91,0c-1.48,0-2.79.36-3.6.36a1,1,0,0,1-.77-.23C184.87,36.67,185.11,36.06,185.86,35.45Zm-7.63,4.73h0c.32,0,2.45,5.79,4.78,13q.84,2.7,1.61,5.14a3.82,3.82,0,0,1,.21,2.61,1.68,1.68,0,0,1-1.13.91,4.66,4.66,0,0,1-1.13.09h-.47c-2.34,0-3.77-.07-3.77-.21s1.61-.35,4.22-.55c.67,0,1.3-.13,1.43-.58a3.33,3.33,0,0,0-.34-2c-.54-1.63-1.11-3.33-1.7-5.12C179.6,46.24,177.94,40.27,178.23,40.18ZM173.12,66h.18l.27,0,.31,0,.26,0,.31.09.25.07.3.12.23.1.28.16.22.12.27.2.18.14.27.26.13.13a3.55,3.55,0,0,1,.35.44L177,68l.1.21v.23l0,.18,0,.09L177,69a2.82,2.82,0,0,1-.77.73l0,0,.07,0,.3.08.14,0,.37.1h0l.39.08.11,0,.3.06.16,0,.1,0,.12,0,.08,0,.08,0,0,0,0,.07h0l-.11.13h0a1.08,1.08,0,0,1-.32.14h0a2.93,2.93,0,0,1-.52.11l-.07,0a6.53,6.53,0,0,1-.67,0h-.22a6.82,6.82,0,0,1-1.72-.28h0l-.11.05c-.2.12-.41.23-.62.33a2.39,2.39,0,0,1-.32.16,6.21,6.21,0,0,1-1,.34,3.71,3.71,0,0,1-.88.1h-.05a4.23,4.23,0,0,1-.63,0l-.16,0a2.51,2.51,0,0,1-.55-.17h-.05A2.67,2.67,0,0,1,170,71l-.11-.09a2.43,2.43,0,0,1-.4-.45,1.92,1.92,0,0,1-.22-.51l0-.12a2.35,2.35,0,0,1-.07-.54v-.12a1.84,1.84,0,0,1,0-.33l0-.17.08-.29.06-.17.14-.29.07-.14a3.39,3.39,0,0,1,.27-.39,3.24,3.24,0,0,1,.67-.61l0,0h0a5.61,5.61,0,0,1-.4-1.78V64.7a5,5,0,0,1,0-.59l0-.08a2.28,2.28,0,0,1,.11-.45v0a1.54,1.54,0,0,1,.15-.29h0l.14-.1h0l.09.06,0,0,.06.14,0,0,.07.26,0,.11c0,.09.05.19.08.3l.11.41,0,.08c0,.12.07.24.11.37l.05.14c0,.16.11.32.18.49h0q.1.25.24.51l0,.07.1,0a4.48,4.48,0,0,1,1-.16ZM160,30.11c.13-.32.75-.68,1.76-.89a7.84,7.84,0,0,1,1.62-.15,10.72,10.72,0,0,1,3,.44,9.76,9.76,0,0,1,4,2.28c.85.85,1.16,1.57.93,1.84a.53.53,0,0,1-.39.13c-.88,0-2.85-1-5.3-1.73-2.92-.91-5.52-1-5.64-1.78v-.06Zm1.13,10.22a6.42,6.42,0,0,1,2.89-.66,6.49,6.49,0,0,1,4.56,1.84c.69.73.88,1.33.71,1.44l-.1,0c-.49,0-2-1.4-4.39-1.76a8.41,8.41,0,0,0-1.3-.1,11.79,11.79,0,0,0-2.06.21,9.85,9.85,0,0,1-1.26.22c-.12,0-.2,0-.23-.08S160.25,40.8,161.16,40.33Z"/><path class="cls-2" d="M178.34,96.72v0c0-.43,0-.82.07-1.18v-.15c0-.34,0-.66.06-.93v-.1c0-.24,0-.45,0-.65v-.12c0-.23,0-.41,0-.58h0Z"/><path class="cls-3" d="M164.14,45.81h0a2.41,2.41,0,0,0-2.43,2.31,2.3,2.3,0,0,0,2.35,2.29h0a2.41,2.41,0,0,0,2.44-2.31A2.31,2.31,0,0,0,164.14,45.81Z"/><path class="cls-3" d="M188.53,46.47h0a2.41,2.41,0,0,0-2.43,2.31,2.29,2.29,0,0,0,2.35,2.28h0a2.4,2.4,0,0,0,2.44-2.3A2.31,2.31,0,0,0,188.53,46.47Z"/><path class="cls-3" d="M194.66,41.33a6.31,6.31,0,0,0-3.68-1.4h-.36a6.61,6.61,0,0,0-3.5,1c-.86.56-1.19,1.11-1.06,1.26l.17.06a10.64,10.64,0,0,0,1.51-.41,10,10,0,0,1,2.66-.41l.46,0c2.34.11,4,1.3,4.52,1.3l.13,0C195.66,42.55,195.42,42,194.66,41.33Z"/><path class="cls-3" d="M161.47,41.33a11.79,11.79,0,0,1,2.06-.21,8.41,8.41,0,0,1,1.3.1c2.36.36,3.9,1.76,4.39,1.76l.1,0c.17-.11,0-.71-.71-1.44a6.49,6.49,0,0,0-4.56-1.84,6.42,6.42,0,0,0-2.89.66c-.91.47-1.3,1-1.18,1.14s.11.08.23.08A9.85,9.85,0,0,0,161.47,41.33Z"/><path class="cls-3" d="M183.65,58.64a3.33,3.33,0,0,1,.34,2c-.13.45-.76.55-1.43.58-2.61.2-4.23.4-4.22.55s1.43.21,3.77.21h.47a4.66,4.66,0,0,0,1.13-.09,1.68,1.68,0,0,0,1.13-.91,3.82,3.82,0,0,0-.21-2.61q-.76-2.44-1.61-5.14c-2.33-7.22-4.46-13-4.78-13h0c-.29.09,1.37,6.06,3.72,13.34C182.54,55.31,183.11,57,183.65,58.64Z"/><polygon class="cls-5" points="178.33 96.88 178.33 96.88 178.34 96.74 178.34 96.72 178.33 96.88"/><path class="cls-5" d="M178.55,93h0l0-.67h0S178.57,92.6,178.55,93Z"/><path class="cls-6" d="M178.34,96.72l.21-3.68c0-.44,0-.66,0-.68h-.07a47.71,47.71,0,0,1-24.64-7.93s5.32,12.48,22.81,12.48l1.64,0h0Z"/><path class="cls-2" d="M172.82,71.48a3.71,3.71,0,0,1-.88.1A3.71,3.71,0,0,0,172.82,71.48Z"/><path class="cls-2" d="M170.5,71.31A2.67,2.67,0,0,1,170,71,2.67,2.67,0,0,0,170.5,71.31Z"/><path class="cls-2" d="M169.88,70.91a2.43,2.43,0,0,1-.4-.45A2.43,2.43,0,0,0,169.88,70.91Z"/><path class="cls-2" d="M169.22,69.83a2.35,2.35,0,0,1-.07-.54A2.35,2.35,0,0,0,169.22,69.83Z"/><path class="cls-2" d="M171.89,71.58a4.23,4.23,0,0,1-.63,0A4.23,4.23,0,0,0,171.89,71.58Z"/><path class="cls-2" d="M177.11,68.7,177,69Z"/><path class="cls-2" d="M174,70.29l.25.1Z"/><path class="cls-2" d="M177.16,68.43l0,.18Z"/><path class="cls-2" d="M169.22,68.67l.08-.29Z"/><polygon class="cls-2" points="170.56 66.75 170.55 66.75 170.59 66.84 170.56 66.75"/><path class="cls-2" d="M169.16,69.17a1.84,1.84,0,0,1,0-.33A1.84,1.84,0,0,0,169.16,69.17Z"/><path class="cls-2" d="M173.82,71.14a6.21,6.21,0,0,1-1,.34A6.21,6.21,0,0,0,173.82,71.14Z"/><path class="cls-2" d="M174.76,70.65c-.2.12-.41.23-.62.33C174.35,70.88,174.56,70.77,174.76,70.65Z"/><polygon class="cls-2" points="174.86 70.59 174.86 70.59 174.71 70.54 174.86 70.59"/><path class="cls-2" d="M172.85,66a4.48,4.48,0,0,0-1,.16A4.48,4.48,0,0,1,172.85,66Z"/><path class="cls-2" d="M169.48,70.46a1.92,1.92,0,0,1-.22-.51A1.92,1.92,0,0,0,169.48,70.46Z"/><path class="cls-2" d="M177.14,68.2v0Z"/><path class="cls-2" d="M170.75,67.18l.11.23Z"/><path class="cls-2" d="M169.36,68.21l.14-.29Z"/><path class="cls-2" d="M172.75,69.56l.21.14Z"/><path class="cls-2" d="M171.1,71.49a2.51,2.51,0,0,1-.55-.17A2.51,2.51,0,0,0,171.1,71.49Z"/><path class="cls-2" d="M173.88,66l.26,0Z"/><path class="cls-2" d="M173.3,66l.27,0Z"/><path class="cls-2" d="M171.5,68.36l.14.18Z"/><path class="cls-2" d="M171.07,67.77l.14.22Z"/><path class="cls-2" d="M169.84,67.39a3.24,3.24,0,0,1,.67-.61A3.24,3.24,0,0,0,169.84,67.39Z"/><path class="cls-2" d="M169.57,67.78a3.39,3.39,0,0,1,.27-.39A3.39,3.39,0,0,0,169.57,67.78Z"/><path class="cls-2" d="M175.51,66.61l.22.12Z"/><path class="cls-2" d="M176,66.93l.18.14Z"/><path class="cls-2" d="M173.39,70l.24.13Z"/><path class="cls-2" d="M176.45,67.33l.13.13Z"/><path class="cls-2" d="M175,66.35l.23.1Z"/><path class="cls-2" d="M174.45,66.16l.25.07Z"/><path class="cls-6" d="M171.79,66.15l.06.1.15.27.12.19.18.27.13.18.25.3.12.15a6.09,6.09,0,0,0,.44.44,5.47,5.47,0,0,0,.66.53l.12.09c.22.15.44.28.65.4l.13.06a6.39,6.39,0,0,0,.65.31h0c.22.09.44.16.65.23l.07,0,0,0A2.82,2.82,0,0,0,177,69l.12-.25,0-.09,0-.18V68.2L177,68l-.11-.09a3.55,3.55,0,0,0-.35-.44l-.13-.13-.27-.26-.18-.14-.27-.2-.22-.12-.28-.16-.23-.1-.3-.12-.25-.07-.31-.09-.26,0-.31,0-.27,0h-.45a4.48,4.48,0,0,0-1,.16Z"/><path class="cls-6" d="M174.29,70.39l-.25-.1-.41-.19-.24-.13L173,69.7l-.21-.14c-.2-.15-.41-.31-.6-.48a4.3,4.3,0,0,1-.51-.54l-.14-.18-.29-.37-.14-.22-.21-.36-.11-.23c-.06-.11-.11-.23-.16-.34l0-.09h0l0,0a3.24,3.24,0,0,0-.67.61,3.39,3.39,0,0,0-.27.39l-.07.14-.14.29-.06.17-.08.29,0,.17a1.84,1.84,0,0,0,0,.33v.12a2.35,2.35,0,0,0,.07.54l0,.12a1.92,1.92,0,0,0,.22.51,2.43,2.43,0,0,0,.4.45L170,71a2.67,2.67,0,0,0,.51.31h.05a2.51,2.51,0,0,0,.55.17l.16,0a4.23,4.23,0,0,0,.63,0h.05a3.71,3.71,0,0,0,.88-.1,6.21,6.21,0,0,0,1-.34,2.39,2.39,0,0,0,.32-.16c.21-.1.42-.21.62-.33l.11-.05h0l-.15,0A3.52,3.52,0,0,1,174.29,70.39Z"/><path class="cls-3" d="M165.66,32c2.45.7,4.42,1.73,5.3,1.73a.53.53,0,0,0,.39-.13c.23-.27-.08-1-.93-1.84a9.76,9.76,0,0,0-4-2.28,10.72,10.72,0,0,0-3-.44,7.84,7.84,0,0,0-1.62.15c-1,.21-1.63.57-1.76.89l0,.08v.06C160.14,31,162.74,31.12,165.66,32Z"/><path class="cls-3" d="M185.85,37.19c.81,0,2.12-.32,3.6-.36l.91,0c.43,0,.84,0,1.21,0l1,0c.62,0,1-.06,1.23-.33s-.12-.88-.92-1.42a6,6,0,0,0-3.26-.91h-.32a6,6,0,0,0-3.46,1.24c-.75.61-1,1.22-.78,1.51A1,1,0,0,0,185.85,37.19Z"/><path class="cls-2" d="M148.25,53.92l-.16.13Z"/><path class="cls-2" d="M154.21,46.16a3.9,3.9,0,0,1-.19.35A3.9,3.9,0,0,0,154.21,46.16Z"/><path class="cls-2" d="M151.6,50.32l-.1.12Z"/><path class="cls-2" d="M155.92,42.62l-.18.42Z"/><path class="cls-2" d="M155,44.66l-.09.18Z"/><path class="cls-2" d="M143.76,56.43l-.11,0Z"/><path class="cls-2" d="M149,53.24l-.12.12Z"/><path class="cls-2" d="M145.14,55.91,145,56Z"/><path class="cls-2" d="M146.65,55.1l-.16.09Z"/><path class="cls-2" d="M150.73,51.42l-.17.19Z"/><path class="cls-2" d="M147.36,54.62l0,0Z"/><path class="cls-2" d="M144.43,56.21l-.06,0Z"/><path class="cls-2" d="M143.16,56.59l-.09,0Z"/><path class="cls-2" d="M149.91,52.34l-.14.15Z"/><path class="cls-2" d="M156.69,40.78l-.15.37Z"/><path class="cls-2" d="M152.47,49.08l-.19.27Z"/><path class="cls-2" d="M159.11,33.56a3.57,3.57,0,0,1-.1.35A3.57,3.57,0,0,0,159.11,33.56Z"/><path class="cls-2" d="M157.57,38.43l-.15.43Z"/><path class="cls-2" d="M159.86,30.77c-.05.23-.11.45-.17.68C159.75,31.22,159.81,31,159.86,30.77Z"/><path class="cls-2" d="M158.33,36.17l-.18.53Z"/><path class="cls-2" d="M141.78,69.4c0-.27.9-7.83,1.22-12.77a8.48,8.48,0,0,1-1.74.18,5.2,5.2,0,0,1-1.45-.17L139,50.18h0c-.41,0-.84-.07-1.28-.07h-.6l-.6,0-.2,0c-.26,0-.52.08-.79.13l-.15,0-.62.17-.25.09c-.18.06-.36.14-.54.22l-.23.11a4.7,4.7,0,0,0-.69.39l0,0a8.32,8.32,0,0,0-.68.53l-.18.18a5.11,5.11,0,0,0-.45.48l-.2.24a6.74,6.74,0,0,0-.42.62l-.13.21a7.79,7.79,0,0,0-.47,1l-.09.24c-.1.28-.2.57-.29.88,0,.13-.07.26-.11.4s-.13.6-.19.93c0,.14-.05.27-.07.42-.07.47-.12,1-.15,1.49s0,1,0,1.47c0,.13,0,.25,0,.37a10.62,10.62,0,0,0,.11,1.16v.16c.07.41.15.79.25,1.16l.08.28c.09.3.19.58.3.86l.07.19c.14.31.29.61.45.89l.12.19a6.07,6.07,0,0,0,.45.64l.12.17a7.81,7.81,0,0,0,.61.66l.13.12c.18.17.36.32.55.47l.18.13a7.66,7.66,0,0,0,.7.46l.1,0a6.82,6.82,0,0,0,.66.34l.19.09a10.23,10.23,0,0,0,1.53.52l.2,0,.67.14.09,0,.73.11H138l.59.05h.12l.65,0h.1A5.86,5.86,0,0,0,141.78,69.4ZM137.71,65a2.29,2.29,0,0,1-1.24.35,2.73,2.73,0,0,1-.81-.13c-1.81-.64-3-3.12-2.93-5.69a7.64,7.64,0,0,1,1-3.51,3.12,3.12,0,0,1,2.43-1.84h.1a1.63,1.63,0,0,1,1.11.39,1.4,1.4,0,0,1,.46.83c.07.5-.15.73-.2.73h0c-.07,0,0-.28-.12-.64a1.13,1.13,0,0,0-1.06-.71l-.22,0a2.58,2.58,0,0,0-1.77,1.61,7.55,7.55,0,0,0-.8,3.15c-.07,2.3.94,4.5,2.26,5.07a2.26,2.26,0,0,0,.92.19,2.06,2.06,0,0,0,.75-.13c.34-.14.52-.3.59-.3h0S138.12,64.65,137.71,65Z"/><path class="cls-3" d="M138.16,64.35h0c-.07,0-.25.16-.59.3a2.06,2.06,0,0,1-.75.13,2.26,2.26,0,0,1-.92-.19c-1.32-.57-2.33-2.77-2.26-5.07a7.55,7.55,0,0,1,.8-3.15,2.58,2.58,0,0,1,1.77-1.61l.22,0a1.13,1.13,0,0,1,1.06.71c.15.36.05.61.12.64h0c.05,0,.27-.23.2-.73a1.4,1.4,0,0,0-.46-.83,1.63,1.63,0,0,0-1.11-.39h-.1A3.12,3.12,0,0,0,133.7,56a7.64,7.64,0,0,0-1,3.51c-.06,2.57,1.12,5.05,2.93,5.69a2.73,2.73,0,0,0,.81.13,2.29,2.29,0,0,0,1.24-.35C138.12,64.65,138.2,64.37,138.16,64.35Z"/><path class="cls-3" d="M140.32,50.39c1.37.28,2.81,3.65,2.75,5,0,.37,0,.78-.07,1.2l.07,0,.09,0,.49-.13.11,0c.2-.06.4-.12.61-.2l.06,0q.28-.1.57-.24l.14-.06a10.53,10.53,0,0,0,1.35-.72l.16-.09.67-.45,0,0c.24-.18.49-.37.73-.57l.16-.13c.21-.18.43-.36.64-.56l.12-.12c.26-.23.51-.48.76-.75l.14-.15c.22-.23.44-.47.65-.73l.17-.19c.26-.31.51-.63.77-1l.1-.12c.23-.31.45-.63.68-1l.19-.27c.52-.78,1-1.63,1.55-2.57a3.9,3.9,0,0,0,.19-.35q.34-.63.69-1.32l.09-.18q.38-.78.75-1.62l.18-.42c.21-.47.42-1,.62-1.47l.15-.37c.25-.62.49-1.26.73-1.92l.15-.43c.2-.56.39-1.14.58-1.73l.18-.53c.23-.73.46-1.48.68-2.26a3.57,3.57,0,0,0,.1-.35c.2-.68.39-1.39.58-2.11.06-.23.12-.45.17-.68.22-.85.44-1.72.64-2.63,1.83-8,7.64-14.87,10.8-18.14l.43-.45,0,0,.62-.61.1-.1.44-.42.09-.08.27-.25,0-.05L173.4,8l-4.19-1.26s-26.07,7.34-26.5,7.67-6.58,13.48-6.58,13.48L139,50.17C139.46,50.23,139.91,50.3,140.32,50.39Z"/><path class="cls-3" d="M139.81,56.64a5.2,5.2,0,0,0,1.45.17,8.48,8.48,0,0,0,1.74-.18h0c0-.42.05-.83.07-1.2.06-1.39-1.38-4.76-2.75-5-.41-.09-.86-.16-1.34-.22h0Z"/><path class="cls-2" d="M178.37,70.25l.08,0Z"/><path class="cls-2" d="M170.77,63.23l.06.14Z"/><path class="cls-2" d="M176.56,69.81l.14,0Z"/><path class="cls-2" d="M170.49,63.25l.14-.1Z"/><path class="cls-2" d="M170.65,63.14l.09.06Z"/><path class="cls-2" d="M170.34,63.54a1.54,1.54,0,0,1,.15-.29A1.54,1.54,0,0,0,170.34,63.54Z"/><path class="cls-2" d="M177.07,70h0Z"/><path class="cls-2" d="M170.16,64.7a5,5,0,0,1,0-.59A5,5,0,0,0,170.16,64.7Z"/><path class="cls-2" d="M177.47,70.83a6.71,6.71,0,0,1-.67,0A6.53,6.53,0,0,0,177.47,70.83Z"/><path class="cls-2" d="M170.22,64a2.28,2.28,0,0,1,.11-.45A2.28,2.28,0,0,0,170.22,64Z"/><path class="cls-2" d="M178.06,70.7a2.93,2.93,0,0,1-.52.11A2.93,2.93,0,0,0,178.06,70.7Z"/><path class="cls-2" d="M178.53,70.41l-.11.13Z"/><path class="cls-2" d="M171.14,64.48l0,.08Z"/><path class="cls-2" d="M178.41,70.55a1.08,1.08,0,0,1-.32.14A1.08,1.08,0,0,0,178.41,70.55Z"/><path class="cls-2" d="M171,63.77c0,.09.05.19.08.3C171,64,171,63.86,171,63.77Z"/><path class="cls-2" d="M177.5,70l.11,0Z"/><path class="cls-2" d="M171.51,65.56h0Z"/><path class="cls-2" d="M171.28,64.93l.05.14Z"/><path class="cls-2" d="M178.17,70.19l.12,0Z"/><path class="cls-2" d="M178.49,70.32l0,.07Z"/><path class="cls-2" d="M170.85,63.4l.07.26Z"/><path class="cls-2" d="M177.91,70.13l.16,0Z"/><polygon class="cls-2" points="171.85 66.25 171.79 66.15 171.76 66.08 171.79 66.15 171.85 66.25"/><path class="cls-2" d="M172.68,67.46l.12.15Z"/><path class="cls-2" d="M173.9,68.58l.12.09Z"/><path class="cls-2" d="M172,66.52l.12.19Z"/><path class="cls-2" d="M172.3,67l.13.18Z"/><polygon class="cls-2" points="176.12 69.68 176.18 69.7 176.26 69.73 176.19 69.7 176.12 69.68"/><path class="cls-2" d="M175.45,69.44h0Z"/><path class="cls-2" d="M174.67,69.07l.13.06Z"/><path class="cls-3" d="M176.12,69.68c-.21-.07-.43-.14-.65-.23h0a6.39,6.39,0,0,1-.65-.31l-.13-.06c-.21-.12-.43-.25-.65-.4l-.12-.09a5.47,5.47,0,0,1-.66-.53,6.09,6.09,0,0,1-.44-.44l-.12-.15-.25-.3L172.3,67l-.18-.27-.12-.19-.15-.27-.06-.1,0-.07q-.13-.26-.24-.51h0c-.07-.17-.13-.33-.18-.49l-.05-.14c0-.13-.08-.25-.11-.37l0-.08-.11-.41c0-.11-.05-.21-.08-.3l0-.11-.07-.26,0,0-.06-.14,0,0-.09-.06h0l-.14.1h0a1.54,1.54,0,0,0-.15.29v0a2.28,2.28,0,0,0-.11.45l0,.08a5,5,0,0,0,0,.59V65a5.61,5.61,0,0,0,.4,1.78l0,.09c0,.11.1.23.16.34l.11.23.21.36.14.22.29.37.14.18a4.3,4.3,0,0,0,.51.54c.19.17.4.33.6.48l.21.14.43.27.24.13.41.19.25.1a3.52,3.52,0,0,0,.42.15l.15,0a6.82,6.82,0,0,0,1.72.28h.22a6.71,6.71,0,0,0,.67,0l.07,0a2.93,2.93,0,0,0,.52-.11h0a1.08,1.08,0,0,0,.32-.14h0l.11-.13h0l0-.07,0,0-.08,0-.08,0-.12,0-.1,0-.16,0-.3-.06-.11,0-.39-.08h0l-.37-.1-.14,0-.3-.08-.08,0Z"/><path class="cls-2" d="M290.7,105.44C287.8,98.24,270.77,64,270.77,64l0,0,.13.24s-11.87,6-14.62,5.62l8.67,55.73-31.79-5.92-2.44,14.76,2.44-14.76,4,.74-4.58,34.85,1.38.07c10.06.42,48.86,2,54.83,1.69s9.76.1,14-8S293.2,111.68,290.7,105.44Zm-16.61,30.62a7.07,7.07,0,0,1-1.77-1.13,22.92,22.92,0,0,1-3.66-3.53,23.3,23.3,0,0,1-2.83-4.23,6.58,6.58,0,0,1-.79-2h0c.19,0,1.58,2.86,4.06,5.81s5.1,4.89,5,5Z"/><path class="cls-2" d="M227.33,154.8h.06c1.41.15,2.83.28,4.26.38h0l.77.05Z"/><path class="cls-2" d="M270.86,64.22l-.13-.24c-.6-1-3.06-5.17-4.65-6.27-1.83-1.25-16.7-14.29-16.7-14.29s-5.83-6.18-7.44-5.83S225.13,48.11,225,49.71a2.37,2.37,0,0,0,1.6,2.74c.91.23-.46,1.26,1.94,3.66,0,0-2.28-.11-2.17,2.06s0,5.15,1.49,5.26,6.17,1.49,6.4-1l.43-.95h0c-.1-.09-.27-.41-.6-.79a4.79,4.79,0,0,0-2-1.33c-1.81-.61-3.49-.41-3.49-.62s.39-.2,1.06-.25a5.22,5.22,0,0,1,.58,0,5.83,5.83,0,0,1,1.68.23,5.45,5.45,0,0,1-1.53-1.72,3.54,3.54,0,0,1,.24-3.34A17.88,17.88,0,0,1,232.58,51l1.89-2.31,3.23-3.91c.92-1.11,1.68-2,2.21-2.6a5.66,5.66,0,0,1,.87-.91h0a5.3,5.3,0,0,1-.69,1.05c-.48.65-1.19,1.58-2.07,2.72l-3.12,4L233,51.32a18.66,18.66,0,0,0-1.84,2.56,3,3,0,0,0-.25,2.8,6.64,6.64,0,0,0,2,2c1.5,1.16,2.81,2.32,4,3.1a3.93,3.93,0,0,0,1.72.64h.25a2.57,2.57,0,0,0,1.11-.23,2.05,2.05,0,0,0,.87-.73c-.72-.47-1.4-1-2.1-1.57-.47-.38-.94-.78-1.4-1.2A6.86,6.86,0,0,1,236,57.27a2.28,2.28,0,0,1-.22-2.06A5.18,5.18,0,0,1,237,53.65c.82-.88,1.57-1.74,2.27-2.59a58.08,58.08,0,0,0,3.46-4.68A21.08,21.08,0,0,1,244,44.5a3.75,3.75,0,0,1,1.36-1.09,2.38,2.38,0,0,1,1-.21,1.1,1.1,0,0,1,.5.09l-.09,0h0a2.5,2.5,0,0,0-1.24.31,3.72,3.72,0,0,0-1.2,1.09c-.39.51-.74,1.18-1.18,1.89a47.09,47.09,0,0,1-3.39,4.8c-.69.87-1.45,1.75-2.26,2.64a4.54,4.54,0,0,0-1,1.38,1.67,1.67,0,0,0,.18,1.54,6.28,6.28,0,0,0,1.2,1.34c.45.41.9.81,1.36,1.19a22.29,22.29,0,0,0,2.75,2,2.91,2.91,0,0,0,1.41.42h0a2.75,2.75,0,0,0,1.31-.37,5.25,5.25,0,0,0,1.88-1.76,2.34,2.34,0,0,0,.23-2,1.47,1.47,0,0,0-1.11-1l-.32,0a1.4,1.4,0,0,0-.7.18c-.16.09-.24.18-.26.18h0s0-.14.25-.3a1.37,1.37,0,0,1,.86-.27l.22,0A1.71,1.71,0,0,1,247,57.64a2.23,2.23,0,0,1,.16.59,5.63,5.63,0,0,1,.1-1.68,5.72,5.72,0,0,1,.14-.56h0a2.22,2.22,0,0,1-.61.07,3.12,3.12,0,0,1-1.08-.19,3.22,3.22,0,0,1-1.16-.74,3.31,3.31,0,0,1-.71,2,2.79,2.79,0,0,1-1.93,1.14h-.08a1,1,0,0,1-.63-.19c-.14-.13-.15-.23-.12-.25h0l.16,0a1.11,1.11,0,0,0,.59,0,3.09,3.09,0,0,0,1.53-1.09,3.92,3.92,0,0,0,.75-1.77,3.21,3.21,0,0,0,0-.39c-.12-.22-.14-.38-.09-.41h0l.1,0,.05-.1h0s.11.1.17.28a4.87,4.87,0,0,0,1.47.89,4.54,4.54,0,0,0,1.66.26,1.67,1.67,0,0,1,.5-.76h0c.05,0-.07.29-.2.77l.14,0s-.06.12-.2.2a6.27,6.27,0,0,0-.13.76,7.94,7.94,0,0,0,.8,4.2,17.69,17.69,0,0,0,2.52,3.6,6.66,6.66,0,0,1,1.14,1.48h0a6.76,6.76,0,0,1-1.43-1.19A13.54,13.54,0,0,1,248,61.06a7.88,7.88,0,0,1-.76-2.6,2.8,2.8,0,0,1-.36,1.51,5.43,5.43,0,0,1-2,2,3.25,3.25,0,0,1-1.56.47h0a3.41,3.41,0,0,1-1.62-.46c-.25-.13-.48-.28-.72-.43a1.61,1.61,0,0,1-.8.9,2.83,2.83,0,0,1-1.4.35h-.08a4.09,4.09,0,0,1-1.92-.62,23.44,23.44,0,0,1-2.1-1.48,1.5,1.5,0,0,1,.2.73,45.31,45.31,0,0,0,7.61,4.31c3.66,1.49,9.49,1.37,9.49,1.37a6.8,6.8,0,0,0,4.35,2.75C259,70.18,270.86,64.22,270.86,64.22ZM234.7,44.36a24.1,24.1,0,0,1-3.64,4,20.68,20.68,0,0,0-2.11,2,6.2,6.2,0,0,0-1.19,2,6.34,6.34,0,0,0-.24,2.15h0a2.83,2.83,0,0,1-.15-2.27,6,6,0,0,1,1.17-2.21A18.67,18.67,0,0,1,230.67,48a61,61,0,0,0,5.14-5.55h0A6.47,6.47,0,0,1,234.7,44.36Z"/><path class="cls-3" d="M248,61.06a13.54,13.54,0,0,0,2.74,3.64,6.76,6.76,0,0,0,1.43,1.19h0A6.66,6.66,0,0,0,251,64.41a17.69,17.69,0,0,1-2.52-3.6,7.94,7.94,0,0,1-.8-4.2,6.27,6.27,0,0,1,.13-.76,1.82,1.82,0,0,1-.4.14,5.72,5.72,0,0,0-.14.56,5.63,5.63,0,0,0-.1,1.68l0,.23A7.88,7.88,0,0,0,248,61.06Z"/><path class="cls-3" d="M248.07,54.83h0a1.67,1.67,0,0,0-.5.76h.31C248,55.12,248.12,54.86,248.07,54.83Z"/><path class="cls-3" d="M244.26,54.16h0l-.05.1.23.18C244.37,54.26,244.3,54.16,244.26,54.16Z"/><path class="cls-3" d="M244.17,54.63a3.21,3.21,0,0,1,0,.39,3.92,3.92,0,0,1-.75,1.77,3.09,3.09,0,0,1-1.53,1.09,1.11,1.11,0,0,1-.59,0l-.16,0h0s0,.12.12.25a1,1,0,0,0,.63.19h.08a2.79,2.79,0,0,0,1.93-1.14,3.31,3.31,0,0,0,.71-2l-.21-.25Z"/><path class="cls-3" d="M240.9,61.46h0v.07c.24.15.47.3.72.43a3.41,3.41,0,0,0,1.62.46h0a3.25,3.25,0,0,0,1.56-.47,5.43,5.43,0,0,0,2-2,2.8,2.8,0,0,0,.36-1.51l0-.23a2.23,2.23,0,0,0-.16-.59,1.71,1.71,0,0,0-1.38-1.08l-.22,0a1.37,1.37,0,0,0-.86.27c-.21.16-.26.29-.25.3h0s.1-.09.26-.18a1.4,1.4,0,0,1,.7-.18l.32,0a1.47,1.47,0,0,1,1.11,1,2.34,2.34,0,0,1-.23,2,5.25,5.25,0,0,1-1.88,1.76,2.75,2.75,0,0,1-1.31.37h0a2.91,2.91,0,0,1-1.41-.42,22.29,22.29,0,0,1-2.75-2c-.46-.38-.91-.78-1.36-1.19a6.28,6.28,0,0,1-1.2-1.34,1.67,1.67,0,0,1-.18-1.54,4.54,4.54,0,0,1,1-1.38c.81-.89,1.57-1.77,2.26-2.64A47.09,47.09,0,0,0,243,46.6c.44-.71.79-1.38,1.18-1.89a3.72,3.72,0,0,1,1.2-1.09,2.5,2.5,0,0,1,1.24-.31h0l.09,0a1.1,1.1,0,0,0-.5-.09,2.38,2.38,0,0,0-1,.21A3.75,3.75,0,0,0,244,44.5a21.08,21.08,0,0,0-1.27,1.88,58.08,58.08,0,0,1-3.46,4.68c-.7.85-1.45,1.71-2.27,2.59a5.18,5.18,0,0,0-1.13,1.56,2.28,2.28,0,0,0,.22,2.06,6.86,6.86,0,0,0,1.31,1.46c.46.42.93.82,1.4,1.2.7.56,1.38,1.1,2.1,1.57l.05,0Z"/><polyline class="cls-7" points="247.17 58.23 247.19 58.46 247.17 58.23"/><path class="cls-3" d="M244.1,54.22h0c-.05,0,0,.19.09.41,0-.16,0-.29,0-.37Z"/><path class="cls-3" d="M248,55.65l-.14,0-.06.25C248,55.77,248,55.69,248,55.65Z"/><path class="cls-3" d="M245.9,55.33a4.87,4.87,0,0,1-1.47-.89,2.07,2.07,0,0,1,.11.6v.1a3.22,3.22,0,0,0,1.16.74,3.12,3.12,0,0,0,1.08.19,2.22,2.22,0,0,0,.61-.07h0c.05-.14.1-.28.15-.4A4.54,4.54,0,0,1,245.9,55.33Z"/><path class="cls-7" d="M247.87,55.6h-.31c-.05.12-.1.26-.15.4a1.82,1.82,0,0,0,.4-.14Z"/><path class="cls-7" d="M244.43,54.44l-.23-.18c0,.08,0,.21,0,.37l.16.26.21.25V55A2.07,2.07,0,0,0,244.43,54.44Z"/><path class="cls-3" d="M234.45,60.41l.14.27a23.44,23.44,0,0,0,2.1,1.48,4.09,4.09,0,0,0,1.92.62h.08a2.83,2.83,0,0,0,1.4-.35,1.61,1.61,0,0,0,.8-.9l0,0a2.05,2.05,0,0,1-.87.73,2.57,2.57,0,0,1-1.11.23h-.25a3.93,3.93,0,0,1-1.72-.64c-1.16-.78-2.47-1.94-4-3.1a6.64,6.64,0,0,1-2-2,3,3,0,0,1,.25-2.8A18.66,18.66,0,0,1,233,51.32L234.9,49,238,45c.88-1.14,1.59-2.07,2.07-2.72a5.3,5.3,0,0,0,.69-1.05h0a5.66,5.66,0,0,0-.87.91c-.53.6-1.29,1.49-2.21,2.6l-3.23,3.91L232.58,51a17.88,17.88,0,0,0-1.91,2.64,3.54,3.54,0,0,0-.24,3.34A5.45,5.45,0,0,0,232,58.66l.37.11A4.19,4.19,0,0,1,234.45,60.41Z"/><polygon class="cls-7" points="240.9 61.46 240.9 61.46 240.9 61.45 240.85 61.5 240.89 61.53 240.9 61.46"/><path class="cls-3" d="M235.81,42.41A61,61,0,0,1,230.67,48a18.67,18.67,0,0,0-2.14,2.12,6,6,0,0,0-1.17,2.21,2.83,2.83,0,0,0,.15,2.27h0a6.34,6.34,0,0,1,.24-2.15,6.2,6.2,0,0,1,1.19-2,20.68,20.68,0,0,1,2.11-2,24.1,24.1,0,0,0,3.64-4,6.47,6.47,0,0,0,1.12-2Z"/><polygon class="cls-4" points="234.71 61.45 234.71 61.45 234.75 61.48 234.76 61.48 234.79 61.41 234.74 61.37 234.71 61.45"/><path class="cls-3" d="M232.59,59.14l-.63-.48a5.83,5.83,0,0,0-1.68-.23,5.22,5.22,0,0,0-.58,0c-.67,0-1.07.17-1.06.25s1.68,0,3.49.62a4.79,4.79,0,0,1,2,1.33c.33.38.5.7.6.79l0-.08,0,0a1.5,1.5,0,0,0-.2-.73C234,60.19,233.3,59.67,232.59,59.14Z"/><path class="cls-7" d="M234.59,60.68l-.14-.27a4.19,4.19,0,0,0-2.12-1.64l-.37-.11.63.48C233.3,59.67,234,60.19,234.59,60.68Z"/><path class="cls-3" d="M269.11,131c-2.48-3-3.87-5.81-4.06-5.81h0a6.58,6.58,0,0,0,.79,2,23.3,23.3,0,0,0,2.83,4.23,22.92,22.92,0,0,0,3.66,3.53,7.07,7.07,0,0,0,1.77,1.13h0C274.21,135.91,271.61,134,269.11,131Z"/><polygon class="cls-6" points="233.12 119.65 230.68 134.41 227.31 154.8 227.33 154.8 232.47 155.24 232.51 155.24 232.51 155.24 237.09 120.39 233.12 119.65"/><path class="cls-2" d="M77,141l-2.55.26C75.27,141.22,76.12,141.14,77,141Z"/><polygon class="cls-2" points="80.2 140.62 80.2 140.62 74.3 109.24 80.2 140.62"/><path class="cls-2" d="M72.59,105.58l-33.92,6.3,8.67-55.73c-2.75.35-14.63-5.61-14.63-5.61l.14-.24,0,0s-17,34.28-19.93,41.48C10.38,98-3.47,127.21.82,135.31s8.08,7.68,14,8,44.77-1.27,54.82-1.69c1.55-.07,3.11-.18,4.66-.32l-4.53-35.22Zm-34.84,7.91a24.41,24.41,0,0,1-2.83,4.23,23.82,23.82,0,0,1-3.66,3.53,7.48,7.48,0,0,1-1.77,1.13h0c-.11-.15,2.49-2,5-5s3.87-5.81,4.07-5.81h0A6.46,6.46,0,0,1,37.75,113.49Z"/><path class="cls-2" d="M47.34,56.15a6.76,6.76,0,0,0,4.34-2.74s5.84.11,9.5-1.37a45,45,0,0,0,7.66-4.35l0,.1c1.35,3.78,5.21,2.87,6.82,2,2.13-1.2,2-3.25,1.49-5.26S75,42.43,75,42.43C77.42,40,76,39,77,38.77A2.39,2.39,0,0,0,78.56,36c-.11-1.6-15.33-11.78-16.93-12.13s-7.43,5.84-7.43,5.84S39.33,42.77,37.5,44c-1.59,1.1-4,5.23-4.65,6.27l-.14.24S44.59,56.5,47.34,56.15ZM75.27,45.26c0,.21-1.67,0-3.48.62a4.84,4.84,0,0,0-2,1.33c-.39.45-.55.82-.64.82h0c-.07,0-.05-.47.32-1.07a4.1,4.1,0,0,1,2.12-1.64,6.13,6.13,0,0,1,2-.34,5.09,5.09,0,0,1,.58,0C74.88,45.06,75.28,45.18,75.27,45.26ZM67.76,28.73h0a60.37,60.37,0,0,0,5.14,5.56,18.67,18.67,0,0,1,2.14,2.12,5.84,5.84,0,0,1,1.16,2.21,2.72,2.72,0,0,1-.15,2.26h0a6.3,6.3,0,0,0-.24-2.14,6.24,6.24,0,0,0-1.19-2,24.36,24.36,0,0,0-2.11-2,24.44,24.44,0,0,1-3.64-4A6.47,6.47,0,0,1,67.76,28.73Zm-15.18,22a18.2,18.2,0,0,0,2.52-3.61,7.89,7.89,0,0,0,.8-4.19,6.27,6.27,0,0,0-.13-.76c-.15-.08-.22-.16-.2-.2l.13,0c-.12-.48-.25-.75-.19-.78h0a1.77,1.77,0,0,1,.49.77,4.84,4.84,0,0,0,1.67-.27,4.5,4.5,0,0,0,1.46-.88c.07-.19.14-.28.18-.28h0l.05.1.1,0h0s0,.19-.09.41,0,.24,0,.38a3.86,3.86,0,0,0,.76,1.77,3.18,3.18,0,0,0,1.53,1.1,1.13,1.13,0,0,0,.3,0,1,1,0,0,0,.28,0l.16,0h0s0,.12-.12.24a1,1,0,0,1-.63.2h-.08a2.83,2.83,0,0,1-1.93-1.14,3.35,3.35,0,0,1-.72-2,3.18,3.18,0,0,1-1.15.74,3.37,3.37,0,0,1-1.08.19,2.69,2.69,0,0,1-.61-.07h0a4,4,0,0,1,.15.55,6.08,6.08,0,0,1,.09,1.69,2.24,2.24,0,0,1,.17-.59A1.74,1.74,0,0,1,58,42.87h.21a1.38,1.38,0,0,1,.87.27c.2.16.26.29.25.3h0s-.11-.09-.26-.18a1.4,1.4,0,0,0-.7-.18l-.33,0a1.51,1.51,0,0,0-1.11,1,2.38,2.38,0,0,0,.24,2A5.27,5.27,0,0,0,59,47.85a2.87,2.87,0,0,0,1.31.37h0a3,3,0,0,0,1.4-.42,23.6,23.6,0,0,0,2.76-2c.45-.37.91-.77,1.36-1.19A6.26,6.26,0,0,0,67,43.28a1.67,1.67,0,0,0,.18-1.54,4.71,4.71,0,0,0-1-1.38c-.81-.89-1.57-1.77-2.26-2.64a48.22,48.22,0,0,1-3.39-4.8c-.44-.72-.79-1.38-1.18-1.9a3.68,3.68,0,0,0-1.2-1.08,2.5,2.5,0,0,0-1.24-.31h0l-.11,0a.89.89,0,0,1,.5-.1,2.42,2.42,0,0,1,1,.22,3.75,3.75,0,0,1,1.36,1.09c.43.53.81,1.18,1.27,1.87a54.18,54.18,0,0,0,3.46,4.69c.69.85,1.45,1.71,2.27,2.58a5.24,5.24,0,0,1,1.12,1.56,2.25,2.25,0,0,1-.22,2.06,6.64,6.64,0,0,1-1.3,1.47c-.46.42-.93.82-1.4,1.2-.71.56-1.39,1.1-2.1,1.57a2.08,2.08,0,0,0,.86.72,2.65,2.65,0,0,0,1.12.24H65a4,4,0,0,0,1.73-.65c1.16-.77,2.47-1.93,4-3.09a6.6,6.6,0,0,0,2-2,3,3,0,0,0-.24-2.81,18.4,18.4,0,0,0-1.85-2.55L68.68,35.3l-3.12-4c-.89-1.14-1.59-2.07-2.07-2.72a5.14,5.14,0,0,1-.7-1.05h0a5.66,5.66,0,0,1,.87.91c.53.6,1.29,1.49,2.21,2.6L69.11,35,71,37.28a18.12,18.12,0,0,1,1.92,2.64,3.57,3.57,0,0,1,.24,3.34A7.12,7.12,0,0,1,71,45.46c-1.53,1.14-2.82,2.24-4.09,3A4.24,4.24,0,0,1,65,49.1h-.09a2.76,2.76,0,0,1-1.39-.35,1.68,1.68,0,0,1-.81-.9c-.23.15-.47.29-.71.43a3.53,3.53,0,0,1-1.62.46h0a3.21,3.21,0,0,1-1.56-.47,5.43,5.43,0,0,1-2-2,2.82,2.82,0,0,1-.37-1.51,8,8,0,0,1-.75,2.6A13.72,13.72,0,0,1,52.89,51a6.64,6.64,0,0,1-1.44,1.2h0A6.66,6.66,0,0,1,52.58,50.73Z"/><path class="cls-3" d="M55.52,41.14h0c-.06,0,.07.3.19.78H56A1.77,1.77,0,0,0,55.52,41.14Z"/><path class="cls-3" d="M52.89,51a13.72,13.72,0,0,0,2.74-3.63,8,8,0,0,0,.75-2.6l0-.23a6.08,6.08,0,0,0-.09-1.69,4,4,0,0,0-.15-.55,1.92,1.92,0,0,1-.39-.14,6.27,6.27,0,0,1,.13.76,7.89,7.89,0,0,1-.8,4.19,18.2,18.2,0,0,1-2.52,3.61,6.66,6.66,0,0,0-1.14,1.48h0A6.64,6.64,0,0,0,52.89,51Z"/><path class="cls-3" d="M59.33,40.48h0s-.11.09-.18.28l.24-.18Z"/><path class="cls-3" d="M59,41.46a3.35,3.35,0,0,0,.72,2,2.83,2.83,0,0,0,1.93,1.14h.08a1,1,0,0,0,.63-.2c.13-.12.15-.22.12-.24h0l-.16,0a1,1,0,0,1-.28,0,1.13,1.13,0,0,1-.3,0,3.18,3.18,0,0,1-1.53-1.1,3.86,3.86,0,0,1-.76-1.77c0-.14,0-.27,0-.38l-.16.26Z"/><path class="cls-3" d="M56.75,46.29a5.43,5.43,0,0,0,2,2,3.21,3.21,0,0,0,1.56.47h0A3.53,3.53,0,0,0,62,48.28c.24-.14.48-.28.71-.43v-.07h0l0,0c.71-.47,1.39-1,2.1-1.57.47-.38.94-.78,1.4-1.2a6.64,6.64,0,0,0,1.3-1.47,2.25,2.25,0,0,0,.22-2.06A5.24,5.24,0,0,0,66.63,40c-.82-.87-1.58-1.73-2.27-2.58a54.18,54.18,0,0,1-3.46-4.69c-.46-.69-.84-1.34-1.27-1.87a3.75,3.75,0,0,0-1.36-1.09,2.42,2.42,0,0,0-1-.22.89.89,0,0,0-.5.1l.11,0h0a2.5,2.5,0,0,1,1.24.31A3.68,3.68,0,0,1,59.37,31c.39.52.74,1.18,1.18,1.9a48.22,48.22,0,0,0,3.39,4.8c.69.87,1.45,1.75,2.26,2.64a4.71,4.71,0,0,1,1,1.38A1.67,1.67,0,0,1,67,43.28a6.26,6.26,0,0,1-1.2,1.33c-.45.42-.91.82-1.36,1.19a23.6,23.6,0,0,1-2.76,2,3,3,0,0,1-1.4.42h0A2.87,2.87,0,0,1,59,47.85a5.27,5.27,0,0,1-1.88-1.77,2.38,2.38,0,0,1-.24-2,1.51,1.51,0,0,1,1.11-1l.33,0a1.4,1.4,0,0,1,.7.18c.15.09.24.18.26.18h0s-.05-.14-.25-.3a1.38,1.38,0,0,0-.87-.27H58A1.74,1.74,0,0,0,56.57,44a2.24,2.24,0,0,0-.17.59l0,.23A2.82,2.82,0,0,0,56.75,46.29Z"/><polyline class="cls-7" points="56.38 44.78 56.41 44.55 56.38 44.78"/><path class="cls-3" d="M56.19,42.32a2.69,2.69,0,0,0,.61.07,3.37,3.37,0,0,0,1.08-.19A3.18,3.18,0,0,0,59,41.46v-.11a2,2,0,0,1,.1-.59,4.5,4.5,0,0,1-1.46.88,4.84,4.84,0,0,1-1.67.27,3.06,3.06,0,0,1,.15.4Z"/><path class="cls-3" d="M59.5,40.54h0l-.1,0c0,.08,0,.2,0,.37C59.53,40.73,59.55,40.57,59.5,40.54Z"/><path class="cls-3" d="M55.57,42s0,.12.2.2l-.07-.25Z"/><path class="cls-7" d="M56,41.91H55.7l.07.25a1.92,1.92,0,0,0,.39.14A3.06,3.06,0,0,0,56,41.91Z"/><path class="cls-7" d="M59,41.46l.22-.25.16-.26c0-.17,0-.29,0-.37l-.24.18a2,2,0,0,0-.1.59Z"/><path class="cls-3" d="M63.49,48.75a2.76,2.76,0,0,0,1.39.35H65a4.24,4.24,0,0,0,1.92-.62c1.27-.78,2.56-1.88,4.09-3a7.12,7.12,0,0,0,2.17-2.2,3.57,3.57,0,0,0-.24-3.34A18.12,18.12,0,0,0,71,37.28L69.11,35l-3.23-3.9c-.92-1.11-1.68-2-2.21-2.6a5.66,5.66,0,0,0-.87-.91h0a5.14,5.14,0,0,0,.7,1.05c.48.65,1.18,1.58,2.07,2.72l3.12,4,1.86,2.34a18.4,18.4,0,0,1,1.85,2.55A3,3,0,0,1,72.63,43a6.6,6.6,0,0,1-2,2c-1.5,1.16-2.81,2.32-4,3.09a4,4,0,0,1-1.73.65h-.24a2.65,2.65,0,0,1-1.12-.24,2.08,2.08,0,0,1-.86-.72l0,0A1.68,1.68,0,0,0,63.49,48.75Z"/><polygon class="cls-7" points="62.67 47.78 62.67 47.78 62.68 47.85 62.73 47.82 62.68 47.77 62.67 47.78"/><path class="cls-3" d="M72.52,34.72a24.36,24.36,0,0,1,2.11,2,6.24,6.24,0,0,1,1.19,2,6.3,6.3,0,0,1,.24,2.14h0a2.72,2.72,0,0,0,.15-2.26,5.84,5.84,0,0,0-1.16-2.21,18.67,18.67,0,0,0-2.14-2.12,60.37,60.37,0,0,1-5.14-5.56h0a6.47,6.47,0,0,0,1.12,1.95A24.44,24.44,0,0,0,72.52,34.72Z"/><path class="cls-3" d="M73.63,45a6.13,6.13,0,0,0-2,.34A4.1,4.1,0,0,0,69.47,47c-.37.6-.39,1-.32,1.07h0c.09,0,.25-.37.64-.82a4.84,4.84,0,0,1,2-1.33c1.81-.61,3.49-.41,3.48-.62s-.39-.2-1.06-.25A5.09,5.09,0,0,0,73.63,45Z"/><path class="cls-3" d="M38.53,111.53c-.2,0-1.58,2.86-4.07,5.81s-5.1,4.89-5,5h0a7.48,7.48,0,0,0,1.77-1.13,23.82,23.82,0,0,0,3.66-3.53,24.41,24.41,0,0,0,2.83-4.23,6.46,6.46,0,0,0,.79-2Z"/><polygon class="cls-8" points="73.57 105.39 69.81 106.09 73.57 105.39 73.57 105.39"/><path class="cls-8" d="M77,141l3.24-.34v-.07Z"/><path class="cls-6" d="M73.57,105.39l-1,.19-2.78.51,4.53,35.22h.07L77,141h0l3.23-.41h0l-5.9-31.38Z"/><path class="cls-2" d="M139.85,101.91a28.18,28.18,0,0,0,2.89,4.1,22.28,22.28,0,0,0,5.59,4.74,22.78,22.78,0,0,0,8.42,2.94,29.19,29.19,0,0,0,9-.1,21.67,21.67,0,0,0,6.92-2.4,19.91,19.91,0,0,0,4-2.94,12.78,12.78,0,0,1,1.37-1.26l-.2,0h0l-34.92-5.51-3.36-.5h0l-.25,0h0Z"/><path class="cls-2" d="M206.29,188.52l.11-.25c.14-.37.28-.73.4-1.08l.08-.23c.1-.28.18-.55.27-.81l.09-.31c.08-.26.16-.52.22-.77l.06-.2c.08-.31.16-.61.22-.9l0-.23c.05-.22.1-.44.14-.65l0-.26c0-.22.08-.43.11-.64l0-.15c0-.25.07-.49.1-.72l0-.2c0-.17,0-.34.05-.5l0-.2c0-.18,0-.35,0-.52v-.09c0-.19,0-.37,0-.54v-.16c0-.12,0-.24,0-.36v-.15c0-.13,0-.25,0-.37v-.77l0-.23-.12-22.91,19,.74,0-.26h0l3.37-20.39,2.44-14.76.13-.82-21.52-5.56h0l-10.3-2.67c.12.11-10.76-1.62-12.38-1.88l-.21,0L178.08,107c.09.07-.16.72-.91,1.7a15.86,15.86,0,0,1-3.9,3.51,20.76,20.76,0,0,1-7.24,2.91c-.72.11-1.47.26-2.23.35s-1.55.14-2.35.16-1.61,0-2.44,0l-2.51-.26a22.88,22.88,0,0,1-9-3.27,21.39,21.39,0,0,1-5.7-5.32,20.15,20.15,0,0,1-2.56-4.56,11,11,0,0,1-.42-1.35h-.07l-1-.15-.39-.05-.77-.11-.57-.08-.69-.09-.6-.09-.78-.1-.57-.08-.91-.12-.52-.07-1.27-.17-.19,0-1.53-.2-.38,0-1.15-.14-.54-.06-1-.13-.57-.07-1-.12-.52-.06-1.14-.12-.42,0-1.47-.16h-.07l-1.51-.15-.4,0-1.06-.1-.49,0-.91-.07-.52,0-.84-.07-.32,0a48,48,0,0,0-5.14-.12c-7.68.4-36.22,5.52-36.22,5.52l.37,2,.73,3.85,5.9,31.38.28,1.5,14.36-1.29s1.73,21.26,1.72,24.5c0,8.2,8.32,64.84,8.32,64.84l-5.36,38.89-.06.44H204.91l-8.54-43.89,1.92-24.13a51.69,51.69,0,0,0,7.55-11.88l.08-.18C206.05,189.11,206.18,188.82,206.29,188.52Zm-27-15.23a26.67,26.67,0,0,1-.52,6.63A28.26,28.26,0,0,1,176,187.6a27.84,27.84,0,0,1-4.93,6.51,26.52,26.52,0,0,1-5.27,4,15.62,15.62,0,0,1-5.54,2.22l-.14,0c-.1-.26,2.05-1.11,5-3.19a29.66,29.66,0,0,0,13-23.87c.11-3.63-.34-5.9-.08-5.95h0C178.26,167.34,179.13,169.54,179.32,173.29Z"/><polygon class="cls-7" points="178.08 106.99 178.06 106.99 178.05 106.99 178.08 106.99 178.08 106.99"/><path class="cls-7" d="M138.84,100.32h0c-.05,0-.05.2,0,.52l.43.06C139.05,100.53,138.91,100.32,138.84,100.32Z"/><path class="cls-3" d="M178.05,107h0a12.78,12.78,0,0,0-1.37,1.26,19.91,19.91,0,0,1-4,2.94,21.67,21.67,0,0,1-6.92,2.4,29.19,29.19,0,0,1-9,.1,22.78,22.78,0,0,1-8.42-2.94,22.28,22.28,0,0,1-5.59-4.74,28.18,28.18,0,0,1-2.89-4.1l-.58-1-.43-.06a11,11,0,0,0,.42,1.35,20.15,20.15,0,0,0,2.56,4.56,21.39,21.39,0,0,0,5.7,5.32,22.88,22.88,0,0,0,9,3.27l2.51.26c.83,0,1.64,0,2.44,0s1.58-.11,2.35-.16,1.51-.24,2.23-.35a20.76,20.76,0,0,0,7.24-2.91,15.86,15.86,0,0,0,3.9-3.51c.75-1,1-1.63.91-1.7Z"/><path class="cls-3" d="M178.06,167.34c-.26,0,.19,2.32.08,5.95a29.66,29.66,0,0,1-13,23.87c-3,2.08-5.14,2.93-5,3.19l.14,0a15.62,15.62,0,0,0,5.54-2.22,26.52,26.52,0,0,0,5.27-4A27.84,27.84,0,0,0,176,187.6a28.26,28.26,0,0,0,2.78-7.68,26.67,26.67,0,0,0,.52-6.63c-.19-3.75-1.06-5.95-1.25-5.95Z"/><path class="cls-9" d="M50.6,213.94a4.09,4.09,0,0,1,1.93-3.2c17.15-11.35,30.07-36.51,31.38-57.8,0-1.21.07-2.44.11-3.68v0h0c1-30.45,5.48-67.37,9.5-77.22,7.44-18.18,32.62-19.89,32.62-19.89,33.42-2.39,39.39,23.3,42.77,46.69,2.1,14.55,10.18,66.52,10.18,66.52L173,167.72a75.63,75.63,0,0,1-44.73,46.77c-6.16,2.32-11.38,3.25-13.82,1.26A84.16,84.16,0,0,1,79.22,237.1c-5.4,1.64-11.06,2.74-16.67,2.21-3.65-.34-7.5-1.54-9.68-4.49a8.39,8.39,0,0,1,7.19-13.35C58.8,217.36,50.46,218.57,50.6,213.94Z"/><path class="cls-10" d="M121.69,61.59l2.09-2,22.6,9.11a6.32,6.32,0,0,1,6,6.11l-.2,73.63c0,5-1,9.32-4,13.3L145,165.93c-7.24,9.56-22.13,8.77-27.86-1.76a8.4,8.4,0,0,1-.8-1.9,13.73,13.73,0,0,1-.33-1.65c-.67-5.92-.71-11.06-.71-11.06-.41-6.5-.54-9.17-.54-9.11s-13.84-1.59-17.58-19.36c-1.86-8.84-1.51-21-1-33C96.89,71.57,108.38,61.57,121.69,61.59Z"/><path class="cls-11" d="M126.32,98.05a2.3,2.3,0,0,0,2.33,2.21,2.21,2.21,0,0,0,2.27-2.19,2.31,2.31,0,0,0-2.33-2.21A2.21,2.21,0,0,0,126.32,98.05Z"/><path class="cls-11" d="M103,98.68a2.3,2.3,0,0,0,2.33,2.21,2.2,2.2,0,0,0,2.26-2.19,2.29,2.29,0,0,0-2.32-2.21A2.21,2.21,0,0,0,103,98.68Z"/><path class="cls-11" d="M98.53,92.86c.3.29,2-1.08,4.45-1.2s4.35,1,4.6.71c.12-.14-.19-.67-1-1.2a6.23,6.23,0,0,0-3.7-.94,6,6,0,0,0-3.52,1.33C98.62,92.18,98.39,92.74,98.53,92.86Z"/><path class="cls-11" d="M123.62,93.12c.33.25,1.85-1.29,4.3-1.66s4.43.58,4.65.24c.1-.15-.26-.65-1.13-1.09a6.32,6.32,0,0,0-3.78-.56,6.05,6.05,0,0,0-3.37,1.69C123.63,92.43,123.46,93,123.62,93.12Z"/><path class="cls-11" d="M115,111.11c0-.14-1.54-.33-4-.52-.63,0-1.24-.13-1.37-.55a3.25,3.25,0,0,1,.33-1.9c.52-1.55,1.06-3.19,1.63-4.9,2.25-7,3.84-12.69,3.56-12.78s-2.33,5.5-4.58,12.47c-.54,1.72-1.06,3.35-1.55,4.92a3.69,3.69,0,0,0-.2,2.5,1.58,1.58,0,0,0,1.08.87,4.28,4.28,0,0,0,1.08.09C113.42,111.32,115,111.25,115,111.11Z"/><path class="cls-12" d="M114.74,140.45a45.67,45.67,0,0,0,23.67-7.6S133,145.55,115,144.77Z"/><path class="cls-12" d="M116.33,117a4.46,4.46,0,0,1,3.91-1.86,4.13,4.13,0,0,1,2.88,1.37,2.59,2.59,0,0,1,.34,2.94,3,3,0,0,1-3.2,1,9.38,9.38,0,0,1-3.25-1.73,2.6,2.6,0,0,1-.74-.7.84.84,0,0,1,0-.92"/><path class="cls-11" d="M122.34,112.46c-.4,0-.27,2.68-2.47,4.7s-5.07,1.87-5.08,2.24c0,.17.67.49,1.87.46a6.68,6.68,0,0,0,4.25-1.72,5.84,5.84,0,0,0,1.9-3.93C122.86,113.08,122.52,112.43,122.34,112.46Z"/><path class="cls-11" d="M121.25,83.49c.34.62,2.74-.07,5.66-.16s5.37.33,5.65-.32c.13-.31-.37-.88-1.4-1.38a9.48,9.48,0,0,0-4.36-.81A9.26,9.26,0,0,0,122.54,82C121.55,82.58,121.1,83.19,121.25,83.49Z"/><path class="cls-11" d="M98.89,82.24c.46.54,2.14-.12,4.18-.25s3.8.18,4.17-.42c.16-.3-.14-.85-.92-1.34a5.86,5.86,0,0,0-3.45-.75,5.8,5.8,0,0,0-3.28,1.3C98.89,81.39,98.68,82,98.89,82.24Z"/><path class="cls-9" d="M151.88,106.23s-12.65,3.94-19.82-27.3c-2.45-10.68-12.35-19.34-12.35-19.34l4-1.2s25,7,25.39,7.34,6.3,12.92,6.3,12.92Z"/><path class="cls-10" d="M148.77,105.07c-.07-1.33,1.32-4.56,2.62-4.83,3.49-.72,9.85-.76,10.35,8.17.7,12.21-11.7,10.39-11.74,10S149,109.68,148.77,105.07Z"/><path class="cls-12" d="M153.46,113.61s.22.14.59.28a2.14,2.14,0,0,0,1.59,0c1.27-.55,2.24-2.66,2.17-4.86a6.87,6.87,0,0,0-.77-3,2.44,2.44,0,0,0-1.69-1.55,1.09,1.09,0,0,0-1.22.66c-.15.35,0,.59-.12.61s-.27-.19-.2-.7a1.36,1.36,0,0,1,.44-.79,1.63,1.63,0,0,1,1.15-.38,3,3,0,0,1,2.33,1.77,7.16,7.16,0,0,1,.93,3.36c.06,2.47-1.06,4.84-2.8,5.45a2.3,2.3,0,0,1-2-.21C153.5,113.91,153.42,113.64,153.46,113.61Z"/><path class="cls-11" d="M143.3,100.26a16.47,16.47,0,0,1-1.83-.37,11.05,11.05,0,0,1-4.35-2.52,16,16,0,0,1-2.27-2.66A20.25,20.25,0,0,1,133,91.14a77.64,77.64,0,0,1-2.63-8.87c-.86-3.19-1.79-6.2-2.81-8.87a49.8,49.8,0,0,0-3.18-6.9,38.1,38.1,0,0,0-2.79-4.29c-.36-.48-.68-.83-.88-1.08a3.51,3.51,0,0,0-.32-.36,1.9,1.9,0,0,0,.27.4c.18.26.48.62.82,1.12a40.26,40.26,0,0,1,2.7,4.32,52,52,0,0,1,3.1,6.9c1,2.66,1.92,5.66,2.78,8.84a74.76,74.76,0,0,0,2.66,8.91,21,21,0,0,0,1.9,3.6A15.24,15.24,0,0,0,137,97.54a10.84,10.84,0,0,0,4.47,2.47A7,7,0,0,0,143.3,100.26Z"/><path class="cls-13" d="M160,152.35a3,3,0,0,0,.14-.59q.1-.64.3-1.74l1.1-6.63-.29,0-.2,1.44v0l-.26.55.31.11A117.06,117.06,0,0,0,165,125.76a117.83,117.83,0,0,0,.75-12.72c0-4.46,0-9.2-1.21-13.93a21.78,21.78,0,0,0-2.22-5.54,29.84,29.84,0,0,0-3.37-4.7c-2.49-2.87-5.16-5.34-7.6-7.79L138.24,68.19l-8.87-8.66-2.43-2.33-.64-.6-.23-.19s.06.08.19.23l.6.64,2.36,2.4L138,68.47l13,13c2.43,2.46,5.1,4.94,7.54,7.77a23.91,23.91,0,0,1,5.47,10c1.18,4.63,1.16,9.35,1.21,13.79a119.73,119.73,0,0,1-.7,12.66,123.8,123.8,0,0,1-3.73,19.62l.3.11.25-.55v0c.07-.5.13-1,.18-1.44l-.29,0c-.41,2.84-.74,5.07-1,6.65-.1.73-.18,1.31-.23,1.74A4.47,4.47,0,0,0,160,152.35Z"/><path class="cls-13" d="M169.59,95.91a1.71,1.71,0,0,0-.21-.52c-.19-.38-.43-.85-.71-1.43-.62-1.24-1.6-3-2.88-5.13s-2.9-4.61-4.83-7.28-4.2-5.48-6.73-8.31-5.12-5.36-7.55-7.58S142,61.58,140,60.09s-3.63-2.66-4.8-3.41l-1.35-.86a2.65,2.65,0,0,0-.49-.27s.14.14.43.36l1.29,1c1.13.8,2.73,2,4.68,3.54s4.2,3.43,6.62,5.64,4.95,4.77,7.48,7.57,4.77,5.63,6.73,8.24,3.6,5.08,4.91,7.18,2.34,3.82,3,5c.32.56.59,1,.8,1.39A2.63,2.63,0,0,0,169.59,95.91Z"/><path class="cls-11" d="M153.32,194.31a7.1,7.1,0,0,0,.84-1.22c.52-.8,1.25-2,2.19-3.37a124.16,124.16,0,0,1,7.87-10.64,60.62,60.62,0,0,1,9.37-9.28,48.36,48.36,0,0,1,4.59-3,6.56,6.56,0,0,0-1.37.56,12.14,12.14,0,0,0-1.53.83,20.15,20.15,0,0,0-1.93,1.26,54.35,54.35,0,0,0-9.56,9.24A97.54,97.54,0,0,0,156,189.51c-.9,1.44-1.59,2.63-2,3.47A7.22,7.22,0,0,0,153.32,194.31Z"/><path class="cls-14" d="M163.44,254.92l20.23-90.1-20.65-11c-.42-.62-10.88-5.34-10.88-5.34a38.9,38.9,0,0,1-10.72,11.32c-12.52,7.56-25.07,1.38-26.14-10.2h0l-11.46,3.22L81.69,156.6s-18,47-15.63,65.34-.94,50.16-.94,50.16l-1.86,10.51,18.81.38h3.09l42-.23,36.61-.15C159.42,270.2,163.44,254.92,163.44,254.92Z"/><path class="cls-10" d="M50.85,262.54a19.4,19.4,0,0,1-17.75-9.71,13.94,13.94,0,0,1-1.87-6.74c0-9.79,6.09-23.83,8.11-28.88,2.92-7.28,30.71-57.71,34.05-57s5.16,1,5.16,1L62.73,233l50.32,8.26-5.52,19.23Z"/><path class="cls-14" d="M49.55,186.59l25.57,13.57,8.45-43.56s-10.83,1-14.41,5.52S49.55,186.59,49.55,186.59Z"/><path class="cls-10" d="M80.56,235.89l-6.89-15-3-11.07-9.15-7.1s-3,.36-2.1,2.71,5.54,6.6,5.54,6.6l2.71,7.57L63.25,212l-6.43-3.19-6.37.48s-1.18,2.82,1.77,2.94H55.4l4.83,3.89,3,7.31-4.55-7.07L52,213.93,47.74,215s-1.18,1.89.94,2.12a35,35,0,0,0,3.54.24l3.89,2.26,3.42,7.17-6-4.95-7.78-.93s-1.3,1.87.7,2.58a63.55,63.55,0,0,1,6,2.82l4.33,6Z"/><path class="cls-12" d="M80.56,235.89l-23.79-3.46h-.05l0,0-4.34-6,0,0c-1.35-.7-2.78-1.42-4.27-2.1-.37-.16-.75-.33-1.13-.48a6.13,6.13,0,0,1-1.18-.53,1.37,1.37,0,0,1-.63-1.2,2.61,2.61,0,0,1,.43-1.3l0-.07h.1l7.77.92h0l0,0,6,5-.25.2L56,219.71l.07.08-3.89-2.26.09,0c-1,0-2.09-.08-3.18-.19a2.06,2.06,0,0,1-1.62-.66,1.28,1.28,0,0,1-.16-.93,2.54,2.54,0,0,1,.33-.84l0-.07h.08l4.24-1.1H52l0,0,6.72,2.38.06,0,0,.06,4.55,7.07-.33.17c-.51-1.24-1.06-2.58-1.62-3.92l-1.4-3.39.06.08-4.83-3.89.11,0H53.53a13.44,13.44,0,0,1-1.89-.07,1.83,1.83,0,0,1-1.51-1.21,3.07,3.07,0,0,1,.15-1.92l0-.11h.12l6.36-.47h.05l0,0,6.43,3.19.05,0,0,.05,4.4,7.68-.31.15c-.93-2.61-1.83-5.12-2.71-7.57l0,.06a40.27,40.27,0,0,1-4.46-4.83A10,10,0,0,1,59.5,206a2.93,2.93,0,0,1-.41-1.57,1.78,1.78,0,0,1,.91-1.33,4.24,4.24,0,0,1,1.49-.5h.06l.05,0,9.14,7.11,0,0v0l3,11.07v0l6.8,15c-.32-.67-2.61-5.58-7-14.92h0c-.88-3.22-1.89-6.88-3-11l0,.07-9.17-7.09.11,0a3.67,3.67,0,0,0-1.36.47,1.48,1.48,0,0,0-.77,1.1,4.71,4.71,0,0,0,1.24,2.7A39.46,39.46,0,0,0,65.06,212l0,0v0c.88,2.45,1.78,5,2.72,7.56l-.31.14L63.1,212l.07.07-6.43-3.17h.09l-6.36.48.15-.11a2.67,2.67,0,0,0-.14,1.67,1.47,1.47,0,0,0,1.23,1,13.56,13.56,0,0,0,1.82.06h1.94l.05,0,4.83,3.89,0,0,0,0,1.4,3.39,1.61,3.92-.32.17-4.55-7.07.09.07-6.72-2.39H52l-4.24,1.08.1-.07a1.42,1.42,0,0,0-.17,1.39,1,1,0,0,0,.58.37,3.65,3.65,0,0,0,.77.12c1.08.11,2.14.19,3.15.2h.05l0,0,3.89,2.26,0,0,0,0,3.41,7.17.32.68-.58-.48-6-5,.09,0-7.78-.93.14-.07a2.39,2.39,0,0,0-.39,1.13,1.16,1.16,0,0,0,.5,1,6.4,6.4,0,0,0,1.12.49l1.15.5c1.5.68,2.92,1.4,4.28,2.12h0v0c1.53,2.11,3,4.12,4.32,6l-.08-.05Z"/><g class="cls-15"><path d="M163.85,260.6s-5.85,12.25-13.44,15.83c-7,3.33-11.52,4.05-19.91,3.44a184.32,184.32,0,0,1-22.28-4.28l-32.55-14L144.1,272.4Z"/></g><path class="cls-10" d="M180.55,169.29S192.79,165,193,192.39s-32,73.5-37.47,78-11.76,7.58-28.3,5.13c-20.74-3.07-50.53-13.93-50.53-13.93l18.22-17,37-1.67L162,181.18S170.28,168.09,180.55,169.29Z"/><path class="cls-10" d="M107.53,260.45s9.17,5.77,19.52,5.47S146.58,269,147.91,268s1.48-2.56,0-3.3-7.75-1.63-7.75-1.63l-5.42-2.22s18.49,1.63,20,.89,3-1.78,2.37-3.4a2.32,2.32,0,0,0-2.07-1.63s4,.15,3.84-1.48a5,5,0,0,0-2.21-3.4c-.6-.3-8.35-3.45-8.35-3.45l-10-2,9.58-.39,8.37,2.33s3.34.38,2.6-2.43-11-5.92-11-5.92l-13-.89s10.06-1.47,11.1-4.58a4.81,4.81,0,0,0-.74-4.88s-7.1,2.81-10.51,3.4a66.76,66.76,0,0,0-13,4.14,87.68,87.68,0,0,0-8.68,4"/><path class="cls-12" d="M113.05,241.22s.17-.11.53-.3.87-.47,1.57-.82c1.4-.69,3.48-1.68,6.22-2.81a89,89,0,0,1,10.18-3.6c1-.28,2.08-.52,3.19-.72a31.94,31.94,0,0,0,3.35-.88c2.27-.71,4.64-1.57,7.11-2.53l.08,0,.06.07a4.85,4.85,0,0,1,1,3.92l-.11.52-.14.52a2.69,2.69,0,0,1-.58,1,6.51,6.51,0,0,1-1.81,1.27,22.05,22.05,0,0,1-4.24,1.54,45,45,0,0,1-4.59,1l0-.32,13,.88h0a48.18,48.18,0,0,1,7.8,3.14,14.12,14.12,0,0,1,1.84,1.15,5.86,5.86,0,0,1,.83.75,2.49,2.49,0,0,1,.6,1,3,3,0,0,1,.08,1.16,1.57,1.57,0,0,1-.62,1,3.44,3.44,0,0,1-2.25.48h0l-8.36-2.33h.05l-9.58.38,0-.37,7.13,1.42,2.84.57h0l8.31,3.43a4.89,4.89,0,0,1,1.62,1.61,3.93,3.93,0,0,1,.74,2.17,1.25,1.25,0,0,1-.75,1,3.69,3.69,0,0,1-1.08.35,10.2,10.2,0,0,1-2.2.17v-.36a2.43,2.43,0,0,1,1.72.84,2.69,2.69,0,0,1,.66,1.78,2.46,2.46,0,0,1-.9,1.65,7.18,7.18,0,0,1-1.52,1,1.69,1.69,0,0,1-.45.17,4,4,0,0,1-.46.07c-.3,0-.59,0-.89.05h-1.76c-1.16,0-2.32-.07-3.46-.13-4.58-.24-9-.59-13.22-.95l.08-.32,5.41,2.22h0c2,.3,3.94.62,5.82,1.05a13.8,13.8,0,0,1,1.4.38,2.68,2.68,0,0,1,1.27.75,1.72,1.72,0,0,1,.42,1.42,2.32,2.32,0,0,1-.7,1.27,2,2,0,0,1-.27.24,1.32,1.32,0,0,1-.33.2,2.65,2.65,0,0,1-.73.09,12.27,12.27,0,0,1-1.36-.13c-.89-.12-1.75-.29-2.6-.45-1.71-.32-3.36-.63-5-.89A63,63,0,0,0,129,266c-.71,0-1.4,0-2.07,0s-1.35,0-2,0-1.28-.09-1.9-.15l-1.79-.25a41.1,41.1,0,0,1-10.36-3.32c-1.14-.54-2-1-2.55-1.32s-.84-.51-.84-.51l.22.11.64.36c.57.3,1.43.75,2.57,1.27a41.6,41.6,0,0,0,10.35,3.22l1.78.24c.62.06,1.25.09,1.89.14s1.31,0,2,0,1.37,0,2.08,0a64.87,64.87,0,0,1,9.13.83c1.61.25,3.27.56,5,.88.85.15,1.71.32,2.59.44a9.94,9.94,0,0,0,1.33.11,2.07,2.07,0,0,0,.62-.07,1.47,1.47,0,0,0,.49-.37,2,2,0,0,0,.61-1.11,1.42,1.42,0,0,0-.34-1.18,2.43,2.43,0,0,0-1.15-.65c-.44-.15-.9-.26-1.37-.37-1.87-.42-3.81-.74-5.79-1h0L134.68,261l-1-.41,1.08.1c4.23.35,8.64.69,13.2.93,1.15,0,2.3.1,3.46.12.58,0,1.16,0,1.74,0,.29,0,.58,0,.87,0a2.7,2.7,0,0,0,.41-.06,1.32,1.32,0,0,0,.37-.14,7,7,0,0,0,1.44-.95,2.08,2.08,0,0,0,.78-1.41,2.31,2.31,0,0,0-.58-1.52,2.09,2.09,0,0,0-1.44-.72v-.36a10.72,10.72,0,0,0,2.11-.16,4,4,0,0,0,1-.32.9.9,0,0,0,.55-.67,3.65,3.65,0,0,0-.67-1.92,4.68,4.68,0,0,0-1.48-1.49l-8.29-3.42h0l-2.84-.57-7.13-1.41-1.53-.31,1.56-.06,9.58-.38h.05l8.37,2.33h0a3.05,3.05,0,0,0,2-.4,1.6,1.6,0,0,0,.41-1.81,3.46,3.46,0,0,0-1.29-1.54,13.55,13.55,0,0,0-1.8-1.13,47.54,47.54,0,0,0-7.73-3.12h0l-13-.9-1.4-.1,1.39-.22a43.8,43.8,0,0,0,4.56-.95,22.63,22.63,0,0,0,4.19-1.51,6.26,6.26,0,0,0,1.73-1.21,2.25,2.25,0,0,0,.51-.85L146,234l.1-.5a4.58,4.58,0,0,0-1-3.69l.15,0c-2.48,1-4.86,1.81-7.14,2.51a29,29,0,0,1-3.38.87c-1.1.2-2.16.44-3.18.71a90.28,90.28,0,0,0-10.18,3.53c-2.74,1.11-4.83,2.07-6.23,2.74l-1.6.78Z"/><path class="cls-12" d="M135.22,253.83a20,20,0,0,0,3.11.24c1.91.12,4.55.34,7.44.78s5.48,1,7.34,1.46a22.21,22.21,0,0,0,3,.7,14,14,0,0,0-2.94-1.08,55.63,55.63,0,0,0-14.87-2.25A14.07,14.07,0,0,0,135.22,253.83Z"/><path class="cls-11" d="M70.38,200.66c-.38,1.79-.7,3.27-.94,4.41a9.12,9.12,0,0,0-.27,1.64,8.83,8.83,0,0,0,.48-1.59c.29-1.13.66-2.6,1.11-4.37.92-3.7,2.14-8.82,3.46-14.48,2.16-9.29,3.91-17.16,4.36-19.61l0-.19-.16.11a3.66,3.66,0,0,0-.76.58,3.48,3.48,0,0,0,.85-.45l-.12-.08c-.68,2.4-2.59,10.22-4.75,19.52"/><path class="cls-14" d="M147,202.76l41.32,18.42s16-49.5-7.59-57.48l-11.85,2.77Z"/><line class="cls-13" x1="50.85" y1="262.54" x2="107.53" y2="260.45"/><path class="cls-12" d="M107.53,260.45c0,.1-12.68.65-28.33,1.23s-28.34,1-28.35.86,12.68-.66,28.34-1.23S107.53,260.34,107.53,260.45Z"/><path class="cls-12" d="M56.79,232.32c0,.06-.82.14-2.09.45a15.71,15.71,0,0,0-4.67,2,12.48,12.48,0,0,0-3.65,3.53c-.73,1.09-1,1.88-1.06,1.85a1.86,1.86,0,0,1,.15-.56,7,7,0,0,1,.68-1.43,11.63,11.63,0,0,1,3.67-3.7,14.12,14.12,0,0,1,4.82-2,11.42,11.42,0,0,1,1.57-.21A1.58,1.58,0,0,1,56.79,232.32Z"/><path class="cls-11" d="M154.09,196.88s0,.14-.12.39-.24.65-.41,1.08c-.37.94-.92,2.29-1.63,4-1.41,3.31-3.48,7.84-5.91,12.77s-4.77,9.32-6.49,12.49c-.85,1.58-1.56,2.85-2.06,3.73l-.57,1a1.59,1.59,0,0,1-.23.34,1.68,1.68,0,0,1,.16-.37l.52-1c.48-.94,1.15-2.22,2-3.79,1.66-3.19,3.95-7.61,6.38-12.53s4.54-9.43,6-12.71l1.74-3.89.47-1.06A2.87,2.87,0,0,1,154.09,196.88Z"/></g></g></svg>