<svg xmlns="http://www.w3.org/2000/svg" viewBox="0 0 73.78 167.69"><defs><style>.cls-1{fill:#30728f;}</style></defs><g id="Layer_2" data-name="Layer 2"><g id="Layer_5" data-name="Layer 5"><path class="cls-1" d="M73,66.93a4.62,4.62,0,0,0-4.89-1.22,20.84,20.84,0,0,0-7.22,4.1,44.52,44.52,0,0,0-8,9.36,126.91,126.91,0,0,0,2.38-13.81,16.87,16.87,0,0,0,4.59-2,9,9,0,0,0,3.41-4.1,2.67,2.67,0,0,0-.51-3,2.22,2.22,0,0,0-2.42,0,10.2,10.2,0,0,0-2.84,2.82,19.18,19.18,0,0,0-2,3.86c.17-1.78.31-3.56.4-5.35.1-2.07.13-4.15.11-6.23l0,0,0-.08c2.66-1.24,7-3.32,9.71-5.88A18.7,18.7,0,0,0,71.55,36c.45-2.24.06-5-2-6.08a4.6,4.6,0,0,0-5,.83,20.79,20.79,0,0,0-5,6.64A44.75,44.75,0,0,0,56,49.27a103.27,103.27,0,0,0-1.71-16.18,17.67,17.67,0,0,0,4-3.29,9,9,0,0,0,2.14-4.89,2.66,2.66,0,0,0-1.32-2.77,2.24,2.24,0,0,0-2.32.72,10.11,10.11,0,0,0-1.94,3.49A20.17,20.17,0,0,0,54,31.42c-.36-1.75-.75-3.5-1.21-5.23-.24-.93-.52-1.85-.8-2.77A47.49,47.49,0,0,0,50.75,9.37,20.92,20.92,0,0,0,47.09,1.9,4.61,4.61,0,0,0,42.37.16c-2.17.69-3.08,3.32-3,5.6,0,3.75,1.72,7.32,3.89,10.37,1.95,2.73,5.31,5.32,7.7,7.06q1.23,4,2.08,8.08a18.88,18.88,0,0,0-2.83-3.53,9.91,9.91,0,0,0-3.34-2.19,2.23,2.23,0,0,0-2.39.44,2.67,2.67,0,0,0,.12,3.07,9,9,0,0,0,4.16,3.33,16.54,16.54,0,0,0,4.71,1,102.76,102.76,0,0,1,1.61,15,43.11,43.11,0,0,0-5.26-9.89,20.87,20.87,0,0,0-6.1-5.64,4.64,4.64,0,0,0-5,.08c-1.77,1.43-1.66,4.21-.81,6.33,1.39,3.48,4.24,6.2,7.37,8.26,2.87,1.88,7,3.09,9.9,3.84,0,.81,0,1.62,0,2.43-.05,3-.22,6-.5,9a18.63,18.63,0,0,0-1.3-3.93A10,10,0,0,0,51,55.56a2.2,2.2,0,0,0-2.38-.44c-1,.5-1.18,1.83-1,2.91a8.89,8.89,0,0,0,2.69,4.59,16.48,16.48,0,0,0,4.07,2.64,127.68,127.68,0,0,1-2.47,14.13,45.75,45.75,0,0,0-2.77-12.66,20.89,20.89,0,0,0-4.48-7,4.61,4.61,0,0,0-4.89-1.19c-2.09.94-2.68,3.66-2.39,5.92a18.56,18.56,0,0,0,5.06,9.85C44.87,77,49,79.4,51.55,80.84c-.34,1.38-.69,2.75-1.07,4.12-.62,2.24-1.31,4.45-2,6.65a19.11,19.11,0,0,0-.25-4,10.18,10.18,0,0,0-1.44-3.73,2.21,2.21,0,0,0-2.19-1,2.66,2.66,0,0,0-1.7,2.56,8.89,8.89,0,0,0,1.43,5.13,16.72,16.72,0,0,0,3.27,3.61,152,152,0,0,1-5.82,14.1,43.61,43.61,0,0,0-.18-11.62,20.89,20.89,0,0,0-2.91-7.79,4.6,4.6,0,0,0-4.52-2.2c-2.23.48-3.39,3-3.59,5.28a18.66,18.66,0,0,0,2.86,10.7c1.63,2.85,4.63,5.7,6.83,7.67l0,.13.21.09.13.11c-.58,1.18-1.17,2.34-1.77,3.5q-1.58,3-3.27,6a19.68,19.68,0,0,0,.16-4.74,10.08,10.08,0,0,0-1.14-3.83,2.22,2.22,0,0,0-2.1-1.21,2.68,2.68,0,0,0-1.9,2.42,8.87,8.87,0,0,0,1,5.23,16.32,16.32,0,0,0,3,3.84c-2.57,4.4-5.32,8.69-8.2,12.88a43.85,43.85,0,0,0,1.28-11.6A21,21,0,0,0,25.76,115a4.62,4.62,0,0,0-4.22-2.75c-2.27.19-3.73,2.56-4.22,4.79a18.67,18.67,0,0,0,1.51,11c1.25,3,3.83,6.18,5.76,8.4l0,0,.06.27.29.12c-.78,1.11-1.57,2.22-2.38,3.32-1.36,1.86-2.75,3.69-4.16,5.52a19.88,19.88,0,0,0,.73-4.48,10.28,10.28,0,0,0-.62-4,2.23,2.23,0,0,0-1.93-1.47c-1.09,0-1.88,1.09-2.19,2.15a9,9,0,0,0,.31,5.32,16.55,16.55,0,0,0,2.38,4.12q-4.32,5.5-8.9,10.81a44.06,44.06,0,0,0,2.27-11.83,20.67,20.67,0,0,0-1.29-8.21,4.6,4.6,0,0,0-4-3.06c-2.29,0-3.92,2.27-4.57,4.46-1.07,3.59-.52,7.49.66,11.05,1.1,3.3,3.67,6.89,5.45,9.26-1.24,1.42-2.48,2.85-3.74,4.25-.85.94-1.7,1.88-2.56,2.81-.42.46.27,1.15.69.69Q4.3,164,7.42,160.42c2.73,1.14,7,2.84,10.6,3.09,3.74.25,7.65-.19,10.87-2.12,1.95-1.17,3.73-3.32,3.17-5.54a4.59,4.59,0,0,0-4-3.1,20.89,20.89,0,0,0-8.27.8,44.44,44.44,0,0,0-11,5.21q4.77-5.53,9.28-11.27a17.2,17.2,0,0,0,4.78,1.35,9,9,0,0,0,5.23-1,2.69,2.69,0,0,0,1.53-2.67,2.21,2.21,0,0,0-1.91-1.49,10,10,0,0,0-4,.38,19.9,19.9,0,0,0-4.6,2.09c.62-.8,1.25-1.58,1.85-2.38q2.46-3.25,4.8-6.58a34.89,34.89,0,0,0,9.75,2.75c3.74.26,7.66-.18,10.87-2.1,2-1.17,3.74-3.32,3.19-5.53a4.63,4.63,0,0,0-4-3.12,21,21,0,0,0-8.27.79,41.73,41.73,0,0,0-9.58,4.33q4.05-6,7.68-12.17a16.22,16.22,0,0,0,4.74.31,9,9,0,0,0,4.91-2.06c.81-.75,1.44-1.93,1-2.92A2.21,2.21,0,0,0,44,116.37a10.09,10.09,0,0,0-3.82,1.19,18.56,18.56,0,0,0-3.32,2.31c.42-.75.85-1.5,1.26-2.26,1.21-2.21,2.36-4.44,3.47-6.7,2.75,1,6.55,2.35,9.76,2.49a18.56,18.56,0,0,0,10.82-2.35c1.93-1.22,3.65-3.4,3.05-5.6a4.58,4.58,0,0,0-4-3,20.86,20.86,0,0,0-8.25,1,43.11,43.11,0,0,0-10.16,5,150.85,150.85,0,0,0,5.88-14.31,16.74,16.74,0,0,0,4.83-.92,9,9,0,0,0,4.22-3.25c.59-.93.89-2.24.17-3.07a2.2,2.2,0,0,0-2.37-.48,9.92,9.92,0,0,0-3.39,2.12,18.88,18.88,0,0,0-2.59,3q.45-1.33.87-2.67,1.17-3.81,2.12-7.69c3-.08,7.5-.28,10.84-1.51,3.52-1.29,6.91-3.29,9.05-6.36C73.68,71.41,74.42,68.72,73,66.93Z"/></g></g></svg>