<svg xmlns="http://www.w3.org/2000/svg" viewBox="0 0 117.1 104.3"><defs><style>.cls-1{fill:#d1bca1;}.cls-2{fill:#83c9e1;}.cls-2,.cls-3{fill-rule:evenodd;}.cls-3{fill:#5d9cb8;}.cls-4{fill:none;stroke:#c04547;stroke-miterlimit:10;stroke-width:2px;opacity:0.13;}</style></defs><g id="Layer_2" data-name="Layer 2"><g id="Layer_5" data-name="Layer 5"><path class="cls-1" d="M83.15,67.29a28.8,28.8,0,0,0,0-30.28V27.55H73.69a28.8,28.8,0,0,0-30.28,0H34V37a28.8,28.8,0,0,0,0,30.28v9.46h9.46a28.8,28.8,0,0,0,30.28,0h9.46Zm3.93-15.14a28.38,28.38,0,0,1-3.93,14.42V37.73A28.38,28.38,0,0,1,87.08,52.15Zm-4.3,15a28.67,28.67,0,0,1-9.2,9.2H43.52a28.67,28.67,0,0,1-9.2-9.2V37.12a28.67,28.67,0,0,1,9.2-9.2H73.58a28.67,28.67,0,0,1,9.2,9.2Zm0-39.26v8.52a29.07,29.07,0,0,0-8.52-8.52Zm-24.23-4.3A28.38,28.38,0,0,1,73,27.55H44.13A28.38,28.38,0,0,1,58.55,23.62Zm-24.23,4.3h8.52a29.07,29.07,0,0,0-8.52,8.52ZM30,52.15A28.38,28.38,0,0,1,34,37.73V66.57A28.38,28.38,0,0,1,30,52.15Zm4.3,24.23V67.86a29.07,29.07,0,0,0,8.52,8.52Zm24.23,4.3a28.38,28.38,0,0,1-14.42-3.93H73A28.38,28.38,0,0,1,58.55,80.68Zm15.71-4.3a29.07,29.07,0,0,0,8.52-8.52v8.52Z"/><path class="cls-2" d="M38.23,29.65c-.85,3,.82,6.25,2.18,6.6A38.07,38.07,0,0,0,37.12,45c-.33,1.58,1.33,2.1.43,3.72s-2.48,4.68-3.44,6.45.89,2.3,3.19,3.37a19.84,19.84,0,0,1-.92,2.52c.13.29,1.07.68,1.46.9A12.51,12.51,0,0,0,37,63.44c1,1,1.62,1.63,1.16,3.43-1.35,5,3.19,4.69,8.59,3.1-1.1,2.45-.33,3,.58,4.59a45.22,45.22,0,0,1,8.25-4.07,4.25,4.25,0,0,1,.33-2.07c-5.39,1.58-9.67,0-8.33-5.07.46-1.8-.16-2.42-1.16-3.43A6.26,6.26,0,0,1,47,58.61a4.16,4.16,0,0,1-1.29-1c.28-.68.75-1.28.9-1.83-2.3-1.07-4-2.49-3.09-4.13S46,47,47,45.19s-.76-2.14-.43-3.72a34.64,34.64,0,0,1,3-8.38c-.7-.18-1.42-1.26-1.83-2.66-3.24.43-6.45.5-9.51-.78Z"/><path class="cls-3" d="M49.31,26.13c-.85,3,.82,6.25,2.18,6.59a38.35,38.35,0,0,0-3.3,8.75c-.32,1.58,1.34,2.1.43,3.72s-2.47,4.69-3.44,6.46.9,2.29,3.19,3.36a17.17,17.17,0,0,1-.92,2.52c.14.29,1.08.68,1.47.9a12.79,12.79,0,0,0-.85,1.49c1,1,1.63,1.63,1.16,3.43-1.34,5,3.15,4.69,8.54,3.1-.24,1.38-1.13,2.28-.94,3.59A50.41,50.41,0,0,1,76.1,67.46,8.42,8.42,0,0,1,76.62,62c3.79-2.22,11.5-24.9,1.72-33.4-8.62-7.48-19.57,1.52-29-2.45Z"/><path class="cls-4" d="M115.63,27.89c-1.47-12.58-8-21.64-20.44-25.55C86.88-.28,78.77,1.07,71.28,5.23,67,7.59,63.14,10.63,59,13.52l-.73.51c-2.15-1.74-4.42-3.78-6.89-5.54C43.7,3.06,35.27,0,25.78,1.46,12.27,3.57,2.91,13.92,1.4,28.15A62.38,62.38,0,0,0,4.34,55.58l.07.21a65.78,65.78,0,0,0,11.4,19.88c11,13.45,25.46,21.89,41.71,27.49a3.3,3.3,0,0,0,1.45.11,4.83,4.83,0,0,0,.89-.2c13.6-4.68,26-11.45,36.22-21.68C110.89,66.61,118.08,48.91,115.63,27.89Z"/></g></g></svg>