<svg xmlns="http://www.w3.org/2000/svg" viewBox="0 0 117.1 104.3"><defs><style>.cls-1{fill:#d1bca1;}.cls-2,.cls-5{fill:none;}.cls-3{fill:#d85e50;}.cls-4{fill:#c63e34;}.cls-5{stroke:#c04547;stroke-miterlimit:10;stroke-width:2px;opacity:0.13;}</style></defs><g id="Layer_2" data-name="Layer 2"><g id="Layer_5" data-name="Layer 5"><path class="cls-1" d="M83.09,67.8a28.76,28.76,0,0,0,0-30.19V28.16H73.65a28.78,28.78,0,0,0-30.2,0H34v9.45A28.76,28.76,0,0,0,34,67.8v9.44h9.44a28.78,28.78,0,0,0,30.2,0h9.44ZM87,52.7a28.29,28.29,0,0,1-3.92,14.38V38.32A28.35,28.35,0,0,1,87,52.7Zm-4.29,15a28.55,28.55,0,0,1-9.18,9.18h-30a28.55,28.55,0,0,1-9.18-9.18v-30a28.65,28.65,0,0,1,9.18-9.18h30a28.65,28.65,0,0,1,9.18,9.18Zm0-39.16V37a29.18,29.18,0,0,0-8.5-8.5ZM58.55,24.25a28.31,28.31,0,0,1,14.38,3.91H44.17A28.31,28.31,0,0,1,58.55,24.25ZM34.38,28.53h8.5a29.18,29.18,0,0,0-8.5,8.5ZM30.1,52.7A28.34,28.34,0,0,1,34,38.32V67.08A28.28,28.28,0,0,1,30.1,52.7Zm4.28,24.17v-8.5a28.94,28.94,0,0,0,8.5,8.5Zm24.17,4.29a28.22,28.22,0,0,1-14.38-3.92H72.93A28.22,28.22,0,0,1,58.55,81.16Zm15.67-4.29a28.94,28.94,0,0,0,8.5-8.5v8.5Z"/><path class="cls-2" d="M58.55,76.25v-3A3.13,3.13,0,0,0,58.55,76.25Z"/><path class="cls-3" d="M58.55,73.21v-46c-5.36.69-10.37,3.1-10.92,8C45,37.63,41.45,40.11,40,42.55c-1.25,2.13-.37,2.77-2.31,4.32-2.55,2-6.61,5.39-5.67,7.45,1.16,2.57,2.15,4.33,4.37,5,.3,1.93,2.29,4.2,3.12,4.22a10,10,0,0,1-.74-4.1c.18,0,.44,0,.63,0,.48.81,1.24,1.63,1.64,1.64-.07-.51-.24-1.21-.27-1.71l.37,0c.39.54.8.9,1.1.91,0-.36-.09-.72-.13-1.07A17.74,17.74,0,0,1,47,58.53c4.95.5-.54,4.3-2.12,4.93a14.39,14.39,0,0,1-.69-1.36,3.19,3.19,0,0,0-.34,1.72l-.32.12a15.7,15.7,0,0,1-1-1.77,3.59,3.59,0,0,0-.39,2.32l-.17.07a7.21,7.21,0,0,1-1.24-2.3,4.19,4.19,0,0,0-.4,3c-.56,1.16,0,2.07,1.41,2.28,2,.3,6.8-3,8.18-2.66-6.23,4.5-5.57,14,5.53,14.13-3.71-2.24-7.28-9.83-.94-10.3-4,3.53-.5,8.79,4,9.93v-2.4A3.13,3.13,0,0,1,58.55,73.21Z"/><path class="cls-4" d="M68.35,62.76c.73,4.92-4,9.31-8.55,10.37,13.47,3.07,15-9.63,15.48-18.65,3.52,5.59-.39,13.55-1.53,15.45,7.26-.27,8-13.4,5.78-22.87,2.75,2.52,3.06,8.21,3.16,11,7.11-6.71-1.92-25.66-13.46-30a23.83,23.83,0,0,0-10.68-.89v46C60.05,70.64,65.51,69.22,68.35,62.76Z"/><path class="cls-4" d="M58.55,76.25v2.4a7.89,7.89,0,0,0,1.67.22A13,13,0,0,1,58.55,76.25Z"/><path class="cls-5" d="M115.63,27.89c-1.47-12.58-8-21.64-20.44-25.55C86.88-.28,78.77,1.07,71.28,5.23,67,7.59,63.14,10.63,59,13.52l-.73.51c-2.15-1.74-4.42-3.78-6.89-5.54C43.7,3.06,35.27,0,25.78,1.46,12.27,3.57,2.91,13.92,1.4,28.15A62.38,62.38,0,0,0,4.34,55.58l.07.21a65.78,65.78,0,0,0,11.4,19.88c11,13.45,25.46,21.89,41.71,27.49a3.3,3.3,0,0,0,1.45.11,4.14,4.14,0,0,0,.89-.21c13.6-4.67,26-11.44,36.22-21.67C110.89,66.61,118.08,48.91,115.63,27.89Z"/></g></g></svg>