<svg xmlns="http://www.w3.org/2000/svg" viewBox="0 0 117.1 104.3"><defs><style>.cls-1{fill:#d1bca1;}.cls-2{fill:#d85e50;}.cls-3{fill:#c63e34;}.cls-4{fill:none;stroke:#c04547;stroke-miterlimit:10;stroke-width:2px;opacity:0.13;}</style></defs><g id="Layer_2" data-name="Layer 2"><g id="Layer_5" data-name="Layer 5"><path class="cls-1" d="M83.19,67.71a28.77,28.77,0,0,0,0-30.23V28H73.74a28.77,28.77,0,0,0-30.23,0H34.06v9.45a28.77,28.77,0,0,0,0,30.23v9.45h9.45a28.77,28.77,0,0,0,30.23,0h9.45Zm-.37-.11a28.64,28.64,0,0,1-9.19,9.2h-30a28.64,28.64,0,0,1-9.19-9.2v-30a28.71,28.71,0,0,1,9.19-9.19h30a28.71,28.71,0,0,1,9.19,9.19ZM58.62,24.11A28.39,28.39,0,0,1,73,28H44.23A28.38,28.38,0,0,1,58.62,24.11ZM34.43,28.4h8.51a29,29,0,0,0-8.51,8.51ZM30.14,52.6a28.29,28.29,0,0,1,3.92-14.4V67A28.23,28.23,0,0,1,30.14,52.6Zm4.29,24.2V68.28a29,29,0,0,0,8.51,8.52Zm24.19,4.28a28.29,28.29,0,0,1-14.39-3.92H73A28.29,28.29,0,0,1,58.62,81.08Z"/><path class="cls-2" d="M38.66,57.2c3.62-3.38,3.61-8.68-2.86-10.67,4,3.88-1.51,8.54-2.92,3.11-1.31-5.08.6-9.25,2.92-10.72,4.51-2.88,12.69.5,12.06,5.13-2.32-1-5.25-4-9.82-3.38-.92.12-1,.35-.73.83.56.9,1.28,1.28,1.72,2.4a16.24,16.24,0,0,0,5.66,6.91c-.14,9.92,3.83,10.13,6,15.45C51.86,69,52,72.71,53.36,75.35a5.88,5.88,0,0,0,5.19,3.48V38.69c-.41,0-.82,0-1.23,0-2.12-5.41-10.74-12.49-17.49-12-12.56,1-16.92,20.4-10.39,29.62C32.72,60.1,36.18,59.5,38.66,57.2Z"/><path class="cls-3" d="M63.74,75.35c1.35-2.64,1.49-6.31,2.64-9.09,2.2-5.32,6.17-5.53,6-15.45a16.24,16.24,0,0,0,5.66-6.91c.44-1.12,1.16-1.5,1.72-2.4.3-.48.19-.71-.73-.83-4.57-.64-7.5,2.35-9.82,3.38-.63-4.63,7.55-8,12.06-5.13,2.32,1.47,4.23,5.64,2.92,10.72-1.41,5.43-6.9.77-2.92-3.11-6.47,2-6.48,7.29-2.86,10.67,2.48,2.3,5.94,2.9,9.22-.88,6.53-9.22,2.17-28.66-10.39-29.62-6.75-.52-15.37,6.56-17.49,12-.41,0-.82,0-1.23,0V78.83A5.9,5.9,0,0,0,63.74,75.35Z"/><path class="cls-4" d="M115.63,27.89c-1.47-12.58-8-21.64-20.44-25.55C86.88-.28,78.77,1.07,71.28,5.23,67,7.59,63.14,10.63,59,13.52l-.73.51c-2.15-1.74-4.42-3.78-6.89-5.54C43.7,3.06,35.27,0,25.78,1.46,12.27,3.57,2.91,13.92,1.4,28.15A62.38,62.38,0,0,0,4.34,55.58l.07.21a65.78,65.78,0,0,0,11.4,19.88c11,13.45,25.46,21.89,41.71,27.49a3.3,3.3,0,0,0,1.45.11,4.83,4.83,0,0,0,.89-.2c13.6-4.68,26-11.45,36.22-21.68C110.89,66.61,118.08,48.91,115.63,27.89Z"/></g></g></svg>