<svg xmlns="http://www.w3.org/2000/svg" viewBox="0 0 117.1 104.3"><defs><style>.cls-1,.cls-3{fill:none;}.cls-1{stroke:#c04547;stroke-miterlimit:10;stroke-width:2px;opacity:0.13;}.cls-2{fill:#d1bca1;}.cls-4{fill:#d85e50;}.cls-5{fill:#c63e34;}</style></defs><g id="Layer_2" data-name="Layer 2"><g id="Layer_5" data-name="Layer 5"><path class="cls-1" d="M115.63,27.89c-1.47-12.58-8-21.64-20.44-25.55C86.88-.28,78.77,1.07,71.28,5.23,67,7.59,63.14,10.63,59,13.52l-.73.51c-2.15-1.74-4.42-3.78-6.89-5.54C43.7,3.06,35.27,0,25.78,1.46,12.27,3.57,2.91,13.92,1.4,28.15A62.38,62.38,0,0,0,4.34,55.58l.07.21a65.78,65.78,0,0,0,11.4,19.88c11,13.45,25.46,21.89,41.71,27.49a3.3,3.3,0,0,0,1.45.11,4.14,4.14,0,0,0,.89-.21c13.6-4.67,26-11.44,36.22-21.67C110.89,66.61,118.08,48.91,115.63,27.89Z"/><path class="cls-2" d="M83.73,68.76a29.36,29.36,0,0,0,0-30.89V28.2H74.07a29.44,29.44,0,0,0-30.9,0H33.51v9.66a29.44,29.44,0,0,0,0,30.9v9.67h9.66a29.44,29.44,0,0,0,30.9,0h9.66Zm4-15.45a29,29,0,0,1-4,14.72V38.6A29,29,0,0,1,87.74,53.31ZM83.36,68.65a29.31,29.31,0,0,1-9.4,9.4H43.28a29.31,29.31,0,0,1-9.4-9.4V38a29.38,29.38,0,0,1,9.4-9.39H74A29.38,29.38,0,0,1,83.36,38Zm0-40.07v8.7a29.81,29.81,0,0,0-8.7-8.7ZM58.62,24.2a29,29,0,0,1,14.72,4H43.9A29,29,0,0,1,58.62,24.2ZM33.88,28.58h8.7a29.81,29.81,0,0,0-8.7,8.7ZM29.5,53.31a29,29,0,0,1,4-14.71V68A29,29,0,0,1,29.5,53.31Zm4.38,24.74v-8.7a29.81,29.81,0,0,0,8.7,8.7Zm24.74,4.38a29,29,0,0,1-14.72-4H73.34A29,29,0,0,1,58.62,82.43Zm16-4.38a29.81,29.81,0,0,0,8.7-8.7v8.7Z"/><path class="cls-3" d="M50.2,67.27c3,3.33,7.63,7.3,9,11.27V53H52.26C51.82,58,45.81,62.38,50.2,67.27Z"/><path class="cls-3" d="M52.26,51.27h6.91V25.77c-1.37,4-6,8-9,11.26C45.82,41.92,51.82,46.32,52.26,51.27Z"/><path class="cls-4" d="M48.34,67.27C44,62.38,51.35,58,51.8,53h7.37V51.27H51.8c-.45-5-7.85-9.35-3.46-14.24,2.95-3.3,7.6-7.28,9-11.26V21.6a6.41,6.41,0,0,0-1.21-1.89c-.75-.85-2-.72-1.45.23,2.92,4.76-8.78,13-12,17-4.2,5.25.22,9.23.69,14.38H34.85c-.89,0-1.31-1.21-1-1.85-2.49.89-5.46,1.83-8,2.73,2.55.9,5.52,1.84,8,2.73-.35-.64.07-1.85,1-1.85h8.53c-.47,5.15-4.89,9.14-.69,14.38,3.84,4.78,15.41,11.33,12,17-.59,1,.67,1.08,1.43.23a6.53,6.53,0,0,0,1.23-2v-4.1C56,74.57,51.31,70.6,48.34,67.27Z"/><path class="cls-5" d="M85.39,54.14h5.83l-2-2,2-2H85.39L57.64,22.8a5.37,5.37,0,0,0-.33-1.2v4.17a7.57,7.57,0,0,0,.31-1.2L83.68,50.16H81.62l-1.28,1.11H59.17V53H80.34l1.28,1.11h2.06L57.61,79.75a6.69,6.69,0,0,0-.3-1.21v4.1a5.12,5.12,0,0,0,.31-1.11Z"/></g></g></svg>