<svg xmlns="http://www.w3.org/2000/svg" viewBox="0 0 117.1 104.3"><defs><style>.cls-1,.cls-3{fill:none;}.cls-1{stroke:#c04547;stroke-miterlimit:10;stroke-width:2px;opacity:0.13;}.cls-2{fill:#d1bca1;}.cls-4{fill:#83c9e1;}.cls-5{fill:#5d9cb8;}</style></defs><g id="Layer_2" data-name="Layer 2"><g id="Layer_5" data-name="Layer 5"><path class="cls-1" d="M115.63,27.89c-1.47-12.58-8-21.64-20.44-25.55C86.88-.28,78.77,1.07,71.28,5.23,67,7.59,63.14,10.63,59,13.52l-.73.51c-2.15-1.74-4.42-3.78-6.89-5.54C43.7,3.06,35.27,0,25.78,1.46,12.27,3.57,2.91,13.92,1.4,28.15A62.38,62.38,0,0,0,4.34,55.58l.07.21a65.78,65.78,0,0,0,11.4,19.88c11,13.45,25.46,21.89,41.71,27.49a3.3,3.3,0,0,0,1.45.11,4.83,4.83,0,0,0,.89-.2c13.6-4.68,26-11.45,36.22-21.68C110.89,66.61,118.08,48.91,115.63,27.89Z"/><path class="cls-2" d="M85.66,69.38a31.76,31.76,0,0,0,0-33.35V25.6H75.23a31.78,31.78,0,0,0-33.36,0H31.44V36a31.76,31.76,0,0,0,0,33.35V79.81H41.87a31.78,31.78,0,0,0,33.36,0H85.66ZM90,52.7a31.28,31.28,0,0,1-4.32,15.89V36.82A31.24,31.24,0,0,1,90,52.7ZM85.25,69.26A31.58,31.58,0,0,1,75.11,79.4H42A31.58,31.58,0,0,1,31.85,69.26V36.14A31.78,31.78,0,0,1,42,26H75.11A31.78,31.78,0,0,1,85.25,36.14Zm0-43.26v9.39A32.2,32.2,0,0,0,75.86,26Zm-26.7-4.73A31.22,31.22,0,0,1,74.44,25.6H42.66A31.22,31.22,0,0,1,58.55,21.27ZM31.85,26h9.39a32.2,32.2,0,0,0-9.39,9.39ZM27.12,52.7a31.24,31.24,0,0,1,4.32-15.88V68.59A31.28,31.28,0,0,1,27.12,52.7Zm4.73,26.7V70a32.08,32.08,0,0,0,9.39,9.39Zm26.7,4.73a31.31,31.31,0,0,1-15.89-4.32H74.44A31.31,31.31,0,0,1,58.55,84.13ZM75.86,79.4A32.08,32.08,0,0,0,85.25,70V79.4Z"/><polygon class="cls-3" points="37.64 55.61 44.95 55.61 37.64 39.9 37.64 55.61"/><polygon class="cls-3" points="36.4 55.61 36.4 40.07 29.17 55.61 36.4 55.61"/><path class="cls-4" d="M56.8,29.26h-3v1.92H47.27l-1.93,2.1H37a3.2,3.2,0,0,0-1.61,6q-4,8.52-7.94,17c3.08,9,16.2,9,19.29,0q-4-8.57-8-17.14a3.19,3.19,0,0,0,1.44-2.67,2.63,2.63,0,0,0,0-.57H54.7A3.32,3.32,0,0,0,56,37.43V71.71H53.75v1.6H50.1L48.53,75H45.22c-.77,1-1.55,2-2.32,3H58.55V22C58,24.41,57.38,26.83,56.8,29.26ZM36.4,55.61H29.17L36.4,40.07Zm8.56,0H37.64V39.9Z"/><path class="cls-5" d="M71.88,75H68.57L67,73.31H63.35v-1.6H61.13V37.43a3.32,3.32,0,0,0,1.27-1.52H77a2.69,2.69,0,0,0,0,.57,3.19,3.19,0,0,0,1.44,2.67q-4,8.57-8,17.14c3.09,9,16.21,9,19.3,0l-8-17a3.2,3.2,0,0,0-1.61-6H71.76l-1.93-2.1H63.35V29.26h-3c-.59-2.43-1.17-4.85-1.76-7.28h0V78H74.2C73.43,77,72.65,76,71.88,75Zm8.74-35.1,7.32,15.7H80.62Zm-1.23,15.7H72.15l7.24-15.54Z"/></g></g></svg>