<svg xmlns="http://www.w3.org/2000/svg" viewBox="0 0 117.1 104.3"><defs><style>.cls-1{fill:#d1bca1;}.cls-2,.cls-5{fill:none;}.cls-3{fill:#83c9e1;}.cls-4{fill:#5d9cb8;}.cls-5{stroke:#c04547;stroke-miterlimit:10;stroke-width:2px;opacity:0.13;}</style></defs><g id="Layer_2" data-name="Layer 2"><g id="Layer_5" data-name="Layer 5"><path class="cls-1" d="M86.46,72a31.92,31.92,0,0,0,0-33.54V28H76a31.92,31.92,0,0,0-33.54,0H32V38.49A31.92,31.92,0,0,0,32,72V82.51H42.44a31.92,31.92,0,0,0,33.54,0H86.46Zm4.35-16.77a31.37,31.37,0,0,1-4.35,16V39.29A31.4,31.4,0,0,1,90.81,55.26ZM86.05,71.91a31.82,31.82,0,0,1-10.19,10.2H42.56a32,32,0,0,1-10.2-10.2V38.61a31.92,31.92,0,0,1,10.2-10.19h33.3A31.79,31.79,0,0,1,86.05,38.61Zm0-43.49v9.44a32.17,32.17,0,0,0-9.44-9.44ZM59.21,23.66a31.4,31.4,0,0,1,16,4.35H43.24A31.37,31.37,0,0,1,59.21,23.66ZM32.36,28.42h9.45a32.33,32.33,0,0,0-9.45,9.44ZM27.61,55.26a31.4,31.4,0,0,1,4.35-16V71.23A31.37,31.37,0,0,1,27.61,55.26Zm4.75,26.85V72.67a32.45,32.45,0,0,0,9.45,9.44Zm26.85,4.75a31.37,31.37,0,0,1-16-4.35H75.18A31.4,31.4,0,0,1,59.21,86.86Zm17.4-4.75a32.21,32.21,0,0,0,9.44-9.45v9.45Z"/><path class="cls-2" d="M54.57,62.75l0-6.6C47.32,55.79,50.32,60.47,54.57,62.75Z"/><path class="cls-3" d="M54.55,56.15l-.06-26.32c-3.89,2.43-9.16,7.88-11,11.48-2.78,1.52-6.56,3.86-7.58,7-.84,2.55,1.16,4.53.36,7s-4.73,4.61-5.57,7.16,1.68,4.67.88,7.14-4.73,4.61-5.57,7.16,1.68,4.68.88,7.14h2.5c.84-2.55-1.61-4.68-.8-7.15s4.65-4.61,5.49-7.16-1.61-4.67-.8-7.14,4.65-4.61,5.49-7.16c1.18-3.6-3.49-5.58.61-9.57-2.8,4.53.9,6,.26,9.57-.44,2.47-4,4.61-4.49,7.16s2.38,4.67,1.94,7.14-4,4.6-4.49,7.15,2.38,4.68,1.94,7.14h2.5c.46-2.55-2.31-4.68-1.87-7.14s4-4.61,4.42-7.16-2.31-4.68-1.87-7.14,4-4.61,4.42-7.15c.63-3.54-4.11-5.91-.62-9.92-2.37,4.8,1.7,6,1.54,9.91-.1,2.47-3.41,4.61-3.51,7.16s3,4.67,2.92,7.13S39.1,74.17,39,76.72s3,4.67,2.92,7.14h2.51c.1-2.55-3-4.67-2.86-7.14s3.34-4.6,3.44-7.15-2.95-4.68-2.85-7.14,3.34-4.61,3.44-7.15-3-5-2.93-7.5a8.43,8.43,0,0,1,.95-3.19c.74.31,2.06.2,4.13-.49,3.14-.51,5,4.68,6.67,9.76-12,0-7.44,8.37.16,11.58V62.75C50.32,60.47,47.32,55.79,54.55,56.15Z"/><path class="cls-4" d="M61.87,66.58c5.92,4.35,14.39,6.12,21.34,9.58,2.75-.69,6.7-4.66,7.38-7.41-3.5-6.94-5.3-15.39-9.69-21.29,1-10.7-13.05-23.33-12.76-7.4-5.09-1.59-10.29-3.48-9.79-6.62,1.84-5.56-.49-5.71-3.86-3.61l.06,26.32.61,0c.91,2.88,1.75,5.49,3.79,7.76a8.89,8.89,0,0,1-4.38-1.2v2.68A14.19,14.19,0,0,0,61.87,66.58Zm16.4-22c-2.28-2-4.9-2.86-7.79-3.76C70.2,31.08,78.48,39.08,78.27,44.55Z"/><path class="cls-5" d="M115.63,27.89c-1.47-12.58-8-21.64-20.44-25.55C86.88-.28,78.77,1.07,71.28,5.23,67,7.59,63.14,10.63,59,13.52l-.73.51c-2.15-1.74-4.42-3.78-6.89-5.54C43.7,3.06,35.27,0,25.78,1.46,12.27,3.57,2.91,13.92,1.4,28.15A62.38,62.38,0,0,0,4.34,55.58l.07.21a65.78,65.78,0,0,0,11.4,19.88c11,13.45,25.46,21.89,41.71,27.49a3.3,3.3,0,0,0,1.45.11,4.14,4.14,0,0,0,.89-.21c13.6-4.67,26-11.44,36.22-21.67C110.89,66.61,118.08,48.91,115.63,27.89Z"/></g></g></svg>