<svg xmlns="http://www.w3.org/2000/svg" viewBox="0 0 117.1 104.3"><defs><style>.cls-1{fill:none;stroke:#c04547;stroke-miterlimit:10;stroke-width:2px;opacity:0.13;}.cls-2{fill:#d1bca1;}.cls-3{fill:#68b680;}.cls-4{fill:#59815b;}</style></defs><g id="Layer_2" data-name="Layer 2"><g id="Layer_5" data-name="Layer 5"><path class="cls-1" d="M115.63,27.89c-1.47-12.58-8-21.64-20.44-25.55C86.88-.28,78.77,1.07,71.28,5.23,67,7.59,63.14,10.63,59,13.52l-.73.51c-2.15-1.74-4.42-3.78-6.89-5.54C43.7,3.06,35.27,0,25.78,1.46,12.27,3.57,2.91,13.92,1.4,28.15A62.38,62.38,0,0,0,4.34,55.58l.07.21a65.78,65.78,0,0,0,11.4,19.88c11,13.45,25.46,21.89,41.71,27.49a3.3,3.3,0,0,0,1.45.11,4.83,4.83,0,0,0,.89-.2c13.6-4.68,26-11.45,36.22-21.68C110.89,66.61,118.08,48.91,115.63,27.89Z"/><path class="cls-2" d="M82.67,66.49a28.81,28.81,0,0,0,0-30.25V26.78H73.21a28.83,28.83,0,0,0-30.26,0H33.5v9.46a28.75,28.75,0,0,0,0,30.25V76H43a28.77,28.77,0,0,0,30.26,0h9.46Zm3.92-15.12a28.36,28.36,0,0,1-3.92,14.41V37A28.3,28.3,0,0,1,86.59,51.37Zm-4.29,15a28.77,28.77,0,0,1-9.2,9.2h-30a28.87,28.87,0,0,1-9.2-9.2v-30a28.77,28.77,0,0,1,9.2-9.2h30a28.67,28.67,0,0,1,9.2,9.2Zm0-39.24v8.52a29.07,29.07,0,0,0-8.52-8.52Zm-24.22-4.3a28.31,28.31,0,0,1,14.41,3.93H43.67A28.34,28.34,0,0,1,58.08,22.85Zm-24.22,4.3h8.52a29.19,29.19,0,0,0-8.52,8.52ZM29.57,51.37A28.31,28.31,0,0,1,33.5,37V65.78A28.37,28.37,0,0,1,29.57,51.37Zm4.29,24.22V67.07a29.31,29.31,0,0,0,8.52,8.52Zm24.22,4.29A28.34,28.34,0,0,1,43.67,76H72.49A28.31,28.31,0,0,1,58.08,79.88Zm15.7-4.29a29.19,29.19,0,0,0,8.52-8.52v8.52Z"/><path class="cls-3" d="M29.57,49.71A12,12,0,0,0,36,52.13c2.69,0,5-1.23,6.34-1.27,1.33,9.36,5.91,14.82,6.84,18.46-1.42,2.48,0,6.72,2.37,6.76.79,2.13,3.92,3.19,7,3.19v-43c-1.17,0-2.33,0-3.57-.12-3.57-.23-7.86-.32-10,1.27-13-.71-16.46-6.61-14.41-19.17C21.65,26,22.13,41,35.18,44.6c-1.56.38-3,.67-4.65,1.15C26.31,46.86,27.57,48.29,29.57,49.71Z"/><path class="cls-4" d="M65.6,76.08c2.33,0,3.79-4.28,2.37-6.76.93-3.64,5.51-9.1,6.84-18.46,1.33,0,3.65,1.31,6.34,1.27a12,12,0,0,0,6.38-2.42c2-1.42,3.25-2.85-1-4-1.66-.48-3.09-.77-4.65-1.15C95,41,95.45,26,86.58,18.24c2,12.56-1.39,18.46-14.41,19.18-2.19-1.6-6.48-1.51-10.05-1.28-1.24.08-2.4.12-3.57.12v43C61.68,79.27,64.81,78.21,65.6,76.08Z"/></g></g></svg>