<svg xmlns="http://www.w3.org/2000/svg" viewBox="0 0 145.77 145.77"><defs><style>.cls-1{fill:#c93f3f;}.cls-2{fill:#e5aab1;}.cls-3{fill:#fff;}</style></defs><g id="Layer_2" data-name="Layer 2"><g id="Layer_5" data-name="Layer 5"><circle class="cls-1" cx="72.88" cy="72.88" r="72.88"/><path class="cls-2" d="M111.57,111.46H34.15V34h77.42ZM34.66,111h76.4V34.55H34.66Z"/><path class="cls-2" d="M72.86,127.49l-.18-.18L18.12,72.75l.18-.18L72.86,18l.18.18L127.6,72.75l-.18.18Zm-54-54.74,54,54,54-54-54-54Z"/><path class="cls-2" d="M92.58,123.82,21.79,92.47,53.14,21.68l.23.1L123.93,53l-.1.23ZM22.46,92.21l69.86,30.94,30.94-69.86L53.4,22.35Z"/><path class="cls-2" d="M50.69,122.8l-.09-.23-27.79-72,.23-.09L95,22.7l27.88,72.22ZM23.46,50.87,51,122.15l71.28-27.52L94.74,23.35Z"/><path class="cls-2" d="M92,91.85H53.76V53.65H92Zm-37.69-.51H91.45V54.16H54.27Z"/><path class="cls-2" d="M72.86,99.76l-.18-.18L45.86,72.75l.17-.18L72.86,45.74l27,27-.18.18Zm-26.29-27L72.86,99,99.15,72.75,72.86,46.46Z"/><path class="cls-2" d="M82.59,97.94,47.67,82.48,63.13,47.56l.23.1L98.05,63l-.1.23ZM48.33,82.22l34,15.06,15.06-34-34-15.06Z"/><path class="cls-2" d="M61.92,97.44,48.17,61.81,83.8,48.06,97.55,83.68ZM48.82,62.1,62.21,96.79,96.9,83.4,83.51,48.71Z"/><path class="cls-2" d="M72.86,79.36a6.62,6.62,0,1,1,6.62-6.61A6.62,6.62,0,0,1,72.86,79.36Zm0-12.72A6.11,6.11,0,1,0,79,72.75,6.12,6.12,0,0,0,72.86,66.64Z"/><path class="cls-2" d="M73.79,72.75a.93.93,0,1,1-.93-.93A.93.93,0,0,1,73.79,72.75Z"/><path class="cls-2" d="M73.81,46.16a.93.93,0,0,1-1.86,0,.93.93,0,1,1,1.86,0Z"/><path class="cls-2" d="M64.23,48A.93.93,0,1,1,63.3,47,.93.93,0,0,1,64.23,48Z"/><path class="cls-2" d="M55,54A.93.93,0,1,1,54,53,.93.93,0,0,1,55,54Z"/><path class="cls-2" d="M49.45,62a.93.93,0,1,1-.93-.93A.93.93,0,0,1,49.45,62Z"/><path class="cls-2" d="M47.16,72.78a.93.93,0,1,1-.93-.93A.93.93,0,0,1,47.16,72.78Z"/><path class="cls-2" d="M49,82.32a.93.93,0,1,1-.92-.92A.92.92,0,0,1,49,82.32Z"/><path class="cls-2" d="M55,91.6a.93.93,0,1,1-.93-.92A.93.93,0,0,1,55,91.6Z"/><path class="cls-2" d="M63,97.14a.93.93,0,1,1-.92-.93A.93.93,0,0,1,63,97.14Z"/><path class="cls-2" d="M73.81,99.43a.93.93,0,1,1-.93-.93A.93.93,0,0,1,73.81,99.43Z"/><path class="cls-2" d="M83.39,97.64a.93.93,0,1,1-.93-.93A.93.93,0,0,1,83.39,97.64Z"/><path class="cls-2" d="M92.64,91.6a.93.93,0,1,1-.93-.92A.93.93,0,0,1,92.64,91.6Z"/><path class="cls-2" d="M98.14,83.55a.93.93,0,1,1-.93-.93A.93.93,0,0,1,98.14,83.55Z"/><path class="cls-2" d="M100.39,72.81a.93.93,0,1,1-.93-.93A.93.93,0,0,1,100.39,72.81Z"/><path class="cls-2" d="M98.64,63.2a.93.93,0,1,1-.93-.93A.93.93,0,0,1,98.64,63.2Z"/><path class="cls-2" d="M84.55,48.45a.93.93,0,1,1-.93-.93A.93.93,0,0,1,84.55,48.45Z"/><path class="cls-2" d="M92.6,53.89a.93.93,0,1,1-.92-.93A.92.92,0,0,1,92.6,53.89Z"/><path class="cls-2" d="M95.76,23.15a.93.93,0,1,1-.93-.93A.93.93,0,0,1,95.76,23.15Z"/><path class="cls-2" d="M112.2,34.35a.93.93,0,1,1-.93-.93A.92.92,0,0,1,112.2,34.35Z"/><path class="cls-2" d="M124.47,53.18a.93.93,0,1,1-.93-.93A.93.93,0,0,1,124.47,53.18Z"/><path class="cls-2" d="M127.25,73.73a.93.93,0,1,1,.93-.93A.93.93,0,0,1,127.25,73.73Z"/><path class="cls-2" d="M122.54,95.61a.93.93,0,1,1,.93-.93A.93.93,0,0,1,122.54,95.61Z"/><path class="cls-2" d="M18.52,73.67a.93.93,0,1,1,.92-.92A.92.92,0,0,1,18.52,73.67Z"/><path class="cls-2" d="M22.18,93.29a.93.93,0,1,1,.93-.93A.93.93,0,0,1,22.18,93.29Z"/><path class="cls-2" d="M23.17,51.66a.93.93,0,1,1,.93-.93A.93.93,0,0,1,23.17,51.66Z"/><path class="cls-2" d="M34.44,35.28a.93.93,0,1,1,.93-.93A.92.92,0,0,1,34.44,35.28Z"/><path class="cls-2" d="M53.34,23a.93.93,0,1,1,.92-.93A.92.92,0,0,1,53.34,23Z"/><path class="cls-2" d="M72.9,19.33a.93.93,0,1,1,.93-.93A.93.93,0,0,1,72.9,19.33Z"/><path class="cls-2" d="M64.24,27.85a.93.93,0,1,1,.93-.92A.93.93,0,0,1,64.24,27.85Z"/><path class="cls-2" d="M82.36,28.83a.93.93,0,1,1,.93-.93A.93.93,0,0,1,82.36,28.83Z"/><path class="cls-2" d="M99.24,35.19a.93.93,0,1,1,.93-.93A.92.92,0,0,1,99.24,35.19Z"/><path class="cls-2" d="M111.35,48.71a.93.93,0,1,1,.93-.92A.92.92,0,0,1,111.35,48.71Z"/><path class="cls-2" d="M118.69,65.24a.93.93,0,1,1,.93-.92A.93.93,0,0,1,118.69,65.24Z"/><path class="cls-2" d="M117.72,83.1a.93.93,0,1,1,.93-.93A.93.93,0,0,1,117.72,83.1Z"/><path class="cls-2" d="M111.27,100a.93.93,0,1,1,.92-.93A.92.92,0,0,1,111.27,100Z"/><path class="cls-2" d="M34.37,98.83a.93.93,0,1,1,.93-.93A.93.93,0,0,1,34.37,98.83Z"/><path class="cls-2" d="M27.12,82.39a.93.93,0,1,1,.93-.93A.93.93,0,0,1,27.12,82.39Z"/><path class="cls-2" d="M28,64.18a.93.93,0,1,1,.93-.92A.92.92,0,0,1,28,64.18Z"/><path class="cls-2" d="M34.37,47.48a.93.93,0,1,1,.93-.93A.93.93,0,0,1,34.37,47.48Z"/><path class="cls-2" d="M47.8,35.28a.93.93,0,1,1,.93-.93A.93.93,0,0,1,47.8,35.28Z"/><g id="_3" data-name="3"><path class="cls-3" d="M58.53,121.09q-8.36,0-13.42-3a18.54,18.54,0,0,1-9.62-15.88,17.58,17.58,0,0,1,1.27-6.52,13.41,13.41,0,0,1,3.73-5.38,9.17,9.17,0,0,1,6.27-2.15c.42,0,.92,0,1.52.06s1.56.19,2.91.44a13,13,0,0,0-3.86,5.44A17.85,17.85,0,0,0,45.87,101a14.69,14.69,0,0,0,1.71,6.84,14.35,14.35,0,0,0,4.81,5.37,12.44,12.44,0,0,0,7.15,2.09A15.93,15.93,0,0,0,69,112a24.92,24.92,0,0,0,7.54-9.17,29.56,29.56,0,0,0,3-13.49A31.24,31.24,0,0,0,78,79.76a20.81,20.81,0,0,0-5.25-8.48A21.6,21.6,0,0,0,62.45,65.9,37.23,37.23,0,0,0,74.6,57.67a40.23,40.23,0,0,0,7.85-11.2,26.77,26.77,0,0,0,2.79-11.21q0-6.19-3.55-8.67a13.46,13.46,0,0,0-7.85-2.46,16.58,16.58,0,0,0-6.64,1.39,13.26,13.26,0,0,0-5.32,4.11,10.43,10.43,0,0,0-2.09,6.52,15.11,15.11,0,0,0,.64,4.24,20.67,20.67,0,0,0,1.9,4.49,9.23,9.23,0,0,1-2.6,3,5.83,5.83,0,0,1-3.61,1.45A4,4,0,0,1,53,47.61a11.34,11.34,0,0,1-2.09-4.31,19.85,19.85,0,0,1-.7-5.12A15.5,15.5,0,0,1,53.84,27.8a23.5,23.5,0,0,1,9.5-6.59,32.88,32.88,0,0,1,12-2.27,26.63,26.63,0,0,1,10.32,2,19.81,19.81,0,0,1,8,6,15.29,15.29,0,0,1,3.16,9.81,24.24,24.24,0,0,1-1.45,8,31.55,31.55,0,0,1-4.18,8,35.69,35.69,0,0,1-6.46,6.84,31.42,31.42,0,0,1-8.16,4.81,26.24,26.24,0,0,1,10.63,6.33,24.43,24.43,0,0,1,5.63,8.79,27.07,27.07,0,0,1,1.71,9.18A28,28,0,0,1,92,100.26a34.23,34.23,0,0,1-7.47,10.51,36.59,36.59,0,0,1-26,10.32Z"/></g></g></g></svg>